<svg id="Layer_3" height="512" viewBox="0 0 64 64" width="512" xmlns="http://www.w3.org/2000/svg" data-name="Layer 3"><path d="m50 62 12-12v-46a2 2 0 0 0 -2-2h-56a2 2 0 0 0 -2 2v56a2 2 0 0 0 2 2z" fill="#e2e7f6"/><path d="m4 2a2 2 0 0 0 -2 2v53h53v-55z" fill="#f7fafd"/><path d="m60 2h-56a2 2 0 0 0 -2 2v6h60v-6a2 2 0 0 0 -2-2z" fill="#3b5892"/><path d="m59 7v-5h-55a2 2 0 0 0 -2 2v3z" fill="#4c6cb5"/><rect fill="#78a0d4" height="22" rx="2" width="22" x="6" y="14"/><path d="m23.638 30v-16h-15.638a2 2 0 0 0 -2 2v16h15.638a2 2 0 0 0 2-2z" fill="#8cb6e5"/><path d="m57 5h2v2h-2z" fill="#78a0d4"/><path d="m49 5h6v2h-6z" fill="#78a0d4"/><circle cx="17" cy="22" fill="#4c6cb5" r="4"/><g fill="#c8cded"><path d="m8 41h2v2h-2z"/><path d="m8 45h2v2h-2z"/><path d="m8 49h2v2h-2z"/><path d="m8 53h2v2h-2z"/><path d="m12 41h14v2h-14z"/><path d="m12 45h14v2h-14z"/><path d="m12 49h14v2h-14z"/><path d="m12 53h14v2h-14z"/></g><path d="m42 43h4v13h-4z" fill="#f4a93c"/><path d="m42 43h2v10h-2z" fill="#f6b940"/><path d="m34 38h4v18h-4z" fill="#b52f28"/><path d="m34 38h2v15h-2z" fill="#d23f34"/><path d="m50 45h4v11h-4z" fill="#3b5892"/><path d="m50 45h2v8h-2z" fill="#4c6cb5"/><path d="m50 62v-12h12z" fill="#c8cded"/><path d="m30 55h20v2h-20z" fill="#4c6cb5"/><path d="m37 14h16v12h-16z" fill="#5e87ca"/><path d="m37 14h13v9h-13z" fill="#78a0d4"/><path d="m40 17h10v2h-10z" fill="#e2e7f6"/><path d="m40 21h10v2h-10z" fill="#e2e7f6"/><path d="m36 29h2v2h-2z" fill="#c8cded"/><path d="m36 33h2v2h-2z" fill="#c8cded"/><path d="m40 29h14v2h-14z" fill="#c8cded"/><path d="m40 33h14v2h-14z" fill="#c8cded"/><path d="m17 26a5 5 0 0 1 5 5v1a0 0 0 0 1 0 0h-10a0 0 0 0 1 0 0v-1a5 5 0 0 1 5-5z" fill="#4c6cb5"/><path d="m56.998 5h2v2h-2z"/><path d="m48.998 5h6v2h-6z"/><path d="m26 13h-18a3 3 0 0 0 -3 3v18a3 3 0 0 0 3 3h18a3 3 0 0 0 3-3v-18a3 3 0 0 0 -3-3zm1 21a1 1 0 0 1 -1 1h-18a1 1 0 0 1 -1-1v-18a1 1 0 0 1 1-1h18a1 1 0 0 1 1 1z"/><path d="m7.998 41h2v2h-2z"/><path d="m7.998 45h2v2h-2z"/><path d="m7.998 49h2v2h-2z"/><path d="m7.998 53h2v2h-2z"/><path d="m11.998 41h14v2h-14z"/><path d="m11.998 45h14v2h-14z"/><path d="m11.998 49h14v2h-14z"/><path d="m11.998 53h14v2h-14z"/><path d="m60 1h-56a3 3 0 0 0 -3 3v56a3 3 0 0 0 3 3h46a1 1 0 0 0 .707-.293l12-12a1 1 0 0 0 .293-.707v-46a3 3 0 0 0 -3-3zm-56 2h56a1 1 0 0 1 1 1v5h-58v-5a1 1 0 0 1 1-1zm-1 57v-49h58v38h-6v-4a1 1 0 0 0 -1-1h-4a1 1 0 0 0 -1 1v10h-2v-12a1 1 0 0 0 -1-1h-4a1 1 0 0 0 -1 1v12h-2v-17a1 1 0 0 0 -1-1h-4a1 1 0 0 0 -1 1v17h-3v2h19v4h-45a1 1 0 0 1 -1-1zm50-11h-2v-3h2zm-2 2h8.585l-8.585 8.586zm-6 4h-2v-11h2zm-8 0h-2v-16h2z"/><path d="m37 27h16a1 1 0 0 0 1-1v-12a1 1 0 0 0 -1-1h-16a1 1 0 0 0 -1 1v12a1 1 0 0 0 1 1zm1-12h14v10h-14z"/><path d="m39.998 17h10v2h-10z"/><path d="m39.998 21h10v2h-10z"/><path d="m35.998 29h2v2h-2z"/><path d="m35.998 33h2v2h-2z"/><path d="m39.998 29h14v2h-14z"/><path d="m39.998 33h14v2h-14z"/><path d="m20.111 25.881a5 5 0 1 0 -6.227 0 6 6 0 0 0 -2.884 5.119v1a1 1 0 0 0 1 1h10a1 1 0 0 0 1-1v-1a6 6 0 0 0 -2.889-5.119zm-6.111-3.881a3 3 0 1 1 3 3 3 3 0 0 1 -3-3zm-1 9a4 4 0 0 1 8 0z"/></svg>