<?xml version="1.0" encoding="utf-8"?>
<!-- Generator: Adobe Illustrator 23.0.2, SVG Export Plug-In . SVG Version: 6.00 Build 0)  -->
<svg version="1.1" id="Capa_1" xmlns="http://www.w3.org/2000/svg" xmlns:xlink="http://www.w3.org/1999/xlink" x="0px" y="0px"
	 viewBox="0 0 529.1 530.8" style="enable-background:new 0 0 529.1 530.8;" xml:space="preserve">
<style type="text/css">
	.st0{fill:#064179;}
	.st1{fill:#EF7F06;}
	.st2{fill:#0B447B;}
	.st3{fill:#EF7F07;}
	.st4{fill:#0A437A;}
	.st5{fill:#0B457B;}
	.st6{fill:#134A7F;}
	.st7{fill:#164D81;}
	.st8{fill:#2C5C8B;}
</style>
<g>
	<path class="st0" d="M357.7,487.4c1,3.1,1.6,6.1,3.1,8.6c1,1.7,2.9,3.5,4.8,4.2c2.8,1,4.8-0.4,6.5-3c10.3-16.6,20.9-33,31.3-49.6
		c3-4.8,6.8-7,12.9-6.9c12.3,0.3,24.5,0.1,37.3,0.1c2.1,25.3,4.1,50.4,6.2,75.8c-10.3,0-20.3,0-31,0c-0.5-19.4-0.9-38.7-1.4-59.1
		c-1.1,1.6-1.9,2.6-2.4,3.5c-10.5,17.6-21.1,35.1-31.6,52.8c-1.3,2.3-2.8,3.2-5.6,3.1c-12.6-0.1-25.2,0-37.8,0
		c-7.8,0-10.9-2.1-13.3-9c-3.5-10-7-20-10.7-30.8c4.2,0,7.8,0.1,11.3,0c7.9-0.3,12.7-6.1,11.1-13.3c-0.6-2.8-2.2-4.6-5.6-4.5
		c-0.3,0-0.6,0-0.9,0c-4.7,0.1-10.5-1.4-13.7,0.7c-2.9,1.9-3.1,7.5-4.3,11.6c-4.2,14-8.3,27.9-12.5,41.9c-0.3,1.1-0.7,2.1-1.1,3.2
		c-10.3,0-20.4,0-31.2,0c1.9-6.6,3.7-12.9,5.5-19.3c5.1-17.7,10.3-35.3,15.3-53c0.8-2.8,1.9-3.8,5.2-3.8c17.9,0.2,35.8,0.5,53.7,0
		c12.4-0.4,18.3,8.1,19,16.9C378.8,471.8,372.5,481.1,357.7,487.4z"/>
	<path class="st0" d="M96.6,517c4.2-13.6,8.2-26.9,12.3-40.1c3.4-10.9,6.9-21.9,10.1-32.9c0.7-2.3,1.6-3.2,4.2-3.2
		c8.5,0.2,17,0,25.5,0.1c7,0.1,10.1,2.4,11.6,8.8c2.2,8.8,4.3,17.6,6.8,27.7c4.1-12.8,7.8-24.5,11.5-36.3c10.3,0,20.4,0,31.1,0
		c-1.8,6.4-3.5,12.6-5.3,18.8c-5.1,17.7-10.1,35.3-15.2,53c-0.8,2.7-1.8,4.3-5.4,4.1c-7.4-0.4-14.8-0.1-22.3-0.1
		c-8-0.1-11.2-2.7-12.5-10c-2-10.5-4.2-20.9-7.1-31.5c-2.4,7.3-4.8,14.7-7.2,22c-1.8,5.7-3.5,11.3-5.5,17c-0.4,1-1.8,2.4-2.8,2.4
		C116.6,517.1,106.8,517,96.6,517z"/>
	<path class="st0" d="M201.3,516.8c3.5-11.6,6.9-23,10.3-34.3c3.5-11.7,7-23.3,10.5-34.9c1.1-3.7,3.4-6.5,7.8-6.6
		c20.4-0.1,40.9,0,61.9,0c-1.8,5.8-3.3,11.4-5.2,16.8c-0.3,0.9-2.5,1.7-3.8,1.7c-10.1,0.1-20.3,0.1-30.8,0.1
		c-1.3,4.4-2.6,8.6-4.1,13.4c11.4,0,22.2,0,33.8,0c-1.9,6.3-3.6,12.1-5.5,17.8c-0.2,0.6-2.3,1-3.5,1c-8.9,0.1-17.9,0.2-26.8,0
		c-2.8-0.1-4,0.9-4.7,3.3c-2.1,7.3-4.3,14.6-6.5,21.8C223.4,516.8,212.5,516.8,201.3,516.8z"/>
	<path class="st0" d="M73.1,441.1c10.3,0,20.4,0,31,0c-7.2,25.4-14.4,50.5-21.5,75.7c-10.3,0-20.4,0-31,0
		C58.8,491.4,65.9,466.3,73.1,441.1z"/>
	<path class="st1" d="M77.5,212.3c10.9,10.3,20.8,19.8,30.8,29.2c19.7,18.5,39.4,37.1,59.4,55.4c4.2,3.8,5.7,7.2,3.7,12.6
		c-3,8-5.1,16.2-7.9,25.5c-11-10-21.2-19.2-31.4-28.5c-20.5-18.6-40.8-37.3-61.5-55.7c-3.4-3-4.3-5.5-2.7-9.7
		C71.3,232.1,74,223,77.5,212.3z"/>
	<path class="st2" d="M396,368.2c-30.7-30.1-59.9-58.6-88.8-87.3c-1.8-1.8-2.3-6-1.4-8.5c1.4-4.4,0.9-7.3-2.6-10.7
		c-21.2-20.9-42.1-42-62.4-64.2c2.4,1.2,5.1,2.1,7,3.8c51.4,44.4,102.8,88.8,153.9,133.4c2.1,1.8,3.4,6,2.8,8.6
		C402.4,351.2,399.2,358.9,396,368.2z"/>
	<path class="st2" d="M227.3,232.8c1.9,1.4,3.9,2.7,5.7,4.2c51.7,43.1,103.4,86.2,155.2,129.2c4.2,3.5,5.5,6.3,1.4,10.3
		c-5.6,5.5-11,11.2-17.1,17.4c-10.4-10.1-19.6-19.1-28.8-28.1c-15.5-15.3-30.9-30.6-46.5-45.8c-3-2.9-5-5.3-2.8-9.6
		c2.6-5,1-8.9-3.5-13.1c-20.3-19.1-40.1-38.6-60.1-58c-1.7-1.7-3.4-3.4-5.1-5.2C226.3,233.7,226.8,233.2,227.3,232.8z"/>
	<path class="st1" d="M224.5,35.2c16.2,0,31.6-0.1,47,0.1c2.3,0,5,1.2,6.7,2.6c24.4,22,48.7,44.2,73,66.4c0.3,0.3,0.3,0.9,0.9,2.6
		c-16.5,0-32.6,0.1-48.8-0.1c-1.7,0-3.7-1.4-5-2.6c-24.3-22.1-48.6-44.3-72.8-66.5C225.1,37.4,225.1,36.8,224.5,35.2z"/>
	<path class="st3" d="M189,249.3c-23.7-19.6-46.6-38.4-69.4-57.3c-7.7-6.4-15.2-12.9-23.1-19c-3.8-2.9-5.1-5.6-3.4-10.2
		c3.5-9,6.1-18.2,9.9-29.7c5.4,5.5,9.7,10.2,14.3,14.7c24.6,23.7,49.2,47.5,74.2,70.9c4.4,4.1,5.1,7.6,3.2,12.6
		C192.7,236.8,191.1,242.5,189,249.3z"/>
	<path class="st1" d="M212.3,170.8c-19.1-15.9-37.1-31-55.2-46.1c-11.5-9.6-22.7-19.4-34.5-28.7c-4.5-3.5-5.9-6.8-3.5-11.6
		c4.2-8.2,8.4-16.4,13.3-25.9c21.6,21.3,41.4,40.9,61.1,60.4c7.1,7,13.9,14.2,21.3,20.8c4.3,3.9,5.2,7.6,3.1,12.8
		C215.8,157.9,214.5,163.6,212.3,170.8z"/>
	<path class="st1" d="M200.6,210.1c-11.9-10-23.1-19.4-34.2-28.8c-19-16.1-37.9-32.3-57.1-48.3c-3.6-3-5.1-5.5-3.3-10.2
		c3.4-8.9,5.8-18.1,7.9-24.9c12,10.1,24.9,20.2,36.7,31.2c17.8,16.5,34.7,33.9,52.3,50.6c4.2,4,5.2,7.7,3.2,12.8
		C204,197.9,202.6,203.6,200.6,210.1z"/>
	<path class="st2" d="M270,126.7c47.8,42.4,95.2,85.2,143.6,126.9c10.9,9.4,15.3,17.6,8.6,30.2c-1.7,3.2-2.1,6.9-3.4,11.7
		c-12.1-12.1-23.1-23.2-34.1-34.2c-17.8-18-35.7-36-53.4-54c-1.8-1.8-4.5-4.9-3.9-6.4c3.1-7.8-2.6-11.7-6.9-16.4
		c-17.3-18.7-34.6-37.5-51.9-56.2C269,127.7,269.5,127.2,270,126.7z"/>
	<path class="st1" d="M177.9,286.8c-32.7-25.8-64.3-50.7-95.8-75.8c-1.5-1.2-2.5-4.3-2-6.1c2.7-9.7,6-19.3,9.4-29.9
		c2.3,1.7,4,2.8,5.5,4.2c28.2,26.4,56.3,52.9,84.8,79.1c4.1,3.8,5,7,3.2,11.8C181.2,275.2,179.9,280.3,177.9,286.8z"/>
	<path class="st2" d="M408.1,331.7c-30.9-30.5-60.7-59.9-90.3-89.5c-1.5-1.5-1.9-5-1.1-7c2-4.8,0.3-7.7-3.3-11.1
		c-13.7-13.2-27.2-26.6-40.6-40.1c-2-2-3.6-4.2-5.5-6.3c0.6-0.6,1.3-1.2,1.9-1.8c2.3,1.9,4.6,3.7,6.8,5.6
		c44.3,38.5,88.4,77.2,132.8,115.6c5.2,4.5,8.6,8.3,4.9,15.5C411,318,410.2,324.3,408.1,331.7z"/>
	<path class="st1" d="M234.9,108.4c-4.8,9-8.9,16.6-13.5,25c-26.4-26.3-53.4-53.2-81.3-81c4.8-2.6,13.3-7.5,22.2-11.8
		c1.6-0.7,5.5,0.8,7.1,2.4C191.7,65.2,213.9,87.4,234.9,108.4z"/>
	<path class="st4" d="M429.7,257.9c-20.8-21.6-40.7-42.4-60.7-63.3c-8.9-9.3-18.1-18.5-26.6-28.2c-2.1-2.4-3.4-6.9-2.5-9.7
		c1.4-4.5,0.4-7.4-2.8-10.6c-6.9-7.2-13.5-14.7-18.8-23.5c2,1.6,4.1,3,5.9,4.7c36.3,32.5,72.4,65,108.8,97.4c3.8,3.4,5,6.5,3.4,11.2
		C434,242.6,432.2,249.6,429.7,257.9z"/>
	<path class="st4" d="M233,286c32.8,26.9,65.6,53.8,98.4,80.7c11.5,9.5,23,19,36.4,30c-9.2,3.8-16.7,7.4-24.6,10
		c-2.1,0.7-6.2-0.8-8-2.6c-22.8-22-45.4-44.2-68.2-66.5c2.6-1.9,7.3-4.1,7-5.4c-0.5-3-3.2-5.9-5.6-8.2c-12.4-12.1-25-24-37.6-36
		C231.6,287.4,232.3,286.7,233,286z"/>
	<path class="st1" d="M176.9,36.1c10-0.2,23.3-0.6,36.6-0.8c1.7,0,3.9,1.1,5,2.3c20.6,22.6,41.1,45.4,62.7,69.4
		c-11.4,0-21.2,0.1-31-0.1c-1.5,0-3.3-0.9-4.4-2C222.6,81.9,199.5,58.8,176.9,36.1z"/>
	<path class="st5" d="M330.4,407.5c-14.8,0-27,0.1-39.2-0.1c-2,0-4.3-1.3-5.7-2.7c-23.7-21.9-47.3-43.9-70.9-66
		c-0.3-0.3-0.2-0.9-0.4-1.9c3.8-0.3,7.6-0.6,12.9-1c-12.7-12.7-24.5-24.6-36.3-36.4c0.5-0.5,0.9-1,1.4-1.4
		C237.6,333.9,282.9,369.9,330.4,407.5z"/>
	<path class="st2" d="M354.8,109c30.6,27.5,60.8,54.6,90.9,81.9c1.5,1.3,2.3,4.3,1.9,6.2c-1.9,7.7-4.4,15.3-7.1,24.1
		c-16.4-18.3-32-35.8-47.7-53.3c-11.9-13.3-23.4-26.9-35.7-39.8C351.5,122.2,349.3,116.8,354.8,109z"/>
	<path class="st2" d="M168.4,337.9c3-0.2,5.9-0.4,9.9-0.7c-2.7-3.4-4.8-6.1-6.9-8.8c0.4-0.5,0.8-0.9,1.2-1.4
		c34.3,26.3,68.5,52.6,104.7,80.4c-12.6,0-22.9,0.1-33.3-0.1c-1.2,0-2.7-1-3.6-1.9c-23.4-22.8-46.8-45.7-70.2-68.6
		C169.6,337.2,169,337.5,168.4,337.9z"/>
	<path class="st6" d="M506.9,508.2c0,11-9.2,19.7-20.8,19.8c-11.6,0.1-21.1-8.8-21.2-19.6c0-11,9.1-19.6,20.9-19.6
		C497.8,488.8,506.9,497.2,506.9,508.2z M485.9,523.9c9.5,0,17.1-7,17-15.7c-0.1-8.7-7.8-15.8-17.1-15.7c-9.2,0.1-16.6,7-16.7,15.6
		C468.9,516.9,476.4,523.9,485.9,523.9z"/>
	<path class="st7" d="M233,286c-0.7,0.7-1.4,1.4-2.2,2.1c-6.3-5.9-12.6-11.8-19-17.7c0.4-0.4,0.7-0.9,1.1-1.3
		C219.7,274.8,226.4,280.4,233,286z"/>
	<path class="st8" d="M263.6,174.5c-5-3.8-9.9-7.5-14.9-11.3c1.2-1.1,2.3-2.2,3.5-3.3c4.5,4.2,9.1,8.4,13.6,12.6
		C265.1,173.1,264.3,173.8,263.6,174.5z"/>
	<path class="st2" d="M268.5,128.2c-1.6-1.4-3.2-2.8-4.8-4.1c0.4-0.5,0.8-0.9,1.2-1.4c1.7,1.3,3.3,2.7,5,4
		C269.5,127.2,269,127.7,268.5,128.2z"/>
	<path class="st7" d="M211.9,270.4c-0.4-0.5-0.7-0.9-1.1-1.4c0.7,0.1,1.5,0.1,2.2,0.1C212.6,269.5,212.3,270,211.9,270.4z"/>
	<path class="st2" d="M263.6,174.5c0.7-0.7,1.5-1.3,2.2-2C265.1,173.1,264.3,173.8,263.6,174.5z"/>
	<path class="st7" d="M490,509.4c2,3.1,3.8,5.9,5.7,8.9c-4.7,1.3-7.5,0.2-9-3.8c-0.6-1.5-2.1-2.7-3.3-4c-0.4,0.1-0.8,0.3-1.1,0.4
		c0,2.4,0,4.9,0,7.6c-2.1,0.1-3.7,0.2-5.6,0.2c0-7.1,0-13.8,0-21.1c3.2,0,6.4-0.1,9.5,0c3.4,0.1,6.9,0.5,8.1,4.2
		C495.5,505.6,493.3,508,490,509.4z M482.3,507.5c2.6-1,4.4-1.7,6.1-2.6c0.3-0.1,0-2-0.3-2.1c-1.8-0.6-3.7-0.9-5.8-1.4
		C482.3,503.5,482.3,504.8,482.3,507.5z"/>
</g>
</svg>
