<svg id="Layer_1" enable-background="new 0 0 256 256" height="512" viewBox="0 0 256 256" width="512" xmlns="http://www.w3.org/2000/svg"><g><g><g><path d="m88 244.781h-73c-3.314 0-6-2.686-6-6v-146.5c0-23.472 19.028-42.5 42.5-42.5 23.472 0 42.5 19.028 42.5 42.5v146.5c0 3.314-2.686 6-6 6z" fill="#4671c6"/></g></g><g><g><path d="m9 114.113h85v88h-85z" fill="#ffea92"/></g></g><g><g><path d="m192.667 244.781h-73c-3.314 0-6-2.686-6-6v-146.5c0-23.472 19.028-42.5 42.5-42.5 23.472 0 42.5 19.028 42.5 42.5v146.5c0 3.314-2.687 6-6 6z" fill="#4671c6"/></g></g><g><g><path d="m113.667 114.113h85v88h-85z" fill="#ffea92"/></g></g><g><g><path d="m9 128.113h85v60h-85z" fill="#a4c9ff"/></g></g><g><g><path d="m113.667 128.113h85v60h-85z" fill="#a4c9ff"/></g></g><g><g><path d="m231 193.448v6.422c0 1.243 1.121 2.184 2.345 1.97l12-2.102c2.084-.365 1.655-2.309 1.655-6.29 0-3.97.429-5.925-1.655-6.29-16.296-2.855-14.345-4.274-14.345 6.29z" fill="#f9a7a7"/></g></g><g><g><path d="m58.865 147.185c3.691 7.492 2.768 24.434-13.328 24.434-18.62 0-19.444-25.644-6.442-30.814 4.927-1.961 15.556-2.178 19.77 6.38zm-4.569 8.39c0-14.502-17.56-14.865-17.56 0 0 6.127 2.914 11.075 8.759 11.075 5.939 0 8.801-4.946 8.801-11.075z" fill="#e0ebfc"/></g></g><g><g><path d="m65.478 174.061c4.694 0 7.123-.489 7.123 1.243 0 1.691-1.675 1.222-9.055 1.222-1.913 0-2.143-1.959-.763-3.426.841-.872 3.104-3.148 4.105-3.822 4.217-2.984 2.541-6.036.209-6.036-3.014 0-1.98 3.509-3.958 3.509-2.435 0-1.307-5.629 4.021-5.629 5.552 0 6.664 5.295 3.227 8.381-2.042 1.835-3.874 2.983-4.909 4.558z" fill="#e0ebfc"/></g></g><g><g><path d="m151.348 139.699c17.381 0 18.105 20.004 11.349 27.498-5.519 6.118-17.222 5.804-22.487-.042-6.524-7.237-6.135-27.456 11.138-27.456zm8.885 15.876c0-12.181-10.924-13.034-15.086-8.148-.765.898-1.368 2.046-1.811 3.443-1.956 6.183-.03 15.781 8.095 15.781 5.94-.001 8.802-4.947 8.802-11.076z" fill="#e0ebfc"/></g></g><g><g><path d="m171.415 174.061c4.86 0 7.123-.452 7.123 1.243 0 .687-.446 1.222-1.368 1.222-6.806 0-9.347.567-9.347-1.452 0-3.013 7.592-6.303 7.592-9.525 0-2.502-3.732-3.536-4.882-.25-.456 1.302-.922 1.452-1.457 1.452-1.891 0-1.34-2.802.078-4.209 2.637-2.616 9.123-1.737 9.123 2.945 0 4.004-4.905 5.595-6.862 8.574z" fill="#e0ebfc"/></g></g><g><g><path d="m62.5 40.781h-22c-2.209 0-4-1.791-4-4v-8c0-2.209 1.791-4 4-4h22c2.209 0 4 1.791 4 4v8c0 2.209-1.791 4-4 4z" fill="#a4c9ff"/></g></g><g><g><path d="m167.167 40.781h-22c-2.209 0-4-1.791-4-4v-8c0-2.209 1.791-4 4-4h22c2.209 0 4 1.791 4 4v8c0 2.209-1.791 4-4 4z" fill="#a4c9ff"/></g></g><g><g><path d="m45.5 40.781v9.43c1.961-.277 3.962-.43 6-.43 2.038 0 4.039.152 6 .43v-9.43z" fill="#e0ebfc"/></g></g><g><g><path d="m150.167 40.781v9.43c1.961-.277 3.962-.43 6-.43 2.038 0 4.039.152 6 .43v-9.43z" fill="#e0ebfc"/></g></g><g><g><path d="m66.5 29.281h74.667v7h-74.667z" fill="#e0ebfc"/></g></g><g><g><path d="m88 246.781h-73c-4.411 0-8-3.589-8-8v-146.5c0-24.537 19.962-44.5 44.5-44.5s44.5 19.963 44.5 44.5v146.5c0 4.411-3.589 8-8 8zm-36.5-195c-22.332 0-40.5 18.168-40.5 40.5v146.5c0 2.206 1.794 4 4 4h73c2.206 0 4-1.794 4-4v-146.5c0-22.332-18.168-40.5-40.5-40.5z" fill="#3762cc"/></g></g><g><g><path d="m192.667 246.781h-73c-4.411 0-8-3.589-8-8v-146.5c0-24.537 19.962-44.5 44.5-44.5s44.5 19.963 44.5 44.5v146.5c0 4.411-3.589 8-8 8zm-36.5-195c-22.332 0-40.5 18.168-40.5 40.5v146.5c0 2.206 1.794 4 4 4h73c2.206 0 4-1.794 4-4v-146.5c0-22.332-18.169-40.5-40.5-40.5z" fill="#3762cc"/></g></g><g><g><path d="m232.996 203.87c-.933 0-1.841-.326-2.569-.937-.907-.762-1.427-1.879-1.427-3.063v-6.422c0-1.134-.023-2.127-.043-2.993-.074-3.236-.119-5.189 1.394-6.466 1.668-1.408 3.921-.973 9.362.083 1.65.32 3.623.703 5.978 1.116 3.44.603 3.384 3.633 3.33 6.562-.009.518-.02 1.083-.02 1.697 0 .617.011 1.184.021 1.702.054 2.928.11 5.955-3.33 6.558l-12 2.102c-.233.042-.465.061-.696.061zm.011-16.775c-.112.604-.08 2.01-.051 3.269.021.893.044 1.917.044 3.085v6.422l11.959-2.095c.1-.486.079-1.618.062-2.55-.01-.542-.021-1.134-.021-1.777 0-.642.011-1.231.021-1.771.017-.935.039-2.069-.062-2.556-2.365-.415-4.348-.8-6.008-1.121-2.59-.504-5.052-.977-5.944-.906z" fill="#3762cc"/></g></g><g><g><path d="m62.5 42.781h-22c-3.309 0-6-2.691-6-6v-8c0-3.309 2.691-6 6-6h22c3.309 0 6 2.691 6 6v8c0 3.309-2.691 6-6 6zm-22-16c-1.103 0-2 .897-2 2v8c0 1.103.897 2 2 2h22c1.103 0 2-.897 2-2v-8c0-1.103-.897-2-2-2z" fill="#3762cc"/></g></g><g><g><path d="m167.167 42.781h-22c-3.309 0-6-2.691-6-6v-8c0-3.309 2.691-6 6-6h22c3.309 0 6 2.691 6 6v8c0 3.309-2.692 6-6 6zm-22-16c-1.103 0-2 .897-2 2v8c0 1.103.897 2 2 2h22c1.103 0 2-.897 2-2v-8c0-1.103-.897-2-2-2z" fill="#3762cc"/></g></g><g><g><path d="m57.5 52.211c-.093 0-.187-.007-.28-.02-3.847-.545-7.593-.545-11.439 0-.575.078-1.154-.091-1.592-.471s-.688-.931-.688-1.51v-9.43c0-1.104.896-2 2-2h12c1.104 0 2 .896 2 2v9.43c0 .579-.251 1.13-.688 1.51-.368.319-.834.491-1.313.491zm-6-4.43c1.316 0 2.655.062 4 .185v-5.185h-8v5.185c1.345-.123 2.684-.185 4-.185z" fill="#3762cc"/></g></g><g><g><path d="m162.167 52.211c-.093 0-.187-.007-.28-.02-3.846-.544-7.59-.544-11.44 0-.575.075-1.155-.091-1.591-.471-.438-.38-.688-.931-.688-1.51v-9.43c0-1.104.896-2 2-2h12c1.104 0 2 .896 2 2v9.43c0 .579-.251 1.13-.688 1.51-.368.319-.834.491-1.313.491zm-10-9.43v5.185c2.691-.246 5.31-.246 8 0v-5.185z" fill="#3762cc"/></g></g><g><g><path d="m141.167 38.281h-74.667c-1.104 0-2-.896-2-2v-7c0-1.104.896-2 2-2h74.667c1.104 0 2 .896 2 2v7c0 1.105-.896 2-2 2zm-72.667-4h70.667v-3h-70.667z" fill="#3762cc"/></g></g><g><g><circle cx="103.328" cy="32.781" fill="#6bdddd" r="21.562"/></g></g><g><g><circle cx="103.329" cy="32.781" fill="#e0ebfc" r="15.285"/></g></g><g><g><path d="m101.329 32.859v-9.333c0-1.104.896-2 2-2s2 .896 2 2v9.333c0 2.643-4 2.646-4 0z" fill="#f9a7a7"/></g></g><g><g><path d="m103.329 56.344c-12.992 0-23.562-10.57-23.562-23.562s10.57-23.562 23.562-23.562 23.562 10.57 23.562 23.562-10.57 23.562-23.562 23.562zm0-43.125c-10.787 0-19.562 8.775-19.562 19.562s8.776 19.562 19.562 19.562 19.562-8.775 19.562-19.562-8.776-19.562-19.562-19.562z" fill="#3762cc"/></g></g><g><g><path d="m231 193.448c0-1.658-.048-3.021-.066-4.129-9.996-1.142-17.804-10.063-17.804-20.87v-110.668c0-15.99-12.549-29-27.974-29h-13.99v8h13.99c11.014 0 19.974 9.421 19.974 21v110.667c0 15.255 11.425 27.789 25.87 28.909 0-1.406 0-2.647 0-3.909z" fill="#6bdddd"/></g></g><g><g><path d="m231 199.357c-.051 0-.103-.002-.155-.006-15.541-1.205-27.715-14.779-27.715-30.903v-110.667c0-10.477-8.063-19-17.974-19h-13.99c-1.104 0-2-.896-2-2v-8c0-1.104.896-2 2-2h13.99c16.527 0 29.974 13.906 29.974 31v110.667c0 9.722 6.892 17.839 16.031 18.883.998.114 1.756.95 1.772 1.955l.022 1.072c.021.895.044 1.919.044 3.089v3.91c0 .558-.232 1.089-.642 1.468-.37.344-.855.532-1.357.532zm-57.833-164.576h11.99c12.116 0 21.974 10.317 21.974 23v110.667c0 13.29 9.444 24.588 21.87 26.653v-1.654c0-.889-.014-1.69-.03-2.413-10.286-2.042-17.84-11.447-17.84-22.586v-110.667c0-14.888-11.652-27-25.974-27h-11.99z" fill="#3762cc"/></g></g></g></svg>