<?xml version="1.0" encoding="utf-8"?>
<!-- Generator: Adobe Illustrator 23.0.2, SVG Export Plug-In . SVG Version: 6.00 Build 0)  -->
<svg version="1.1" id="Capa_1" xmlns="http://www.w3.org/2000/svg" xmlns:xlink="http://www.w3.org/1999/xlink" x="0px" y="0px"
	 viewBox="0 0 512 433.9" style="enable-background:new 0 0 512 433.9;" xml:space="preserve">
<g>
	<path d="M234.7,227.3c19.1-19,37.4-37.2,55.7-55.4c47.4-47.3,94.9-94.5,142-142.2c10.9-11.1,26.5-12.9,37.4-2
		c11.9,11.8,24,23.4,35.3,35.8c8.7,9.6,7.8,22.9-0.9,32.6c-0.7,0.7-1.4,1.4-2.1,2.1C419.8,180.5,337.5,262.8,255.3,345
		c-12.7,12.7-26.8,12.9-39.3,0.4c-43-43-86-86-129-129c-9.9-9.9-11.6-21.2-5.1-32c0.6-1,1.2-2,2-2.8c12.2-12.3,24.2-24.8,36.8-36.7
		c9.8-9.3,24.4-8.3,34.4,1.7c25.6,25.6,51.1,51.1,76.7,76.7C232.9,224.4,233.7,226,234.7,227.3z"/>
	<path d="M-0.9,216.9c0-44-0.4-88,0.1-132C-0.4,45.3,31.2,8.4,70.3,2.2c14-2.2,28.5-2.1,42.8-2.1C186-0.1,258.9,0.1,331.8,0
		c14.8,0,29.6,0.5,43.6,6c1.7,0.7,3.4,1.3,5,2.2c5.6,3.3,6.8,10.7,2.4,15.4c-4.8,5.1-9.8,10-14.8,14.9c-3,2.9-6.4,4-10.9,2.9
		c-5.1-1.2-10.5-1.5-15.8-1.5c-83.8-0.1-167.6,0.3-251.5-0.3c-24-0.1-45.4,16.4-49.9,38.2c-0.9,4.2-1.5,8.5-1.5,12.8
		c-0.1,42.2,0,84.4,0,126.7c0,38.4-0.2,76.8,0.1,115.2c0.1,9.4,0.5,19,2.9,28c4.9,18.7,24.4,33.3,43.8,33.3
		c77.3,0.2,154.6,0.2,232,0.2c9.5,0,19,0.1,28.5-0.1c26.3-0.7,47.3-22.2,47.5-48.6c0.1-25.3,0.1-50.7,0-76c0-4.7,1.5-8.4,4.8-11.5
		c5.7-5.6,11.5-11.1,17.1-16.8c3.4-3.4,7.1-4.6,11.7-2.8c4.5,1.8,5.9,5.5,5.8,10c-0.2,35.3,0.2,70.7-0.6,106
		c-0.4,17.4-7.7,32.8-18.8,46.2c-14.4,17.3-32.3,29.3-55,32c-12.7,1.5-25.6,1.4-38.4,1.4c-77.4,0.1-154.8,0.2-232.2-0.1
		c-43.1-0.2-79.3-30.2-86.8-72.6C-1.6,348.4-0.9,335-1,321.9c-0.2-35-0.1-70-0.1-105C-1,216.9-1,216.9-0.9,216.9z"/>
</g>
</svg>
