<?xml version="1.0" encoding="utf-8"?>
<!-- Generator: Adobe Illustrator 23.0.2, SVG Export Plug-In . SVG Version: 6.00 Build 0)  -->
<svg version="1.1" id="Capa_1" xmlns="http://www.w3.org/2000/svg" xmlns:xlink="http://www.w3.org/1999/xlink" x="0px" y="0px"
	 viewBox="0 0 529.1 530.8" style="enable-background:new 0 0 529.1 530.8;" xml:space="preserve">
<style type="text/css">
	.st0{fill:#CA934E;}
	.st1{fill:#C43C14;}
	.st2{fill:#323A40;}
	.st3{fill:#FDE8B6;}
	.st4{fill:#252932;}
	.st5{fill:#FCFCFC;}
	.st6{fill:#FCDAA5;}
	.st7{fill:#FDDAA4;}
	.st8{fill:#E2E4E5;}
	.st9{fill:#303238;}
	.st10{fill:#6E4837;}
	.st11{fill:#EBEDED;}
	.st12{fill:#82C1DF;}
	.st13{fill:#F5CC90;}
	.st14{fill:#7AB4D1;}
	.st15{fill:#FD3C0B;}
	.st16{fill:#FD6426;}
	.st17{fill:#FCD8A2;}
	.st18{fill:#563628;}
	.st19{fill:#FEF4F0;}
	.st20{fill:#FEE8B6;}
	.st21{fill:#FCDAA4;}
	.st22{fill:#FBBD6A;}
	.st23{fill:#FEE9B7;}
	.st24{fill:#FDDAA5;}
</style>
<g>
	<path class="st0" d="M-266.2,215.9c-0.7,0.5-1.2,1-1.9,1.4C-267.4,216.7-266.9,216.3-266.2,215.9z"/>
	<path class="st0" d="M-268.5,217.3c-0.7,0.4-1.3,1-2.2,1.3C-270.1,218.1-269.2,217.7-268.5,217.3z"/>
	<g>
		<path class="st1" d="M240.3,121.8c-6.5,14.2-12.9,28.4-19.3,42.6c-1.9,4.1-4,8.1-5.9,12c-1-0.1-2-0.1-3-0.2
			c7.5-28.8,4.5-54.8-19.3-73.7c-14.2,6.6-29,13.2-43.7,20c-15.1,3.1-30,6.1-45,9.5c-18.7,4.1-21.3,7.5-21,26.3
			c0.1,5.8,0.8,11.6,1.2,17.2c-0.8,0.1-1.6,0.4-2.3,0.5c-2.2-5.9-4.5-11.9-6.6-17.8c-1.9-5.2-4-10.1-10.8-10
			c-1.9-15.8-6-31.7-5.2-47.3c1.7-34.6,19.4-53.9,54.1-62c21.6-5.2,43.3-5.5,65.3-1.1c8.9,1.8,17.2,4.7,22.4,13
			c1,1.4,3.6,2.4,5.7,2.8c20.6,4.3,32,16.4,33.6,37.1C240.9,101,240.3,111.5,240.3,121.8z"/>
		<path class="st2" d="M151.9,420c-52.6-1.2-100.5-15.3-142.7-46.5c-10.8-8.2-10.4-7.9-7.5-21.4c3-14,10.6-23.6,24.3-28.5
			c21.3-7.9,42.4-15.9,63.7-24c4.8,5.8,9.6,11.7,14.4,17.5c11.3,21.1,22.8,42,34,63c3.6,6.1,7.1,12.4,10.7,18.5c0,2.9-0.4,5.9,0,8.7
			C149.6,411.5,151,415.8,151.9,420z"/>
		<path class="st3" d="M64.5,148.2c7-0.1,9,4.8,10.8,10c2.2,5.9,4.5,11.9,6.6,17.8c0.8-0.1,1.6-0.4,2.3-0.5
			c-0.4-5.8-1-11.6-1.2-17.2c-0.6-18.8,2.2-22.3,21-26.3c15.1-3.3,30-6.3,45-9.5c0,48.8,0,97.7,0,146.4c-11-4.3-21.9-8.7-32.9-13
			l0,0c-0.6-0.5-1.1-1-1.7-1.4c-0.4,0-0.8,0-1.1,0c-1.3-2.3-2.5-4.6-4.1-6.4c-11.8-13.1-21.2-27.6-27.2-44.3
			c-1.9-5.4-8.3-9.9-13.6-13.2C53.7,181.2,51.1,158.1,64.5,148.2z"/>
		<path class="st4" d="M234,362.5c-16.6,7.7-19.1,23.2-22.2,38.4c-0.7,3.5-1.3,7.1-2,10.6c-16.3,2.4-32.5,4.8-48.5,7.2
			c-3.1,0.5-6.4,0.8-9.5,1.3c-1-4.2-2.2-8.5-2.8-12.8c-0.4-2.9,0-5.8,0-8.7c0.6-1.1,1.1-1.9,1.7-3c3-5.2,6-10.4,8.9-15.5
			c8.4-14.7,16.7-29.3,25.3-44.1C197.8,350.9,213.6,360.9,234,362.5z"/>
		<path class="st5" d="M104.2,316.9c-4.8-5.8-9.6-11.7-14.4-17.5c4.1-6.1,9-11.3,17.3-11.7c12.6,9.8,25.3,19.5,38.2,28.9
			c1.6,1.2,5.2,1.7,6.5,0.6c8.3-6,16.3-12.6,24.3-18.9c4.9-3.5,9.9-7.1,14.8-10.8c8.3,0.5,12.9,6.1,17.6,11.7
			c-5.5,7.3-10.8,14.7-16.4,21.9c-4.6,0.5-9,1.2-14.3,1.8c0.8,2.3,1.8,4.5,2.8,6.9c-4.9,4.3-9.9,8.7-14.8,13
			c-1.9-1.7-3.3-2.9-4.7-4.2c-3.7-6-7.5-11.9-12.2-19.5c-4.7,7.6-8.3,13.5-11.9,19.5c-1.7,1.3-3.1,2.8-5.4,4.6
			c-5.1-5.4-9.6-10.8-14.7-15.7C112.9,323.9,108.6,320.5,104.2,316.9z"/>
		<path class="st6" d="M176,298.4c-8.1,6.4-16,12.9-24.3,18.9c-1.3,1-4.9,0.4-6.5-0.6c-12.8-9.5-25.4-19.1-38.2-28.9
			c2-11.1,4.1-22.3,6.1-33.2c0.4,0,0.8,0,1.1,0c0.6,0.5,1.1,1,1.7,1.4l0,0c7.9,20.4,21.4,35.3,44.2,40.2
			C165.4,297.2,170.7,297.6,176,298.4z"/>
		<path class="st7" d="M148.9,269c0-48.8,0-97.7,0-146.4c14.7-6.7,29.5-13.4,43.7-20c23.7,18.9,26.7,44.9,19.3,73.7
			c1,0.1,2,0.1,3,0.2c1.9-4.1,4-8.1,5.9-12c-0.6,7-1.1,14-1.8,21c-0.4,5.3-1,10.5-1.6,15.8c-0.8,2.4-1.8,4.6-2.6,7
			c-6.5,17.3-17.3,31.8-30.5,44.9C174.2,261.3,163.1,268.5,148.9,269z"/>
		<path class="st8" d="M161,338.7c1.3,1.3,2.8,2.5,4.7,4.2c4.9-4.3,9.9-8.7,14.8-13c1.6,1.9,2.9,4,4.5,5.9
			c-8.4,14.7-16.7,29.3-25.3,44.1c-1.1-10.8-2.5-21.6-2.9-32.4C156.6,344.8,159.5,341.8,161,338.7z"/>
		<path class="st9" d="M208.5,299.3c3,1.1,6.1,1.9,9.3,3c-3.7,11.6-12.6,18.2-25.6,18.9C197.6,314,203.1,306.7,208.5,299.3z"/>
		<path class="st10" d="M217.3,208.3c-0.7-0.1-1.6-0.1-2.2-0.2c0.8-2.4,1.8-4.6,2.6-7C217.6,203.5,217.4,206,217.3,208.3z"/>
		<path class="st11" d="M104.2,316.9c4.2,3.5,8.7,6.9,12.6,10.8c5.1,4.8,9.6,10.2,14.7,15.7c2.2-1.8,3.7-3.3,5.4-4.6
			c1,0.5,1.9,1.1,2.8,1.6c0.6,2.8,1.8,5.5,1.7,8.2c-0.8,10.5-2,21.1-3,31.4C127,359,115.6,338,104.2,316.9z"/>
		<path class="st12" d="M138.3,380c1.1-10.5,2.3-21,3-31.4c0.1-2.6-1.1-5.4-1.7-8.2c8.1-1.7,9.3-1.1,9.3,6.9
			c0,13.7-0.1,27.3,0.1,41.1c0,2.5,1,4.8,1.6,7.3c-0.6,1.1-1.1,1.9-1.7,3C145.4,392.4,141.8,386.3,138.3,380z"/>
		<path class="st13" d="M184.7,253.1c1.2,11.7,0.2,23.7,6.1,34.6c-4.9,3.5-9.9,7.1-14.8,10.8c-5.2-0.8-10.6-1.1-15.8-2.3
			c-22.8-4.9-36.2-19.9-44.2-40.2c11,4.3,21.9,8.7,32.9,13C163.1,268.5,174.2,261.3,184.7,253.1z"/>
		<path class="st13" d="M116.2,256c-0.6-0.5-1.1-1-1.7-1.4C115,255,115.6,255.4,116.2,256z"/>
		<path class="st14" d="M150.6,395.5c-0.6-2.5-1.6-4.8-1.6-7.3c-0.1-13.7,0-27.3-0.1-41.1c0-7.9-1.1-8.5-9.3-6.9
			c-1-0.5-1.9-1.1-2.8-1.6c3.6-5.9,7.3-11.8,11.9-19.5c4.7,7.5,8.4,13.4,12.2,19.5c-1.6,3-4.5,5.9-4.5,8.9
			c0.4,10.8,1.9,21.6,2.9,32.4C156.6,385.2,153.7,390.2,150.6,395.5z"/>
	</g>
	<g>
		<path class="st10" d="M337.3,171.7c-0.8-1-1.9-1.7-2.2-2.8c-10.6-30.1-31.2-50.7-62-61.7c9-25.8,24.4-46.4,50.8-57.9
			c23.2-10.2,48-12.4,73.1-9.6c10.8,1.2,21.9,4.2,32.2,8.3c10.8,4.2,15.3,6.6,27.2,5.4c17-1.8,27.9,7.9,37.8,18.4
			c22.9,24.4,33.5,54.1,34.7,86.6c1,25.5-1.3,50.6-13.4,74.2c-7.6,14.8-19.1,26-33.8,33.8c-6.4,3.3-14.3,4-21.6,4.7
			c-6.4,0.8-12.9,0.1-19.4,0.1c2.6-4.3,5.8-8.4,7.8-12.9c4.6-10.2,8.5-20.7,12.8-31.2c-0.1-0.4,0-0.6,0.2-0.8c0.6-1,1.1-1.8,1.6-2.9
			c8.5-24.3,7.6-49.7,8.7-74.9c0.2-5.9-2.5-10.5-8.1-12.6c-6.1-2.4-12.5-4.9-19-5.4c-16-1.2-30.1,4.5-43.2,12.9
			C380.3,152.8,358.9,162.2,337.3,171.7z"/>
		<path class="st15" d="M452,308.1c15.7,7.2,31.1,14.8,47.1,21.7c14.4,6.1,21.3,17.3,23.8,31.7c1.6,8.3,3,16.6,3.9,24.9
			c0.2,1.9-1.3,5.2-3.1,6.1c-28.9,17.7-60.3,29-94.4,32.6c-9,1-18.3,1-27.6,1.3c0-26.3,0.1-52.7,0.1-79c7.1-4.2,7.1-7.5,0-11.6
			c0-2,0-4.3,0-6.4c21.2-2.5,31.2-11,34.8-28.8c1.8,1.3,3.7,2.6,5.5,4c-0.2,2.8-1.2,5.8-0.7,8.4c0.1,1.1,4.6,2.5,5.4,1.8
			C449.1,313.2,450.4,310.4,452,308.1z M433.3,326.7c-1.6-0.1-3.5-0.8-4.2-0.1c-2.3,1.8-4.1,4.2-6.1,6.3c2,1.6,4.2,3.3,6.4,4.8
			c1.8-2.5,3.7-4.7,5.1-7.3C434.9,329.6,433.5,327.9,433.3,326.7c1.3,0.1,3.1,1,4.2,0.4c2.5-1.3,4.7-3.3,6.9-4.8
			c-1.9-1.9-3.9-4.1-5.8-6c-1.9,1.9-4.1,3.9-5.7,6C432.3,323.2,433.2,325.1,433.3,326.7z M424.3,339.4c-4.1-2.8-6.6-5.8-8.3-5.4
			c-2.3,0.5-4.2,3.4-6.4,5.4c1.9,1.9,3.7,5.3,5.7,5.4C417.5,345,419.9,342.2,424.3,339.4z"/>
		<path class="st16" d="M351.2,421.6c-1-4-2.2-7.9-2.9-11.8c-1.9-11.4-7.6-20.1-18.3-25.4c13.4-3.7,27.1-6.9,37-17.1
			c6.7-7,12.5-14.8,18.7-22.3c2.3-1.8,5.1-3.5,6.9-5.8c0.4-0.6-2-4.7-3.7-4.9c-2-0.4-5.8,0.8-6.7,2.4c-1.1,1.7,0.2,4.7,0.6,7.2
			c-4.1-0.4-8.4-0.4-12.5-1.2c-18.5-3.1-27.6-13.4-27.9-31.8c2.5-0.6,4.9-1.4,7.5-2c0,7,5.7,6.7,10.5,7.5c-0.4,0.8-1.6,1.8-1.2,2.5
			c1,2.8,1.7,6.9,3.7,7.7c3.7,1.6,6.6-0.5,6.5-5.2c0-0.8,0.8-1.6,1.2-2.4c9.6,5.9,19.9,10.5,31.7,10.5c0,2,0,4.3,0,6.4
			c-2,1.8-4.2,3.7-6.4,5.4c2,2,4.2,4.1,6.4,6.1c0,26.3-0.1,52.7-0.1,79C384.9,424.9,367.9,423.4,351.2,421.6z M373.6,323.9
			c-2.9,3.7-6,6-5.7,7.6c0.6,2.4,3.6,4.2,5.7,6.1c1.9-2,4.9-4,5.5-6.1C379.3,329.9,376.3,327.6,373.6,323.9z"/>
		<path class="st17" d="M401.7,329.5c-11.8,0-21.9-4.6-31.7-10.5c-1-1-1.9-1.8-2.9-2.8c-2-4.1-4-8.2-6-12.3c5.8-4,7.8-9.8,7.6-16.3
			c-0.2-6.4-1-12.9-1.6-19.3c0.1-1.9,0.2-4,0.4-5.9c1.3,1,2.9,1.9,4.2,2.9c0.2,1.9-0.1,4.1,0.7,5.7c9.4,17,29.3,31.4,54.2,26.3
			c2.5-0.5,5.1,0,7.7,0.1c0.7,1.1,1.3,2,2,3.1C433.1,318.5,422.9,326.9,401.7,329.5z"/>
		<path class="st13" d="M434.4,297.5c-2.6,0-5.2-0.6-7.7-0.1c-24.8,5.2-44.9-9.4-54.2-26.3c-0.8-1.6-0.6-3.9-0.7-5.7
			c9.9,3.9,20,7.7,29.9,11.6c12.6-1.2,23.2-6.6,32.8-14.4c0,2.9,0.1,5.8,0.1,8.7C434.5,280.1,434.5,288.9,434.4,297.5z"/>
		<path class="st18" d="M434.6,271.4c0-2.9-0.1-5.8-0.1-8.7c8.9-11.8,17.9-23.7,26.9-35.5c-4.2,10.4-8.3,21-12.8,31.2
			c-2,4.6-5.2,8.7-7.8,12.9C438.7,271.4,436.8,271.4,434.6,271.4z"/>
		<path class="st19" d="M452,308.1c-1.7,2.3-3,5.2-5.2,6.7c-1,0.6-5.2-0.8-5.4-1.8c-0.6-2.6,0.4-5.5,0.7-8.4
			C446.7,302.5,449.8,304.2,452,308.1z"/>
		<path class="st20" d="M401.6,277.2c-9.9-3.9-20-7.7-29.9-11.6c-1.3-1-2.9-1.9-4.2-2.9c-6.6-7.7-13.2-15.5-19.6-23.1
			c-0.6-1-1.1-1.9-1.6-2.9c-0.7-8.4-1.1-16.9-2.3-25.2c-1.9-13.2-4.5-26.6-6.6-39.9c21.4-9.5,43-18.8,64.4-28.3
			C401.6,188,401.6,232.5,401.6,277.2z"/>
		<path class="st18" d="M367.2,268.6c-2.5,0.2-4.9,0.5-7.6,0.8c-4.7-7.1-9.4-14.2-14.1-21.3c0-2.9-0.1-5.7-0.1-8.5
			c0.8,0,1.6,0,2.3,0c6.6,7.7,13.2,15.5,19.6,23.1C367.4,264.7,367.2,266.6,367.2,268.6z"/>
		<path class="st10" d="M345.6,248.1c4.7,7.1,9.4,14.2,14.1,21.3c-4.9,0.2-9.9,0.4-14.7,0.6C345,262.6,345.4,255.3,345.6,248.1z"/>
		<path class="st19" d="M382.5,343.9c-0.2-2.5-1.7-5.5-0.6-7.2c1-1.6,4.7-2.8,6.7-2.4c1.7,0.2,4.2,4.5,3.7,4.9
			c-1.7,2.4-4.6,4-6.9,5.8C384.4,344.7,383.4,344.3,382.5,343.9z"/>
		<path class="st10" d="M347.8,239.4c-0.8,0-1.6,0-2.3,0c0.2-1.1,0.6-1.9,0.8-3C346.7,237.5,347.3,238.5,347.8,239.4z"/>
		<path class="st0" d="M303,370.5c-1-0.6-2-1.2-3-1.8C301,369.3,302,369.9,303,370.5z"/>
		<path class="st21" d="M401.6,277.2c0-44.6,0-89.1,0-133.7c13.1-8.4,27.2-14.2,43.2-12.9c6.5,0.5,12.8,3.1,19,5.4
			c5.7,2,8.4,6.7,8.1,12.6c-1.2,25.2-0.1,50.6-8.7,74.9c-0.6,1-1.1,1.8-1.6,2.9c-0.4,0.2-0.4,0.5-0.2,0.8
			c-8.9,11.8-17.9,23.7-26.9,35.5C425,270.6,414.3,275.9,401.6,277.2z"/>
		<path class="st18" d="M461.7,226.3c0.6-1,1.1-1.8,1.6-2.9C462.8,224.5,462.2,225.3,461.7,226.3z"/>
		<path class="st19" d="M433.2,326.6c0.4,1.3,1.7,3,1.1,3.9c-1.3,2.6-3.3,4.9-5.1,7.3c-2-1.6-4.2-3.3-6.4-4.8c2-2,3.9-4.6,6.1-6.3
			C429.8,326,431.7,326.6,433.2,326.6C433.3,326.7,433.2,326.6,433.2,326.6z"/>
		<path class="st19" d="M424.3,339.4c-4.2,2.8-6.7,5.5-8.9,5.4c-2-0.1-3.9-3.4-5.7-5.4c2-1.8,4-4.8,6.4-5.4
			C417.8,333.7,420,336.7,424.3,339.4z"/>
		<path class="st19" d="M433.3,326.7c-0.1-1.6-1-3.5-0.2-4.6c1.6-2.3,3.7-4.1,5.7-6c1.9,1.9,3.9,4.1,5.8,6c-2.3,1.7-4.5,3.7-6.9,4.8
			C436.4,327.6,434.6,326.8,433.3,326.7C433.2,326.6,433.3,326.7,433.3,326.7z"/>
		<path class="st5" d="M401.7,347.6c-2-2-4.2-4.1-6.4-6.1c2-1.8,4.2-3.7,6.4-5.4C409,340.2,409,343.4,401.7,347.6z"/>
		<path class="st19" d="M373.6,323.9c2.8,3.7,5.8,6,5.4,7.7c-0.6,2.4-3.6,4.2-5.5,6.1c-2-2-5.1-4-5.7-6.1
			C367.5,329.9,370.8,327.6,373.6,323.9z"/>
		<path class="st19" d="M349.5,308.9c3-1.3,5.9-2.5,8.9-3.9c5.2,3.3,2,7.5,1.3,11.4v-0.1C355.1,315.5,349.5,315.8,349.5,308.9z"/>
		<path class="st5" d="M367.2,316.3c1,1,1.9,1.8,2.9,2.8c-0.4,0.8-1.2,1.6-1.2,2.4c0.1,4.6-2.9,6.7-6.5,5.2c-2-1-2.8-4.9-3.7-7.7
			c-0.2-0.6,0.8-1.7,1.2-2.5v0.1C362.2,316.4,364.8,316.4,367.2,316.3z"/>
		<path class="st16" d="M367.2,316.3c-2.5,0-4.9,0.1-7.5,0.1c0.6-4,3.7-8.3-1.3-11.4c1-0.2,1.9-0.5,2.8-0.8
			C363.2,308.1,365.1,312.2,367.2,316.3z"/>
	</g>
	<g>
		<path class="st22" d="M157.8,148.9c20.8-28.7,50.8-39.7,85.4-41.5c18.7-1.1,37.2,1.2,55.3,5.8c30.8,11,51.4,31.4,62,61.7
			c0.4,1.1,1.6,1.8,2.2,2.8c2.2,13.2,4.7,26.4,6.6,39.9c1.2,8.3,1.6,16.7,2.3,25.2c-0.2,1.1-0.6,1.9-0.8,3c0,2.9,0.1,5.7,0.1,8.5
			c-0.2,7.3-0.4,14.6-0.7,21.9c-1,13.7-1.9,27.3-2.9,41.1c0.4,18.4,9.3,28.7,27.9,31.8c4.1,0.6,8.4,0.8,12.5,1.2c1,0.4,2,0.8,3,1.2
			c-6.1,7.5-11.8,15.4-18.7,22.3c-9.9,10.1-23.7,13.4-37,17.1c-8.9-4.6-17.9-9.4-26.9-14c-1-0.6-2-1.2-3-1.8l0,0
			c-1.8-2.5-3.3-5.3-5.4-7.3c-19.1-19-21.9-35.9-10.4-59.7c5.7-11.6,11.3-23.1,9.8-36.6c0.6-22.5,1.2-44.9,1.6-67.3
			c0.1-12.3-8.1-25.2-17.1-28.4c-4,3.7-7.3,7.6-11.6,10.4c-13.2,8.9-26.9,17.3-40.3,26c-20.2,10-41.4,17.2-63.8,21.1
			c-3.9,0.6-5.4,2.8-4.9,6.6c1.6,11.2,2.9,22.4,4.5,33.5c-0.2,2.8-1.3,5.8-0.6,8.2c3.1,9.6,6.5,19.1,10.7,28.4
			c8.3,17.2,8.4,33.5-4,48.9c-4.5,5.5-8.9,11-13.5,16.3v-0.1c-0.7,0.5-1.2,1-1.9,1.4h-0.6c-0.7,0.4-1.3,1-2.2,1.3
			c-8.1,4.1-16.1,8.2-24.2,12.3c-20.5-1.7-36.4-11.7-49.2-26.6c-1.6-1.9-2.9-4-4.5-5.9c-1-2.3-1.8-4.6-2.8-6.9
			c5.2-0.6,9.8-1.3,14.3-1.8c12.9-0.8,21.9-7.3,25.6-18.9c0.8-9.2,2.3-18.5,2.2-27.7c-0.4-22-1.8-44.3-2.8-66.3
			c0.1-2.4,0.2-4.7,0.4-7.2c0.6-5.3,1-10.5,1.6-15.8c0.6-7,1.2-14,1.8-21C144.8,177.3,151.3,163.1,157.8,148.9z"/>
		<path class="st14" d="M328.4,376.3c8.9,4.6,17.9,9.4,26.9,14c10.8,5.3,16.4,14.1,18.3,25.4c0.7,4,1.9,7.9,2.9,11.8
			c0.4,3.9,0.2,7.9,1.6,11.4c2.9,7.9-0.8,11.6-7.6,15.3c-36.4,20-74.9,31.7-116.8,30.6c0-13.8,0-27.7,0-41.5
			c8.5-10.2,17.5-20.2,25.4-30.9c10.5-14.2,17.2-30.2,19.6-47.7c8.8,3.4,17.7,6.9,26.6,10.1l0,0
			C326.4,375.1,327.4,375.7,328.4,376.3z"/>
		<path class="st12" d="M253.5,443c0,13.8,0,27.7,0,41.5c-44.4,0.5-85.1-11.6-123.1-34.1c-6-3.5-1.7-8.3-3.1-12
			c0.7-3.5,1.3-7.1,2-10.6c2.9-15.3,5.5-30.6,22.2-38.4c8.1-4.1,16.1-8.2,24.2-12.3c0.7-0.4,1.3-1,2.2-1.3h0.6
			c0.7-0.5,1.2-1,1.9-1.4v0.1c7.5-2.8,14.8-5.4,22.2-8.2c1.7,3.5,3.3,7,4.7,10.5C217.6,402.5,232.7,424.7,253.5,443z"/>
		<path class="st7" d="M251.9,211.7c13.5-8.7,27-17.1,40.3-26c4.2-2.9,7.6-6.9,11.6-10.4c8.9,3.3,17.2,16.1,17.1,28.4
			c-0.2,22.5-1,44.9-1.6,67.4c-4.9,9.6-9.4,19.5-15.2,28.5c-5.2,8.1-11.9,15.2-18.1,22.6c-10.4,5.7-20.2,12.4-32.8,13
			c0-38.9,0-77.8,0-116.7C253.5,216.2,252.4,213.9,251.9,211.7z"/>
		<path class="st23" d="M251.9,211.7c0.6,2.3,1.6,4.5,1.6,6.9c0.1,38.9,0,77.8,0,116.7c-6.7-1.9-13.6-3.7-20.1-6.1
			c-4.6-1.7-8.5-4.5-12.8-6.9c-0.4,0-0.7,0-1.1,0c-1.7-2.4-3.1-4.8-5.1-7c-11.4-12.6-21.4-26-26.9-42.4c-1.6-11.2-2.9-22.4-4.5-33.5
			c-0.6-3.9,1-5.9,4.9-6.6C210.4,228.9,231.6,221.7,251.9,211.7z"/>
		<path class="st0" d="M286.1,322.1c6-7.5,12.9-14.6,18.1-22.6c5.8-9,10.2-18.9,15.2-28.5c1.6,13.4-4.1,24.9-9.8,36.6
			c-11.6,23.8-8.8,40.6,10.4,59.7c2.2,2,3.6,4.8,5.4,7.3c-8.8-3.4-17.7-6.9-26.6-10.1c-3.6-1.9-7.1-3.9-10.7-5.8
			c-0.6-1.9-1.1-4-1.8-5.9c-0.4-4.5-1.2-9-1.1-13.5C285.2,333.6,285.7,327.9,286.1,322.1z"/>
		<path class="st0" d="M187.4,273c5.4,16.1,15.3,29.7,26.9,42.4c1.9,2,3.5,4.6,5.1,7c0.2,4.2,0.6,8.5,0.7,12.8
			c0.4,10.1,2.8,21-8.5,27.6c-3,1.3-6,2.6-9.3,4c-7.5,2.8-14.8,5.4-22.2,8.2c4.6-5.4,9-10.8,13.5-16.3c12.4-15.4,12.3-31.7,4-48.9
			c-4.5-9-7.6-18.8-10.7-28.4C186.2,278.8,187.3,275.5,187.4,273z"/>
		<path class="st5" d="M202.5,366.6c3-1.3,6-2.6,9.3-4c1.6,1.9,3.7,3.9,4.6,6c7.9,19.6,18.2,38.1,32.8,53.9c3.3,3.7,5.5,3.4,8.1,0
			c5.1-6.9,10.6-13.4,15.2-20.5c8.3-13.2,14.4-27.3,15.8-43.1c3.6,1.9,7.1,3.9,10.7,5.8c-2.6,17.5-9.3,33.5-19.6,47.7
			c-7.8,10.8-17,20.6-25.4,30.9c-21-18.4-36-40.7-46.4-66.1C205.7,373.6,204,370,202.5,366.6z"/>
		<path class="st13" d="M286.1,322.1c-0.4,5.7-1.1,11.4-1.1,17.1c0,4.5,0.7,9,1.1,13.5c-6.7,1.3-13.6,4.3-20.1,3.9
			c-22.4-1.9-36.7-14.8-45.5-34.4c4.2,2.4,8.3,5.2,12.8,6.9c6.6,2.5,13.5,4.2,20.1,6.1C265.9,334.5,275.8,327.8,286.1,322.1z"/>
		<path class="st24" d="M220.6,322.1c8.7,19.6,23.1,32.5,45.5,34.4c6.5,0.5,13.4-2.4,20.1-3.9c0.6,1.9,1.1,4,1.8,5.9
			c-1.2,15.8-7.6,29.9-15.8,43.1c-4.5,7.2-10,13.8-15.2,20.5c-2.6,3.4-4.8,3.7-8.1,0c-14.6-15.9-24.8-34.3-32.8-53.9
			c-1-2.3-3-4-4.6-6c11.4-6.7,8.9-17.5,8.5-27.6c-0.1-4.3-0.6-8.5-0.7-12.8C219.8,322.1,220.2,322.1,220.6,322.1z"/>
	</g>
</g>
</svg>
