<?xml version="1.0" encoding="utf-8"?>
<!-- Generator: Adobe Illustrator 23.0.2, SVG Export Plug-In . SVG Version: 6.00 Build 0)  -->
<svg version="1.1" id="Capa_1" xmlns="http://www.w3.org/2000/svg" xmlns:xlink="http://www.w3.org/1999/xlink" x="0px" y="0px"
	 viewBox="0 0 529.1 530.8" style="enable-background:new 0 0 529.1 530.8;" xml:space="preserve">
<style type="text/css">
	.st0{fill:#00D140;}
	.st1{fill:#FFE292;}
</style>
<g>
	<path class="st0" d="M185.8,186.7C237.3,128.6,288,71.4,339.3,13.5c43,34.2,85.4,67.8,128.6,102.1C399.3,193,331.1,270,262.1,347.8
		c-36-28.6-71.7-56.9-107.4-85.3c0.2-0.5,0.5-1,0.7-1.5c5.1,1.4,10.2,2.8,15.3,4.4c12.8,3.8,25.5,7.8,38.4,11.4
		c18.2,5.2,36.6-2.8,43.9-18.6c7.6-16.6,1.3-34.6-15.5-43.8c-8.5-4.7-17.2-9.1-25.7-13.7C203.4,196.2,195.2,191.7,185.8,186.7z
		 M296.9,130c-28.6,0.1-50.7,20.9-50.5,47.6c0.2,28.9,26.7,53.5,57.7,53.6c28.5,0.1,50.9-20.7,51-47.4
		C355.2,154.7,328.5,130,296.9,130z"/>
	<path class="st1" d="M516.6,472.6c-40,3.6-77.7,7.1-115.5,10.1c-3.3,0.3-7.9-1.9-10.2-4.3c-8.6-9.3-19-14.2-32.1-14.1
		c-26,0-52-1.2-77.9,0.1c-34,1.7-61.5-10.4-85.9-31.5c-17.6-15.2-35.6-30.1-53.5-45.1c-10-8.4-11.9-20.9-4.5-30.3
		c7.6-9.6,20.7-11.7,31.9-4.5c20.3,13,40.4,26.1,60.4,39.4c11.6,7.7,24.2,12.3,38.3,12.5c27.5,0.3,55,0.2,82.4,0.3c5,0,10-1,8.9-6.6
		c-0.5-2.4-5.6-5.5-8.7-5.6c-16.4-0.6-32.9,0-49.3-0.4c-12-0.2-20.4-7.9-21.7-18.7c-1.1-9.3,4.9-18.2,14.5-20.8
		c3.1-0.8,6.5-0.9,9.7-0.9c33.2-0.1,66.3,0.6,99.5-0.2c37.6-0.9,64.4,14.1,79.9,46.4C494.4,422.6,505,447.1,516.6,472.6z"/>
	<path class="st1" d="M49.6,133.1c22.3-5.9,44.2-10.5,65.1-17.5c29.6-9.9,58.9-9.5,88.9-2.6c10.3,2.4,20.9,3.7,32.9,5.7
		c-10.2,11.5-19.4,22.1-28.7,32.6c-3.4,3.9-7.5,7.4-10.4,11.7c-7.2,10.3-15.7,17-30,14.8c-6-0.9-11.1,2.5-12.7,8.6
		c-1.7,6.3,1,11,6.9,14.1c22.4,11.9,44.8,23.7,67.1,35.7c11.8,6.4,15.8,16.8,10.9,27.1c-4.8,10.1-15.1,14.3-27.8,10.5
		c-25.6-7.5-51.5-14.5-76.5-23.5c-10.4-3.8-19.6-11.5-27.9-19c-8-7.2-15.3-10.6-26.3-7c-10,3.3-20.6,5.3-31.5,8
		C49.6,198.1,49.6,164.7,49.6,133.1z"/>
	<path d="M386.7,517.3c0-6.2,0-12,0-18.4c47.4-4.2,94.5-8.4,142.4-12.6c0,10.4,0,20.4,0,31C481.7,517.3,434.5,517.3,386.7,517.3z"/>
	<path d="M0,108c11.6,0,21.8,0,32.7,0c0,45,0,89.4,0,134.5c-6.2,0-12.3,0-19.5,0C8.8,198.1,4.5,153.5,0,108z"/>
	<path d="M299.6,158.3c-5.7,5.4-10.5,10-15.4,14.6c0.8,1,1.6,1.9,2.4,2.9c3.4-1.3,6.9-2.3,10.1-3.9c8.7-4.4,17.5-8.1,26.7-1.6
		c7.8,5.4,9.1,12.2,5.6,25.7c2.1,1.7,4.3,3.6,7.2,6c-2.9,3.3-5.6,6.5-8.5,9.7c-2.6-1.7-4.8-3.2-7.1-4.7c-4.7,2.8-9.4,5.6-14.8,8.8
		c-3.2-4.2-6.1-8-8.9-11.7c5.1-3.8,10.2-7.2,14.5-11.2c1.4-1.3,1.1-4.4,1.6-6.6c-2.2,0-4.7-0.5-6.6,0.2c-4.4,1.7-8.4,4.4-12.8,5.9
		c-14.7,4.9-26.5-4.5-25-19.1c0.4-4.3-1.3-8.7-2-13.1c-0.9,0-1.8,0-2.7,0c2.6-3,5.2-6,8-9.3c2.4,1.5,4.6,2.8,6.8,4.3
		c3.7-2.3,7.3-4.5,12.1-7.4C294.1,151.5,297.1,155.1,299.6,158.3z"/>
</g>
</svg>
