<?xml version="1.0" encoding="utf-8"?>
<!-- Generator: Adobe Illustrator 23.0.2, SVG Export Plug-In . SVG Version: 6.00 Build 0)  -->
<svg version="1.1" id="Capa_1" xmlns="http://www.w3.org/2000/svg" xmlns:xlink="http://www.w3.org/1999/xlink" x="0px" y="0px"
	 viewBox="0 0 370 59" style="enable-background:new 0 0 370 59;" xml:space="preserve">
<style type="text/css">
	.st0{fill:#6FAB82;}
	.st1{fill:#08060A;}
	.st2{fill:#FFFFFF;}
	.st3{fill:#747B91;}
	.st4{font-family:'Roboto-Regular';}
	.st5{font-size:28.6805px;}
</style>
<g>
	<path class="st0" d="M59,31.8c0,0.3,0,0.5,0,0.8c0,0-0.1,0-0.1-0.1l0,0c-0.1,0.6-0.2,1.3-0.3,1.9c-1,5.7-3.4,10.7-7.3,14.9
		c-5,5.4-11.1,8.5-18.4,9.4c-0.1,0-0.2,0.1-0.3,0.2c-0.3,0-0.5,0-0.8,0c-0.1,0-0.2,0-0.2,0c-1.4,0-2.8,0-4.3,0l-0.1-0.1v0.1
		c-0.3,0-0.5,0-0.8,0c0,0,0-0.1,0.1-0.1l0,0c-0.6-0.1-1.3-0.2-1.9-0.3c-5.7-1-10.7-3.4-14.9-7.3c-5.4-5-8.5-11.1-9.4-18.3
		c0-0.1-0.1-0.2-0.2-0.3c0-0.3,0-0.5,0-0.8h0.1l-0.1-0.1c0-1.5,0-2.9,0-4.4l0.1-0.1H0.1c0-0.3,0-0.5,0-0.8c0,0,0.1,0,0.1,0.1l0,0
		c0.1-0.6,0.2-1.3,0.3-1.9C1.5,19,3.8,14,7.7,9.8c5-5.4,11.1-8.6,18.5-9.5c0.1,0,0.2-0.1,0.3-0.2c0.3,0,0.5,0,0.8,0
		c0.1,0,0.2,0,0.2,0c1.4,0,2.8,0,4.1,0c0.1,0,0.2,0,0.2,0c0.3,0,0.5,0,0.8,0c0,0,0,0.1-0.1,0.1l0,0c0.6,0.1,1.3,0.2,1.9,0.3
		c5.7,1,10.7,3.4,14.9,7.3c5.4,5,8.5,11.1,9.4,18.4c0,0.1,0.1,0.2,0.2,0.3c0,0.3,0,0.5,0,0.8c0,0.1,0,0.2,0,0.2
		C58.9,28.9,58.9,30.3,59,31.8C59,31.7,58.9,31.8,59,31.8C58.9,31.8,59,31.8,59,31.8z M11.1,20.1c0,0.3,0,0.5,0,0.7
		c0,6,0,12.1,0,18.1c0,1.4,0.7,2.2,2.2,2.2c10.8,0,21.7,0,32.5,0c1.5,0,2.2-0.7,2.2-2.2c0-6,0-12.1,0-18.1c0-0.2,0-0.4,0-0.7
		c-0.3,0.2-0.5,0.4-0.7,0.5c-5.4,4.7-10.9,9.3-16.3,14c-1,0.9-1.9,0.9-2.8,0.1c-4.3-3.6-8.5-7.2-12.7-10.9
		C14,22.6,12.6,21.3,11.1,20.1z M47,18.4c0-0.1,0-0.1,0-0.2c-0.4-0.1-0.8-0.2-1.2-0.2c-4.6,0-9.2,0-13.8,0c-6.3,0-12.6,0-18.8,0
		c-0.4,0-0.8,0.1-1.2,0.2c0,0.1,0,0.1,0,0.2c5.8,5,11.7,10,17.5,15C35.4,28.3,41.2,23.3,47,18.4z"/>
	<path class="st1" d="M27.4,0c-0.1,0-0.2,0-0.2,0C27.3,0,27.3,0,27.4,0z"/>
	<path class="st1" d="M31.8,0c-0.1,0-0.2,0-0.2,0C31.7,0,31.7,0,31.8,0z"/>
	<path class="st1" d="M59,27.4c0-0.1,0-0.2,0-0.2C59,27.3,59,27.3,59,27.4z"/>
	<path class="st1" d="M31.6,59c0.1,0,0.2,0,0.2,0C31.7,59,31.7,59,31.6,59z"/>
	<path class="st1" d="M0,27.2C0,27.2,0.1,27.2,0,27.2c0.1,0,0,0.1,0,0.1C0,27.3,0,27.2,0,27.2z"/>
	<path class="st1" d="M0,31.7l0.1,0.1H0C0,31.8,0,31.7,0,31.7z"/>
	<path class="st1" d="M59,31.8C59,31.8,58.9,31.8,59,31.8c-0.1,0,0-0.1,0-0.1C59,31.7,59,31.8,59,31.8z"/>
	<path class="st1" d="M27.2,59C27.2,59,27.2,58.9,27.2,59c0-0.1,0.1,0,0.1,0C27.3,59,27.2,59,27.2,59z"/>
	<path class="st2" d="M11.1,20.1c1.5,1.3,2.9,2.5,4.3,3.7c4.2,3.6,8.5,7.3,12.7,10.9c1,0.8,1.8,0.8,2.8-0.1
		c5.4-4.7,10.9-9.3,16.3-14c0.2-0.2,0.4-0.3,0.7-0.5c0,0.3,0,0.5,0,0.7c0,6,0,12.1,0,18.1c0,1.5-0.7,2.2-2.2,2.2
		c-10.8,0-21.7,0-32.5,0c-1.4,0-2.2-0.7-2.2-2.2c0-6,0-12.1,0-18.1C11.1,20.6,11.1,20.4,11.1,20.1z"/>
	<path class="st2" d="M47,18.4c-5.8,5-11.7,10-17.5,15c-5.9-5-11.7-10-17.5-15c0-0.1,0-0.1,0-0.2c0.4-0.1,0.8-0.2,1.2-0.2
		c6.3,0,12.6,0,18.8,0c4.6,0,9.2,0,13.8,0c0.4,0,0.8,0.1,1.2,0.2C47,18.2,47,18.3,47,18.4z"/>
</g>
<text transform="matrix(1 0 0 1 71.1963 40.1)" class="st3 st4 st5">sge.oxinik@gmail.com</text>
</svg>
