<?xml version="1.0" encoding="utf-8"?>
<!-- Generator: Adobe Illustrator 23.0.2, SVG Export Plug-In . SVG Version: 6.00 Build 0)  -->
<svg version="1.1" id="Capa_1" xmlns="http://www.w3.org/2000/svg" xmlns:xlink="http://www.w3.org/1999/xlink" x="0px" y="0px"
	 viewBox="0 0 567.7 191.6" style="enable-background:new 0 0 567.7 191.6;" xml:space="preserve">
<style type="text/css">
	.st0{fill:#FFFFFF;}
</style>
<g>
	<path class="st0" d="M325.8,89c0-17.9,0-35.9,0-53.8c0-2,0.1-4,0.8-6c0.8-2.1,2-3.9,3.9-5.1c0.9-0.5,1.8-0.8,2.8-0.9
		c3.9-0.1,7.8-0.2,11.6-0.2c1.4,0,2.7,0.2,4,0.5c1.7,0.4,3.1,1.4,4,2.9c4.5,7,8.9,14,13.4,21c4.5,7.1,9,14.1,13.6,21.2
		c2.5,4,5.1,7.9,7.6,11.9c0.1,0.1,0.2,0.3,0.3,0.4c0.5,0.8,1.2,1.5,2.2,1.4s1.9-0.8,2.2-1.8c0.3-0.8,0.5-1.7,0.5-2.5
		c0-14.6,0-29.3,0-43.9c0-2.9,0.7-5.7,2.5-8c1.4-1.8,3.2-2.9,5.6-2.9c3.9,0,7.8-0.1,11.8-0.1c1.8,0,3.5,0.3,5.2,1.1
		c2.7,1.2,4.1,3.4,4.7,6.1c0.3,1.4,0.5,2.9,0.5,4.4c0,36.2,0,72.4,0,108.7c0,1.9-0.2,3.8-0.8,5.6c-1.1,3.1-3.3,4.9-6.4,5.5
		c-2.9,0.6-5.8,0.7-8.7,0.4c-1.3-0.1-2.7-0.3-4.1,0.1c-1,0.3-1.8-0.5-2.5-1.1c-1.4-1.4-2.9-2.8-4.1-4.3c-2.7-3.4-5.3-6.7-7.7-10.3
		c-5.1-7.5-10.1-15-15.1-22.5c-3.9-5.9-7.8-11.9-11.8-17.8c-0.5-0.8-1.1-1.4-1.8-2.1c-0.9-0.9-2-0.9-3,0c-0.9,0.8-1.1,1.9-1.2,3
		c0,0.3,0,0.7,0,1c0,14.3,0,28.7,0,43c0,2.9-0.7,5.6-2.5,7.9c-1.6,2.1-3.6,3.1-6.3,3c-2.3-0.1-4.6,0.2-6.9,0.2
		c-2.2,0.1-4.4,0-6.7-0.4c-4.3-0.8-6.8-3.5-7.5-7.5c-0.2-1.5-0.3-3-0.3-4.4C325.8,124.8,325.8,106.9,325.8,89z"/>
	<path class="st0" d="M0,91.1C0,78.9,1.6,68.8,5,59c2.5-7.1,5.9-13.6,10.7-19.4c2.8-3.5,6.1-6.5,9.8-9c3.6-2.4,7.3-4.2,11.5-5.4
		c4.1-1.2,8.2-1.9,12.4-1.8c3,0,6,0.1,9,0.2c2.8,0.1,5.5,0.8,8.1,1.6c2.1,0.6,4.1,1.4,6.1,2.3c3.3,1.6,6.4,3.6,9.2,6
		c8,6.8,13.1,15.5,16.6,25.2c2.2,6.1,3.6,12.4,4.4,18.9c0.6,4.8,0.8,9.6,0.7,14.5c-0.3,10.3-2.1,20.3-5.8,29.9
		c-2.4,6.2-5.5,12-9.8,17.1c-3.7,4.6-8.1,8.4-13.3,11.3c-3.8,2-7.7,3.5-11.9,4.3c-3.5,0.7-6.9,0.9-10.5,0.9c-2.1,0-4.1-0.1-6.2-0.1
		c-3.4-0.1-6.8-0.9-10.1-2c-3.7-1.2-7.1-2.9-10.3-5c-3.5-2.3-6.6-5.2-9.4-8.4c-4.1-4.8-7.3-10.1-9.7-15.9c-2.9-6.7-4.7-13.7-5.8-21
		C0.3,98.6,0,94,0,91.1z M72.5,89.6c-0.1-4.4-0.5-8.8-1.8-13.1c-1.2-4.2-3-8.1-5.9-11.3c-2.4-2.6-5.3-4.5-8.8-5.1
		c-2.9-0.5-5.7-0.4-8.6,0.2c-2.3,0.5-4.2,1.5-6.1,2.9c-2.8,2.2-4.8,5.1-6.3,8.3C32.3,77,31.3,83,31.2,89.1c-0.1,3.3,0.3,6.5,0.9,9.7
		c1,5,2.7,9.8,5.9,13.9c3,3.9,6.9,6.3,11.9,6.7c1.2,0.1,2.4,0.1,3.6,0c3.6-0.1,6.7-1.4,9.5-3.8c2.7-2.3,4.5-5.1,5.9-8.3
		C71.4,101.8,72.3,95.8,72.5,89.6z"/>
	<path class="st0" d="M470.5,88.9c0-19.4,0-38.7,0-58.1c0-1.6,0.2-3.1,0.9-4.6c0.3-0.6,0.7-1.1,1.1-1.6c0.9-1,2-1.5,3.4-1.5
		c3.4,0,6.8,0,10.2,0c3.1,0,6.1,0.1,9.2,0c2.6-0.1,4.1,0.9,5.4,3.7c0.4,0.9,0.5,1.9,0.6,2.9c0.1,0.6,0,1.2,0,1.7c0,12,0,23.9,0,35.9
		c0,2.4,0.7,4.6,2.6,6.2c0.3,0.3,0.7,0.6,1.2,0.7c2.2,0.6,4.4,0.6,6.5-0.3c1.4-0.6,2.1-1.8,2.6-3.2c0.7-1.9,1.4-3.8,2.1-5.7
		c3.2-8.3,6.4-16.6,9.5-24.9c1.6-4.3,3.3-8.6,4.9-12.8c0.4-1.1,1-2.2,1.9-3s1.9-1.2,3-1.2c7,0,14.1,0,21.1,0c1.7,0,2.9,0.8,3.8,2.1
		c1.9,2.9,2,5.9,0.7,9c-1.9,4.4-3.8,8.7-5.7,13c-4.3,9.6-8.5,19.3-12.8,28.9c-1.6,3.6-3.2,7.1-4.7,10.6c-1.1,2.5-1.2,5.1-0.2,7.6
		c0.4,1,1.1,2,1.6,2.9c2.8,4.7,5.6,9.5,8.4,14.2c4.5,7.7,9.1,15.4,13.6,23c1.7,2.8,3.4,5.7,5,8.5c1.6,3,1.6,6,0,9
		c-1,1.9-2.6,2.8-4.8,2.8c-6.9,0-13.8,0-20.7,0c-0.3,0-0.7-0.1-1,0c-1.2,0.4-1.9-0.3-2.6-1c-1.4-1.7-2.7-3.4-3.9-5.3
		c-3.7-5.8-7-11.8-10.2-17.8s-6.4-12.1-9.7-18.1c-0.8-1.4-1.6-2.9-3-3.9c-2.2-1.8-5.6-1.4-7.5,0.7c-1.3,1.5-1.9,3.2-1.9,5.2
		c0,10.8,0,21.6,0,32.4c0,1.6-0.2,3.1-0.9,4.6c-1.1,2.2-2.7,3.3-5.2,3.3c-6.2-0.1-12.3-0.1-18.5,0c-3.1,0.1-4.9-1.6-5.8-4.3
		c-0.3-1-0.5-2.1-0.5-3.2c-0.1-3.4,0-6.8,0-10.2C470.5,121.2,470.5,105.1,470.5,88.9z"/>
	<path class="st0" d="M123,23.1c3.7,0,7.4,0,11.2,0c1.1,0,2,0.4,2.7,1.1c2.1,2.1,3.7,4.5,5.1,7c3.2,5.6,6.3,11.3,9.4,17
		c1,1.7,2,3.4,3.1,5.1c1.1,1.6,2.8,1.6,3.9-0.2c2-3.3,4-6.7,5.8-10.1c2.2-4.2,4.2-8.5,6.4-12.7c0.7-1.3,1.5-2.6,2.4-3.9
		c1.4-2,3.5-3,5.9-3.1c3.5-0.2,6.9-0.2,10.4-0.3c3.8,0,7.6,0.2,11.4,0c4-0.2,5.7,2.6,6.2,5.3c0.5,2.3,0,4.5-1.1,6.6
		c-3.6,6.4-7.1,12.8-10.7,19.1c-4.6,8.3-9.2,16.5-13.8,24.8c-0.8,1.5-1.7,3-2.5,4.5c-1.6,2.9-1.6,5.8,0,8.6
		c2.7,4.9,5.5,9.9,8.3,14.8c6.3,11.2,12.5,22.3,18.8,33.5c0.7,1.2,1.4,2.3,2,3.6c1.4,3,1.3,5.9-0.5,8.7c-1,1.5-2.4,2.3-4.1,2.3
		c-4.2,0.1-8.3,0.2-12.5,0.2c-2,0-4,0.1-6,0c-1.5-0.1-3-0.3-4.5-0.6c-2.3-0.4-4.1-1.8-5.3-3.7c-1.4-2.4-2.8-4.8-4-7.3
		c-3.8-7.5-7.8-15-12.2-22.1c-0.3-0.4-0.6-0.8-1-1.1c-0.8-0.7-1.8-0.7-2.6,0c-0.6,0.6-1.2,1.3-1.6,2c-2,3.8-4,7.7-6,11.5
		c-2.8,5.4-5.4,10.8-8.7,15.8c-0.7,1.1-1.6,2.2-2.4,3.3c-1.1,1.4-2.3,2.1-4.2,2c-5.8-0.2-11.7-0.1-17.5-0.1c-1.4,0-2.8-0.1-4.2,0
		c-3.7,0.2-5.6-2.1-6.3-5.2c-0.5-2.1-0.1-4.2,0.9-6.1c5.2-10,10.8-19.9,16.7-29.5c3.2-5.1,6.3-10.3,9.4-15.5c0.9-1.4,1.6-3,2.2-4.6
		c1.6-3.7,1.7-7.5,0.4-11.4c-1.2-3.4-2.8-6.5-4.6-9.6c-4.5-7.8-9.2-15.5-13.7-23.3c-3-5.2-5.9-10.4-8.8-15.7
		c-1.5-2.7-1.3-5.5,0.1-8.2c1-1.9,2.6-2.8,4.7-2.8C115.5,23.1,119.2,23.1,123,23.1z"/>
	<path class="st0" d="M436.6,23.5c0.2-1.4,0.3-2.6,0.7-3.8c0.8-2.9,2.4-5.2,5.1-6.7c0.6-0.3,0.6-0.7,0.6-1.2c0-2.9,0-5.7,0-8.6
		c0-0.4,0-0.7,0-1.1c0.2-1.3,1-2,2.3-2.1c0.9,0,1.8-0.1,2.7,0c1.9,0.1,2.6,0.9,2.6,2.8c0,2.9,0,5.9,0,8.8c0,0.7,0.2,1.1,0.9,1.6
		c2.9,1.8,4.5,4.4,5.1,7.7c0.2,0.8,0.2,1.6,0.3,2.4c0.9,0.7,1.9,1.3,2.7,2.1c1.8,1.7,2.8,4,3.2,6.4c0.2,1.2,0.2,2.4,0.2,3.6
		c0,35.4,0,70.8,0,106.2c0,3.3-0.7,6.4-2.6,9.1c-1.7,2.5-4,4.1-7.1,4.2c-3.3,0.1-6.6,0.3-9.9,0.2c-2.5-0.1-4.9-0.4-7.2-1.6
		c-2.2-1.1-3.6-2.9-4.5-5.1c-0.8-2.1-1.2-4.3-1.2-6.5c0-15.5,0-30.9,0-46.4c0-20.4,0-40.8,0-61.3c0-3,0.8-5.7,2.7-8.1
		C434.2,24.9,435.4,24.1,436.6,23.5z"/>
	<path class="st0" d="M223.4,23.4c0-2.5,0.6-4.8,1.8-6.8c0.9-1.5,2.1-2.7,3.6-3.5c0.6-0.3,0.8-0.7,0.8-1.3c0-2.9,0-5.7,0-8.6
		c0-0.4,0-0.8,0.1-1.2c0.2-1.2,1-1.9,2.2-1.9c1,0,2-0.1,3,0c1.7,0.1,2.4,0.9,2.4,2.7c0,2.9,0,5.8,0,8.7c0,0.4,0,0.8,0,1.2
		c4.2,2.4,6.1,6.1,6.2,10.8c1.8,0.9,3.3,2.1,4.3,3.8c1.2,2,1.8,4.1,1.8,6.4c0,0.2,0,0.4,0,0.6c0,35.9,0,71.8,0,107.7
		c0,3.1-0.7,6-2.4,8.6c-1.9,2.9-4.6,4.5-8.2,4.5c-3,0-6,0.2-9,0.1c-2.2-0.1-4.5-0.4-6.6-1.4c-2.3-1.1-3.9-2.8-4.8-5.1
		c-0.9-2-1.1-4.1-1.3-6.3c0-0.2,0-0.5,0-0.7c0-35.7,0-71.5,0-107.2c0-1.6,0.2-3.1,0.7-4.6C218.8,26.9,220.5,24.7,223.4,23.4z"/>
	<path class="st0" d="M313.6,77.2c-0.2,5.4-1.2,10.5-3.6,15.3c-2.2,4.3-5.3,7.7-9.4,10.2c-3.1,1.9-6.4,2.9-10,3.5
		c-3.5,0.5-6.9,0.2-10.2-0.7c-4.3-1.2-8.1-3.4-11.2-6.7c-4.9-5-7.1-11.2-7.9-18c-0.6-5.7,0.1-11.2,2.2-16.5
		c2.1-5.4,5.6-9.7,10.6-12.7c2.9-1.7,5.9-2.7,9.2-3.3c3.8-0.7,7.5-0.3,11.1,0.7c4.7,1.3,8.8,4,12,7.7c3.6,4.2,5.6,9.2,6.5,14.6
		C313.2,73.3,313.4,75.3,313.6,77.2z"/>
	<g>
		<path class="st0" d="M165.3,175.3v4.1c0,0.5-0.1,1-0.2,1.3c-0.1,0.3-0.3,0.6-0.6,0.9c-0.3,0.3-0.6,0.5-1.1,0.8
			c-1.3,0.7-2.5,1.2-3.7,1.5c-1.2,0.3-2.5,0.5-3.9,0.5c-1.6,0-3.1-0.3-4.5-0.8c-1.3-0.5-2.5-1.2-3.4-2.2s-1.7-2.1-2.2-3.5
			c-0.5-1.4-0.8-2.9-0.8-4.6c0-1.6,0.2-3.2,0.7-4.5s1.2-2.5,2.2-3.5s2.1-1.7,3.5-2.2c1.4-0.5,2.9-0.8,4.7-0.8c1.4,0,2.7,0.2,3.8,0.6
			c1.1,0.4,2,0.9,2.7,1.4c0.7,0.6,1.2,1.2,1.5,1.8c0.3,0.6,0.5,1.2,0.5,1.7c0,0.5-0.2,1-0.6,1.4c-0.4,0.4-0.9,0.6-1.4,0.6
			c-0.3,0-0.6-0.1-0.9-0.2s-0.5-0.3-0.7-0.6c-0.5-0.8-1-1.5-1.3-1.9c-0.4-0.4-0.9-0.8-1.5-1.1c-0.6-0.3-1.4-0.4-2.4-0.4
			c-1,0-1.9,0.2-2.7,0.5c-0.8,0.3-1.4,0.8-2,1.5c-0.6,0.7-1,1.5-1.3,2.4s-0.4,2-0.4,3.1c0,2.5,0.6,4.4,1.7,5.7c1.1,1.3,2.7,2,4.8,2
			c1,0,1.9-0.1,2.8-0.4c0.9-0.3,1.8-0.6,2.7-1.1V176H158c-0.8,0-1.4-0.1-1.8-0.4c-0.4-0.2-0.6-0.7-0.6-1.2c0-0.5,0.2-0.9,0.5-1.2
			c0.3-0.3,0.8-0.5,1.4-0.5h4.9c0.6,0,1.1,0.1,1.5,0.2c0.4,0.1,0.8,0.3,1,0.7C165.2,174,165.3,174.6,165.3,175.3z"/>
		<path class="st0" d="M190.4,181.5l-1-2.7h-8.6l-1,2.7c-0.4,1.1-0.7,1.8-1,2.1s-0.7,0.6-1.4,0.6c-0.5,0-1-0.2-1.4-0.6
			c-0.4-0.4-0.6-0.8-0.6-1.3c0-0.3,0-0.6,0.1-0.9c0.1-0.3,0.3-0.7,0.5-1.3l5.4-13.8c0.2-0.4,0.3-0.9,0.6-1.4c0.2-0.6,0.4-1,0.7-1.4
			c0.2-0.4,0.6-0.7,1-0.9s0.9-0.3,1.5-0.3c0.6,0,1.1,0.1,1.5,0.3c0.4,0.2,0.7,0.5,1,0.9c0.2,0.4,0.5,0.7,0.6,1.2
			c0.2,0.4,0.4,1,0.6,1.6l5.5,13.7c0.4,1,0.7,1.8,0.7,2.3c0,0.5-0.2,0.9-0.6,1.4c-0.4,0.4-0.9,0.6-1.5,0.6c-0.3,0-0.6-0.1-0.9-0.2
			c-0.2-0.1-0.4-0.3-0.6-0.5c-0.2-0.2-0.3-0.5-0.5-1C190.7,182.2,190.5,181.9,190.4,181.5z M181.9,175.6h6.3l-3.2-8.8L181.9,175.6z"
			/>
		<path class="st0" d="M221.7,177.6c0,1.3-0.3,2.4-1,3.5c-0.7,1-1.6,1.8-2.9,2.4c-1.3,0.6-2.8,0.9-4.5,0.9c-2.1,0-3.8-0.4-5.2-1.2
			c-1-0.6-1.7-1.3-2.4-2.3c-0.6-1-0.9-1.9-0.9-2.8c0-0.5,0.2-1,0.5-1.3c0.4-0.4,0.8-0.6,1.4-0.6c0.5,0,0.8,0.1,1.2,0.4
			c0.3,0.3,0.6,0.7,0.8,1.3c0.3,0.7,0.6,1.2,0.9,1.7s0.8,0.8,1.3,1.1c0.6,0.3,1.3,0.4,2.2,0.4c1.3,0,2.3-0.3,3.1-0.9
			s1.2-1.3,1.2-2.2c0-0.7-0.2-1.3-0.6-1.7s-1-0.8-1.7-1c-0.7-0.2-1.6-0.5-2.7-0.7c-1.5-0.4-2.8-0.8-3.8-1.3c-1-0.5-1.8-1.1-2.4-2
			s-0.9-1.8-0.9-3.1c0-1.2,0.3-2.2,1-3.1c0.6-0.9,1.6-1.6,2.8-2.1c1.2-0.5,2.6-0.7,4.3-0.7c1.3,0,2.4,0.2,3.4,0.5
			c1,0.3,1.7,0.8,2.4,1.3c0.6,0.5,1.1,1.1,1.4,1.7c0.3,0.6,0.4,1.2,0.4,1.7c0,0.5-0.2,1-0.5,1.4c-0.4,0.4-0.8,0.6-1.4,0.6
			c-0.5,0-0.9-0.1-1.1-0.4c-0.3-0.2-0.5-0.6-0.8-1.2c-0.4-0.8-0.8-1.4-1.4-1.9c-0.5-0.4-1.4-0.7-2.6-0.7c-1.1,0-2,0.2-2.7,0.7
			s-1,1.1-1,1.8c0,0.4,0.1,0.8,0.3,1.1c0.2,0.3,0.5,0.6,1,0.8c0.4,0.2,0.8,0.4,1.2,0.5c0.4,0.1,1.1,0.3,2.1,0.5
			c1.2,0.3,2.3,0.6,3.2,0.9c1,0.3,1.8,0.7,2.5,1.2s1.2,1.1,1.6,1.8C221.5,175.6,221.7,176.5,221.7,177.6z"/>
		<path class="st0" d="M246.7,166H237v5.2h8.9c0.7,0,1.1,0.1,1.5,0.4c0.3,0.3,0.5,0.7,0.5,1.2s-0.2,0.9-0.5,1.2s-0.8,0.5-1.5,0.5
			H237v6h10c0.7,0,1.2,0.2,1.5,0.5s0.5,0.7,0.5,1.3c0,0.5-0.2,0.9-0.5,1.2c-0.3,0.3-0.9,0.5-1.5,0.5h-11.7c-0.9,0-1.6-0.2-2-0.6
			s-0.6-1.1-0.6-2v-16c0-0.6,0.1-1.1,0.3-1.5c0.2-0.4,0.5-0.7,0.9-0.9c0.4-0.2,0.9-0.3,1.5-0.3h11.3c0.7,0,1.2,0.2,1.5,0.5
			c0.3,0.3,0.5,0.7,0.5,1.2c0,0.5-0.2,0.9-0.5,1.2C247.9,165.9,247.4,166,246.7,166z"/>
		<path class="st0" d="M276,177.6c0,1.3-0.3,2.4-1,3.5c-0.7,1-1.6,1.8-2.9,2.4s-2.8,0.9-4.5,0.9c-2.1,0-3.8-0.4-5.2-1.2
			c-1-0.6-1.7-1.3-2.4-2.3c-0.6-1-0.9-1.9-0.9-2.8c0-0.5,0.2-1,0.5-1.3c0.4-0.4,0.8-0.6,1.4-0.6c0.5,0,0.8,0.1,1.2,0.4
			c0.3,0.3,0.6,0.7,0.8,1.3c0.3,0.7,0.6,1.2,0.9,1.7s0.8,0.8,1.3,1.1c0.6,0.3,1.3,0.4,2.2,0.4c1.3,0,2.3-0.3,3.1-0.9
			c0.8-0.6,1.2-1.3,1.2-2.2c0-0.7-0.2-1.3-0.6-1.7c-0.4-0.4-1-0.8-1.7-1c-0.7-0.2-1.6-0.5-2.7-0.7c-1.5-0.4-2.8-0.8-3.8-1.3
			c-1-0.5-1.8-1.1-2.4-2c-0.6-0.8-0.9-1.8-0.9-3.1c0-1.2,0.3-2.2,1-3.1c0.6-0.9,1.6-1.6,2.8-2.1s2.6-0.7,4.3-0.7
			c1.3,0,2.4,0.2,3.4,0.5s1.7,0.8,2.4,1.3c0.6,0.5,1.1,1.1,1.4,1.7c0.3,0.6,0.4,1.2,0.4,1.7c0,0.5-0.2,1-0.5,1.4
			c-0.4,0.4-0.8,0.6-1.4,0.6c-0.5,0-0.9-0.1-1.1-0.4s-0.5-0.6-0.8-1.2c-0.4-0.8-0.8-1.4-1.4-1.9c-0.5-0.4-1.4-0.7-2.6-0.7
			c-1.1,0-2,0.2-2.7,0.7s-1,1.1-1,1.8c0,0.4,0.1,0.8,0.3,1.1s0.5,0.6,1,0.8c0.4,0.2,0.8,0.4,1.2,0.5c0.4,0.1,1.1,0.3,2.1,0.5
			c1.2,0.3,2.3,0.6,3.3,0.9c1,0.3,1.8,0.7,2.5,1.2c0.7,0.5,1.2,1.1,1.6,1.8S276,176.5,276,177.6z"/>
		<path class="st0" d="M323.3,166h-9.7v5.2h8.9c0.7,0,1.1,0.1,1.5,0.4c0.3,0.3,0.5,0.7,0.5,1.2s-0.2,0.9-0.5,1.2s-0.8,0.5-1.5,0.5
			h-8.9v6h10c0.7,0,1.2,0.2,1.5,0.5c0.3,0.3,0.5,0.7,0.5,1.3c0,0.5-0.2,0.9-0.5,1.2c-0.3,0.3-0.9,0.5-1.5,0.5h-11.7
			c-0.9,0-1.6-0.2-2-0.6s-0.6-1.1-0.6-2v-16c0-0.6,0.1-1.1,0.3-1.5c0.2-0.4,0.5-0.7,0.9-0.9s0.9-0.3,1.5-0.3h11.3
			c0.7,0,1.2,0.2,1.5,0.5c0.3,0.3,0.5,0.7,0.5,1.2c0,0.5-0.2,0.9-0.5,1.2S324,166,323.3,166z"/>
		<path class="st0" d="M352.6,177.6c0,1.3-0.3,2.4-1,3.5c-0.7,1-1.6,1.8-2.9,2.4s-2.8,0.9-4.5,0.9c-2.1,0-3.8-0.4-5.2-1.2
			c-1-0.6-1.7-1.3-2.4-2.3c-0.6-1-0.9-1.9-0.9-2.8c0-0.5,0.2-1,0.5-1.3c0.4-0.4,0.8-0.6,1.4-0.6c0.5,0,0.8,0.1,1.2,0.4
			c0.3,0.3,0.6,0.7,0.8,1.3c0.3,0.7,0.6,1.2,0.9,1.7s0.8,0.8,1.3,1.1c0.6,0.3,1.3,0.4,2.2,0.4c1.3,0,2.3-0.3,3.1-0.9
			c0.8-0.6,1.2-1.3,1.2-2.2c0-0.7-0.2-1.3-0.6-1.7c-0.4-0.4-1-0.8-1.7-1c-0.7-0.2-1.6-0.5-2.7-0.7c-1.5-0.4-2.8-0.8-3.8-1.3
			c-1-0.5-1.8-1.1-2.4-2c-0.6-0.8-0.9-1.8-0.9-3.1c0-1.2,0.3-2.2,1-3.1c0.6-0.9,1.6-1.6,2.8-2.1s2.6-0.7,4.3-0.7
			c1.3,0,2.4,0.2,3.4,0.5s1.7,0.8,2.4,1.3c0.6,0.5,1.1,1.1,1.4,1.7c0.3,0.6,0.4,1.2,0.4,1.7c0,0.5-0.2,1-0.5,1.4
			c-0.4,0.4-0.8,0.6-1.4,0.6c-0.5,0-0.9-0.1-1.1-0.4s-0.5-0.6-0.8-1.2c-0.4-0.8-0.8-1.4-1.4-1.9c-0.5-0.4-1.4-0.7-2.6-0.7
			c-1.1,0-2,0.2-2.7,0.7s-1,1.1-1,1.8c0,0.4,0.1,0.8,0.3,1.1s0.5,0.6,1,0.8c0.4,0.2,0.8,0.4,1.2,0.5c0.4,0.1,1.1,0.3,2.1,0.5
			c1.2,0.3,2.3,0.6,3.3,0.9c1,0.3,1.8,0.7,2.5,1.2c0.7,0.5,1.2,1.1,1.6,1.8S352.6,176.5,352.6,177.6z"/>
		<path class="st0" d="M371.9,175.7H368v6c0,0.9-0.2,1.5-0.6,2c-0.4,0.4-0.9,0.7-1.5,0.7c-0.6,0-1.2-0.2-1.6-0.7
			c-0.4-0.4-0.6-1.1-0.6-1.9v-16.4c0-0.9,0.2-1.6,0.7-2c0.4-0.4,1.1-0.6,2.1-0.6h5.5c1.6,0,2.9,0.1,3.8,0.4c0.9,0.2,1.6,0.6,2.3,1.2
			s1.1,1.2,1.4,2.1s0.5,1.7,0.5,2.7c0,2.2-0.7,3.8-2,4.9C376.5,175.1,374.5,175.7,371.9,175.7z M370.9,165.9H368v6.5h2.9
			c1,0,1.9-0.1,2.5-0.3c0.7-0.2,1.2-0.6,1.6-1c0.4-0.5,0.5-1.1,0.5-1.9c0-0.9-0.3-1.7-0.8-2.3C374,166.3,372.8,165.9,370.9,165.9z"
			/>
		<path class="st0" d="M404.8,166h-9.7v5.2h8.9c0.7,0,1.1,0.1,1.5,0.4c0.3,0.3,0.5,0.7,0.5,1.2s-0.2,0.9-0.5,1.2s-0.8,0.5-1.5,0.5
			h-8.9v6h10c0.7,0,1.2,0.2,1.5,0.5c0.3,0.3,0.5,0.7,0.5,1.3c0,0.5-0.2,0.9-0.5,1.2c-0.3,0.3-0.9,0.5-1.5,0.5h-11.7
			c-0.9,0-1.6-0.2-2-0.6s-0.6-1.1-0.6-2v-16c0-0.6,0.1-1.1,0.3-1.5c0.2-0.4,0.5-0.7,0.9-0.9s0.9-0.3,1.5-0.3h11.3
			c0.7,0,1.2,0.2,1.5,0.5c0.3,0.3,0.5,0.7,0.5,1.2c0,0.5-0.2,0.9-0.5,1.2S405.5,166,404.8,166z"/>
		<path class="st0" d="M436.1,177.2c0,0.7-0.2,1.4-0.5,2.2c-0.3,0.8-0.9,1.6-1.6,2.3c-0.7,0.8-1.6,1.4-2.7,1.8s-2.4,0.7-3.9,0.7
			c-1.1,0-2.1-0.1-3.1-0.3c-0.9-0.2-1.7-0.5-2.5-1c-0.7-0.4-1.4-1-2.1-1.8c-0.6-0.7-1-1.4-1.4-2.2s-0.7-1.7-0.9-2.6
			c-0.2-0.9-0.3-1.9-0.3-3c0-1.7,0.2-3.2,0.7-4.6s1.2-2.5,2.1-3.5c0.9-1,2-1.7,3.3-2.2c1.2-0.5,2.6-0.8,4-0.8c1.7,0,3.2,0.3,4.6,1
			c1.3,0.7,2.4,1.5,3.1,2.5c0.7,1,1.1,2,1.1,2.9c0,0.5-0.2,0.9-0.5,1.3c-0.3,0.4-0.8,0.6-1.3,0.6c-0.5,0-1-0.1-1.2-0.4
			c-0.3-0.3-0.6-0.7-0.9-1.3c-0.6-1.1-1.2-1.8-2-2.4c-0.8-0.5-1.7-0.8-2.8-0.8c-1.8,0-3.2,0.7-4.2,2c-1,1.3-1.6,3.2-1.6,5.7
			c0,1.7,0.2,3,0.7,4.1c0.5,1.1,1.1,1.9,2,2.5c0.8,0.5,1.8,0.8,3,0.8c1.2,0,2.3-0.3,3.1-0.9c0.9-0.6,1.5-1.5,1.9-2.7
			c0.2-0.6,0.4-1,0.7-1.4c0.3-0.4,0.7-0.5,1.3-0.5c0.5,0,1,0.2,1.3,0.5C435.9,176.3,436.1,176.7,436.1,177.2z"/>
		<path class="st0" d="M447.6,181.7V165c0-0.9,0.2-1.5,0.6-2c0.4-0.4,0.9-0.7,1.5-0.7c0.6,0,1.2,0.2,1.6,0.6s0.6,1.1,0.6,2v16.7
			c0,0.9-0.2,1.5-0.6,2c-0.4,0.4-0.9,0.7-1.6,0.7c-0.6,0-1.1-0.2-1.5-0.7C447.8,183.2,447.6,182.5,447.6,181.7z"/>
		<path class="st0" d="M477.6,181.5l-1-2.7H468l-1,2.7c-0.4,1.1-0.7,1.8-1,2.1c-0.3,0.4-0.7,0.6-1.4,0.6c-0.5,0-1-0.2-1.4-0.6
			s-0.6-0.8-0.6-1.3c0-0.3,0-0.6,0.1-0.9s0.3-0.7,0.5-1.3l5.4-13.8c0.2-0.4,0.3-0.9,0.6-1.4c0.2-0.6,0.4-1,0.7-1.4
			c0.2-0.4,0.6-0.7,1-0.9s0.9-0.3,1.5-0.3c0.6,0,1.1,0.1,1.5,0.3s0.7,0.5,1,0.9c0.2,0.4,0.5,0.7,0.6,1.2c0.2,0.4,0.4,1,0.6,1.6
			l5.5,13.7c0.4,1,0.7,1.8,0.7,2.3c0,0.5-0.2,0.9-0.6,1.4c-0.4,0.4-0.9,0.6-1.5,0.6c-0.3,0-0.6-0.1-0.9-0.2
			c-0.2-0.1-0.4-0.3-0.6-0.5c-0.2-0.2-0.3-0.5-0.5-1C477.9,182.2,477.8,181.9,477.6,181.5z M469.1,175.6h6.3l-3.2-8.8L469.1,175.6z"
			/>
		<path class="st0" d="M497,165v15.4h8.7c0.7,0,1.2,0.2,1.6,0.5c0.4,0.3,0.6,0.8,0.6,1.3c0,0.5-0.2,0.9-0.6,1.3
			c-0.4,0.3-0.9,0.5-1.6,0.5h-10.4c-0.9,0-1.6-0.2-2-0.6s-0.6-1.1-0.6-2V165c0-0.9,0.2-1.5,0.6-2c0.4-0.4,0.9-0.7,1.5-0.7
			c0.6,0,1.2,0.2,1.6,0.6S497,164.1,497,165z"/>
		<path class="st0" d="M532.1,166h-9.7v5.2h8.9c0.7,0,1.1,0.1,1.5,0.4c0.3,0.3,0.5,0.7,0.5,1.2s-0.2,0.9-0.5,1.2s-0.8,0.5-1.5,0.5
			h-8.9v6h10c0.7,0,1.2,0.2,1.5,0.5c0.3,0.3,0.5,0.7,0.5,1.3c0,0.5-0.2,0.9-0.5,1.2c-0.3,0.3-0.9,0.5-1.5,0.5h-11.7
			c-0.9,0-1.6-0.2-2-0.6s-0.6-1.1-0.6-2v-16c0-0.6,0.1-1.1,0.3-1.5c0.2-0.4,0.5-0.7,0.9-0.9s0.9-0.3,1.5-0.3h11.3
			c0.7,0,1.2,0.2,1.5,0.5c0.3,0.3,0.5,0.7,0.5,1.2c0,0.5-0.2,0.9-0.5,1.2S532.8,166,532.1,166z"/>
		<path class="st0" d="M561.4,177.6c0,1.3-0.3,2.4-1,3.5c-0.7,1-1.6,1.8-2.9,2.4s-2.8,0.9-4.5,0.9c-2.1,0-3.8-0.4-5.2-1.2
			c-1-0.6-1.7-1.3-2.4-2.3c-0.6-1-0.9-1.9-0.9-2.8c0-0.5,0.2-1,0.5-1.3c0.4-0.4,0.8-0.6,1.4-0.6c0.5,0,0.8,0.1,1.2,0.4
			c0.3,0.3,0.6,0.7,0.8,1.3c0.3,0.7,0.6,1.2,0.9,1.7s0.8,0.8,1.3,1.1c0.6,0.3,1.3,0.4,2.2,0.4c1.3,0,2.3-0.3,3.1-0.9
			c0.8-0.6,1.2-1.3,1.2-2.2c0-0.7-0.2-1.3-0.6-1.7c-0.4-0.4-1-0.8-1.7-1c-0.7-0.2-1.6-0.5-2.7-0.7c-1.5-0.4-2.8-0.8-3.8-1.3
			c-1-0.5-1.8-1.1-2.4-2c-0.6-0.8-0.9-1.8-0.9-3.1c0-1.2,0.3-2.2,1-3.1c0.6-0.9,1.6-1.6,2.8-2.1s2.6-0.7,4.3-0.7
			c1.3,0,2.4,0.2,3.4,0.5s1.7,0.8,2.4,1.3c0.6,0.5,1.1,1.1,1.4,1.7c0.3,0.6,0.4,1.2,0.4,1.7c0,0.5-0.2,1-0.5,1.4
			c-0.4,0.4-0.8,0.6-1.4,0.6c-0.5,0-0.9-0.1-1.1-0.4s-0.5-0.6-0.8-1.2c-0.4-0.8-0.8-1.4-1.4-1.9c-0.5-0.4-1.4-0.7-2.6-0.7
			c-1.1,0-2,0.2-2.7,0.7s-1,1.1-1,1.8c0,0.4,0.1,0.8,0.3,1.1s0.5,0.6,1,0.8c0.4,0.2,0.8,0.4,1.2,0.5c0.4,0.1,1.1,0.3,2.1,0.5
			c1.2,0.3,2.3,0.6,3.3,0.9c1,0.3,1.8,0.7,2.5,1.2c0.7,0.5,1.2,1.1,1.6,1.8S561.4,176.5,561.4,177.6z"/>
	</g>
</g>
</svg>
