<?xml version="1.0" encoding="utf-8"?>
<!-- Generator: Adobe Illustrator 23.0.2, SVG Export Plug-In . SVG Version: 6.00 Build 0)  -->
<svg version="1.1" id="Capa_1" xmlns="http://www.w3.org/2000/svg" xmlns:xlink="http://www.w3.org/1999/xlink" x="0px" y="0px"
	 viewBox="0 0 241.9 83.2" style="enable-background:new 0 0 241.9 83.2;" xml:space="preserve">
<style type="text/css">
	.st0{fill:#5CDB94;}
	.st1{fill:#587377;}
	.st2{fill:#5DDB94;}
</style>
<g>
	<path class="st0" d="M138.2,39.5c0-7.5,0-15.1,0-22.7c0-0.8,0-1.7,0.3-2.5c0.3-0.9,0.8-1.6,1.6-2.1c0.4-0.2,0.8-0.3,1.2-0.4
		c1.6,0,3.3-0.1,4.9-0.1c0.6,0,1.1,0.1,1.7,0.2c0.7,0.2,1.3,0.6,1.7,1.2c1.9,2.9,3.7,5.9,5.6,8.8c1.9,3,3.8,5.9,5.7,8.9
		c1.1,1.7,2.1,3.3,3.2,5c0,0,0.1,0.1,0.1,0.2c0.2,0.3,0.5,0.6,0.9,0.6c0.4,0,0.8-0.3,0.9-0.8c0.1-0.3,0.2-0.7,0.2-1.1
		c0-6.1,0-12.3,0-18.5c0-1.2,0.3-2.4,1.1-3.4c0.6-0.8,1.3-1.2,2.4-1.2c1.6,0,3.3,0,5,0c0.8,0,1.5,0.1,2.2,0.5c1.1,0.5,1.7,1.4,2,2.6
		c0.1,0.6,0.2,1.2,0.2,1.9c0,15.2,0,30.5,0,45.8c0,0.8-0.1,1.6-0.3,2.4c-0.5,1.3-1.4,2.1-2.7,2.3c-1.2,0.3-2.4,0.3-3.7,0.2
		c-0.5,0-1.1-0.1-1.7,0c-0.4,0.1-0.8-0.2-1.1-0.5c-0.6-0.6-1.2-1.2-1.7-1.8c-1.1-1.4-2.2-2.8-3.2-4.3c-2.1-3.2-4.3-6.3-6.4-9.5
		c-1.6-2.5-3.3-5-5-7.5c-0.2-0.3-0.5-0.6-0.8-0.9c-0.4-0.4-0.8-0.4-1.3,0c-0.4,0.3-0.5,0.8-0.5,1.3c0,0.1,0,0.3,0,0.4
		c0,6,0,12.1,0,18.1c0,1.2-0.3,2.4-1.1,3.3c-0.7,0.9-1.5,1.3-2.7,1.3c-1,0-1.9,0.1-2.9,0.1c-0.9,0-1.9,0-2.8-0.2
		c-1.8-0.3-2.9-1.5-3.2-3.2c-0.1-0.6-0.1-1.3-0.1-1.9C138.2,54.5,138.2,47,138.2,39.5z"/>
	<path class="st1" d="M1,40.3c0-5.1,0.7-9.4,2.1-13.5c1.1-3,2.5-5.7,4.5-8.2c1.2-1.5,2.6-2.7,4.1-3.8c1.5-1,3.1-1.8,4.8-2.3
		c1.7-0.5,3.5-0.8,5.2-0.8c1.3,0,2.5,0,3.8,0.1c1.2,0,2.3,0.3,3.4,0.7c0.9,0.3,1.7,0.6,2.6,1c1.4,0.7,2.7,1.5,3.9,2.5
		c3.4,2.9,5.5,6.5,7,10.6c0.9,2.6,1.5,5.2,1.9,8c0.3,2,0.3,4,0.3,6.1c-0.1,4.3-0.9,8.6-2.4,12.6c-1,2.6-2.3,5.1-4.1,7.2
		c-1.6,1.9-3.4,3.5-5.6,4.8c-1.6,0.8-3.2,1.5-5,1.8c-1.5,0.3-2.9,0.4-4.4,0.4c-0.9,0-1.7,0-2.6,0c-1.4,0-2.9-0.4-4.3-0.8
		c-1.6-0.5-3-1.2-4.3-2.1c-1.5-1-2.8-2.2-4-3.5c-1.7-2-3.1-4.3-4.1-6.7c-1.2-2.8-2-5.8-2.4-8.8C1.1,43.5,1,41.6,1,40.3z M31.5,39.7
		c0-1.9-0.2-3.7-0.8-5.5c-0.5-1.8-1.3-3.4-2.5-4.8c-1-1.1-2.2-1.9-3.7-2.1c-1.2-0.2-2.4-0.2-3.6,0.1c-1,0.2-1.8,0.6-2.6,1.2
		c-1.2,0.9-2,2.1-2.7,3.5c-1.1,2.3-1.6,4.8-1.6,7.4c0,1.4,0.1,2.7,0.4,4.1c0.4,2.1,1.1,4.1,2.5,5.9c1.3,1.6,2.9,2.7,5,2.8
		c0.5,0,1,0,1.5,0c1.5,0,2.8-0.6,4-1.6c1.1-1,1.9-2.1,2.5-3.5C31.1,44.9,31.5,42.3,31.5,39.7z"/>
	<path class="st0" d="M199.2,39.4c0-8.2,0-16.3,0-24.5c0-0.7,0.1-1.3,0.4-1.9c0.1-0.3,0.3-0.5,0.5-0.7c0.4-0.4,0.8-0.6,1.4-0.6
		c1.4,0,2.9,0,4.3,0c1.3,0,2.6,0,3.9,0c1.1,0,1.7,0.4,2.3,1.6c0.2,0.4,0.2,0.8,0.3,1.2c0,0.3,0,0.5,0,0.7c0,5.1,0,10.1,0,15.1
		c0,1,0.3,1.9,1.1,2.6c0.1,0.1,0.3,0.3,0.5,0.3c0.9,0.3,1.9,0.3,2.7-0.1c0.6-0.3,0.9-0.8,1.1-1.3c0.3-0.8,0.6-1.6,0.9-2.4
		c1.3-3.5,2.7-7,4-10.5c0.7-1.8,1.4-3.6,2.1-5.4c0.2-0.5,0.4-0.9,0.8-1.3c0.4-0.3,0.8-0.5,1.3-0.5c2.9,0,5.9,0,8.9,0
		c0.7,0,1.2,0.3,1.6,0.9c0.8,1.2,0.8,2.5,0.3,3.8c-0.8,1.9-1.6,3.7-2.4,5.5c-1.8,4-3.6,8.1-5.4,12.2c-0.7,1.5-1.3,3-2,4.5
		c-0.5,1.1-0.5,2.1-0.1,3.2c0.2,0.4,0.5,0.8,0.7,1.2c1.2,2,2.4,4,3.5,6c1.9,3.2,3.8,6.5,5.7,9.7c0.7,1.2,1.4,2.4,2.1,3.6
		c0.7,1.3,0.7,2.5,0,3.8c-0.4,0.8-1.1,1.2-2,1.2c-2.9,0-5.8,0-8.7,0c-0.1,0-0.3,0-0.4,0c-0.5,0.2-0.8-0.1-1.1-0.4
		c-0.6-0.7-1.1-1.4-1.6-2.2c-1.6-2.4-2.9-5-4.3-7.5c-1.3-2.5-2.7-5.1-4.1-7.6c-0.3-0.6-0.7-1.2-1.3-1.6c-0.9-0.8-2.4-0.6-3.2,0.3
		c-0.5,0.6-0.8,1.3-0.8,2.2c0,4.5,0,9.1,0,13.6c0,0.7-0.1,1.3-0.4,1.9c-0.5,0.9-1.1,1.4-2.2,1.4c-2.6,0-5.2,0-7.8,0
		c-1.3,0-2.1-0.7-2.4-1.8c-0.1-0.4-0.2-0.9-0.2-1.3c0-1.4,0-2.9,0-4.3C199.2,53,199.2,46.2,199.2,39.4z"/>
	<path class="st1" d="M52.8,11.7c1.6,0,3.1,0,4.7,0c0.5,0,0.8,0.2,1.1,0.5c0.9,0.9,1.6,1.9,2.1,2.9c1.3,2.4,2.7,4.8,4,7.2
		c0.4,0.7,0.8,1.4,1.3,2.1c0.5,0.7,1.2,0.7,1.6-0.1c0.8-1.4,1.7-2.8,2.4-4.3c0.9-1.8,1.8-3.6,2.7-5.3c0.3-0.5,0.6-1.1,1-1.6
		c0.6-0.8,1.5-1.3,2.5-1.3c1.5-0.1,2.9-0.1,4.4-0.1c1.6,0,3.2,0.1,4.8,0c1.7-0.1,2.4,1.1,2.6,2.2c0.2,1,0,1.9-0.5,2.8
		c-1.5,2.7-3,5.4-4.5,8c-1.9,3.5-3.9,6.9-5.8,10.4c-0.3,0.6-0.7,1.3-1.1,1.9c-0.7,1.2-0.7,2.4,0,3.6c1.1,2.1,2.3,4.2,3.5,6.2
		c2.7,4.7,5.3,9.4,7.9,14.1c0.3,0.5,0.6,1,0.8,1.5c0.6,1.3,0.5,2.5-0.2,3.7c-0.4,0.6-1,1-1.7,1c-1.8,0-3.5,0.1-5.3,0.1
		c-0.8,0-1.7,0-2.5,0c-0.6,0-1.3-0.1-1.9-0.3c-1-0.2-1.7-0.8-2.2-1.6c-0.6-1-1.2-2-1.7-3.1c-1.6-3.2-3.3-6.3-5.1-9.3
		c-0.1-0.2-0.3-0.3-0.4-0.5c-0.3-0.3-0.8-0.3-1.1,0c-0.3,0.3-0.5,0.5-0.7,0.8c-0.8,1.6-1.7,3.2-2.5,4.8c-1.2,2.3-2.3,4.5-3.7,6.7
		c-0.3,0.5-0.7,0.9-1,1.4c-0.5,0.6-1,0.9-1.8,0.8c-2.4-0.1-4.9,0-7.4,0c-0.6,0-1.2,0-1.8,0c-1.6,0.1-2.4-0.9-2.7-2.2
		c-0.2-0.9,0-1.8,0.4-2.6c2.2-4.2,4.5-8.4,7-12.4c1.3-2.1,2.7-4.3,4-6.5c0.4-0.6,0.7-1.3,0.9-1.9c0.7-1.6,0.7-3.2,0.2-4.8
		c-0.5-1.4-1.2-2.7-1.9-4c-1.9-3.3-3.9-6.5-5.8-9.8c-1.3-2.2-2.5-4.4-3.7-6.6c-0.6-1.1-0.5-2.3,0-3.5c0.4-0.8,1.1-1.2,2-1.2
		C49.6,11.7,51.2,11.7,52.8,11.7z"/>
	<path class="st2" d="M184.9,11.9c0.1-0.6,0.1-1.1,0.3-1.6c0.3-1.2,1-2.2,2.1-2.8c0.3-0.1,0.3-0.3,0.3-0.5c0-1.2,0-2.4,0-3.6
		c0-0.2,0-0.3,0-0.5c0.1-0.5,0.4-0.8,1-0.9c0.4,0,0.8,0,1.1,0c0.8,0,1.1,0.4,1.1,1.2c0,1.2,0,2.5,0,3.7c0,0.3,0.1,0.5,0.4,0.7
		c1.2,0.8,1.9,1.9,2.1,3.2c0.1,0.3,0.1,0.7,0.1,1c0.4,0.3,0.8,0.5,1.1,0.9c0.8,0.7,1.2,1.7,1.3,2.7c0.1,0.5,0.1,1,0.1,1.5
		c0,14.9,0,29.8,0,44.7c0,1.4-0.3,2.7-1.1,3.8c-0.7,1.1-1.7,1.7-3,1.8c-1.4,0-2.8,0.1-4.2,0.1c-1.1,0-2.1-0.2-3-0.7
		c-0.9-0.5-1.5-1.2-1.9-2.1c-0.3-0.9-0.5-1.8-0.5-2.7c0-6.5,0-13,0-19.5c0-8.6,0-17.2,0-25.8c0-1.3,0.3-2.4,1.1-3.4
		C183.9,12.5,184.4,12.1,184.9,11.9z"/>
	<path class="st1" d="M95.1,11.8c0-1.1,0.3-2,0.8-2.9c0.4-0.6,0.9-1.1,1.5-1.5c0.3-0.1,0.3-0.3,0.3-0.5c0-1.2,0-2.4,0-3.6
		c0-0.2,0-0.3,0-0.5C97.8,2.3,98.2,2,98.7,2c0.4,0,0.8,0,1.3,0c0.7,0,1,0.4,1,1.1c0,1.2,0,2.4,0,3.7c0,0.2,0,0.3,0,0.5
		c1.8,1,2.6,2.6,2.6,4.5c0.8,0.4,1.4,0.9,1.8,1.6c0.5,0.8,0.8,1.7,0.8,2.7c0,0.1,0,0.2,0,0.3c0,15.1,0,30.2,0,45.4
		c0,1.3-0.3,2.5-1,3.6c-0.8,1.2-1.9,1.9-3.5,1.9c-1.3,0-2.5,0.1-3.8,0c-0.9,0-1.9-0.2-2.8-0.6c-1-0.5-1.6-1.2-2-2.1
		c-0.4-0.8-0.5-1.7-0.5-2.7c0-0.1,0-0.2,0-0.3c0-15,0-30.1,0-45.2c0-0.7,0.1-1.3,0.3-1.9C93.2,13.3,93.9,12.4,95.1,11.8z"/>
	<path class="st1" d="M133.1,34.5c-0.1,2.3-0.5,4.4-1.5,6.4c-0.9,1.8-2.2,3.2-4,4.3c-1.3,0.8-2.7,1.2-4.2,1.5
		c-1.5,0.2-2.9,0.1-4.3-0.3c-1.8-0.5-3.4-1.4-4.7-2.8c-2.1-2.1-3-4.7-3.3-7.6c-0.3-2.4,0-4.7,0.9-6.9c0.9-2.3,2.4-4.1,4.5-5.3
		c1.2-0.7,2.5-1.1,3.9-1.4c1.6-0.3,3.2-0.1,4.7,0.3c2,0.5,3.7,1.7,5.1,3.2c1.5,1.8,2.4,3.9,2.7,6.1C132.9,32.8,133,33.7,133.1,34.5z
		"/>
	<g>
		<path class="st1" d="M70.6,75.8v1.7c0,0.2,0,0.4-0.1,0.5c0,0.1-0.1,0.3-0.3,0.4c-0.1,0.1-0.3,0.2-0.5,0.3
			c-0.5,0.3-1.1,0.5-1.6,0.6s-1.1,0.2-1.6,0.2c-0.7,0-1.3-0.1-1.9-0.3c-0.5-0.2-1.1-0.5-1.4-0.9c-0.4-0.4-0.7-0.9-0.9-1.5
			C62.2,76.3,62,75.7,62,75c0-0.7,0.1-1.3,0.3-1.9c0.2-0.5,0.5-1.1,0.9-1.5c0.4-0.4,0.9-0.7,1.5-0.9c0.6-0.2,1.2-0.3,2-0.3
			c0.6,0,1.1,0.1,1.6,0.3c0.5,0.2,0.8,0.4,1.1,0.6c0.3,0.3,0.5,0.5,0.6,0.8s0.2,0.5,0.2,0.7s-0.1,0.4-0.3,0.6
			c-0.2,0.2-0.4,0.3-0.6,0.3c-0.1,0-0.3,0-0.4-0.1s-0.2-0.1-0.3-0.3c-0.2-0.3-0.4-0.6-0.5-0.8c-0.2-0.2-0.4-0.3-0.6-0.5
			s-0.6-0.2-1-0.2c-0.4,0-0.8,0.1-1.1,0.2s-0.6,0.3-0.8,0.6c-0.3,0.3-0.4,0.6-0.5,1s-0.2,0.8-0.2,1.3c0,1.1,0.3,1.9,0.7,2.4
			c0.5,0.5,1.1,0.8,2,0.8c0.4,0,0.8,0,1.2-0.2s0.8-0.3,1.1-0.5v-1.4h-1.4c-0.3,0-0.6,0-0.8-0.2c-0.2-0.1-0.3-0.3-0.3-0.5
			s0.1-0.4,0.2-0.5c0.1-0.1,0.3-0.2,0.6-0.2h2.1c0.3,0,0.5,0,0.6,0.1c0.2,0,0.3,0.1,0.4,0.3C70.6,75.3,70.6,75.5,70.6,75.8z"/>
		<path class="st1" d="M81.2,78.4l-0.4-1.1h-3.6l-0.4,1.1c-0.2,0.5-0.3,0.8-0.4,0.9s-0.3,0.3-0.6,0.3c-0.2,0-0.4-0.1-0.6-0.3
			c-0.2-0.2-0.3-0.3-0.3-0.5c0-0.1,0-0.3,0-0.4c0-0.1,0.1-0.3,0.2-0.5l2.3-5.8c0.1-0.2,0.1-0.4,0.3-0.6c0.1-0.3,0.2-0.4,0.3-0.6
			c0.1-0.2,0.3-0.3,0.4-0.4s0.4-0.1,0.6-0.1c0.3,0,0.5,0,0.6,0.1s0.3,0.2,0.4,0.4c0.1,0.2,0.2,0.3,0.3,0.5c0.1,0.2,0.2,0.4,0.3,0.7
			l2.3,5.8c0.2,0.4,0.3,0.8,0.3,1s-0.1,0.4-0.3,0.6c-0.2,0.2-0.4,0.3-0.6,0.3c-0.1,0-0.3,0-0.4-0.1c-0.1,0-0.2-0.1-0.3-0.2
			c-0.1-0.1-0.1-0.2-0.2-0.4C81.3,78.7,81.2,78.6,81.2,78.4z M77.6,75.9h2.7l-1.3-3.7L77.6,75.9z"/>
		<path class="st1" d="M94.4,76.8c0,0.5-0.1,1-0.4,1.5c-0.3,0.4-0.7,0.8-1.2,1c-0.5,0.3-1.2,0.4-1.9,0.4c-0.9,0-1.6-0.2-2.2-0.5
			c-0.4-0.3-0.7-0.5-1-1c-0.3-0.4-0.4-0.8-0.4-1.2c0-0.2,0.1-0.4,0.2-0.5c0.2-0.2,0.3-0.3,0.6-0.3c0.2,0,0.3,0,0.5,0.2
			c0.1,0.1,0.3,0.3,0.3,0.5c0.1,0.3,0.3,0.5,0.4,0.7c0.1,0.2,0.3,0.3,0.5,0.5c0.3,0.1,0.5,0.2,0.9,0.2c0.5,0,1-0.1,1.3-0.4
			c0.3-0.3,0.5-0.5,0.5-0.9c0-0.3-0.1-0.5-0.3-0.7c-0.2-0.2-0.4-0.3-0.7-0.4c-0.3-0.1-0.7-0.2-1.1-0.3c-0.6-0.2-1.2-0.3-1.6-0.5
			c-0.4-0.2-0.8-0.5-1-0.8c-0.3-0.4-0.4-0.8-0.4-1.3c0-0.5,0.1-0.9,0.4-1.3c0.3-0.4,0.7-0.7,1.2-0.9c0.5-0.2,1.1-0.3,1.8-0.3
			c0.5,0,1,0.1,1.4,0.2c0.4,0.1,0.7,0.3,1,0.5c0.3,0.2,0.5,0.5,0.6,0.7c0.1,0.3,0.2,0.5,0.2,0.7c0,0.2-0.1,0.4-0.2,0.6
			c-0.2,0.2-0.3,0.3-0.6,0.3c-0.2,0-0.4,0-0.5-0.2c-0.1-0.1-0.2-0.3-0.3-0.5c-0.2-0.3-0.3-0.6-0.6-0.8c-0.2-0.2-0.6-0.3-1.1-0.3
			c-0.5,0-0.8,0.1-1.1,0.3s-0.4,0.5-0.4,0.8c0,0.2,0,0.3,0.1,0.5s0.2,0.3,0.4,0.3c0.2,0.1,0.3,0.2,0.5,0.2c0.2,0,0.5,0.1,0.9,0.2
			c0.5,0.1,1,0.3,1.3,0.4c0.4,0.1,0.8,0.3,1.1,0.5c0.3,0.2,0.5,0.5,0.7,0.8C94.3,75.9,94.4,76.3,94.4,76.8z"/>
		<path class="st1" d="M104.9,71.9h-4.1v2.2h3.7c0.3,0,0.5,0,0.6,0.2c0.1,0.1,0.2,0.3,0.2,0.5s-0.1,0.4-0.2,0.5s-0.3,0.2-0.6,0.2
			h-3.7V78h4.2c0.3,0,0.5,0.1,0.6,0.2s0.2,0.3,0.2,0.5c0,0.2-0.1,0.4-0.2,0.5c-0.1,0.1-0.4,0.2-0.6,0.2h-4.9c-0.4,0-0.7-0.1-0.8-0.3
			S99,78.8,99,78.4v-6.7c0-0.3,0-0.5,0.1-0.6c0.1-0.2,0.2-0.3,0.4-0.4c0.2-0.1,0.4-0.1,0.6-0.1h4.8c0.3,0,0.5,0.1,0.6,0.2
			s0.2,0.3,0.2,0.5c0,0.2-0.1,0.4-0.2,0.5C105.4,71.8,105.2,71.9,104.9,71.9z"/>
		<path class="st1" d="M117.2,76.8c0,0.5-0.1,1-0.4,1.5c-0.3,0.4-0.7,0.8-1.2,1c-0.5,0.3-1.2,0.4-1.9,0.4c-0.9,0-1.6-0.2-2.2-0.5
			c-0.4-0.3-0.7-0.5-1-1c-0.3-0.4-0.4-0.8-0.4-1.2c0-0.2,0.1-0.4,0.2-0.5c0.2-0.2,0.3-0.3,0.6-0.3c0.2,0,0.3,0,0.5,0.2
			c0.1,0.1,0.3,0.3,0.3,0.5c0.1,0.3,0.3,0.5,0.4,0.7c0.1,0.2,0.3,0.3,0.5,0.5c0.3,0.1,0.5,0.2,0.9,0.2c0.5,0,1-0.1,1.3-0.4
			c0.3-0.3,0.5-0.5,0.5-0.9c0-0.3-0.1-0.5-0.3-0.7c-0.2-0.2-0.4-0.3-0.7-0.4s-0.7-0.2-1.1-0.3c-0.6-0.2-1.2-0.3-1.6-0.5
			s-0.8-0.5-1-0.8c-0.3-0.3-0.4-0.8-0.4-1.3c0-0.5,0.1-0.9,0.4-1.3c0.3-0.4,0.7-0.7,1.2-0.9c0.5-0.2,1.1-0.3,1.8-0.3
			c0.5,0,1,0.1,1.4,0.2c0.4,0.1,0.7,0.3,1,0.5c0.3,0.2,0.5,0.5,0.6,0.7c0.1,0.3,0.2,0.5,0.2,0.7c0,0.2-0.1,0.4-0.2,0.6
			c-0.2,0.2-0.3,0.3-0.6,0.3c-0.2,0-0.4,0-0.5-0.2s-0.2-0.3-0.3-0.5c-0.2-0.3-0.3-0.6-0.6-0.8c-0.2-0.2-0.6-0.3-1.1-0.3
			c-0.5,0-0.8,0.1-1.1,0.3s-0.4,0.5-0.4,0.8c0,0.2,0,0.3,0.1,0.5s0.2,0.3,0.4,0.3c0.2,0.1,0.3,0.2,0.5,0.2c0.2,0,0.5,0.1,0.9,0.2
			c0.5,0.1,1,0.3,1.4,0.4c0.4,0.1,0.8,0.3,1.1,0.5s0.5,0.5,0.7,0.8S117.2,76.3,117.2,76.8z"/>
		<path class="st1" d="M137.2,71.9h-4.1v2.2h3.7c0.3,0,0.5,0,0.6,0.2c0.1,0.1,0.2,0.3,0.2,0.5s-0.1,0.4-0.2,0.5
			c-0.1,0.1-0.3,0.2-0.6,0.2h-3.7V78h4.2c0.3,0,0.5,0.1,0.6,0.2c0.1,0.1,0.2,0.3,0.2,0.5c0,0.2-0.1,0.4-0.2,0.5
			c-0.1,0.1-0.4,0.2-0.6,0.2h-4.9c-0.4,0-0.7-0.1-0.8-0.3s-0.3-0.5-0.3-0.8v-6.7c0-0.3,0-0.5,0.1-0.6c0.1-0.2,0.2-0.3,0.4-0.4
			c0.2-0.1,0.4-0.1,0.6-0.1h4.8c0.3,0,0.5,0.1,0.6,0.2s0.2,0.3,0.2,0.5c0,0.2-0.1,0.4-0.2,0.5S137.5,71.9,137.2,71.9z"/>
		<path class="st1" d="M149.5,76.8c0,0.5-0.1,1-0.4,1.5c-0.3,0.4-0.7,0.8-1.2,1c-0.5,0.3-1.2,0.4-1.9,0.4c-0.9,0-1.6-0.2-2.2-0.5
			c-0.4-0.3-0.7-0.5-1-1c-0.3-0.4-0.4-0.8-0.4-1.2c0-0.2,0.1-0.4,0.2-0.5c0.2-0.2,0.3-0.3,0.6-0.3c0.2,0,0.3,0,0.5,0.2
			c0.1,0.1,0.3,0.3,0.3,0.5c0.1,0.3,0.3,0.5,0.4,0.7c0.1,0.2,0.3,0.3,0.5,0.5c0.3,0.1,0.5,0.2,0.9,0.2c0.5,0,1-0.1,1.3-0.4
			c0.3-0.3,0.5-0.5,0.5-0.9c0-0.3-0.1-0.5-0.3-0.7c-0.2-0.2-0.4-0.3-0.7-0.4c-0.3-0.1-0.7-0.2-1.1-0.3c-0.6-0.2-1.2-0.3-1.6-0.5
			s-0.8-0.5-1-0.8c-0.3-0.3-0.4-0.8-0.4-1.3c0-0.5,0.1-0.9,0.4-1.3c0.3-0.4,0.7-0.7,1.2-0.9c0.5-0.2,1.1-0.3,1.8-0.3
			c0.5,0,1,0.1,1.4,0.2s0.7,0.3,1,0.5c0.3,0.2,0.5,0.5,0.6,0.7c0.1,0.3,0.2,0.5,0.2,0.7c0,0.2-0.1,0.4-0.2,0.6
			c-0.2,0.2-0.3,0.3-0.6,0.3c-0.2,0-0.4,0-0.5-0.2s-0.2-0.3-0.3-0.5c-0.2-0.3-0.3-0.6-0.6-0.8c-0.2-0.2-0.6-0.3-1.1-0.3
			c-0.5,0-0.8,0.1-1.1,0.3c-0.3,0.2-0.4,0.5-0.4,0.8c0,0.2,0,0.3,0.1,0.5c0.1,0.1,0.2,0.3,0.4,0.3c0.2,0.1,0.3,0.2,0.5,0.2
			c0.2,0,0.5,0.1,0.9,0.2c0.5,0.1,1,0.3,1.4,0.4c0.4,0.1,0.8,0.3,1.1,0.5c0.3,0.2,0.5,0.5,0.7,0.8S149.5,76.3,149.5,76.8z"/>
		<path class="st1" d="M157.6,76H156v2.5c0,0.4-0.1,0.6-0.3,0.8c-0.2,0.2-0.4,0.3-0.6,0.3c-0.3,0-0.5-0.1-0.7-0.3
			c-0.2-0.2-0.3-0.5-0.3-0.8v-6.9c0-0.4,0.1-0.7,0.3-0.8c0.2-0.2,0.5-0.3,0.9-0.3h2.3c0.7,0,1.2,0,1.6,0.2c0.4,0.1,0.7,0.3,1,0.5
			c0.3,0.3,0.5,0.5,0.6,0.9c0.1,0.4,0.2,0.7,0.2,1.1c0,0.9-0.3,1.6-0.8,2.1C159.6,75.7,158.7,76,157.6,76z M157.2,71.8H156v2.7h1.2
			c0.4,0,0.8,0,1.1-0.1c0.3-0.1,0.5-0.3,0.7-0.4c0.2-0.2,0.2-0.5,0.2-0.8c0-0.4-0.1-0.7-0.3-1C158.5,72,158,71.8,157.2,71.8z"/>
		<path class="st1" d="M171.5,71.9h-4.1v2.2h3.7c0.3,0,0.5,0,0.6,0.2c0.1,0.1,0.2,0.3,0.2,0.5s-0.1,0.4-0.2,0.5
			c-0.1,0.1-0.3,0.2-0.6,0.2h-3.7V78h4.2c0.3,0,0.5,0.1,0.6,0.2c0.1,0.1,0.2,0.3,0.2,0.5c0,0.2-0.1,0.4-0.2,0.5
			c-0.1,0.1-0.4,0.2-0.6,0.2h-4.9c-0.4,0-0.7-0.1-0.8-0.3c-0.2-0.2-0.3-0.5-0.3-0.8v-6.7c0-0.3,0-0.5,0.1-0.6
			c0.1-0.2,0.2-0.3,0.4-0.4s0.4-0.1,0.6-0.1h4.8c0.3,0,0.5,0.1,0.6,0.2c0.1,0.1,0.2,0.3,0.2,0.5c0,0.2-0.1,0.4-0.2,0.5
			C172,71.8,171.8,71.9,171.5,71.9z"/>
		<path class="st1" d="M184.7,76.6c0,0.3-0.1,0.6-0.2,0.9c-0.1,0.3-0.4,0.7-0.7,1c-0.3,0.3-0.7,0.6-1.1,0.8s-1,0.3-1.6,0.3
			c-0.5,0-0.9,0-1.3-0.1c-0.4-0.1-0.7-0.2-1.1-0.4c-0.3-0.2-0.6-0.4-0.9-0.8c-0.3-0.3-0.4-0.6-0.6-0.9s-0.3-0.7-0.4-1.1
			c-0.1-0.4-0.1-0.8-0.1-1.3c0-0.7,0.1-1.3,0.3-1.9c0.2-0.6,0.5-1.1,0.9-1.5c0.4-0.4,0.8-0.7,1.4-0.9c0.5-0.2,1.1-0.3,1.7-0.3
			c0.7,0,1.3,0.1,1.9,0.4c0.5,0.3,1,0.6,1.3,1.1c0.3,0.4,0.5,0.8,0.5,1.2c0,0.2-0.1,0.4-0.2,0.5c-0.1,0.2-0.3,0.3-0.5,0.3
			c-0.2,0-0.4,0-0.5-0.2c-0.1-0.1-0.3-0.3-0.4-0.5c-0.3-0.5-0.5-0.8-0.8-1c-0.3-0.2-0.7-0.3-1.2-0.3c-0.8,0-1.3,0.3-1.8,0.8
			c-0.4,0.5-0.7,1.3-0.7,2.4c0,0.7,0.1,1.3,0.3,1.7c0.2,0.5,0.5,0.8,0.8,1.1c0.3,0.2,0.8,0.3,1.3,0.3s1-0.1,1.3-0.4
			c0.4-0.3,0.6-0.6,0.8-1.1c0.1-0.3,0.2-0.4,0.3-0.6c0.1-0.2,0.3-0.2,0.5-0.2c0.2,0,0.4,0.1,0.5,0.2
			C184.6,76.2,184.7,76.4,184.7,76.6z"/>
		<path class="st1" d="M189.5,78.5v-7c0-0.4,0.1-0.6,0.3-0.8c0.2-0.2,0.4-0.3,0.6-0.3s0.5,0.1,0.7,0.3c0.2,0.2,0.3,0.5,0.3,0.8v7
			c0,0.4-0.1,0.6-0.3,0.8c-0.2,0.2-0.4,0.3-0.7,0.3c-0.3,0-0.5-0.1-0.6-0.3C189.6,79.1,189.5,78.8,189.5,78.5z"/>
		<path class="st1" d="M202.2,78.4l-0.4-1.1h-3.6l-0.4,1.1c-0.2,0.5-0.3,0.8-0.4,0.9c-0.1,0.2-0.3,0.3-0.6,0.3
			c-0.2,0-0.4-0.1-0.6-0.3s-0.3-0.3-0.3-0.5c0-0.1,0-0.3,0-0.4c0-0.1,0.1-0.3,0.2-0.5l2.3-5.8c0.1-0.2,0.1-0.4,0.3-0.6
			c0.1-0.3,0.2-0.4,0.3-0.6c0.1-0.2,0.3-0.3,0.4-0.4s0.4-0.1,0.6-0.1s0.5,0,0.6,0.1c0.2,0.1,0.3,0.2,0.4,0.4
			c0.1,0.2,0.2,0.3,0.3,0.5c0.1,0.2,0.2,0.4,0.3,0.7l2.3,5.8c0.2,0.4,0.3,0.8,0.3,1s-0.1,0.4-0.3,0.6c-0.2,0.2-0.4,0.3-0.6,0.3
			c-0.1,0-0.3,0-0.4-0.1c-0.1,0-0.2-0.1-0.3-0.2s-0.1-0.2-0.2-0.4C202.3,78.7,202.2,78.6,202.2,78.4z M198.6,75.9h2.7l-1.3-3.7
			L198.6,75.9z"/>
		<path class="st1" d="M210.3,71.5V78h3.7c0.3,0,0.5,0.1,0.7,0.2s0.3,0.3,0.3,0.5s-0.1,0.4-0.3,0.5c-0.2,0.1-0.4,0.2-0.7,0.2h-4.4
			c-0.4,0-0.7-0.1-0.8-0.3s-0.3-0.5-0.3-0.8v-6.9c0-0.4,0.1-0.6,0.3-0.8c0.2-0.2,0.4-0.3,0.6-0.3s0.5,0.1,0.7,0.3
			S210.3,71.1,210.3,71.5z"/>
		<path class="st1" d="M225.1,71.9H221v2.2h3.7c0.3,0,0.5,0,0.6,0.2c0.1,0.1,0.2,0.3,0.2,0.5s-0.1,0.4-0.2,0.5
			c-0.1,0.1-0.3,0.2-0.6,0.2H221V78h4.2c0.3,0,0.5,0.1,0.6,0.2c0.1,0.1,0.2,0.3,0.2,0.5c0,0.2-0.1,0.4-0.2,0.5
			c-0.1,0.1-0.4,0.2-0.6,0.2h-4.9c-0.4,0-0.7-0.1-0.8-0.3s-0.3-0.5-0.3-0.8v-6.7c0-0.3,0-0.5,0.1-0.6c0.1-0.2,0.2-0.3,0.4-0.4
			s0.4-0.1,0.6-0.1h4.8c0.3,0,0.5,0.1,0.6,0.2s0.2,0.3,0.2,0.5c0,0.2-0.1,0.4-0.2,0.5S225.4,71.9,225.1,71.9z"/>
		<path class="st1" d="M237.5,76.8c0,0.5-0.1,1-0.4,1.5c-0.3,0.4-0.7,0.8-1.2,1c-0.5,0.3-1.2,0.4-1.9,0.4c-0.9,0-1.6-0.2-2.2-0.5
			c-0.4-0.3-0.7-0.5-1-1c-0.3-0.4-0.4-0.8-0.4-1.2c0-0.2,0.1-0.4,0.2-0.5c0.2-0.2,0.3-0.3,0.6-0.3c0.2,0,0.3,0,0.5,0.2
			c0.1,0.1,0.3,0.3,0.3,0.5c0.1,0.3,0.3,0.5,0.4,0.7c0.1,0.2,0.3,0.3,0.5,0.5c0.3,0.1,0.5,0.2,0.9,0.2c0.5,0,1-0.1,1.3-0.4
			c0.3-0.3,0.5-0.5,0.5-0.9c0-0.3-0.1-0.5-0.3-0.7c-0.2-0.2-0.4-0.3-0.7-0.4c-0.3-0.1-0.7-0.2-1.1-0.3c-0.6-0.2-1.2-0.3-1.6-0.5
			c-0.4-0.2-0.8-0.5-1-0.8c-0.3-0.3-0.4-0.8-0.4-1.3c0-0.5,0.1-0.9,0.4-1.3c0.3-0.4,0.7-0.7,1.2-0.9s1.1-0.3,1.8-0.3
			c0.5,0,1,0.1,1.4,0.2s0.7,0.3,1,0.5c0.3,0.2,0.5,0.5,0.6,0.7c0.1,0.3,0.2,0.5,0.2,0.7c0,0.2-0.1,0.4-0.2,0.6
			c-0.2,0.2-0.3,0.3-0.6,0.3c-0.2,0-0.4,0-0.5-0.2c-0.1-0.1-0.2-0.3-0.3-0.5c-0.2-0.3-0.3-0.6-0.6-0.8c-0.2-0.2-0.6-0.3-1.1-0.3
			c-0.5,0-0.8,0.1-1.1,0.3s-0.4,0.5-0.4,0.8c0,0.2,0,0.3,0.1,0.5c0.1,0.1,0.2,0.3,0.4,0.3c0.2,0.1,0.3,0.2,0.5,0.2s0.5,0.1,0.9,0.2
			c0.5,0.1,1,0.3,1.4,0.4c0.4,0.1,0.8,0.3,1.1,0.5c0.3,0.2,0.5,0.5,0.7,0.8S237.5,76.3,237.5,76.8z"/>
	</g>
</g>
</svg>
