<?xml version="1.0" encoding="utf-8"?>
<!-- Generator: Adobe Illustrator 23.0.2, SVG Export Plug-In . SVG Version: 6.00 Build 0)  -->
<svg version="1.1" id="Capa_1" xmlns="http://www.w3.org/2000/svg" xmlns:xlink="http://www.w3.org/1999/xlink" x="0px" y="0px"
	 viewBox="0 0 177.9 58.8" style="enable-background:new 0 0 177.9 58.8;" xml:space="preserve">
<style type="text/css">
	.st0{fill:#2F4858;}
	.st1{fill:#FFFFFF;}
</style>
<g>
	<path class="st0" d="M125.3,45.8c-0.4,0-0.7-0.2-0.9-0.4l-0.1-0.1l-0.3-0.2c-0.4-0.3-0.7-0.7-1-1c-0.9-1.1-1.7-2-2.4-3
		c-1.6-2.2-3.1-4.4-4.6-6.5c-0.3-0.5-0.7-1-1-1.5c-0.8-1.2-1.7-2.4-2.6-3.7c-0.1-0.2-0.3-0.3-0.5-0.5c-0.1,0-0.1-0.1-0.1-0.1
		s-0.1,0-0.2,0.1c-0.1,0.1-0.2,0.2-0.2,0.5v12.6c0,1-0.3,1.9-0.9,2.6s-1.3,1-2.2,1c0,0-0.1,0-0.1,0c-0.1,0-0.2,0-0.3,0
		c-0.3,0-0.6,0-0.9,0s-0.6,0-0.9,0c-0.2,0-0.3,0-0.5,0c-0.6,0-1.1,0-1.6-0.1c-1.5-0.2-2.4-1.1-2.7-2.5c-0.1-0.5-0.1-0.9-0.1-1.4
		c0.1-5.1,0.1-10.4,0.1-15.4V10.9c0-0.6,0-1.2,0.3-1.9c0.3-0.8,0.8-1.3,1.4-1.7c0.4-0.2,0.7-0.3,1-0.3h0c1.2,0,2.4-0.1,3.6-0.1
		c0.4,0,0.8,0.1,1.3,0.2c0.6,0.2,1.2,0.5,1.5,1c0.7,1,1.4,2,2.1,3c0.7,1,1.4,2,2,3c1.3,1.9,2.6,3.8,4.2,6.1c0.4,0.6,0.8,1.1,1.2,1.7
		c0.4,0.6,0.8,1.1,1.1,1.7c0,0,0,0.1,0.1,0.1l0,0l0,0l0,0l0,0c0.1,0.1,0.2,0.2,0.2,0.2c0.2,0,0.2-0.1,0.3-0.2v0
		c0.1-0.2,0.1-0.4,0.1-0.6V10.6c0-1,0.3-1.9,0.9-2.6c0.6-0.6,1.2-1,2.1-1c0.6,0,1.2,0,1.8,0s1.2,0,1.8,0c0.6,0,1.2,0.1,1.8,0.3
		c0.9,0.4,1.5,1.1,1.7,2.1c0.1,0.5,0.2,0.9,0.2,1.4V42c0,0.7-0.1,1.2-0.3,1.8c-0.4,1-1.2,1.7-2.3,1.9c-0.6,0.1-1.2,0.2-1.8,0.2
		c-0.3,0-0.6,0-1-0.1h-0.2c-0.2,0-0.3,0-0.5,0c-0.2,0-0.3,0-0.5,0.1C125.5,45.8,125.4,45.8,125.3,45.8z"/>
	<path class="st1" d="M107.6,7.4c0.4,0,0.8,0.1,1.2,0.2c0.5,0.1,1,0.4,1.2,0.8c1.4,2,2.7,4,4.1,6c1.4,2,2.7,4,4.2,6.1
		c0.8,1.1,1.6,2.3,2.3,3.4c0,0,0.1,0.1,0.1,0.1c0.2,0.2,0.3,0.4,0.6,0.4c0,0,0,0,0.1,0c0.3,0,0.6-0.2,0.7-0.5
		c0.1-0.2,0.2-0.5,0.2-0.7c0-4.2,0-8.4,0-12.6c0-0.8,0.2-1.6,0.8-2.3c0.4-0.5,1-0.8,1.7-0.8c1.2,0,2.4,0,3.6,0
		c0.6,0,1.1,0.1,1.6,0.3c0.8,0.3,1.3,1,1.5,1.8c0.1,0.4,0.2,0.8,0.2,1.3c0,10.4,0,20.8,0,31.2c0,0.6-0.1,1.1-0.2,1.6
		c-0.3,0.9-1,1.4-1.9,1.6c-0.6,0.1-1.1,0.2-1.7,0.2c-0.3,0-0.6,0-1-0.1c-0.2,0-0.4,0-0.7,0c-0.2,0-0.4,0-0.6,0.1c0,0-0.1,0-0.1,0
		c-0.2,0-0.5-0.2-0.6-0.3c-0.4-0.4-0.9-0.8-1.3-1.2c-0.8-1-1.6-1.9-2.3-3c-1.6-2.2-3.1-4.3-4.6-6.5c-1.2-1.7-2.4-3.4-3.6-5.1
		c-0.2-0.2-0.3-0.4-0.6-0.6c-0.1-0.1-0.3-0.2-0.4-0.2s-0.3,0.1-0.5,0.2c-0.3,0.2-0.3,0.6-0.4,0.9c0,0.1,0,0.2,0,0.3
		c0,4.1,0,8.2,0,12.4c0,0.8-0.2,1.6-0.8,2.3c-0.5,0.6-1,0.9-1.8,0.9c0,0-0.1,0-0.1,0c-0.1,0-0.2,0-0.3,0c-0.6,0-1.2,0.1-1.8,0.1
		c-0.2,0-0.3,0-0.5,0c-0.5,0-1,0-1.6-0.1c-1.3-0.2-2.1-1-2.3-2.2c-0.1-0.4-0.1-0.9-0.1-1.3c0.1-5.1,0.1-10.3,0.1-15.4s0-10.3,0-15.4
		c0-0.6,0-1.1,0.2-1.7c0.2-0.6,0.6-1.1,1.2-1.5c0.3-0.2,0.6-0.2,0.9-0.2C105.3,7.5,106.5,7.4,107.6,7.4 M107.6,6.5
		c-1.2,0-2.4,0-3.6,0.1h0h0c-0.4,0-0.8,0.2-1.2,0.4h0h0c-0.7,0.4-1.2,1-1.6,1.9l0,0l0,0c-0.3,0.7-0.3,1.4-0.3,2v15.4
		c0,5,0,10.3-0.1,15.4c0,0.5,0,0.9,0.1,1.4v0v0c0.3,1.6,1.4,2.6,3.1,2.9c0.6,0.1,1.1,0.1,1.7,0.1c0.2,0,0.3,0,0.5,0
		c0.3,0,0.6,0,0.9,0c0.3,0,0.6,0,0.9,0c0.1,0,0.2,0,0.3,0c0.1,0,0.1,0,0.2,0c1,0,1.9-0.4,2.5-1.2c0.6-0.8,1-1.7,1-2.8V29.8v-0.2
		c0.1,0.1,0.1,0.1,0.2,0.2l0,0l0,0c0.9,1.2,1.7,2.4,2.6,3.6c0.3,0.5,0.7,1,1,1.5c1.5,2.1,3.1,4.3,4.6,6.5c0.7,1,1.5,1.9,2.4,3
		c0.3,0.4,0.7,0.7,1.1,1.1c0.1,0.1,0.2,0.2,0.2,0.2l0,0l0,0l0.1,0c0.2,0.2,0.6,0.5,1.2,0.5c0.1,0,0.2,0,0.4-0.1c0.1,0,0.2,0,0.3,0
		c0.1,0,0.3,0,0.4,0h0.2c0.3,0,0.7,0.1,1,0.1c0.6,0,1.3-0.1,1.9-0.2c1.3-0.2,2.2-1,2.7-2.2l0,0l0,0c0.2-0.6,0.3-1.2,0.3-1.9V10.8
		c0-0.5-0.1-1-0.2-1.5c-0.3-1.1-1-2-2-2.4c-0.6-0.3-1.2-0.4-1.9-0.4c-0.6,0-1.2,0-1.9,0c-0.6,0-1.2,0-1.8,0c-1,0-1.8,0.4-2.4,1.2
		s-1,1.8-1,2.9v12.6v0c-0.3-0.5-0.7-1-1-1.5c-0.4-0.6-0.8-1.1-1.1-1.7l0,0l0,0c-1.5-2.2-2.9-4.2-4.2-6.1c-0.7-1-1.4-2-2-3
		c-0.7-1-1.4-2-2-3c-0.4-0.6-1-1-1.8-1.2C108.5,6.6,108.1,6.5,107.6,6.5L107.6,6.5z"/>
</g>
<g>
	<path class="st0" d="M18,46c-0.3,0-0.6,0-1,0c-0.3,0-0.6,0-0.9,0c-1,0-2-0.2-3.2-0.6c-1.1-0.3-2.2-0.8-3.2-1.5c-1-0.6-2-1.5-3-2.5
		c-1.3-1.4-2.3-3-3.1-4.7c-0.8-1.8-1.5-3.9-1.8-6.1v0C1.7,29,1.6,27.8,1.6,27c0-3.5,0.5-6.5,1.5-9.4c0.8-2.2,1.9-4.1,3.4-5.7
		c0.9-1,1.9-1.9,3.1-2.7C10.8,8.5,12,8,13.2,7.6c1.3-0.4,2.5-0.5,3.7-0.5c0.1,0,0.2,0,0.2,0l0,0c0.9,0,1.9,0,2.7,0.1
		c0.9,0,1.8,0.2,2.6,0.5c0.6,0.2,1.2,0.4,1.9,0.7c1.1,0.5,2.1,1.1,2.9,1.8c2.3,1.8,4,4.3,5.2,7.4c0.6,1.7,1.1,3.5,1.4,5.5
		c0.2,1.4,0.2,2.7,0.2,4.2c-0.1,3.1-0.7,6.1-1.8,8.7c-0.8,2-1.8,3.6-3.1,5c-1.2,1.4-2.6,2.5-4.2,3.3c-1.3,0.6-2.5,1-3.8,1.3
		C20.3,45.9,19.4,46,18,46z M18.1,18.5c-0.5,0-0.9,0-1.4,0.2c-0.6,0.1-1.1,0.3-1.7,0.8c-0.7,0.5-1.3,1.3-1.8,2.2
		c-0.7,1.4-1.1,3-1.1,4.8c0,0.8,0.1,1.6,0.3,2.7c0.3,1.6,0.9,2.8,1.7,3.8c0.9,1.1,2,1.7,3.3,1.8c0.2,0,0.3,0,0.5,0s0.3,0,0.5,0
		c1,0,1.9-0.3,2.7-1c0.7-0.6,1.2-1.3,1.7-2.2c0.6-1.4,1-2.9,1-4.9c0-1.5-0.2-2.6-0.5-3.6c-0.4-1.3-1-2.3-1.7-3.1
		c-0.7-0.7-1.5-1.2-2.4-1.3C18.8,18.5,18.4,18.5,18.1,18.5z"/>
	<path class="st1" d="M16.9,7.6c0.1,0,0.2,0,0.2,0c0.9,0,1.8,0,2.7,0.1c0.9,0,1.7,0.2,2.5,0.5c0.6,0.2,1.3,0.4,1.9,0.6
		c1,0.5,1.9,1,2.8,1.7c2.4,1.9,4,4.4,5.1,7.2c0.7,1.8,1.1,3.6,1.4,5.4c0.2,1.4,0.2,2.7,0.2,4.2c-0.1,3-0.6,5.8-1.8,8.6
		c-0.7,1.8-1.7,3.5-3,4.9c-1.1,1.3-2.5,2.4-4.1,3.2c-1.2,0.6-2.3,1-3.6,1.2c-1.1,0.2-2.1,0.2-3.2,0.2c-0.6,0-1.3,0-1.9,0
		c-1,0-2.1-0.2-3.1-0.6c-1.1-0.3-2.2-0.8-3.1-1.4c-1.1-0.6-2-1.5-2.9-2.4c-1.3-1.4-2.2-2.9-3-4.6c-0.9-1.9-1.5-3.9-1.8-6
		c-0.2-1.3-0.3-2.7-0.3-3.5c0-3.5,0.5-6.4,1.5-9.2c0.8-2,1.8-3.9,3.3-5.6c0.9-1,1.9-1.9,3-2.6C11,9,12.1,8.4,13.4,8.1
		C14.6,7.8,15.7,7.6,16.9,7.6 M17.9,35.1c0.2,0,0.4,0,0.6,0c1.1,0,2-0.4,2.9-1.1c0.8-0.6,1.4-1.5,1.8-2.4c0.8-1.6,1-3.3,1.1-5.1
		c0-1.3-0.2-2.5-0.6-3.8c-0.4-1.2-0.9-2.3-1.8-3.2c-0.7-0.7-1.6-1.3-2.7-1.5c-0.4-0.1-0.8-0.1-1.1-0.1c-0.5,0-1,0.1-1.5,0.2
		c-0.7,0.2-1.3,0.4-1.9,0.8c-0.9,0.6-1.5,1.5-1.9,2.4c-0.9,1.5-1.2,3.3-1.2,5c0,1,0.1,1.9,0.3,2.8c0.3,1.4,0.8,2.8,1.8,4
		c0.9,1.1,2.1,1.8,3.6,1.9C17.5,35.1,17.7,35.1,17.9,35.1 M16.9,6.6L16.9,6.6c-1.2,0-2.4,0.2-3.8,0.6c-1.3,0.3-2.5,0.9-3.8,1.7
		s-2.3,1.7-3.2,2.7c-1.5,1.7-2.6,3.6-3.4,5.8c-1.1,2.9-1.6,6-1.6,9.5c0,1,0.1,2.7,0.2,3.6v0v0c0.4,2.3,1,4.4,1.9,6.3
		C4,38.6,5,40.3,6.3,41.7c1,1.1,2,1.9,3.1,2.6c1.1,0.7,2.2,1.2,3.4,1.5c1.2,0.4,2.3,0.6,3.3,0.6l0,0l0,0c0.3,0,0.6,0,0.9,0
		s0.6,0,1,0c1.3,0,2.4-0.1,3.4-0.3c1.3-0.2,2.6-0.6,3.9-1.3l0,0l0,0c1.7-0.9,3.1-2,4.3-3.5c1.3-1.4,2.3-3.1,3.1-5.2
		c1.1-2.7,1.8-5.7,1.9-8.9c0-1.5,0-2.9-0.2-4.3c-0.3-2-0.7-3.9-1.4-5.6c-1.2-3.2-3-5.7-5.4-7.6c-0.9-0.7-1.9-1.3-3-1.9l0,0l0,0
		c-0.7-0.3-1.4-0.5-2-0.7C21.9,7,21,6.7,20,6.7c-0.9,0-1.9-0.1-2.8-0.1C17.1,6.6,17,6.6,16.9,6.6L16.9,6.6z M15.2,19.7
		c0.5-0.4,1-0.6,1.5-0.7c0.5-0.1,0.9-0.1,1.3-0.1c0.3,0,0.6,0,1,0.1c0.8,0.1,1.5,0.5,2.2,1.2c0.7,0.7,1.2,1.7,1.6,2.9
		c0.3,1,0.5,2.1,0.5,3.5c-0.1,1.9-0.4,3.4-1,4.7c-0.4,0.9-0.9,1.5-1.5,2.1c-0.7,0.6-1.5,0.9-2.3,0.9h0h0c-0.2,0-0.3,0-0.5,0
		s-0.3,0-0.5,0c-1.2-0.1-2.2-0.6-3-1.6c-0.8-0.9-1.3-2.1-1.6-3.6c-0.2-1-0.3-1.8-0.2-2.6c0-1.8,0.4-3.4,1-4.7l0,0l0,0
		C14,20.9,14.6,20.2,15.2,19.7L15.2,19.7z"/>
</g>
<g>
	<path class="st0" d="M167.1,45.7c-0.4,0-0.7-0.2-0.9-0.4h0v0c-0.5-0.6-0.9-1.1-1.2-1.6c-1.2-1.7-2.2-3.5-3.1-5.1l-0.8-1.3
		c-0.7-1.3-1.5-2.6-2.2-3.9l0-0.1c-0.2-0.3-0.4-0.7-0.7-0.9c-0.2-0.2-0.5-0.2-0.7-0.2c-0.4,0-0.7,0.2-1,0.4
		c-0.3,0.3-0.5,0.7-0.5,1.2v9.3c0,0.6-0.1,1.1-0.3,1.5c-0.4,0.8-1.1,1.2-2,1.2c-1,0-1.9,0-2.8,0s-1.9,0-2.8,0h-0.1
		c-1,0-1.8-0.5-2.1-1.5c-0.1-0.4-0.2-0.7-0.2-1.1c0-0.6,0-1.3,0-1.9c0-0.3,0-0.6,0-1c0.1-4.6,0.1-9.3,0.1-13.8V9.7
		c0-0.6,0.1-1.1,0.3-1.5c0.1-0.2,0.3-0.4,0.4-0.6c0.4-0.4,0.8-0.6,1.4-0.6h3.1c0.3,0,0.6,0,1,0s0.6,0,0.9,0c0.3,0,0.6,0,0.9,0
		c0,0,0.1,0,0.1,0c0.9,0,1.5,0.4,2,1.3c0.2,0.3,0.2,0.7,0.2,1c0,0.2,0,0.3,0,0.4c0,0,0,0.1,0,0.1v10.3c0,0.6,0.2,1.1,0.6,1.4l0,0
		c0.1,0.1,0.1,0.1,0.1,0.1c0.3,0.1,0.6,0.1,0.8,0.1c0.3,0,0.6-0.1,0.9-0.2c0.2-0.1,0.4-0.3,0.5-0.6l0.6-1.6c1-2.3,1.9-4.8,2.9-7.1
		c0.3-0.8,0.6-1.5,0.9-2.3c0.2-0.5,0.4-0.9,0.6-1.4c0.2-0.4,0.4-0.8,0.7-1c0.4-0.3,0.8-0.5,1.2-0.5h6.5c0.6,0,1.1,0.3,1.5,0.8
		c0.6,1,0.7,2,0.3,3.1c-0.6,1.3-1.2,2.5-1.8,3.7c-0.6,1.4-1.3,2.7-1.9,4.1c-0.6,1.4-1.3,2.8-2,4.2c-0.2,0.3-0.3,0.6-0.5,1
		c-0.3,0.7-0.7,1.4-1,2.1c-0.3,0.6-0.3,1.2-0.1,1.8c0.1,0.2,0.2,0.3,0.3,0.5c0.1,0.1,0.1,0.2,0.2,0.3c0.4,0.6,0.9,1.4,1.3,2
		c0.4,0.7,0.9,1.4,1.3,2c1,1.6,2,3.1,3,4.7l1.2,1.9c0.5,0.7,1,1.6,1.5,2.4c0.6,1,0.6,2,0,3.1c-0.4,0.7-1,1-1.9,1h-6.3
		c0,0-0.1,0-0.1,0c0,0,0,0-0.1,0C167.3,45.7,167.2,45.7,167.1,45.7z"/>
	<path class="st1" d="M153.8,7.5c0.7,0,1.2,0.3,1.5,1c0.1,0.2,0.2,0.6,0.2,0.8c0,0.2,0,0.3,0,0.5c0,3.5,0,6.9,0,10.3
		c0,0.7,0.2,1.3,0.8,1.8c0.1,0.1,0.2,0.2,0.4,0.2c0.3,0.1,0.6,0.1,0.9,0.1c0.4,0,0.7-0.1,1.1-0.2c0.4-0.2,0.6-0.5,0.8-0.9
		c0.2-0.6,0.4-1.1,0.6-1.6c1-2.4,1.9-4.8,2.9-7.1c0.5-1.2,1-2.5,1.5-3.7c0.1-0.3,0.3-0.6,0.6-0.9c0.3-0.2,0.6-0.3,0.9-0.3
		c2.1,0,4.3,0,6.5,0c0.5,0,0.9,0.2,1.2,0.6c0.6,0.8,0.6,1.7,0.2,2.6c-0.6,1.3-1.2,2.5-1.7,3.7c-1.3,2.7-2.6,5.5-3.9,8.3
		c-0.5,1-1,2-1.5,3.1c-0.3,0.7-0.4,1.5-0.1,2.2c0.1,0.3,0.3,0.6,0.5,0.8c0.9,1.4,1.7,2.7,2.6,4.1c1.4,2.2,2.8,4.4,4.2,6.6
		c0.5,0.8,1,1.6,1.5,2.4c0.5,0.9,0.5,1.7,0,2.6c-0.3,0.6-0.8,0.8-1.5,0.8c-2.1,0-4.2,0-6.3,0c-0.1,0-0.1,0-0.2,0c0,0-0.1,0-0.1,0
		c-0.1,0-0.2,0-0.2,0c-0.2,0-0.4-0.2-0.6-0.3c-0.4-0.5-0.8-1-1.2-1.5c-1.1-1.7-2.1-3.4-3.1-5.1c-1-1.7-1.9-3.5-3-5.2
		c-0.2-0.4-0.5-0.8-0.9-1.1c-0.3-0.2-0.6-0.3-1-0.3c-0.5,0-1,0.2-1.3,0.5c-0.4,0.4-0.6,0.9-0.6,1.5c0,3.1,0,6.2,0,9.3
		c0,0.5-0.1,0.9-0.3,1.3c-0.3,0.6-0.8,1-1.6,1c-1,0-1.9,0-2.8,0c-1,0-1.9,0-2.8,0c0,0-0.1,0-0.1,0c-0.9,0-1.4-0.5-1.7-1.2
		c-0.1-0.3-0.2-0.6-0.2-0.9c0-1,0-1.9,0-2.9c0.1-4.6,0.1-9.2,0.1-13.8c0-5.6,0-11.1,0-16.7c0-0.5,0.1-0.9,0.3-1.3
		c0.1-0.2,0.2-0.3,0.3-0.5c0.3-0.3,0.6-0.4,1-0.4c1,0,2.1,0,3.1,0c0.6,0,1.3,0,1.9,0c0.3,0,0.6,0,0.9,0
		C153.7,7.5,153.7,7.5,153.8,7.5 M153.8,6.6c0,0-0.1,0-0.1,0c-0.3,0-0.6,0-0.9,0c-0.3,0-0.6,0-0.9,0c-0.3,0-0.6,0-1,0h-3.1
		c-0.7,0-1.3,0.2-1.7,0.7l0,0l0,0c-0.1,0.2-0.3,0.4-0.5,0.6l0,0l0,0c-0.3,0.7-0.4,1.3-0.4,1.7v16.7c0,4.5,0,9.3-0.1,13.8l0,0l0,0
		c0,0.3,0,0.6,0,1c0,0.6,0,1.3,0,2c0,0.4,0.1,0.8,0.2,1.2l0,0l0,0c0.4,1.2,1.3,1.9,2.6,1.9c0,0,0.1,0,0.1,0c0.9,0,1.9,0,2.8,0
		s1.9,0,2.8,0c1.1,0,1.9-0.5,2.4-1.5l0,0l0,0c0.3-0.7,0.4-1.3,0.4-1.7v-9.3c0-0.3,0.1-0.6,0.3-0.9c0.2-0.2,0.4-0.2,0.6-0.2
		c0.2,0,0.3,0.1,0.4,0.1l0,0l0,0c0.2,0.2,0.4,0.4,0.6,0.8l0,0.1c0.7,1.3,1.5,2.6,2.2,3.8c0.2,0.4,0.5,0.9,0.8,1.3
		c1,1.7,2,3.4,3.1,5.2c0.3,0.5,0.7,1,1.3,1.6l0,0l0,0c0.2,0.2,0.6,0.6,1.2,0.6c0.1,0,0.2,0,0.3,0c0.1,0,0.1,0,0.2,0h6.3
		c1.3,0,1.9-0.7,2.3-1.3c0.6-1.1,0.6-2.3,0-3.5l0,0l0,0c-0.5-0.9-1-1.7-1.5-2.5c-0.4-0.6-0.8-1.3-1.2-1.9c-1-1.5-2-3.1-3-4.7
		c-0.4-0.7-0.9-1.4-1.3-2c-0.4-0.7-0.9-1.4-1.3-2c-0.1-0.1-0.1-0.2-0.2-0.3c-0.1-0.2-0.2-0.3-0.2-0.4c-0.2-0.5-0.2-0.9,0.1-1.4
		c0.3-0.7,0.6-1.4,1-2.1c0.2-0.3,0.3-0.6,0.5-1c0.6-1.4,1.3-2.8,1.9-4.1c0.6-1.4,1.3-2.8,1.9-4.1c0.6-1.2,1.2-2.5,1.8-3.7
		c0.6-1.2,0.4-2.4-0.3-3.5l0,0l0,0c-0.5-0.6-1.1-1-1.9-1h-6.5c-0.6,0-1.1,0.2-1.5,0.6c-0.4,0.3-0.6,0.7-0.9,1.2
		c-0.2,0.4-0.4,0.9-0.6,1.4c-0.3,0.7-0.6,1.5-0.9,2.3c-1,2.4-1.9,4.8-2.9,7.1l-0.6,1.6c-0.1,0.3-0.2,0.4-0.3,0.4
		c-0.2,0.1-0.5,0.2-0.7,0.2c-0.2,0-0.4,0-0.6-0.1l0,0l0,0c-0.2-0.2-0.4-0.4-0.4-1V9.9c0,0,0-0.1,0-0.1c0-0.1,0-0.3,0-0.5
		c0-0.3-0.1-0.7-0.3-1.1l0,0l0,0C155.6,7,154.9,6.6,153.8,6.6L153.8,6.6z"/>
</g>
<g>
	<path class="st0" d="M59.2,45.8c-0.2,0-0.4,0-0.6,0c-0.5,0-1-0.1-1.5-0.2c-0.8-0.1-1.5-0.6-1.9-1.3c-0.4-0.7-0.9-1.4-1.3-2.1
		c-1.4-2.6-2.5-4.5-3.7-6.3c-0.1-0.1-0.1-0.2-0.2-0.2l0,0c0,0-0.1,0-0.1,0s-0.1,0-0.1,0c-0.2,0.2-0.3,0.3-0.4,0.5
		c-0.3,0.5-0.6,1.1-0.9,1.6c-0.3,0.6-0.6,1.1-0.9,1.7c-0.2,0.3-0.3,0.6-0.5,0.8c-0.7,1.2-1.4,2.5-2.2,3.7c-0.2,0.2-0.3,0.4-0.5,0.6
		c-0.1,0.1-0.2,0.2-0.2,0.3c-0.4,0.5-0.9,0.7-1.5,0.7l0,0c0,0-0.1,0-0.1,0c-0.7,0-1.6,0-2.7,0c-0.5,0-0.9,0-1.3,0s-0.9,0-1.3,0
		c-0.2,0-0.3,0-0.4,0s-0.3,0-0.4,0c-0.1,0-0.3,0-0.4,0c-0.1,0-0.1,0-0.2,0c-1.1,0-1.9-0.7-2.3-1.9c-0.2-0.7-0.1-1.4,0.3-2.1
		c1.6-2.9,3.3-5.7,5.1-8.5c1-1.5,1.9-3,2.9-4.4c0.2-0.3,0.4-0.7,0.6-1.2c0.4-1,0.5-1.9,0.1-2.9c-0.3-0.8-0.7-1.6-1.4-2.7
		c-0.7-1.1-1.4-2.3-2.1-3.3c-0.7-1.1-1.4-2.2-2.1-3.3c-0.8-1.4-1.7-2.8-2.7-4.5c-0.5-0.9-0.5-1.9,0-2.8c0.4-0.7,1-1,1.9-1h0
		C37.5,7,38.6,7,39.8,7h3.4c0.4,0,0.8,0.2,1.1,0.4c0.6,0.6,1.1,1.2,1.6,2.1c1,1.6,1.9,3.3,2.9,4.9c0.3,0.5,0.6,1,0.9,1.4
		c0.1,0.1,0.1,0.1,0.2,0.1c0.1,0,0.2-0.1,0.2-0.2c0.5-0.8,1.2-1.8,1.8-2.9c0.3-0.6,0.6-1.2,1-1.8c0.3-0.6,0.6-1.2,1-1.8
		c0.2-0.4,0.5-0.8,0.8-1.2c0.5-0.7,1.2-1,2.2-1.1C57.5,7,58.2,7,58.9,7c0.3,0,0.7,0,1,0c0,0,0,0,0,0c0.4,0,0.8,0,1.2,0
		c0.4,0,0.8,0,1.1,0c0.4,0,0.8,0,1.1,0c0.1,0,0.1,0,0.2,0c1.2,0,2,0.7,2.2,1.9c0.2,0.7,0,1.5-0.4,2.2c-0.4,0.7-0.9,1.5-1.3,2.2
		c-0.6,1.1-1.3,2.2-2,3.3c-0.7,1.2-1.4,2.3-2.1,3.5c-0.7,1.2-1.4,2.4-2.1,3.6c-0.1,0.2-0.2,0.4-0.4,0.6c-0.1,0.2-0.2,0.4-0.4,0.6
		c-0.4,0.7-0.4,1.3,0,2c0.9,1.5,1.7,2.9,2.5,4.3c1,1.6,1.9,3.2,2.9,4.8c1,1.6,1.9,3.2,2.9,4.8l0.1,0.2c0.2,0.3,0.3,0.6,0.5,0.9
		c0.5,1,0.5,2-0.2,3c-0.4,0.6-1,0.9-1.6,0.9h-0.1c-1.3,0-2.5,0.1-3.7,0.1c-0.2,0-0.4,0-0.6,0C59.7,45.8,59.4,45.8,59.2,45.8z"/>
	<path class="st1" d="M36.2,7.4c1.2,0.1,2.3,0.1,3.5,0.1c1.1,0,2.3,0,3.4,0c0.3,0,0.6,0.1,0.8,0.3c0.6,0.6,1.1,1.3,1.6,2
		c1,1.6,1.9,3.2,2.9,4.9c0.3,0.5,0.6,1,1,1.5c0.2,0.2,0.4,0.3,0.6,0.3c0.2,0,0.4-0.1,0.6-0.4c0.6-1,1.2-1.9,1.8-2.9
		c0.7-1.2,1.3-2.4,1.9-3.6c0.2-0.4,0.5-0.7,0.7-1.1c0.4-0.6,1.1-0.9,1.8-0.9c1.1-0.1,2.1-0.1,3.2-0.1c0.8,0,1.5,0,2.3,0
		c0.4,0,0.8,0,1.2,0c0,0,0.1,0,0.1,0c1.1,0,1.6,0.8,1.8,1.5c0.2,0.6,0,1.3-0.3,1.9c-1.1,1.8-2.2,3.7-3.3,5.5
		c-1.4,2.4-2.8,4.7-4.2,7.1c-0.2,0.4-0.5,0.9-0.8,1.3c-0.5,0.8-0.5,1.7,0,2.5c0.8,1.4,1.7,2.8,2.5,4.3c1.9,3.2,3.8,6.4,5.7,9.6
		c0.2,0.3,0.4,0.6,0.6,1c0.4,0.9,0.4,1.7-0.2,2.5c-0.3,0.4-0.7,0.6-1.3,0.6c-1.3,0-2.5,0.1-3.8,0.1c-0.4,0-0.8,0-1.2,0
		c-0.2,0-0.4,0-0.6,0c-0.5,0-0.9-0.1-1.4-0.2c-0.7-0.1-1.3-0.5-1.6-1c-0.4-0.7-0.9-1.4-1.2-2.1c-1.2-2.2-2.4-4.3-3.7-6.3
		c-0.1-0.1-0.2-0.2-0.3-0.3c-0.1-0.1-0.2-0.2-0.4-0.2c-0.1,0-0.3,0.1-0.4,0.2c-0.2,0.2-0.4,0.4-0.5,0.6c-0.6,1.1-1.2,2.2-1.8,3.3
		c-0.9,1.5-1.7,3.1-2.7,4.5c-0.2,0.3-0.5,0.6-0.7,1c-0.3,0.4-0.6,0.6-1.2,0.6c0,0-0.1,0-0.1,0c-0.9,0-1.8,0-2.7,0s-1.8,0-2.7,0
		c-0.3,0-0.6,0-0.9,0c-0.2,0-0.3,0-0.4,0c0,0-0.1,0-0.1,0c-1,0-1.6-0.6-1.8-1.5c-0.2-0.6,0-1.2,0.3-1.8c1.6-2.9,3.3-5.7,5.1-8.5
		c1-1.5,1.9-3,2.9-4.4c0.3-0.4,0.5-0.9,0.7-1.3c0.5-1,0.5-2.2,0.1-3.3c-0.4-1-0.9-1.9-1.4-2.7c-1.4-2.2-2.8-4.4-4.2-6.7
		c-0.9-1.5-1.8-3-2.7-4.5c-0.5-0.8-0.4-1.6,0-2.3C35.1,7.7,35.6,7.4,36.2,7.4 M36.2,6.5L36.2,6.5c-1,0-1.8,0.5-2.3,1.3
		c-0.6,1.1-0.6,2.3,0,3.3c1,1.7,1.9,3.1,2.7,4.5c0.7,1.1,1.4,2.3,2.1,3.4c0.7,1.1,1.4,2.2,2.1,3.3c0.6,1,1,1.8,1.3,2.6
		c0.3,0.9,0.3,1.7-0.1,2.6v0v0c-0.2,0.5-0.4,0.9-0.6,1.1l0,0l0,0c-0.9,1.5-1.9,3-2.9,4.4c-1.8,2.8-3.6,5.6-5.2,8.5
		c-0.4,0.8-0.6,1.6-0.4,2.4c0.3,1.4,1.3,2.2,2.7,2.2c0.1,0,0.1,0,0.2,0c0.1,0,0.2,0,0.4,0c0.1,0,0.3,0,0.4,0c0.2,0,0.3,0,0.5,0
		c0.4,0,0.9,0,1.3,0s0.9,0,1.3,0c1.1,0,1.9,0,2.7,0c0.1,0,0.1,0,0.2,0c0.8,0,1.4-0.3,1.9-0.9l0,0l0,0c0.1-0.1,0.2-0.2,0.2-0.3
		c0.2-0.2,0.4-0.4,0.5-0.7c0.9-1.2,1.6-2.5,2.3-3.8c0.2-0.3,0.3-0.6,0.5-0.8c0.3-0.6,0.6-1.1,0.9-1.6c0.3-0.6,0.6-1.1,0.9-1.6
		c0,0,0-0.1,0.1-0.1c1.1,1.7,2.3,3.6,3.6,6.2c0.4,0.7,0.8,1.5,1.3,2.2l0,0l0,0c0.5,0.8,1.3,1.3,2.2,1.5c0.5,0.1,1,0.2,1.5,0.2
		c0.2,0,0.4,0,0.7,0c0.2,0,0.4,0,0.6,0s0.4,0,0.6,0c1.3,0,2.5,0,3.8-0.1h0.1c0.8,0,1.5-0.4,2-1l0,0l0,0c0.7-1.1,0.8-2.3,0.2-3.4
		c-0.2-0.3-0.3-0.6-0.5-0.9c0-0.1-0.1-0.2-0.1-0.2c-1-1.6-1.9-3.2-2.9-4.8c-1-1.6-1.9-3.2-2.9-4.8c-0.8-1.4-1.7-2.8-2.5-4.2
		c-0.3-0.5-0.3-1,0-1.5c0.1-0.2,0.2-0.4,0.4-0.6c0.1-0.2,0.3-0.4,0.4-0.7c0.7-1.2,1.4-2.3,2.1-3.6c0.7-1.2,1.4-2.4,2.1-3.6
		c0.7-1.1,1.3-2.2,2-3.3c0.4-0.7,0.9-1.4,1.3-2.2l0,0l0,0c0.5-0.9,0.6-1.7,0.4-2.5c-0.3-1.4-1.3-2.3-2.7-2.3c-0.1,0-0.1,0-0.2,0
		c-0.3,0-0.7,0-1.1,0c-0.4,0-0.8,0-1.1,0c-0.4,0-0.8,0-1.2,0l0,0l0,0c-0.3,0-0.7,0-1,0c-0.7,0-1.4,0-2.2,0.1c-1,0-1.9,0.5-2.5,1.3
		c-0.3,0.4-0.6,0.8-0.8,1.2c-0.3,0.6-0.7,1.2-1,1.9c-0.3,0.6-0.6,1.2-1,1.8c-0.5,0.9-1.1,1.9-1.6,2.6c-0.2-0.4-0.5-0.8-0.7-1.1
		c-0.9-1.6-1.9-3.3-2.9-4.9c-0.6-0.9-1.1-1.6-1.7-2.2c-0.4-0.4-0.9-0.6-1.5-0.6h-3.4C38.5,6.6,37.4,6.6,36.2,6.5L36.2,6.5L36.2,6.5z
		"/>
</g>
<g>
	<path class="st0" d="M138.4,45.8c-0.2,0-0.4,0-0.6,0c-0.8,0-1.6-0.1-2.4-0.5c-0.7-0.3-1.3-0.9-1.6-1.7c-0.3-0.7-0.4-1.4-0.4-2V10.7
		c0-1,0.3-1.9,0.9-2.6c0.3-0.3,0.6-0.6,1-0.7c0-0.3,0.1-0.6,0.2-0.9c0.3-1,0.9-1.7,1.7-2.1V1.5v0c0.1-0.6,0.5-1,1.1-1h0
		c0.1,0,0.2,0,0.2,0c0.1,0,0.2,0,0.3,0s0.2,0,0.3,0c0.8,0,1.2,0.5,1.2,1.3c0,0,0,2.5,0,2.6c0,0,0,0,0.1,0.1c0.9,0.6,1.5,1.4,1.8,2.5
		c0.1,0.2,0.1,0.4,0.1,0.5l0,0c0,0,0.1,0,0.1,0.1c0.2,0.1,0.4,0.3,0.6,0.5c0.6,0.5,1,1.2,1.1,2.1c0.1,0.4,0.1,0.7,0.1,1.1v30.5
		c0,1.1-0.3,2.1-0.9,2.9c-0.6,0.9-1.5,1.4-2.5,1.4c-0.2,0-0.5,0-0.7,0C139.5,45.8,138.9,45.8,138.4,45.8z"/>
	<path class="st1" d="M138.9,0.8c0.1,0,0.2,0,0.3,0c0.6,0,0.8,0.2,0.8,0.8c0,0.8,0,1.7,0,2.5c0,0.2,0.1,0.3,0.3,0.5
		c0.9,0.5,1.4,1.3,1.6,2.2c0.1,0.2,0.1,0.5,0.1,0.7c0.3,0.2,0.6,0.4,0.8,0.6c0.6,0.5,0.9,1.1,1,1.8c0.1,0.3,0.1,0.7,0.1,1
		c0,10.2,0,20.3,0,30.5c0,1-0.2,1.8-0.8,2.6c-0.5,0.7-1.2,1.2-2.2,1.2c-0.8,0-1.6,0.1-2.4,0.1c-0.2,0-0.4,0-0.6,0
		c-0.8,0-1.5-0.1-2.2-0.5c-0.7-0.3-1.1-0.8-1.4-1.5c-0.2-0.6-0.4-1.2-0.4-1.9c0-4.4,0-8.9,0-13.3c0-5.9,0-11.7,0-17.6
		c0-0.9,0.2-1.6,0.8-2.3c0.3-0.3,0.7-0.6,1-0.7c0.1-0.4,0.1-0.7,0.2-1.1c0.2-0.8,0.7-1.5,1.6-1.9c0.2-0.1,0.2-0.2,0.2-0.3
		c0-0.8,0-1.6,0-2.5c0-0.1,0-0.2,0-0.3c0.1-0.4,0.3-0.6,0.7-0.6C138.6,0.8,138.7,0.8,138.9,0.8 M138.9-0.1c-0.1,0-0.2,0-0.3,0
		c-0.1,0-0.2,0-0.2,0h0h0c-0.8,0.1-1.4,0.6-1.5,1.4v0.1v0.1v0.3v2.2c-0.8,0.5-1.4,1.3-1.7,2.3c-0.1,0.3-0.2,0.5-0.2,0.8
		c-0.3,0.2-0.6,0.5-0.9,0.7l0,0l0,0c-0.7,0.8-1,1.8-1,2.9v17.6v13.3c0,0.8,0.2,1.5,0.4,2.2l0,0l0,0c0.4,0.9,1,1.5,1.8,1.9
		c0.9,0.4,1.8,0.5,2.6,0.6c0.2,0,0.4,0,0.6,0c0.6,0,1.2,0,1.7,0c0.2,0,0.5,0,0.7,0c1.2,0,2.2-0.6,2.9-1.6c0.6-0.9,1-1.9,1-3.1V11
		c0-0.4,0-0.8-0.1-1.2c-0.2-1-0.6-1.8-1.3-2.3c-0.2-0.2-0.4-0.3-0.6-0.4c0-0.1,0-0.2-0.1-0.4c-0.2-1.2-0.8-2.1-1.8-2.7V1.7
		c0-1-0.6-1.7-1.6-1.7C139.1-0.1,139-0.1,138.9-0.1L138.9-0.1z"/>
</g>
<g>
	<path class="st0" d="M73,45.9c-0.2,0-0.4,0-0.6,0c-0.6,0-1.4-0.1-2.2-0.4c-0.8-0.4-1.4-0.9-1.7-1.7c-0.3-0.6-0.4-1.3-0.4-1.9v0v-31
		c0-0.5,0.1-1,0.2-1.5c0.2-0.9,0.8-1.6,1.6-2c0-0.7,0.2-1.3,0.6-1.9c0.3-0.5,0.7-0.9,1.3-1.2V1.7c0-0.1,0-0.3,0-0.4
		c0.1-0.6,0.6-0.9,1.1-0.9c0.1,0,0.2,0,0.3,0s0.2,0,0.3,0c0.1,0,0.2,0,0.3,0c0.7,0,1.1,0.5,1.1,1.2v2.6C76.3,4.9,76.9,6,77,7.3
		c0.6,0.3,1,0.7,1.3,1.1c0.4,0.6,0.6,1.3,0.6,2.1v31.1c0,1-0.3,1.9-0.8,2.7c-0.7,1-1.7,1.5-2.9,1.5c-0.4,0-0.7,0-1.1,0
		C73.8,45.9,73.4,45.9,73,45.9z"/>
	<path class="st1" d="M73.6,0.9c0.1,0,0.2,0,0.3,0c0.5,0,0.7,0.2,0.7,0.8c0,0.8,0,1.7,0,2.5c0,0.1,0,0.2,0,0.3
		c1.3,0.7,1.9,1.8,1.9,3.1c0.6,0.2,1,0.6,1.3,1.1c0.4,0.6,0.6,1.2,0.6,1.8c0,0.1,0,0.1,0,0.2c0,10.3,0,20.6,0,30.9
		c0,0.9-0.2,1.7-0.7,2.5c-0.6,0.8-1.4,1.3-2.5,1.3c-0.7,0-1.5,0-2.2,0c-0.2,0-0.4,0-0.6,0c-0.7,0-1.4-0.1-2-0.4
		c-0.7-0.3-1.2-0.8-1.5-1.5c-0.3-0.6-0.3-1.2-0.4-1.8c0-0.1,0-0.2,0-0.2c0-10.3,0-20.5,0-30.8c0-0.5,0.1-0.9,0.2-1.3
		c0.2-0.9,0.8-1.5,1.7-1.9c0-0.7,0.2-1.4,0.6-1.9c0.3-0.4,0.6-0.8,1.1-1c0.2-0.1,0.2-0.2,0.2-0.4c0-0.8,0-1.6,0-2.5
		c0-0.1,0-0.2,0-0.3c0.1-0.3,0.3-0.6,0.7-0.6C73.2,0.9,73.5,0.9,73.6,0.9 M73.6-0.1c-0.1,0-0.2,0-0.3,0c-0.1,0-0.2,0-0.3,0
		c-0.8,0-1.4,0.5-1.6,1.3c-0.1,0.2-0.1,0.4-0.1,0.6v2.2c-0.5,0.3-0.9,0.7-1.2,1.2c-0.4,0.6-0.6,1.2-0.6,1.9
		c-0.8,0.5-1.4,1.2-1.6,2.2c-0.2,0.5-0.2,1-0.2,1.6v30.8v0.2v0v0c0.1,0.6,0.1,1.4,0.5,2.1c0.4,0.9,1,1.5,1.9,1.9
		c0.8,0.4,1.7,0.5,2.3,0.5c0.2,0,0.4,0,0.6,0c0.4,0,0.8,0,1.1,0c0.4,0,0.7,0,1.1,0c1.4,0,2.5-0.6,3.3-1.7c0.6-0.9,0.9-1.9,0.9-3
		V10.7v-0.2c0-0.8-0.2-1.6-0.7-2.3C78.4,7.7,78,7.3,77.4,7c-0.2-1.3-0.8-2.3-1.9-3.1V1.6c0-1-0.6-1.6-1.6-1.7
		C73.9-0.1,73.8-0.1,73.6-0.1L73.6-0.1z"/>
</g>
<g>
	<path class="st0" d="M90,31.9c-0.7,0-1.5-0.1-2.2-0.3c-1.4-0.4-2.7-1-3.6-2c-1.4-1.4-2.3-3.1-2.6-5.4c-0.2-1.7,0-3.4,0.7-5
		c0.7-1.7,1.9-3,3.5-3.9c0.9-0.5,1.8-0.8,3-1c0.4-0.1,0.8-0.1,1.3-0.1c0.7,0,1.5,0.1,2.3,0.3c1.5,0.4,2.8,1.2,3.9,2.3
		c1.1,1.2,1.8,2.7,2.1,4.4c0.1,0.5,0.2,1,0.2,1.6l0,0.2v0c-0.1,1.8-0.5,3.3-1.1,4.6c-0.7,1.3-1.8,2.4-3.1,3.1
		c-0.9,0.5-1.9,0.9-3.2,1C90.7,31.8,90.3,31.9,90,31.9z"/>
	<path class="st1" d="M90,14.6c0.7,0,1.5,0.1,2.2,0.3c1.5,0.4,2.7,1.1,3.7,2.2c1.1,1.2,1.7,2.6,2,4.2c0.1,0.6,0.2,1.1,0.2,1.7
		c-0.1,1.5-0.4,3-1.1,4.4c-0.7,1.2-1.6,2.2-2.9,2.9c-1,0.6-1.9,0.8-3.1,1c-0.3,0.1-0.7,0.1-1,0.1c-0.7,0-1.4-0.1-2.1-0.3
		c-1.3-0.3-2.5-1-3.4-1.9c-1.5-1.4-2.2-3.2-2.4-5.2c-0.2-1.6,0-3.2,0.7-4.7c0.6-1.5,1.7-2.8,3.2-3.6c0.9-0.5,1.8-0.8,2.8-1
		C89.2,14.6,89.6,14.6,90,14.6 M90,13.7c-0.5,0-0.9,0-1.4,0.1c-1.2,0.2-2.2,0.5-3.1,1c-1.7,1-2.9,2.3-3.6,4.1
		c-0.7,1.6-0.9,3.4-0.7,5.2c0.3,2.4,1.2,4.3,2.7,5.7c1,1,2.3,1.8,3.8,2.2c0.8,0.2,1.5,0.3,2.3,0.3c0.4,0,0.8,0,1.2-0.1l0,0l0,0
		c1.4-0.2,2.4-0.6,3.4-1.1c1.4-0.8,2.5-1.9,3.2-3.3c0.7-1.4,1.1-3,1.2-4.8V23V23l0-0.2c-0.1-0.5-0.1-1-0.2-1.6l0,0l0,0
		c-0.3-1.8-1.1-3.4-2.2-4.7c-1.1-1.2-2.5-2.1-4.1-2.5C91.6,13.8,90.7,13.7,90,13.7L90,13.7z"/>
</g>
<g>
	<g>
		<path class="st0" d="M49.7,56.2c-0.5,0-1-0.1-1.5-0.2c-0.5-0.2-0.9-0.4-1.2-0.7c-0.4-0.4-0.6-0.7-0.8-1.2c-0.2-0.5-0.3-1-0.3-1.5
			c0-0.6,0.1-1,0.2-1.5c0.2-0.5,0.5-0.9,0.8-1.2c0.4-0.3,0.7-0.6,1.2-0.7c0.5-0.2,1-0.2,1.6-0.2c0.5,0,0.9,0.1,1.3,0.2
			c0.3,0.1,0.6,0.3,0.9,0.5l0,0c0.3,0.2,0.5,0.4,0.6,0.6c0.1,0.2,0.2,0.5,0.2,0.7c0,0.3-0.1,0.5-0.3,0.7c-0.1,0.1-0.2,0.2-0.4,0.2
			c0.1,0,0.1,0,0.2,0c0.3,0.1,0.5,0.2,0.6,0.4c0.1,0.2,0.2,0.4,0.2,0.7v1.2c0,0.2,0,0.4-0.1,0.5c-0.1,0.2-0.2,0.3-0.3,0.4
			c-0.1,0.1-0.3,0.2-0.4,0.3C51.8,55.8,51.4,56,51,56C50.6,56.2,50.2,56.2,49.7,56.2z M49.7,50.8c-0.2,0-0.5,0-0.7,0.1
			c-0.2,0.1-0.3,0.2-0.4,0.3c-0.1,0.2-0.2,0.3-0.3,0.5c-0.1,0.2-0.1,0.4-0.1,0.7c0,0.6,0.1,1,0.4,1.3c0.2,0.3,0.6,0.4,1.1,0.4
			c0.3,0,0.5,0,0.7-0.1c0.2-0.1,0.3-0.1,0.5-0.2v-0.2h-0.6c-0.2,0-0.5,0-0.8-0.2c-0.2-0.1-0.4-0.4-0.4-0.7c0-0.2,0.1-0.5,0.3-0.7
			c0.2-0.2,0.5-0.3,0.7-0.3h1.1c-0.2-0.1-0.3-0.2-0.4-0.3c-0.2-0.2-0.3-0.4-0.4-0.5c-0.1-0.1-0.2-0.2-0.3-0.2
			C50.1,50.9,50,50.8,49.7,50.8z"/>
		<path class="st1" d="M49.8,49.4c0.4,0,0.8,0.1,1.2,0.2c0.3,0.1,0.6,0.2,0.8,0.4c0.2,0.2,0.4,0.3,0.5,0.5c0.1,0.2,0.2,0.3,0.2,0.5
			s-0.1,0.3-0.2,0.4c-0.1,0.1-0.3,0.2-0.4,0.2c-0.1,0-0.2,0-0.3-0.1c-0.1,0-0.2-0.1-0.2-0.2c-0.2-0.2-0.3-0.4-0.4-0.6
			c-0.1-0.1-0.3-0.2-0.5-0.3c-0.2-0.1-0.4-0.1-0.7-0.1s-0.6,0.1-0.8,0.2c-0.2,0.1-0.4,0.2-0.6,0.4c-0.2,0.2-0.3,0.4-0.4,0.7
			c-0.1,0.2-0.1,0.6-0.1,0.9c0,0.7,0.2,1.3,0.5,1.6c0.3,0.4,0.8,0.6,1.5,0.6c0.3,0,0.6,0,0.9-0.1c0.3-0.1,0.6-0.2,0.8-0.3v-1h-1
			c-0.2,0-0.4,0-0.6-0.1c-0.1-0.1-0.2-0.2-0.2-0.3c0-0.2,0.1-0.2,0.2-0.3c0.1-0.1,0.2-0.2,0.4-0.2h1.5c0.2,0,0.3,0,0.5,0.1
			c0.1,0,0.2,0.1,0.3,0.2c0.1,0.1,0.1,0.3,0.1,0.5v1.2c0,0.2,0,0.3-0.1,0.4c0,0.1-0.1,0.2-0.2,0.2c-0.1,0.1-0.2,0.2-0.3,0.2
			c-0.4,0.2-0.8,0.3-1.1,0.4c-0.4,0.1-0.8,0.2-1.2,0.2c-0.5,0-1-0.1-1.4-0.2c-0.4-0.2-0.8-0.3-1-0.6s-0.5-0.6-0.7-1
			s-0.2-0.8-0.2-1.3c0-0.5,0.1-0.9,0.2-1.3s0.4-0.7,0.7-1c0.3-0.3,0.6-0.5,1.1-0.6C48.8,49.5,49.2,49.4,49.8,49.4 M49.8,48.5
			c-0.6,0-1.2,0.1-1.7,0.3c-0.6,0.2-1,0.5-1.4,0.8C46.3,50,46,50.4,45.8,51c-0.2,0.5-0.3,1-0.3,1.6c0,0.6,0.1,1.1,0.3,1.6
			c0.2,0.6,0.6,1,0.9,1.3c0.3,0.4,0.8,0.6,1.4,0.9l0,0l0,0c0.6,0.2,1.1,0.3,1.7,0.3c0.5,0,0.9-0.1,1.4-0.2c0.4-0.1,0.9-0.3,1.3-0.5
			h0h0c0.2-0.1,0.3-0.2,0.5-0.4c0.2-0.2,0.3-0.4,0.4-0.6c0.1-0.2,0.1-0.5,0.1-0.7v-1.2c0-0.4-0.1-0.7-0.3-1
			c-0.1-0.1-0.2-0.2-0.2-0.3c0.2-0.2,0.3-0.6,0.3-0.9c0-0.3-0.1-0.6-0.2-0.9c-0.2-0.3-0.4-0.6-0.7-0.8l0,0l0,0
			c-0.3-0.2-0.6-0.4-1-0.5C50.8,48.6,50.4,48.5,49.8,48.5L49.8,48.5z M48.8,53.3c-0.1-0.2-0.1-0.6-0.1-0.8c0-0.3,0-0.5,0.1-0.6
			c0.1-0.2,0.1-0.3,0.2-0.4c0.1-0.1,0.2-0.2,0.2-0.2c0.2-0.1,0.3-0.1,0.5-0.1c0.2,0,0.3,0,0.3,0c0.1,0,0.1,0.1,0.2,0.1l0,0
			c-0.4,0-0.8,0.2-1,0.4c-0.3,0.3-0.4,0.6-0.4,1C48.7,53.1,48.8,53.2,48.8,53.3L48.8,53.3z"/>
	</g>
	<g>
		<path class="st0" d="M61.1,56.2c-0.2,0-0.3,0-0.4-0.1h0h0c-0.1-0.1-0.2-0.2-0.3-0.2c-0.1-0.1-0.2-0.2-0.2-0.4
			c-0.1-0.1-0.2-0.2-0.2-0.4l-0.2-0.5h-2l-0.2,0.5c-0.2,0.4-0.2,0.6-0.4,0.8c-0.1,0.1-0.3,0.3-0.7,0.3c-0.3,0-0.6-0.1-0.7-0.3
			c-0.2-0.2-0.3-0.4-0.3-0.7c0-0.1,0-0.2,0.1-0.4c0,0,0-0.1,0.1-0.2c0-0.1,0.1-0.1,0.1-0.2l1.7-4v0c0,0,0-0.1,0-0.1
			c0-0.1,0.1-0.2,0.1-0.3c0.1-0.2,0.2-0.3,0.2-0.5c0.1-0.2,0.3-0.3,0.5-0.4c0.2-0.1,0.4-0.1,0.6-0.1c0.2,0,0.5,0,0.6,0.1
			c0.2,0.1,0.4,0.3,0.5,0.4l0,0l0,0c0,0,0,0,0,0.1c0.1,0.1,0.1,0.2,0.2,0.3c0.1,0.1,0.1,0.3,0.2,0.5l1.7,3.9
			c0.2,0.3,0.2,0.6,0.2,0.8c0,0.3-0.2,0.6-0.3,0.7l0,0l0,0C61.7,56.1,61.4,56.2,61.1,56.2z M59,52.8L58.7,52l-0.3,0.8H59z"/>
		<path class="st1" d="M58.8,49.4c0.2,0,0.3,0,0.5,0.1c0.1,0.1,0.2,0.2,0.3,0.2c0.1,0.1,0.2,0.2,0.2,0.3c0.1,0.1,0.1,0.3,0.2,0.5
			l1.7,3.9c0.1,0.3,0.2,0.5,0.2,0.6c0,0.2-0.1,0.2-0.2,0.4c-0.1,0.1-0.3,0.2-0.5,0.2c-0.1,0-0.2,0-0.3-0.1c-0.1,0-0.1-0.1-0.2-0.2
			c-0.1-0.1-0.1-0.2-0.2-0.3c-0.1-0.1-0.2-0.2-0.2-0.3l-0.3-0.8h-2.6l-0.3,0.8c-0.1,0.3-0.2,0.5-0.3,0.6c-0.1,0.1-0.2,0.2-0.4,0.2
			c-0.2,0-0.3-0.1-0.4-0.2c-0.1-0.1-0.2-0.2-0.2-0.4c0-0.1,0-0.2,0-0.2c0-0.1,0.1-0.2,0.2-0.4l1.7-4c0.1-0.1,0.1-0.2,0.2-0.4
			c0.1-0.2,0.1-0.3,0.2-0.4c0.1-0.1,0.2-0.2,0.3-0.2C58.4,49.5,58.6,49.4,58.8,49.4 M57.7,53.2h1.9l-1-2.5L57.7,53.2 M58.8,48.5
			c-0.3,0-0.6,0.1-0.9,0.2c-0.3,0.1-0.5,0.3-0.7,0.6c-0.1,0.2-0.2,0.3-0.3,0.5c-0.1,0.1-0.1,0.2-0.2,0.3c0,0,0,0,0,0.1l0,0v0l-1.7,4
			v0v0c0,0.1-0.1,0.1-0.1,0.2c0,0.1-0.1,0.1-0.1,0.2c-0.1,0.2-0.1,0.4-0.1,0.6c0,0.3,0.1,0.7,0.5,1c0.3,0.3,0.7,0.4,1,0.4
			c0.4,0,0.8-0.2,1-0.4c0.2-0.2,0.4-0.5,0.5-1l0.1-0.2h1.4l0.1,0.2c0.1,0.2,0.2,0.3,0.2,0.5c0.1,0.2,0.2,0.3,0.3,0.5
			c0.1,0.1,0.2,0.2,0.4,0.3l0.1,0l0.1,0c0.1,0,0.3,0.1,0.6,0.1c0.4,0,0.8-0.2,1.1-0.4l0,0l0,0c0.2-0.2,0.4-0.5,0.4-1
			c0-0.3-0.1-0.6-0.3-1l-1.7-3.9c-0.1-0.2-0.1-0.3-0.2-0.5c-0.1-0.2-0.2-0.3-0.2-0.4l0,0l0-0.1l-0.1-0.1c-0.1-0.2-0.3-0.4-0.6-0.5
			C59.3,48.6,59.1,48.5,58.8,48.5L58.8,48.5z"/>
	</g>
	<g>
		<path class="st0" d="M67.3,56.2c-0.7,0-1.3-0.1-1.8-0.4c-0.4-0.2-0.6-0.4-0.9-0.8l0,0c-0.2-0.4-0.3-0.7-0.3-1
			c0-0.3,0.1-0.5,0.3-0.7c0.2-0.2,0.5-0.3,0.7-0.3c0.2,0,0.4,0.1,0.6,0.2l0,0l0,0c0.2,0.2,0.3,0.3,0.4,0.5c0.1,0.2,0.2,0.3,0.2,0.4
			c0,0,0.1,0.1,0.2,0.2c0.1,0,0.2,0.1,0.5,0.1c0.3,0,0.5-0.1,0.7-0.2c0.2-0.1,0.2-0.2,0.2-0.2c0-0.1,0-0.1,0-0.2
			c-0.1-0.1-0.2-0.2-0.3-0.2l-0.2,0c-0.2-0.1-0.4-0.1-0.6-0.2h0c-0.4-0.1-0.9-0.2-1.2-0.4c-0.4-0.2-0.7-0.4-0.9-0.7
			c-0.2-0.3-0.4-0.7-0.4-1.2s0.1-0.8,0.4-1.2c0.2-0.3,0.6-0.6,1-0.7c0.4-0.2,0.9-0.2,1.5-0.2c0.4,0,0.8,0.1,1.2,0.2
			c0.4,0.1,0.6,0.3,0.9,0.4l0,0c0.2,0.2,0.4,0.4,0.6,0.6c0.1,0.2,0.2,0.5,0.2,0.7c0,0.2-0.1,0.5-0.2,0.7l0,0l0,0
			c-0.2,0.1-0.3,0.2-0.5,0.3c0.1,0,0.2,0.1,0.2,0.1c0.2,0.2,0.5,0.4,0.6,0.6l0.1,0.1v0.1c0,0.1,0,0.2,0,0.2c0,0.2,0.1,0.4,0.1,0.6
			c0,0.5-0.1,0.9-0.4,1.3c-0.3,0.4-0.6,0.6-1.1,0.9C68.5,56.1,67.9,56.2,67.3,56.2z M67.3,50.8c-0.2,0-0.4,0-0.6,0.1
			C66.7,51,66.7,51,66.7,51c0,0,0,0.1,0,0.1c0,0,0,0,0.1,0.1h0c0.1,0,0.2,0.1,0.3,0.1l0.1,0c0.1,0,0.3,0.1,0.5,0.1
			c0.2,0.1,0.4,0.1,0.6,0.2c-0.1-0.1-0.1-0.2-0.2-0.3c-0.1-0.2-0.2-0.3-0.3-0.4C67.8,50.8,67.6,50.8,67.3,50.8z"/>
		<path class="st1" d="M67.4,49.4c0.4,0,0.7,0.1,1,0.2c0.3,0.1,0.5,0.2,0.7,0.4c0.2,0.2,0.3,0.3,0.4,0.5c0.1,0.2,0.1,0.3,0.1,0.5
			c0,0.2-0.1,0.3-0.2,0.4c-0.1,0.1-0.2,0.2-0.4,0.2c-0.2,0-0.3,0-0.3-0.1c-0.1-0.1-0.2-0.2-0.2-0.3c-0.1-0.2-0.2-0.4-0.4-0.6
			c-0.2-0.1-0.4-0.2-0.8-0.2c-0.3,0-0.6,0.1-0.8,0.2s-0.3,0.3-0.3,0.5c0,0.1,0,0.2,0.1,0.3c0.1,0.1,0.2,0.2,0.3,0.2
			c0.1,0.1,0.2,0.1,0.4,0.2c0.1,0,0.3,0.1,0.6,0.2c0.4,0.1,0.7,0.2,1,0.2c0.3,0.1,0.6,0.2,0.8,0.3c0.2,0.1,0.4,0.3,0.5,0.5
			c0,0.3,0.1,0.6,0.1,0.9c0,0.4-0.1,0.7-0.3,1c-0.2,0.3-0.5,0.5-0.9,0.7c-0.4,0.2-0.9,0.2-1.4,0.2c-0.6,0-1.2-0.1-1.6-0.3
			c-0.3-0.2-0.5-0.4-0.7-0.6c-0.2-0.3-0.3-0.6-0.3-0.8c0-0.2,0.1-0.3,0.2-0.4c0.1-0.1,0.2-0.2,0.4-0.2c0.2,0,0.2,0,0.4,0.1
			c0.1,0.1,0.2,0.2,0.2,0.4c0.1,0.2,0.2,0.3,0.3,0.5s0.2,0.2,0.4,0.3c0.2,0.1,0.4,0.1,0.7,0.1c0.4,0,0.7-0.1,1-0.2s0.4-0.4,0.4-0.6
			c0-0.2-0.1-0.4-0.2-0.5c-0.1-0.1-0.3-0.2-0.5-0.3c-0.2-0.1-0.5-0.2-0.8-0.2c-0.5-0.1-0.9-0.2-1.2-0.4c-0.3-0.2-0.6-0.3-0.7-0.6
			c-0.2-0.2-0.3-0.5-0.3-0.9c0-0.3,0.1-0.6,0.3-0.9c0.2-0.2,0.5-0.5,0.9-0.6C66.4,49.5,66.8,49.4,67.4,49.4 M67.4,48.5
			c-0.7,0-1.2,0.1-1.7,0.3c-0.6,0.2-1,0.5-1.3,0.9c-0.3,0.4-0.5,0.9-0.5,1.5s0.2,1,0.4,1.4c0,0.1,0.1,0.1,0.1,0.2
			c-0.1,0.1-0.2,0.1-0.3,0.2c-0.3,0.2-0.4,0.6-0.4,1c0,0.4,0.1,0.9,0.4,1.3l0,0l0,0c0.3,0.4,0.6,0.7,1,0.9l0,0l0,0
			c0.6,0.3,1.2,0.5,2,0.5c0.6,0,1.2-0.1,1.8-0.3s0.9-0.6,1.3-1v0v0c0.3-0.5,0.5-1,0.5-1.5c0-0.3,0-0.5-0.1-0.7c0-0.1,0-0.2,0-0.2
			l0-0.2l-0.1-0.2c-0.1-0.2-0.2-0.4-0.4-0.5h0l0-0.1c0.2-0.3,0.4-0.6,0.4-1c0-0.3-0.1-0.6-0.2-0.9c-0.2-0.3-0.4-0.6-0.7-0.8l0,0l0,0
			c-0.2-0.2-0.6-0.4-1-0.5C68.2,48.6,67.8,48.5,67.4,48.5L67.4,48.5z"/>
	</g>
	<g>
		<path class="st0" d="M74.1,56.1c-0.4,0-0.7-0.1-0.9-0.3c-0.2-0.2-0.3-0.4-0.3-0.9v-4.6c0-0.2,0.1-0.5,0.2-0.6
			c0.1-0.2,0.3-0.4,0.5-0.5c0.2-0.1,0.4-0.1,0.6-0.1h3.5c0.4,0,0.6,0.2,0.8,0.3c0.2,0.2,0.3,0.4,0.3,0.7s-0.1,0.5-0.3,0.7
			c-0.2,0.2-0.5,0.2-0.8,0.2h-2.5v0.6h2.3c0.2,0,0.5,0,0.7,0.2l0,0l0,0c0.2,0.2,0.3,0.4,0.3,0.7c0,0.2-0.1,0.5-0.3,0.7
			c-0.1,0.1-0.4,0.3-0.8,0.3h-2.3v0.8h2.6c0.4,0,0.6,0.2,0.8,0.3c0.2,0.2,0.3,0.4,0.3,0.7c0,0.2-0.1,0.5-0.3,0.7
			c-0.2,0.2-0.5,0.3-0.8,0.3H74.1z"/>
		<path class="st1" d="M77.6,49.5c0.2,0,0.4,0.1,0.5,0.2c0.1,0.1,0.2,0.2,0.2,0.3c0,0.1-0.1,0.2-0.2,0.3c-0.1,0.1-0.2,0.1-0.5,0.1
			h-3V52h2.7c0.2,0,0.3,0,0.5,0.1c0.1,0.1,0.2,0.2,0.2,0.3c0,0.1-0.1,0.2-0.2,0.3c-0.1,0.1-0.2,0.2-0.5,0.2h-2.7v1.7h3.1
			c0.2,0,0.4,0.1,0.5,0.2c0.1,0.1,0.2,0.2,0.2,0.4s-0.1,0.2-0.2,0.3c-0.1,0.1-0.3,0.2-0.5,0.2h-3.6c-0.3,0-0.5-0.1-0.6-0.2
			c-0.1-0.1-0.2-0.3-0.2-0.6v-4.6c0-0.2,0-0.3,0.1-0.4c0.1-0.1,0.2-0.2,0.3-0.2c0.1,0,0.3-0.1,0.5-0.1L77.6,49.5 M77.6,48.6h-3.5
			c-0.3,0-0.6,0.1-0.9,0.2c-0.3,0.2-0.6,0.4-0.7,0.6c-0.1,0.2-0.2,0.6-0.2,0.9v4.6c0,0.6,0.2,1,0.5,1.2c0.3,0.3,0.7,0.4,1.2,0.4h3.6
			c0.4,0,0.8-0.2,1.1-0.4c0.3-0.3,0.4-0.6,0.4-1s-0.2-0.8-0.4-1c-0.2-0.2-0.4-0.3-0.8-0.4c0.2-0.1,0.4-0.2,0.5-0.3
			c0.3-0.3,0.4-0.6,0.4-1s-0.2-0.7-0.4-1l-0.1,0l-0.1,0c0,0,0,0-0.1,0c0.1-0.1,0.3-0.1,0.4-0.2c0.3-0.3,0.4-0.6,0.4-1
			c0-0.4-0.2-0.7-0.4-1C78.5,48.8,78.1,48.6,77.6,48.6L77.6,48.6z"/>
	</g>
	<g>
		<path class="st0" d="M84,56.2c-0.7,0-1.3-0.1-1.8-0.4c-0.4-0.2-0.6-0.4-0.9-0.8l0,0c-0.2-0.4-0.3-0.7-0.3-1c0-0.3,0.1-0.5,0.3-0.7
			c0.2-0.2,0.5-0.3,0.7-0.3c0.2,0,0.4,0.1,0.6,0.2l0,0l0,0c0.2,0.2,0.3,0.3,0.4,0.5c0.1,0.2,0.2,0.3,0.2,0.4c0,0,0.1,0.1,0.2,0.2
			c0.1,0,0.2,0.1,0.5,0.1c0.3,0,0.5-0.1,0.7-0.2c0.2-0.1,0.2-0.2,0.2-0.2c0-0.1,0-0.1,0-0.2c-0.1-0.1-0.2-0.2-0.3-0.2l-0.2,0
			c-0.2-0.1-0.4-0.1-0.6-0.2h0c-0.4-0.1-0.9-0.2-1.2-0.4c-0.4-0.2-0.7-0.4-0.9-0.7c-0.2-0.3-0.4-0.7-0.4-1.2c0-0.5,0.1-0.8,0.4-1.2
			c0.2-0.3,0.6-0.6,1-0.7c0.4-0.2,0.9-0.2,1.5-0.2c0.4,0,0.8,0.1,1.2,0.2c0.4,0.1,0.6,0.3,0.9,0.4l0,0c0.2,0.2,0.4,0.4,0.6,0.6
			c0.1,0.2,0.2,0.5,0.2,0.7c0,0.2-0.1,0.5-0.2,0.7l0,0l0,0c-0.2,0.1-0.3,0.2-0.5,0.3c0.1,0,0.2,0.1,0.2,0.1c0.2,0.2,0.5,0.4,0.6,0.6
			C87,53,87,53.3,87,53.6c0,0.1,0,0.2,0,0.2c0,0.5-0.1,0.9-0.4,1.3s-0.6,0.6-1.1,0.9C85.1,56.1,84.5,56.2,84,56.2z M83.9,50.8
			c-0.2,0-0.4,0-0.6,0.1C83.3,51,83.3,51,83.3,51c0,0,0,0.1,0,0.1c0,0,0,0,0.1,0.1h0c0.1,0,0.2,0.1,0.3,0.1l0.1,0
			c0.1,0,0.3,0.1,0.5,0.1c0.2,0.1,0.4,0.1,0.6,0.2c-0.1-0.1-0.1-0.2-0.2-0.3c-0.1-0.2-0.2-0.3-0.3-0.4
			C84.4,50.8,84.2,50.8,83.9,50.8z"/>
		<path class="st1" d="M84,49.4c0.4,0,0.7,0.1,1,0.2c0.3,0.1,0.5,0.2,0.7,0.4c0.2,0.2,0.3,0.3,0.4,0.5s0.1,0.3,0.1,0.5
			c0,0.2-0.1,0.3-0.2,0.4c-0.1,0.1-0.2,0.2-0.4,0.2c-0.2,0-0.3,0-0.3-0.1c-0.1-0.1-0.2-0.2-0.2-0.3c-0.1-0.2-0.2-0.4-0.4-0.6
			c-0.2-0.1-0.4-0.2-0.8-0.2c-0.3,0-0.6,0.1-0.8,0.2c-0.2,0.2-0.3,0.3-0.3,0.5c0,0.1,0,0.2,0.1,0.3c0.1,0.1,0.2,0.2,0.3,0.2
			c0.1,0.1,0.2,0.1,0.4,0.2c0.1,0,0.3,0.1,0.6,0.2c0.4,0.1,0.7,0.2,1,0.2c0.3,0.1,0.6,0.2,0.8,0.3c0.2,0.1,0.4,0.3,0.5,0.5
			c0.1,0.2,0.1,0.6,0.1,0.9c0,0.4-0.1,0.7-0.3,1c-0.2,0.3-0.5,0.5-0.9,0.7c-0.4,0.2-0.9,0.2-1.4,0.2c-0.6,0-1.2-0.1-1.6-0.3
			c-0.3-0.2-0.5-0.4-0.7-0.6c-0.2-0.3-0.3-0.6-0.3-0.8c0-0.2,0.1-0.3,0.2-0.4c0.1-0.1,0.2-0.2,0.4-0.2c0.2,0,0.2,0,0.4,0.1
			c0.1,0.1,0.2,0.2,0.2,0.4c0.1,0.2,0.2,0.3,0.3,0.5c0.1,0.2,0.2,0.2,0.4,0.3c0.2,0.1,0.4,0.1,0.7,0.1c0.4,0,0.7-0.1,1-0.2
			c0.2-0.2,0.4-0.4,0.4-0.6c0-0.2-0.1-0.4-0.2-0.5c-0.1-0.1-0.3-0.2-0.5-0.3c-0.2-0.1-0.5-0.2-0.8-0.2c-0.5-0.1-0.9-0.2-1.2-0.4
			s-0.6-0.3-0.7-0.6c-0.2-0.2-0.3-0.5-0.3-0.9c0-0.3,0.1-0.6,0.3-0.9c0.2-0.2,0.5-0.5,0.9-0.6C83.1,49.5,83.5,49.4,84,49.4 M84,48.5
			c-0.7,0-1.2,0.1-1.7,0.3c-0.6,0.2-1,0.5-1.3,0.9c-0.3,0.4-0.5,0.9-0.5,1.5s0.2,1,0.5,1.5c0,0.1,0.1,0.1,0.1,0.1
			c-0.1,0.1-0.2,0.1-0.3,0.2c-0.3,0.2-0.4,0.6-0.4,1c0,0.4,0.1,0.9,0.4,1.3l0,0l0,0c0.3,0.4,0.6,0.7,1,0.9l0,0l0,0
			c0.6,0.3,1.2,0.5,2,0.5c0.6,0,1.2-0.1,1.8-0.3c0.5-0.2,0.9-0.6,1.3-1v0v0c0.3-0.5,0.5-1,0.5-1.5c0-0.1,0-0.1,0-0.2
			c0-0.3,0-0.7-0.2-1.1c-0.1-0.2-0.2-0.4-0.4-0.5l0,0l0-0.1c0.2-0.3,0.4-0.6,0.4-1c0-0.3-0.1-0.6-0.2-0.9c-0.2-0.3-0.4-0.6-0.7-0.8
			l0,0l0,0c-0.2-0.2-0.6-0.4-1-0.5C84.9,48.6,84.4,48.5,84,48.5L84,48.5z"/>
	</g>
	<g>
		<path class="st0" d="M97.5,56.1c-0.4,0-0.7-0.1-0.9-0.3c-0.2-0.2-0.3-0.4-0.3-0.9v-4.6c0-0.2,0.1-0.5,0.2-0.6
			c0.1-0.2,0.3-0.4,0.5-0.5c0.2-0.1,0.4-0.1,0.6-0.1h3.5c0.4,0,0.6,0.2,0.8,0.3c0.2,0.2,0.3,0.4,0.3,0.7s-0.1,0.5-0.3,0.7
			c-0.2,0.2-0.5,0.2-0.8,0.2h-2.5v0.6h2.3c0.2,0,0.5,0,0.7,0.2l0,0l0,0c0.2,0.2,0.3,0.4,0.3,0.7c0,0.2-0.1,0.5-0.3,0.7
			c-0.1,0.1-0.4,0.3-0.8,0.3h-2.3v0.8h2.6c0.4,0,0.6,0.2,0.8,0.3c0.2,0.2,0.3,0.4,0.3,0.7c0,0.2-0.1,0.5-0.3,0.7
			c-0.2,0.2-0.5,0.3-0.8,0.3H97.5z"/>
		<path class="st1" d="M101,49.5c0.2,0,0.4,0.1,0.5,0.2c0.1,0.1,0.2,0.2,0.2,0.3c0,0.1-0.1,0.2-0.2,0.3c-0.1,0.1-0.2,0.1-0.5,0.1h-3
			V52h2.7c0.2,0,0.3,0,0.5,0.1c0.1,0.1,0.2,0.2,0.2,0.3c0,0.1-0.1,0.2-0.2,0.3c-0.1,0.1-0.2,0.2-0.5,0.2h-2.7v1.7h3.1
			c0.2,0,0.4,0.1,0.5,0.2c0.1,0.1,0.2,0.2,0.2,0.4s-0.1,0.2-0.2,0.3c-0.1,0.1-0.3,0.2-0.5,0.2h-3.6c-0.3,0-0.5-0.1-0.6-0.2
			c-0.1-0.1-0.2-0.3-0.2-0.6v-4.6c0-0.2,0-0.3,0.1-0.4c0.1-0.1,0.2-0.2,0.3-0.2c0.1-0.1,0.3-0.1,0.5-0.1L101,49.5 M101,48.6h-3.5
			c-0.3,0-0.6,0.1-0.9,0.2c-0.3,0.2-0.6,0.4-0.7,0.6c-0.1,0.2-0.2,0.6-0.2,0.9v4.6c0,0.6,0.2,1,0.5,1.2c0.3,0.3,0.7,0.4,1.2,0.4h3.6
			c0.4,0,0.8-0.2,1.1-0.4c0.3-0.3,0.4-0.6,0.4-1s-0.2-0.8-0.4-1c-0.2-0.2-0.4-0.3-0.8-0.4c0.2-0.1,0.4-0.2,0.5-0.3
			c0.3-0.3,0.4-0.6,0.4-1s-0.2-0.7-0.4-1l-0.1,0l-0.1,0c0,0,0,0-0.1,0c0.1-0.1,0.3-0.1,0.4-0.2c0.3-0.3,0.4-0.6,0.4-1
			c0-0.4-0.2-0.7-0.4-1C101.9,48.8,101.6,48.6,101,48.6L101,48.6z"/>
	</g>
	<g>
		<path class="st0" d="M107.4,56.2c-0.7,0-1.3-0.1-1.8-0.4c-0.4-0.2-0.6-0.4-0.9-0.8l0,0c-0.2-0.4-0.3-0.7-0.3-1
			c0-0.3,0.1-0.5,0.3-0.7c0.2-0.2,0.5-0.3,0.7-0.3c0.2,0,0.4,0.1,0.6,0.2l0,0l0,0c0.2,0.2,0.3,0.3,0.4,0.5c0.1,0.2,0.2,0.3,0.2,0.4
			c0,0,0.1,0.1,0.2,0.2c0.1,0,0.2,0.1,0.5,0.1c0.3,0,0.5-0.1,0.7-0.2c0.2-0.1,0.2-0.2,0.2-0.2c0-0.1,0-0.1,0-0.2
			c-0.1-0.1-0.2-0.2-0.3-0.2l-0.2,0c-0.2-0.1-0.4-0.1-0.6-0.2h0c-0.4-0.1-0.9-0.2-1.2-0.4c-0.4-0.2-0.7-0.4-0.9-0.7
			c-0.2-0.3-0.4-0.7-0.4-1.2c0-0.5,0.1-0.8,0.4-1.2c0.2-0.3,0.6-0.6,1-0.7c0.4-0.2,0.9-0.2,1.5-0.2c0.4,0,0.8,0.1,1.2,0.2
			c0.4,0.1,0.6,0.3,0.9,0.4l0,0c0.2,0.2,0.4,0.4,0.6,0.6c0.1,0.2,0.2,0.5,0.2,0.7c0,0.2-0.1,0.5-0.2,0.7l0,0l0,0
			c-0.2,0.1-0.3,0.2-0.5,0.3c0.1,0,0.2,0.1,0.2,0.1c0.2,0.2,0.5,0.4,0.6,0.6c0.2,0.3,0.2,0.6,0.1,0.9c0,0.1,0,0.2,0,0.2
			c0,0.5-0.1,0.9-0.4,1.3s-0.6,0.6-1.1,0.9C108.5,56.1,108,56.2,107.4,56.2z M107.4,50.8c-0.2,0-0.4,0-0.6,0.1
			c-0.1,0.1-0.1,0.1-0.1,0.1c0,0,0,0.1,0,0.1c0,0,0,0,0.1,0.1h0c0.1,0,0.2,0.1,0.3,0.1l0.1,0c0.1,0,0.3,0.1,0.5,0.1
			c0.2,0.1,0.4,0.1,0.6,0.2c-0.1-0.1-0.1-0.2-0.2-0.3c-0.1-0.2-0.2-0.3-0.3-0.4C107.9,50.8,107.7,50.8,107.4,50.8z"/>
		<path class="st1" d="M107.5,49.4c0.4,0,0.7,0.1,1,0.2c0.3,0.1,0.5,0.2,0.7,0.4c0.2,0.2,0.3,0.3,0.4,0.5s0.1,0.3,0.1,0.5
			c0,0.2-0.1,0.3-0.2,0.4c-0.1,0.1-0.2,0.2-0.4,0.2c-0.2,0-0.3,0-0.3-0.1c-0.1-0.1-0.2-0.2-0.2-0.3c-0.1-0.2-0.2-0.4-0.4-0.6
			c-0.2-0.1-0.4-0.2-0.8-0.2c-0.3,0-0.6,0.1-0.8,0.2c-0.2,0.2-0.3,0.3-0.3,0.5c0,0.1,0,0.2,0.1,0.3c0.1,0.1,0.2,0.2,0.3,0.2
			c0.1,0.1,0.2,0.1,0.4,0.2c0.1,0,0.3,0.1,0.6,0.2c0.4,0.1,0.7,0.2,1,0.2c0.3,0.1,0.6,0.2,0.8,0.3c0.2,0.1,0.4,0.3,0.5,0.5
			c0.1,0.2,0.1,0.6,0.1,0.9c0,0.4-0.1,0.7-0.3,1c-0.2,0.3-0.5,0.5-0.9,0.7c-0.4,0.2-0.9,0.2-1.4,0.2c-0.6,0-1.2-0.1-1.6-0.3
			c-0.3-0.2-0.5-0.4-0.7-0.6c-0.2-0.3-0.3-0.6-0.3-0.8c0-0.2,0.1-0.3,0.2-0.4c0.1-0.1,0.2-0.2,0.4-0.2c0.2,0,0.2,0,0.4,0.1
			c0.1,0.1,0.2,0.2,0.2,0.4c0.1,0.2,0.2,0.3,0.3,0.5c0.1,0.2,0.2,0.2,0.4,0.3c0.2,0.1,0.4,0.1,0.7,0.1c0.4,0,0.7-0.1,1-0.2
			c0.2-0.2,0.4-0.4,0.4-0.6c0-0.2-0.1-0.4-0.2-0.5c-0.1-0.1-0.3-0.2-0.5-0.3c-0.2-0.1-0.5-0.2-0.8-0.2c-0.5-0.1-0.9-0.2-1.2-0.4
			s-0.6-0.3-0.7-0.6c-0.2-0.2-0.3-0.5-0.3-0.9c0-0.3,0.1-0.6,0.3-0.9c0.2-0.2,0.5-0.5,0.9-0.6C106.5,49.5,106.9,49.4,107.5,49.4
			 M107.5,48.5c-0.7,0-1.2,0.1-1.7,0.3c-0.6,0.2-1,0.5-1.3,0.9c-0.3,0.4-0.5,0.9-0.5,1.5s0.2,1,0.5,1.5c0,0.1,0.1,0.1,0.1,0.1
			c-0.1,0.1-0.2,0.1-0.3,0.2c-0.3,0.2-0.4,0.6-0.4,1c0,0.4,0.1,0.9,0.4,1.3l0,0l0,0c0.3,0.4,0.6,0.7,1,0.9l0,0l0,0
			c0.6,0.3,1.2,0.5,2,0.5c0.6,0,1.2-0.1,1.8-0.3c0.5-0.2,0.9-0.6,1.3-1v0v0c0.3-0.5,0.5-1,0.5-1.5c0-0.1,0-0.1,0-0.2
			c0-0.3,0-0.7-0.2-1.1c-0.1-0.2-0.2-0.4-0.4-0.5l0,0l0-0.1c0.2-0.3,0.4-0.6,0.4-1c0-0.3-0.1-0.6-0.2-0.9c-0.2-0.3-0.4-0.6-0.7-0.8
			l0,0l0,0c-0.2-0.2-0.6-0.4-1-0.5C108.3,48.6,107.9,48.5,107.5,48.5L107.5,48.5z"/>
	</g>
	<g>
		<path class="st0" d="M114.1,56.2c-0.3,0-0.6-0.1-0.8-0.3c-0.2-0.2-0.3-0.5-0.3-0.9v-4.7c0-0.4,0.1-0.7,0.4-0.9
			c0.2-0.2,0.5-0.3,0.9-0.3h1.7c0.6,0,1,0,1.3,0.1c0.3,0.1,0.6,0.2,0.9,0.4c0.3,0.2,0.5,0.5,0.6,0.8c0.1,0.3,0.2,0.6,0.2,0.9
			c0,0.8-0.3,1.4-0.8,1.8l0,0h0c-0.6,0.3-1.3,0.5-2.1,0.5h-0.7V55c0,0.4-0.1,0.6-0.3,0.9l0,0l0,0C114.6,56.1,114.3,56.2,114.1,56.2z
			 M115.6,51.8c0.2,0,0.5,0,0.6-0.1c0.1,0,0.2-0.1,0.3-0.2c0,0,0-0.1,0-0.2s0-0.2-0.1-0.3c-0.1-0.1-0.3-0.2-0.8-0.2h-0.4v0.9
			L115.6,51.8L115.6,51.8z"/>
		<path class="st1" d="M115.9,49.6c0.5,0,0.9,0,1.2,0.1c0.3,0.1,0.5,0.2,0.7,0.3c0.2,0.2,0.3,0.3,0.4,0.6c0.1,0.2,0.2,0.5,0.2,0.8
			c0,0.6-0.2,1.1-0.6,1.4c-0.5,0.3-1.1,0.5-1.9,0.5h-1.2V55c0,0.2-0.1,0.4-0.2,0.6c-0.1,0.1-0.3,0.2-0.5,0.2c-0.2,0-0.4-0.1-0.5-0.2
			c-0.1-0.1-0.2-0.3-0.2-0.6v-4.7c0-0.2,0.1-0.5,0.2-0.6c0.1-0.1,0.3-0.2,0.6-0.2L115.9,49.6 M114.7,52.3h0.9c0.3,0,0.6,0,0.8-0.1
			c0.2-0.1,0.4-0.2,0.5-0.3c0.1-0.2,0.2-0.3,0.2-0.6c0-0.2-0.1-0.5-0.2-0.6c-0.2-0.2-0.6-0.3-1.2-0.3h-0.9L114.7,52.3 M115.9,48.6
			h-1.7c-0.5,0-0.9,0.1-1.2,0.4c-0.2,0.2-0.6,0.6-0.6,1.3V55c0,0.5,0.2,0.9,0.4,1.2c0.3,0.3,0.7,0.5,1.2,0.5c0.4,0,0.8-0.2,1.1-0.5
			l0,0l0,0c0.3-0.3,0.4-0.7,0.4-1.2v-0.8h0.3c0.9,0,1.7-0.2,2.3-0.6l0,0l0,0c0.4-0.3,1-1,1-2.1c0-0.4-0.1-0.8-0.2-1.1
			c-0.2-0.4-0.4-0.7-0.7-1c-0.3-0.3-0.7-0.4-1-0.5C117,48.7,116.5,48.6,115.9,48.6L115.9,48.6z M115.6,51.4L115.6,51.4
			c0.1,0,0.1,0,0.2,0C115.7,51.4,115.7,51.4,115.6,51.4L115.6,51.4z"/>
	</g>
	<g>
		<path class="st0" d="M122.5,56.1c-0.4,0-0.7-0.1-0.9-0.3c-0.2-0.2-0.3-0.4-0.3-0.9v-4.6c0-0.2,0.1-0.5,0.2-0.6
			c0.1-0.2,0.3-0.4,0.5-0.5c0.2-0.1,0.4-0.1,0.6-0.1h3.5c0.4,0,0.6,0.2,0.8,0.3c0.2,0.2,0.3,0.4,0.3,0.7s-0.1,0.5-0.3,0.7
			c-0.2,0.2-0.5,0.2-0.8,0.2h-2.5v0.6h2.3c0.2,0,0.5,0,0.7,0.2l0,0l0,0c0.2,0.2,0.3,0.4,0.3,0.7c0,0.2-0.1,0.5-0.3,0.7
			c-0.1,0.1-0.4,0.3-0.8,0.3h-2.3v0.8h2.6c0.4,0,0.6,0.2,0.8,0.3c0.2,0.2,0.3,0.4,0.3,0.7c0,0.2-0.1,0.5-0.3,0.7
			c-0.2,0.2-0.5,0.3-0.8,0.3H122.5z"/>
		<path class="st1" d="M126,49.5c0.2,0,0.4,0.1,0.5,0.2c0.1,0.1,0.2,0.2,0.2,0.3c0,0.1-0.1,0.2-0.2,0.3c-0.1,0.1-0.2,0.1-0.5,0.1h-3
			V52h2.7c0.2,0,0.3,0,0.5,0.1c0.1,0.1,0.2,0.2,0.2,0.3c0,0.1-0.1,0.2-0.2,0.3c-0.1,0.1-0.2,0.2-0.5,0.2H123v1.7h3.1
			c0.2,0,0.4,0.1,0.5,0.2c0.1,0.1,0.2,0.2,0.2,0.4s-0.1,0.2-0.2,0.3c-0.1,0.1-0.3,0.2-0.5,0.2h-3.6c-0.3,0-0.5-0.1-0.6-0.2
			c-0.1-0.1-0.2-0.3-0.2-0.6v-4.6c0-0.2,0-0.3,0.1-0.4c0.1-0.1,0.2-0.2,0.3-0.2c0.1-0.1,0.3-0.1,0.5-0.1L126,49.5 M126,48.6h-3.5
			c-0.3,0-0.6,0.1-0.9,0.2c-0.3,0.2-0.6,0.4-0.7,0.6c-0.1,0.2-0.2,0.6-0.2,0.9v4.6c0,0.6,0.2,1,0.5,1.2c0.3,0.3,0.7,0.4,1.2,0.4h3.6
			c0.4,0,0.8-0.2,1.1-0.4c0.3-0.3,0.4-0.6,0.4-1s-0.2-0.8-0.4-1c-0.2-0.2-0.4-0.3-0.8-0.4c0.2-0.1,0.4-0.2,0.5-0.3
			c0.3-0.3,0.4-0.6,0.4-1s-0.2-0.7-0.4-1l-0.1,0l-0.1,0c0,0,0,0-0.1,0c0.1-0.1,0.3-0.1,0.4-0.2c0.3-0.3,0.4-0.6,0.4-1
			c0-0.4-0.2-0.7-0.4-1C126.9,48.8,126.5,48.6,126,48.6L126,48.6z"/>
	</g>
	<g>
		<path class="st0" d="M132.9,56.2c-0.4,0-0.7,0-1-0.1c-0.3-0.1-0.6-0.2-0.9-0.3c-0.2-0.1-0.5-0.3-0.7-0.6c-0.2-0.2-0.4-0.5-0.5-0.7
			c-0.1-0.2-0.2-0.6-0.3-0.9c-0.1-0.3-0.1-0.6-0.1-1c0-0.6,0.1-1,0.2-1.5c0.2-0.4,0.4-0.8,0.7-1.2c0.3-0.3,0.7-0.6,1.2-0.7
			c0.4-0.2,0.9-0.2,1.4-0.2c0.6,0,1.1,0.1,1.6,0.3c0.5,0.3,0.9,0.5,1.1,0.9c0.3,0.4,0.4,0.7,0.4,1.1c0,0.3-0.2,0.5-0.2,0.6
			c-0.2,0.2-0.5,0.3-0.8,0.3c-0.4,0-0.6-0.1-0.7-0.3c-0.1-0.1-0.2-0.3-0.3-0.5c-0.1-0.2-0.3-0.4-0.5-0.5c-0.2-0.1-0.4-0.2-0.6-0.2
			c-0.4,0-0.7,0.1-0.9,0.4c-0.2,0.3-0.4,0.8-0.4,1.3c0,0.4,0.1,0.7,0.2,1c0.1,0.2,0.2,0.4,0.4,0.5c0.2,0.1,0.4,0.2,0.7,0.2
			s0.5-0.1,0.7-0.2c0.2-0.1,0.3-0.3,0.4-0.6c0.1-0.2,0.2-0.4,0.3-0.5c0.2-0.3,0.6-0.3,0.8-0.3c0.3,0,0.5,0.1,0.7,0.3l0,0l0,0
			c0.1,0.2,0.3,0.4,0.3,0.7s-0.1,0.6-0.2,0.8c-0.1,0.3-0.3,0.6-0.6,0.8c-0.3,0.3-0.6,0.5-1,0.6C133.8,56.1,133.3,56.2,132.9,56.2z"
			/>
		<path class="st1" d="M132.8,49.4c0.5,0,1,0.1,1.4,0.3c0.4,0.2,0.7,0.4,1,0.7c0.2,0.3,0.3,0.6,0.3,0.8c0,0.2-0.1,0.2-0.2,0.4
			c-0.1,0.1-0.2,0.2-0.4,0.2s-0.3,0-0.4-0.1c-0.1-0.1-0.2-0.2-0.3-0.4c-0.2-0.3-0.4-0.5-0.6-0.7c-0.2-0.2-0.5-0.2-0.9-0.2
			c-0.6,0-1,0.2-1.3,0.6c-0.3,0.4-0.5,0.9-0.5,1.6c0,0.5,0.1,0.9,0.2,1.2c0.2,0.3,0.3,0.6,0.6,0.7c0.2,0.2,0.6,0.2,0.9,0.2
			c0.4,0,0.7-0.1,1-0.2c0.3-0.2,0.5-0.4,0.6-0.8c0.1-0.2,0.1-0.3,0.2-0.4c0.1-0.1,0.2-0.2,0.4-0.2c0.2,0,0.3,0.1,0.4,0.2
			c0.1,0.2,0.2,0.3,0.2,0.4c0,0.2-0.1,0.4-0.2,0.6c-0.1,0.2-0.3,0.5-0.5,0.6c-0.2,0.2-0.5,0.4-0.8,0.5c-0.3,0.1-0.7,0.2-1.2,0.2
			c-0.3,0-0.6,0-1-0.1c-0.3-0.1-0.5-0.2-0.8-0.3c-0.2-0.1-0.4-0.3-0.6-0.5c-0.2-0.2-0.3-0.4-0.4-0.6c-0.1-0.2-0.2-0.5-0.3-0.7
			c-0.1-0.2-0.1-0.6-0.1-0.9c0-0.5,0.1-0.9,0.2-1.3c0.2-0.4,0.4-0.7,0.6-1c0.3-0.3,0.6-0.5,1-0.6C132,49.5,132.4,49.4,132.8,49.4
			 M132.8,48.5c-0.5,0-1,0.1-1.5,0.3c-0.6,0.2-1,0.5-1.4,0.9c-0.4,0.4-0.6,0.8-0.8,1.3c-0.2,0.5-0.3,1-0.3,1.6c0,0.4,0,0.7,0.1,1.1
			c0.1,0.3,0.2,0.7,0.4,1c0.1,0.2,0.3,0.5,0.6,0.8c0.3,0.3,0.6,0.5,0.9,0.7c0.3,0.2,0.6,0.3,1,0.4l0,0l0,0c0.4,0.1,0.7,0.1,1.1,0.1
			c0.5,0,1-0.1,1.5-0.2s0.9-0.4,1.2-0.7c0.3-0.3,0.6-0.6,0.7-1c0.1-0.3,0.2-0.6,0.2-1c0-0.4-0.2-0.7-0.3-1l-0.1-0.1l-0.1-0.1
			c-0.1-0.1-0.1-0.1-0.2-0.2c0.1-0.1,0.2-0.2,0.3-0.2c0.2-0.3,0.4-0.6,0.4-1c0-0.5-0.2-0.9-0.5-1.4c-0.3-0.4-0.7-0.7-1.3-1l0,0l0,0
			C134.1,48.6,133.5,48.5,132.8,48.5L132.8,48.5z M132.4,53.7c-0.1-0.1-0.2-0.1-0.2-0.3c-0.1-0.2-0.1-0.4-0.1-0.8
			c0-0.5,0.1-0.8,0.3-1c0.1-0.1,0.2-0.2,0.6-0.2c0.1,0,0.2,0,0.4,0.1c0.1,0.1,0.2,0.2,0.3,0.4c0.1,0.2,0.2,0.4,0.4,0.6
			c0.1,0.1,0.1,0.1,0.2,0.2c-0.1,0.1-0.2,0.2-0.2,0.2c-0.2,0.2-0.3,0.4-0.4,0.7c-0.1,0.2-0.2,0.3-0.2,0.3h0h0
			c-0.1,0-0.2,0.1-0.4,0.1C132.7,53.8,132.5,53.8,132.4,53.7L132.4,53.7z"/>
	</g>
	<g>
		<path class="st0" d="M139.7,56.2c-0.4,0-0.6-0.2-0.8-0.3c-0.2-0.2-0.3-0.5-0.3-0.9v-4.8c0-0.4,0.1-0.6,0.3-0.9l0,0l0,0
			c0.2-0.2,0.5-0.3,0.8-0.3c0.3,0,0.6,0.1,0.8,0.3c0.2,0.2,0.3,0.4,0.3,0.9V55c0,0.4-0.1,0.6-0.3,0.9l0,0l0,0
			C140.3,56.1,140,56.2,139.7,56.2z"/>
		<path class="st1" d="M139.7,49.4c0.2,0,0.4,0.1,0.5,0.2c0.1,0.1,0.2,0.3,0.2,0.6V55c0,0.2-0.1,0.4-0.2,0.6
			c-0.1,0.1-0.3,0.2-0.5,0.2c-0.2,0-0.3-0.1-0.5-0.2c-0.1-0.1-0.2-0.3-0.2-0.6v-4.8c0-0.2,0.1-0.4,0.2-0.6
			C139.4,49.5,139.5,49.4,139.7,49.4 M139.7,48.5c-0.4,0-0.8,0.2-1.1,0.5l0,0l0,0c-0.3,0.3-0.4,0.7-0.4,1.2V55
			c0,0.5,0.2,0.9,0.4,1.2c0.3,0.3,0.7,0.5,1.1,0.5c0.3,0,0.7-0.1,1.1-0.5l0,0l0,0c0.3-0.3,0.4-0.7,0.4-1.2v-4.8c0-0.6-0.2-1-0.5-1.2
			C140.5,48.6,140.1,48.5,139.7,48.5L139.7,48.5z"/>
	</g>
	<g>
		<path class="st0" d="M149.1,56.2c-0.2,0-0.3,0-0.4-0.1h0h0c-0.1-0.1-0.2-0.2-0.3-0.2c-0.1-0.1-0.2-0.2-0.2-0.4
			c-0.1-0.1-0.1-0.2-0.2-0.2l-0.1-0.1l-0.2-0.5h-2l-0.2,0.5c-0.2,0.4-0.2,0.6-0.4,0.7c-0.2,0.2-0.4,0.3-0.8,0.3
			c-0.3,0-0.6-0.1-0.7-0.3c-0.2-0.2-0.3-0.4-0.3-0.7c0-0.1,0-0.2,0.1-0.4c0,0,0-0.1,0.1-0.2c0-0.1,0.1-0.1,0.1-0.2l1.7-4v0
			c0,0,0-0.1,0-0.1c0-0.1,0.1-0.2,0.1-0.3c0.1-0.2,0.2-0.3,0.2-0.5c0.1-0.2,0.3-0.3,0.5-0.4c0.2-0.1,0.4-0.1,0.6-0.1s0.5,0,0.6,0.1
			c0.2,0.1,0.4,0.3,0.5,0.4l0,0l0,0c0,0,0,0,0,0.1c0.1,0.1,0.1,0.2,0.2,0.3c0.1,0.1,0.1,0.3,0.2,0.5l1.7,3.9
			c0.2,0.3,0.2,0.6,0.2,0.8c0,0.3-0.2,0.6-0.3,0.7l0,0l0,0C149.6,56.1,149.3,56.2,149.1,56.2z M146.9,52.8l-0.3-0.8l-0.3,0.8H146.9z
			"/>
		<path class="st1" d="M146.6,49.4c0.2,0,0.3,0,0.5,0.1c0.1,0.1,0.2,0.2,0.3,0.2c0.1,0.1,0.2,0.2,0.2,0.3c0.1,0.1,0.1,0.3,0.2,0.5
			l1.7,3.9c0.1,0.3,0.2,0.5,0.2,0.6c0,0.2-0.1,0.2-0.2,0.4c-0.1,0.1-0.3,0.2-0.5,0.2c-0.1,0-0.2,0-0.3-0.1c-0.1,0-0.1-0.1-0.2-0.2
			c-0.1-0.1-0.1-0.2-0.2-0.3c-0.1-0.1-0.1-0.2-0.2-0.3l-0.3-0.8h-2.6l-0.3,0.8c-0.1,0.3-0.2,0.5-0.3,0.6c-0.1,0.1-0.2,0.2-0.4,0.2
			c-0.2,0-0.3-0.1-0.4-0.2c-0.1-0.1-0.2-0.2-0.2-0.4c0-0.1,0-0.2,0-0.2c0-0.1,0.1-0.2,0.2-0.4l1.7-4c0.1-0.1,0.1-0.2,0.2-0.4
			c0.1-0.2,0.1-0.3,0.2-0.4c0.1-0.1,0.2-0.2,0.3-0.2C146.3,49.5,146.5,49.4,146.6,49.4 M145.7,53.2h1.9l-1-2.5L145.7,53.2
			 M146.6,48.5c-0.3,0-0.6,0.1-0.9,0.2c-0.3,0.1-0.5,0.3-0.7,0.6c-0.1,0.2-0.2,0.3-0.3,0.5c-0.1,0.1-0.1,0.2-0.2,0.3c0,0,0,0,0,0.1
			l0,0v0l-1.7,4v0v0c0,0.1-0.1,0.1-0.1,0.2c0,0.1-0.1,0.1-0.1,0.2c-0.1,0.2-0.1,0.4-0.1,0.6c0,0.3,0.1,0.7,0.5,1
			c0.3,0.3,0.7,0.4,1,0.4c0.5,0,0.8-0.2,1.1-0.5c0.2-0.2,0.3-0.5,0.5-0.9l0.1-0.2h1.4l0.1,0.2l0,0.1l0,0.1c0,0,0,0,0,0.1
			c0,0.1,0.1,0.2,0.2,0.3c0.1,0.2,0.2,0.3,0.3,0.5c0.1,0.1,0.2,0.2,0.4,0.3l0.1,0l0.1,0c0.1,0,0.3,0.1,0.6,0.1
			c0.4,0,0.8-0.2,1.1-0.4l0,0l0,0c0.2-0.2,0.4-0.5,0.4-1c0-0.3-0.1-0.6-0.3-1l-1.7-3.9c-0.1-0.2-0.1-0.3-0.2-0.5
			c-0.1-0.2-0.2-0.3-0.2-0.4l0,0l0-0.1l-0.1-0.1c-0.1-0.2-0.3-0.4-0.6-0.5C147.3,48.6,147,48.5,146.6,48.5L146.6,48.5z"/>
	</g>
	<g>
		<path class="st0" d="M153.7,56.1c-0.4,0-0.7-0.1-0.9-0.3c-0.2-0.2-0.3-0.4-0.3-0.9v-4.7c0-0.4,0.1-0.6,0.3-0.9l0,0l0,0
			c0.2-0.2,0.5-0.3,0.8-0.3c0.3,0,0.6,0.1,0.8,0.3c0.2,0.2,0.3,0.5,0.3,0.9v4h2.2c0.3,0,0.5,0.1,0.7,0.2c0.2,0.2,0.4,0.5,0.4,0.7
			c0,0.3-0.1,0.5-0.3,0.7l0,0l0,0c-0.2,0.2-0.5,0.2-0.8,0.2L153.7,56.1L153.7,56.1z"/>
		<path class="st1" d="M153.5,49.4c0.2,0,0.4,0.1,0.5,0.2c0.1,0.1,0.2,0.3,0.2,0.6v4.4h2.7c0.2,0,0.4,0.1,0.5,0.2
			c0.1,0.1,0.2,0.2,0.2,0.4s-0.1,0.2-0.2,0.4c-0.1,0.1-0.3,0.2-0.5,0.2h-3.2c-0.3,0-0.5-0.1-0.6-0.2c-0.1-0.1-0.2-0.3-0.2-0.6v-4.7
			c0-0.2,0.1-0.4,0.2-0.6C153.2,49.5,153.3,49.4,153.5,49.4 M153.5,48.5c-0.4,0-0.8,0.2-1.1,0.5l0,0l0,0c-0.3,0.3-0.4,0.7-0.4,1.2
			v4.7c0,0.6,0.2,1,0.5,1.2c0.3,0.3,0.7,0.4,1.2,0.4h3.2c0.4,0,0.7-0.1,1-0.3l0.1,0l0.1,0c0.4-0.4,0.5-0.8,0.5-1
			c0-0.5-0.2-0.9-0.6-1.1c-0.3-0.2-0.6-0.3-1-0.3h-1.7v-3.5c0-0.5-0.2-1-0.5-1.3C154.3,48.6,153.9,48.5,153.5,48.5L153.5,48.5z"/>
	</g>
	<g>
		<path class="st0" d="M161.4,56.1c-0.4,0-0.7-0.1-0.9-0.3c-0.2-0.2-0.3-0.4-0.3-0.9v-4.6c0-0.2,0.1-0.5,0.2-0.6
			c0.1-0.2,0.3-0.4,0.5-0.5c0.2-0.1,0.4-0.1,0.6-0.1h3.5c0.4,0,0.6,0.2,0.8,0.3c0.2,0.2,0.3,0.4,0.3,0.7s-0.1,0.5-0.3,0.7
			c-0.2,0.2-0.5,0.2-0.8,0.2h-2.5v0.6h2.3c0.2,0,0.5,0,0.7,0.2l0,0l0,0c0.2,0.2,0.3,0.4,0.3,0.7c0,0.2-0.1,0.5-0.3,0.7
			c-0.1,0.1-0.4,0.3-0.8,0.3h-2.3v0.8h2.6c0.4,0,0.6,0.2,0.8,0.3c0.2,0.2,0.3,0.4,0.3,0.7c0,0.2-0.1,0.5-0.3,0.7
			c-0.2,0.2-0.5,0.3-0.8,0.3H161.4z"/>
		<path class="st1" d="M164.9,49.5c0.2,0,0.4,0.1,0.5,0.2c0.1,0.1,0.2,0.2,0.2,0.3c0,0.1-0.1,0.2-0.2,0.3c-0.1,0.1-0.2,0.1-0.5,0.1
			h-3V52h2.7c0.2,0,0.3,0,0.5,0.1c0.1,0.1,0.2,0.2,0.2,0.3c0,0.1-0.1,0.2-0.2,0.3c-0.1,0.1-0.2,0.2-0.5,0.2H162v1.7h3.1
			c0.2,0,0.4,0.1,0.5,0.2c0.1,0.1,0.2,0.2,0.2,0.4s-0.1,0.2-0.2,0.3c-0.1,0.1-0.3,0.2-0.5,0.2h-3.6c-0.3,0-0.5-0.1-0.6-0.2
			c-0.1-0.1-0.2-0.3-0.2-0.6v-4.6c0-0.2,0-0.3,0.1-0.4s0.2-0.2,0.3-0.2c0.1,0,0.3-0.1,0.5-0.1L164.9,49.5 M164.9,48.6h-3.5
			c-0.3,0-0.6,0.1-0.9,0.2c-0.3,0.2-0.6,0.4-0.7,0.6c-0.1,0.2-0.2,0.6-0.2,0.9v4.6c0,0.6,0.2,1,0.5,1.2c0.3,0.3,0.7,0.4,1.2,0.4h3.6
			c0.4,0,0.8-0.2,1.1-0.4c0.3-0.3,0.4-0.6,0.4-1s-0.2-0.8-0.4-1c-0.2-0.2-0.4-0.3-0.8-0.4c0.2-0.1,0.4-0.2,0.5-0.3
			c0.3-0.3,0.4-0.6,0.4-1s-0.2-0.7-0.4-1l-0.1,0l-0.1,0c0,0,0,0-0.1,0c0.1-0.1,0.3-0.1,0.4-0.2c0.3-0.3,0.4-0.6,0.4-1
			c0-0.4-0.2-0.7-0.4-1C165.8,48.8,165.5,48.6,164.9,48.6L164.9,48.6z"/>
	</g>
	<g>
		<path class="st0" d="M171.3,56.2c-0.7,0-1.3-0.1-1.8-0.4c-0.4-0.2-0.6-0.4-0.9-0.8l0,0c-0.2-0.4-0.3-0.7-0.3-1
			c0-0.3,0.1-0.5,0.3-0.7c0.2-0.2,0.5-0.3,0.7-0.3c0.2,0,0.4,0.1,0.6,0.2l0,0l0,0c0.2,0.2,0.3,0.3,0.4,0.5c0.1,0.2,0.2,0.3,0.2,0.4
			c0,0,0.1,0.1,0.2,0.2c0.1,0,0.2,0.1,0.5,0.1c0.3,0,0.5-0.1,0.7-0.2c0.2-0.1,0.2-0.2,0.2-0.2c0-0.1,0-0.1,0-0.2
			c-0.1-0.1-0.2-0.2-0.3-0.2l-0.2,0c-0.2-0.1-0.4-0.1-0.6-0.2h0c-0.4-0.1-0.9-0.2-1.2-0.4c-0.4-0.2-0.7-0.4-0.9-0.7
			c-0.2-0.3-0.4-0.7-0.4-1.2c0-0.5,0.1-0.8,0.4-1.2c0.2-0.3,0.6-0.6,1-0.7c0.4-0.2,0.9-0.2,1.5-0.2c0.4,0,0.8,0.1,1.2,0.2
			c0.4,0.1,0.6,0.3,0.9,0.4l0,0c0.2,0.2,0.4,0.4,0.6,0.6c0.1,0.2,0.2,0.5,0.2,0.7c0,0.2-0.1,0.5-0.2,0.7l0,0l0,0
			c-0.2,0.1-0.3,0.2-0.5,0.3c0.1,0,0.2,0.1,0.2,0.1c0.2,0.2,0.5,0.4,0.6,0.6c0.2,0.3,0.2,0.6,0.1,0.9c0,0.1,0,0.2,0,0.2
			c0,0.5-0.1,0.9-0.4,1.3c-0.3,0.4-0.6,0.6-1.1,0.9C172.4,56.1,171.9,56.2,171.3,56.2z M171.3,50.8c-0.2,0-0.4,0-0.6,0.1
			c-0.1,0.1-0.1,0.1-0.1,0.1c0,0,0,0.1,0,0.1c0,0,0,0,0.1,0.1h0c0.1,0,0.2,0.1,0.3,0.1l0.1,0c0.1,0,0.3,0.1,0.5,0.1
			c0.2,0.1,0.4,0.1,0.6,0.2c-0.1-0.1-0.1-0.2-0.2-0.3c-0.1-0.2-0.2-0.3-0.3-0.4C171.8,50.8,171.6,50.8,171.3,50.8z"/>
		<path class="st1" d="M171.3,49.4c0.4,0,0.7,0.1,1,0.2c0.3,0.1,0.5,0.2,0.7,0.4c0.2,0.2,0.3,0.3,0.4,0.5s0.1,0.3,0.1,0.5
			c0,0.2-0.1,0.3-0.2,0.4c-0.1,0.1-0.2,0.2-0.4,0.2c-0.2,0-0.3,0-0.3-0.1c-0.1-0.1-0.2-0.2-0.2-0.3c-0.1-0.2-0.2-0.4-0.4-0.6
			c-0.2-0.1-0.4-0.2-0.8-0.2c-0.3,0-0.6,0.1-0.8,0.2c-0.2,0.2-0.3,0.3-0.3,0.5c0,0.1,0,0.2,0.1,0.3c0.1,0.1,0.2,0.2,0.3,0.2
			c0.1,0.1,0.2,0.1,0.4,0.2s0.3,0.1,0.6,0.2c0.4,0.1,0.7,0.2,1,0.2c0.3,0.1,0.6,0.2,0.8,0.3c0.2,0.1,0.4,0.3,0.5,0.5
			c0.1,0.2,0.1,0.6,0.1,0.9c0,0.4-0.1,0.7-0.3,1c-0.2,0.3-0.5,0.5-0.9,0.7c-0.4,0.2-0.9,0.2-1.4,0.2c-0.6,0-1.2-0.1-1.6-0.3
			c-0.3-0.2-0.5-0.4-0.7-0.6c-0.2-0.3-0.3-0.6-0.3-0.8c0-0.2,0.1-0.3,0.2-0.4c0.1-0.1,0.2-0.2,0.4-0.2c0.2,0,0.2,0,0.4,0.1
			c0.1,0.1,0.2,0.2,0.2,0.4c0.1,0.2,0.2,0.3,0.3,0.5c0.1,0.2,0.2,0.2,0.4,0.3c0.2,0.1,0.4,0.1,0.7,0.1c0.4,0,0.7-0.1,1-0.2
			c0.2-0.2,0.4-0.4,0.4-0.6c0-0.2-0.1-0.4-0.2-0.5c-0.1-0.1-0.3-0.2-0.5-0.3c-0.2-0.1-0.5-0.2-0.8-0.2c-0.5-0.1-0.9-0.2-1.2-0.4
			c-0.3-0.2-0.6-0.3-0.7-0.6c-0.2-0.2-0.3-0.5-0.3-0.9c0-0.3,0.1-0.6,0.3-0.9c0.2-0.2,0.5-0.5,0.9-0.6
			C170.4,49.5,170.8,49.4,171.3,49.4 M171.3,48.5c-0.7,0-1.2,0.1-1.7,0.3c-0.6,0.2-1,0.5-1.3,0.9c-0.3,0.4-0.5,0.9-0.5,1.5
			s0.2,1,0.5,1.5c0,0.1,0.1,0.1,0.1,0.1c-0.1,0.1-0.2,0.1-0.3,0.2c-0.3,0.2-0.4,0.6-0.4,1c0,0.4,0.1,0.9,0.4,1.3l0,0l0,0
			c0.3,0.4,0.6,0.7,1,0.9l0,0l0,0c0.6,0.3,1.2,0.5,2,0.5c0.6,0,1.2-0.1,1.8-0.3c0.5-0.2,0.9-0.6,1.3-1v0v0c0.3-0.5,0.5-1,0.5-1.5
			c0-0.1,0-0.1,0-0.2c0-0.3,0-0.7-0.2-1.1c-0.1-0.2-0.2-0.4-0.4-0.5l0,0l0-0.1c0.2-0.3,0.4-0.6,0.4-1c0-0.3-0.1-0.6-0.2-0.9
			c-0.2-0.3-0.4-0.6-0.7-0.8l0,0l0,0c-0.2-0.2-0.6-0.4-1-0.5C172.2,48.6,171.8,48.5,171.3,48.5L171.3,48.5z"/>
	</g>
</g>
</svg>
