<?xml version="1.0" encoding="utf-8"?>
<!-- Generator: Adobe Illustrator 23.0.2, SVG Export Plug-In . SVG Version: 6.00 Build 0)  -->
<svg version="1.1" id="Capa_1" xmlns="http://www.w3.org/2000/svg" xmlns:xlink="http://www.w3.org/1999/xlink" x="0px" y="0px"
	 viewBox="0 0 529.1 530.8" style="enable-background:new 0 0 529.1 530.8;" xml:space="preserve">
<style type="text/css">
	.st0{fill:#FF9D00;}
	.st1{fill:#DB7700;}
	.st2{fill:#B3BCC4;}
	.st3{fill:#8A9196;}
	.st4{fill:#BAD6C8;}
	.st5{fill:#F4FEE5;}
	.st6{fill:#F9C764;}
	.st7{fill:#97C85E;}
	.st8{fill:#A1C078;}
	.st9{fill:#FDFDFC;}
	.st10{fill:#CBD93F;}
	.st11{fill:#BDCEDE;}
	.st12{fill:#F7FAC3;}
	.st13{fill:#C9D763;}
	.st14{fill:#FBFCDA;}
	.st15{fill:#F5F9D2;}
	.st16{fill:#D2DA79;}
	.st17{fill:#206182;}
	.st18{fill:#FFFFFF;}
</style>
<g>
	<g>
		<path class="st0" d="M84.8,500.8c-0.2-1.5-0.4-3-0.6-4.5s-0.3-3.1-0.5-4.6c0-1.5,0.1-3,0.1-4.5c0-91.4,0.1-182.8,0-274.2
			c0-9.8,1.7-19.1,6.6-27.9c0,0,15.6-13.5,15.5-13.6l0,0c0.4-0.2,15.7-5.2,15.7-5.2l5.7-0.4c0,0,8.5-0.1,12.7-0.2
			c1-0.2,1.9-0.4,2.9-0.6l-0.1,0.4c0.4,0.4,0.7,0.8,1.1,1.3c0.3-0.4,0.6-0.9,0.9-1.3c15.5-0.1,31-0.1,46.5-0.2
			c0.7,0.1,1.3,0.3,2,0.4c0,0.2,0.1,0.3,0,0.5c0,0.6-0.1,1.2-0.1,1.8c0,39.2,0.1,78.3,0.1,117.5c-21.4,0-42.9,0-64.3,0.1
			c-12.1,0-21.9,9.2-22,20.5c0,25,0.6,50-0.3,75c-0.4,10.7,12.4,20.6,22.3,20.4c21.4-0.4,42.9-0.1,64.3,0c0,42.8,0,85.5,0,128.3
			c0,0.5,0,1,0,1.4c-2.9,0.1-5.9,0.3-8.8,0.4c-0.3,0-0.6,0-1,0c-19.7,0-39.4-0.1-59.1-0.1c-6.1-1.5-12.3-2.9-18.4-4.4
			c-0.6-0.4-1.2-0.7-1.8-1.1c-3.3-2.7-6.5-5.4-9.8-8.1l0,0C91.3,512.2,88.1,506.5,84.8,500.8z"/>
		<path class="st1" d="M193.4,166.2c0-0.2,0-0.4,0-0.5c16.1-0.1,32.2-0.3,48.4-0.4c0.6,0.1,1.2,0.2,1.8,0.2
			c8.4,0.5,16.9,1.1,25.3,1.6c6.9,1.8,13.1,4.9,18.1,9.8c3.1,3.1,6.7,5.9,9,9.5c2.8,4.4,4.4,9.5,6.6,14.3c0.1,1.2,0.2,2.4,0.3,3.6
			l-0.4-0.1c0,1.2,0,2.5,0,3.7c0,1.8,0,3.6,0,5.4c-0.2,1.8-0.7,3.5-0.7,5.3c0,89.8,0,179.6,0,269.4c0,1.6,0.5,5.9,0.4,6.5
			c-0.2,1.3-0.5,2.5-0.7,3.8c-0.7,2.4-1.3,4.8-2.1,7.1c-0.5,1.5-1.1,3-1.6,4.5c-2.4,2.7-4.7,5.5-7.1,8.2c-2,0.5-23.5,13.6-23.5,13.6
			l-8.7,0.1c0,0-44.2-0.4-65.1-0.4c0-42.8,0-87,0-129.7c21.6,0,43.2,0,64.8-0.1c11.2,0,21.3-9.4,21.3-19.8c0-24.5,0-49.1,0-73.6
			c0-14.4-8.7-22.4-24.3-22.4c-20.6,0-41.3,0-61.9,0c0-39.2-0.1-78.3-0.1-117.5C193.3,167.4,193.4,166.8,193.4,166.2z"/>
		<path class="st2" d="M151.6,116.5c-1.2-1.5-2.1-3.4-3.6-4.6c-19.9-16.5-27.1-37.2-22-61.3c5.3-24.8,21.9-41.5,47.6-48.4
			c22.5-6.1,44.3-3,63.1,11.6c18.7,14.5,26.9,33.4,25.1,55.7c-1,13.1-6.1,25.1-15.4,35.2c-9,9.9-19.7,17.1-33.5,20.4
			c-19,4.4-37.1,3.6-54.2-6.2C156.6,117.7,153.9,117.2,151.6,116.5z M193.6,10.6c-30.7-1.1-57.3,23.4-57.5,52.2
			c-0.2,30.7,25.2,52.9,54.2,54.4c33.7,1.7,59.4-24.3,60.3-52.8C251.4,38.1,226.1,9.1,193.6,10.6z"/>
		<path class="st3" d="M151.6,116.5c2.4,0.8,5,1.2,7.1,2.4c17.1,9.8,35.2,10.6,54.2,6.2c13.8-3.2,24.5-10.4,33.5-20.4
			c0.4,0.3,0.8,0.7,1.2,0.7c12.9-0.1,25.7-0.3,38.6-0.5c2.9,0,5.8-0.4,8.7-0.1c3.8,0.4,6.1,2.2,6,6.3c-0.2,6.3,0,12.6,0,19
			c0,5.8-1.6,7.3-7.7,7.2c-21.9-0.3-43.8-0.6-65.7-0.9c-1.7,0-3.5,0-5.5,0c-0.7,3.9-0.6,8.4-7.2,7.2c0,4.3,0,8,0,11.8
			c-14.3,0-28.6,0-42.8,0c0-3.6,0-7.2,0-11c-3.4-0.9-7.2-1.2-6.7-5.9c0.3-3.1,0.1-6.2,0.1-9.6c-5.7-0.7-10.9-1.8-13.4-6.8
			C151,120.3,151.6,118.3,151.6,116.5z"/>
		<path class="st2" d="M171.9,155.2c14.3,0,28.6,0,42.8,0c5.1,0,10.3,0.2,15.4,0c6.8-0.3,11.5,2,13.6,8.2c-0.1,0.7-0.1,1.3-0.2,2
			c-0.6-0.1-1.2-0.2-1.8-0.2c-1.2-0.3-2.4-0.8-3.6-0.8c-14.4-0.1-28.8-0.1-43.3,0c-1.2,0-2.4,0.5-3.6,0.8c-15.5,0.1-31,0.1-46.5,0.2
			l0.1-0.3c-0.4-0.6-0.8-1.1-1.1-1.7c1.2-5.3,4.4-8,10.3-8.1C160,155.2,165.9,155.3,171.9,155.2z"/>
		<path class="st4" d="M144.9,165.1c-0.4,0-0.9-0.1-1.3-0.1c0.1-0.5,0.1-1,0.2-1.6C144.2,164,144.5,164.6,144.9,165.1z"/>
		<path class="st5" d="M183.6,531.5c0.3,0,0.6,0,1,0C184.2,531.5,183.9,531.5,183.6,531.5z"/>
		<path class="st5" d="M198.1,531.6c0.3,0,0.7,0,1,0C198.8,531.6,198.5,531.6,198.1,531.6z"/>
		<path class="st5" d="M261.1,531.5c0.3,0,0.7,0,1,0C261.8,531.5,261.4,531.5,261.1,531.5z"/>
		<path class="st6" d="M193.4,285.5c20.6,0,41.3,0,61.9,0c15.6,0,24.3,8,24.3,22.4c0,24.5,0,49.1,0,73.6c0,10.4-10.1,19.8-21.3,19.8
			c-21.6,0.1-43.2,0.1-64.8,0.1c-21.4,0-42.9-0.4-64.3,0c-9.9,0.2-22.7-9.7-22.3-20.4c0.9-25,0.3-50,0.3-75c0-11.3,9.8-20.5,22-20.5
			C150.5,285.5,171.9,285.5,193.4,285.5z"/>
		<path class="st4" d="M191.4,165.3c1.2-0.3,2.4-0.8,3.6-0.8c14.4-0.1,28.8-0.1,43.3,0c1.2,0,2.4,0.5,3.6,0.8
			c-16.1,0.1-32.2,0.3-48.4,0.4C192.7,165.5,192,165.4,191.4,165.3z"/>
		<path class="st7" d="M193.4,166.2c0,0.6-0.1,1.2-0.1,1.8C193.3,167.4,193.4,166.8,193.4,166.2z"/>
		<path class="st8" d="M302.4,204.1c0.1,0.9,0.3,1.8,0.4,2.8c-0.1,0.3-0.3,0.6-0.4,0.9C302.5,206.6,302.5,205.4,302.4,204.1z"/>
		<path class="st9" d="M193.6,10.6c32.5-1.5,57.8,27.5,57,53.7c-0.9,28.6-26.6,54.5-60.3,52.8c-28.9-1.5-54.3-23.7-54.2-54.4
			C136.3,34,162.9,9.5,193.6,10.6z M242.9,72.2c3.5-4.4,1.3-9.3,1.2-14c0-0.2-0.8-0.4-1.3-0.5c0-0.6,0-1.2,0-1.8
			c2.1-6.1,0.1-12-5.1-15.3c-0.3-0.1-0.6,0-0.8,0.1c-3.6-4.3-7.2-8.5-10.8-12.8c-0.6-1.2-0.9-2.9-2-3.7c-8.5-6.5-18.8-8.4-29.2-9.8
			c-3-0.4-6.2,1.6-9.3,1.5c-8.5-0.2-15.3,4-22.4,7.2c-1.4,0.6-2,3-2.9,4.6c-1,1.2-1.9,2.5-2.9,3.7c-0.5,0.1-1.1,0.2-1.6,0.3
			c-3.7,3.1-7.5,6.2-11.2,9.2c1.1,1.6,1.8,2.4,2.4,3.3c-1,2.9-2.1,5.9-3.1,8.8c-3,5.3-2.5,10.5-0.4,16.2c1.8-6,3.5-11.4,5-16.9
			c0.1-0.3-0.5-0.7-0.8-1c0.2-1.1,0.1-2.5,0.8-3.3c3.1-3.8,6.5-7.5,9.7-11.2l0.2,0.1c7.4-2.6,14.9-5.2,22.3-7.9c1-0.4,1.9-1.3,2.8-2
			c1.6,0,3.2,0,4.8,0c1.3,0.6,2.6,1.1,3.9,1.7c-1.6,14.4-3.2,28.8-4.8,43.2c-0.3,2.8-0.1,5.3,4.1,4.7c3.1-0.5,8.2,2.1,7.5-4.2
			c-1.6-14.5-3.3-29.1-4.9-43.6c3,0.9,6,1.7,8.9,2.6s5.7,1.9,8.6,2.8c4,3.4,9,6.3,11.9,10.4c3.2,4.7,4.5,10.5,6.6,15.8
			c0.3,4,0.6,7.9,0.8,11.9c2.5,3.7,9.1,3.7,11.8,0.1L242.9,72.2z"/>
		<path class="st10" d="M242.8,55.9c0,0.6,0,1.2,0,1.8l-0.3-0.1c-0.1,0.1-0.3,0.2-0.3,0.3c0.1,0.2,0.2,0.4,0.3,0.7
			c0,3.9,0.1,7.8,0.1,11.7c-9,2.4-9.9,1.8-10.7-6.9c-0.1-1.1-1.2-2.1-1.8-3.1c-2.1-5.3-3.4-11.2-6.6-15.8c-2.8-4.1-7.8-7-11.9-10.4
			c-6.2-6.8-14.7-7.1-23.3-7.1c-1.6,0-3.2,0-4.8,0c-9.7-1.2-16.9,4.1-24.6,8.2c-0.4,0.2-0.4,1.1-0.5,1.6l-0.2-0.1
			c-1.7,0.7-3.5,1.4-5.5,2.2c-0.1-0.8-0.2-1.5-0.3-2.3c0.3-0.3,0.5-0.6,0.8-0.9c0.6-0.6,1.3-1.2,1.9-1.9l0,0
			c0.7-0.8,1.4-1.7,2.1-2.5c1-1.2,1.9-2.5,2.9-3.7c0.7-0.2,1.6-0.2,2.2-0.7c12.3-10.1,27-11.3,41.9-8.1c7.6,1.6,14.5,5.9,21.7,9
			c3.6,4.3,7.2,8.5,10.8,12.8c0.1,0.3,0.3,0.5,0.6,0.7c0.2,0.6,0.3,1.2,0.5,1.7c0.6,1.2,1.2,2.5,1.8,3.7c0.1,0.2,0.2,0.4,0.2,0.7
			c0.3,0.7,0.6,1.4,0.9,2c0.1,0.2,0.1,0.4,0.1,0.7c0.5,1.6,1,3.2,1.5,4.8C242.6,55.3,242.7,55.6,242.8,55.9z"/>
		<path class="st11" d="M194.2,28.8c1.6,14.5,3.3,29.1,4.9,43.6c0.7,6.3-4.4,3.7-7.5,4.2c-4.2,0.7-4.4-1.9-4.1-4.7
			c1.6-14.4,3.2-28.8,4.8-43.2C193,28.8,193.6,28.8,194.2,28.8z"/>
		<path class="st12" d="M226.1,28c-7.2-3.1-14.1-7.4-21.7-9c-14.9-3.2-29.6-2-41.9,8.1c-0.5,0.4-1.4,0.5-2.2,0.7
			c1-1.6,1.5-3.9,2.9-4.6c7.1-3.2,13.9-7.4,22.4-7.2c3.1,0.1,6.4-1.9,9.3-1.5c10.4,1.4,20.7,3.3,29.2,9.8
			C225.2,25.1,225.5,26.7,226.1,28z"/>
		<path class="st13" d="M152.5,36.8c0.1,0.7,0.2,1.5,0.3,2.3c2-0.8,3.7-1.5,5.5-2.2c-3.3,3.7-6.6,7.4-9.7,11.2
			c-0.7,0.8-0.6,2.2-0.8,3.3c-1.3,0.6-2.6,1.2-3.8,1.8c1-2.9,2.1-5.9,3.1-8.8C148.9,41.8,150.7,39.3,152.5,36.8z"/>
		<path class="st14" d="M158.5,36.9c0.2-0.6,0.1-1.4,0.5-1.6c7.6-4.2,14.9-9.5,24.6-8.2c-0.9,0.7-1.7,1.6-2.8,2
			C173.4,31.8,166,34.3,158.5,36.9z"/>
		<path class="st15" d="M143.9,53.1c1.3-0.6,2.6-1.2,3.8-1.8c0.3,0.4,0.9,0.8,0.8,1c-1.6,5.5-3.2,10.9-5,16.9
			C141.4,63.6,140.9,58.4,143.9,53.1z"/>
		<path class="st14" d="M194.2,28.8c-0.6,0-1.2,0-1.9,0c-1.3-0.6-2.6-1.1-3.9-1.7c8.6-0.1,17.1,0.3,23.3,7.1
			c-2.9-0.9-5.7-1.9-8.6-2.8C200.2,30.4,197.2,29.6,194.2,28.8z"/>
		<path class="st12" d="M152.5,36.8c-1.8,2.5-3.7,5-5.5,7.5c-0.6-0.8-1.2-1.7-2.4-3.3c3.7-3,7.4-6.1,11.2-9.2
			c-0.2,0.7-0.3,1.5-0.5,2.2l0,0c-0.6,0.6-1.3,1.2-1.9,1.9C153.1,36.2,152.8,36.5,152.5,36.8z"/>
		<path class="st16" d="M230.2,60.4c0.6,1,1.7,2,1.8,3.1c0.8,8.7,1.6,9.3,10.7,6.9c0.1,0.6,0.2,1.3,0.3,1.9l-0.1,0.1
			c-3.9,0-7.8,0-11.8-0.1C230.7,68.3,230.5,64.3,230.2,60.4z"/>
		<path class="st12" d="M242.8,55.9c-0.1-0.3-0.2-0.6-0.3-0.8c-0.5-1.6-1-3.2-1.5-4.8c0-0.2,0-0.5-0.1-0.7c-0.3-0.7-0.6-1.4-0.9-2
			c0-0.2,0-0.4-0.2-0.7c-0.6-1.2-1.2-2.5-1.8-3.7c-0.2-0.6-0.3-1.2-0.5-1.7c0.1-0.3,0.2-0.5,0.2-0.8
			C242.9,43.9,244.9,49.8,242.8,55.9z"/>
		<path class="st15" d="M231,72.3c3.9,0,7.8,0,11.8,0.1C240.1,76,233.5,75.9,231,72.3z"/>
		<path class="st15" d="M242.9,72.2c-0.1-0.6-0.2-1.3-0.3-1.9c0-3.9-0.1-7.8-0.1-11.7c0-0.3,0-0.6,0-1l0.3,0.1
			c0.4,0.2,1.3,0.3,1.3,0.5C244.2,62.9,246.4,67.8,242.9,72.2z"/>
		<path class="st13" d="M155.3,34c0.2-0.7,0.3-1.5,0.5-2.2c0.5-0.1,1.1-0.2,1.6-0.3C156.7,32.3,156,33.1,155.3,34z"/>
		<path class="st13" d="M237.7,40.6c0,0.3-0.1,0.6-0.2,0.8c-0.3-0.2-0.5-0.4-0.6-0.7C237.1,40.6,237.4,40.5,237.7,40.6z"/>
		<path class="st13" d="M238,43.2c0.6,1.2,1.2,2.5,1.8,3.7C239.2,45.6,238.6,44.4,238,43.2z"/>
		<path class="st13" d="M240.9,50.2c0.5,1.6,1,3.2,1.5,4.8C242,53.4,241.4,51.8,240.9,50.2z"/>
		<path class="st13" d="M153.3,35.9c0.6-0.6,1.3-1.2,1.9-1.9C154.6,34.6,154,35.2,153.3,35.9z"/>
		<path class="st13" d="M240,47.5c0.3,0.7,0.6,1.4,0.9,2C240.5,48.9,240.3,48.2,240,47.5z"/>
		<path class="st13" d="M242.5,57.6c0,0.3,0,0.6,0,1c-0.1-0.2-0.2-0.4-0.3-0.7C242.2,57.9,242.4,57.7,242.5,57.6z"/>
	</g>
	<g>
		<g>
			<path class="st17" d="M480.4,532.9c-8.1-0.6-13.6-5.7-18.4-10.2c-0.8-0.7-1.5-1.4-2.3-2.1c-8.3-7.5-16.6-15-24.9-22.5
				c-4.6-4.1-9.1-8.2-13.7-12.3c-6.4-5.8-12.8-11.6-19.3-17.3c-19.7-17.7-40.1-36.1-60-54.2c-1.7-1.5-2.4-1.8-3.3-1.8
				c-0.6,0-1.3,0.1-2.1,0.4c-5.8,2-11.9,3-18,3c-24.9,0-47-17.2-53.8-41.9c-3.2-11.6-2.7-23.5,1.4-35.2l1.8-5c0,0,13.7,16.3,16.8,20
				c1.8,2.1,3.6,4.3,5.3,6.4c3.4,4.1,6.8,8.1,10.2,12.1c2.5,3,5.5,4.5,8.7,4.5c2.6,0,5.1-1,7.5-3c6.1-5.2,12.1-10.5,18-15.8
				c4.4-4,4.5-11,0.1-16.3c-6.1-7.4-12.3-14.7-18.5-22.1l-9-10.8c-0.2-0.3-0.4-0.5-0.7-1c-0.2-0.2-0.4-0.5-0.7-0.9l-2.9-3.9l4.9-0.8
				c3.9-0.6,7.7-1,11.3-1c12,0,22.8,3.6,32,10.7c20.5,15.7,27.7,37.1,21.3,63.6l6.2,5.2c5.7,4.7,11.5,9.5,17.2,14.2
				c14.8,12.2,29.6,24.4,44.4,36.6c6.4,5.3,12.9,10.6,19.3,15.9c14.3,11.7,29.1,23.9,43.5,35.9c9.9,8.2,11.2,21.6,3.1,31.9
				c-0.7,0.8-1.4,1.6-2,2.4c-0.9,1-1.8,2-2.5,3.1c-4.3,6-8.9,9.6-14.3,11.4l-0.3,0.1l-6.1,0.5L480.4,532.9z M478.5,490.7
				c-0.2,0-0.5,0-0.7,0c-4.9,0.4-8.5,4.8-8.1,9.8c0.3,4.5,4.5,8.4,9,8.4c0,0,0,0,0,0c0.2,0,0.4,0,0.6,0c2.2-0.2,4.2-1.2,5.7-2.9
				c1.6-1.9,2.3-4.3,2.1-6.7C486.6,494.2,483.1,490.7,478.5,490.7z"/>
			<path class="st18" d="M318.7,304.5c11,0,21.1,3.1,30.2,10.1c20.7,15.9,26.3,37.2,19.8,62.4c8.2,6.8,16.5,13.7,24.9,20.6
				c14.8,12.2,29.6,24.4,44.4,36.6c20.9,17.2,41.9,34.4,62.8,51.7c8.6,7.2,9.6,18.9,2.7,27.7c-1.5,1.9-3.2,3.6-4.6,5.6
				c-3.4,4.7-7.3,8.5-12.8,10.3c-1.8,0.2-3.6,0.3-5.5,0.5c-8.2-0.6-13.3-6.5-18.9-11.5c-12.9-11.6-25.7-23.2-38.6-34.8
				c-26.4-23.8-52.9-47.6-79.3-71.6c-1.8-1.7-3.3-2.6-5.3-2.6c-0.9,0-1.9,0.2-3.1,0.6c-5.7,1.9-11.4,2.9-17,2.9
				c-23,0-44.2-15.5-50.9-39.7c-3-11-2.6-22.1,1.4-33.4c4.6,5.5,9,10.7,13.4,16c5.2,6.2,10.3,12.4,15.5,18.6c3.1,3.7,7,5.6,11,5.6
				c3.2,0,6.5-1.2,9.4-3.7c6.1-5.2,12.1-10.4,18-15.8c5.7-5.1,5.8-14,0.4-20.4c-9.1-11-18.3-21.9-27.5-32.9
				c-0.3-0.3-0.5-0.7-1.3-1.7C311.6,304.8,315.2,304.5,318.7,304.5 M478.6,511.9c0.3,0,0.6,0,0.9,0c6.3-0.5,11.1-6.3,10.5-12.9
				c-0.6-6.6-5.4-11.2-11.6-11.2c-0.3,0-0.7,0-1,0c-6.5,0.5-11.4,6.4-10.9,13C467.1,506.9,472.6,511.9,478.6,511.9 M318.7,298.5
				L318.7,298.5c-3.8,0-7.8,0.3-11.8,1l-9.7,1.6l5.9,7.9c0.3,0.4,0.5,0.6,0.6,0.9c0.3,0.4,0.6,0.8,0.9,1.1c3,3.6,6.1,7.3,9.1,10.9
				c6,7.2,12.3,14.6,18.4,22c3.3,4,3.4,9.2,0.2,12.1c-5.8,5.3-11.8,10.5-17.9,15.7c-1.8,1.5-3.7,2.3-5.5,2.3c-2.9,0-5.1-1.9-6.4-3.5
				c-3.4-4-6.8-8.1-10.1-12.1c-1.8-2.2-3.6-4.3-5.4-6.5c-3-3.6-6-7.2-9.1-10.9l-4.2-5.1l-6.7-8.1l-3.5,9.9
				c-4.4,12.3-4.9,24.8-1.5,37c3.6,13,11,24.1,21.4,32.1c10.1,7.8,22.6,12,35.2,12c6.4,0,12.8-1.1,19-3.2c0.6-0.2,1-0.3,1.1-0.3
				c0.1,0.1,0.5,0.3,1.3,1c20,18.2,40.5,36.6,60.2,54.4c6.4,5.7,12.7,11.4,19.1,17.2c4.6,4.1,9.2,8.3,13.8,12.4
				c8.1,7.4,16.6,15,24.9,22.4c0.8,0.7,1.5,1.4,2.2,2.1c5.2,4.8,11.1,10.3,20.2,11l0.5,0l0.5,0l5.5-0.5l0.7-0.1l0.7-0.2
				c6.1-2,11.1-6,15.8-12.5c0.7-0.9,1.5-1.9,2.3-2.9c0.7-0.8,1.4-1.6,2.1-2.5c9-11.4,7.4-26.9-3.6-36c-14.5-12-29.2-24.1-43.5-35.8
				c-6.5-5.3-12.9-10.6-19.4-15.9c-14.8-12.2-29.6-24.4-44.4-36.6c-5.8-4.8-11.5-9.5-17.2-14.2l-4.8-4c2.7-12.4,2.5-23.9-0.6-34.2
				c-3.6-11.8-11.1-22.2-22.2-30.7C342.8,302.3,331.4,298.5,318.7,298.5L318.7,298.5z M478.6,505.9c-3,0-5.8-2.6-6-5.6
				c-0.3-3.4,2.1-6.3,5.4-6.6c0.2,0,0.3,0,0.5,0c3.1,0,5.3,2.3,5.6,5.7c0.1,1.7-0.4,3.3-1.4,4.5c-0.9,1.1-2.2,1.8-3.6,1.9
				C478.9,505.9,478.8,505.9,478.6,505.9L478.6,505.9z"/>
		</g>
		<g>
			<path class="st17" d="M310.6,502.2c-11.1-1.6-21.9-4.4-32-8.6c-4.3-1.8-8.4-3.7-12.2-5.8c-0.2-0.1-0.4-0.2-0.5-0.2
				c-0.1,0.1-0.2,0.2-0.4,0.4c-4.8,4.7-9.8,9.5-14.5,14.1l-5.2,5l-2.9,2.7L205.1,477l17.1-27c-9.6-12.7-16.9-27.1-21.8-42.7l-5-0.2
				c-7.1-0.3-14.4-0.5-21.7-0.7c-1.3,0-5.1-0.1-5.5-4.7c-0.8-9.9-1.7-19.8-2.5-29.7l-1.1-12.4c0-0.5,0-1,0.1-1.3
				c0-0.1,0-0.2,0.1-0.4l0.3-2.1l8.3-1.8c4.4-0.9,8.8-1.9,13.2-2.8c0.9-0.2,1.9-0.4,2.8-0.6c2.1-0.4,4-0.8,5.9-1.3
				c0-0.1,0-0.1,0-0.1c1.5-12.4,4.8-24.9,10-37c1-2.5,2.2-4.9,3.3-7.2c0.2-0.5,0.5-1,0.7-1.5L188.2,280l31.7-38.7l25.9,17.3
				c1.3-0.9,2.6-1.8,3.9-2.7c4.1-2.8,8.4-5.8,13-8.2c7-3.6,14.3-6.7,21.4-9.6l3.3-1.4c0.1,0,0.2-0.1,0.2-0.1
				c0.2-7,0.4-13.9,0.6-20.9c0.1-2,0.1-4,0.2-6l0.2-5.5l49.1-4.3l4.3,20.7c0.2,1.1,0.4,2.1,0.6,3.2c0.5,2.6,1,5.2,1.7,7.8
				c15.7,2.2,30.7,7.1,44.7,14.6l22.9-21.9l37.8,32.6L432.7,284c8.1,10.8,14.4,22.3,18.8,34.3c0.2,0.6,0.4,1.1,0.7,1.7
				c0.7,1.9,1.5,3.9,2,6.1c0.1,0.4,0.2,0.6,0.2,0.7c0.1,0,0.4,0.1,1,0.1c6.7,0.1,13.3,0.4,20.2,0.7c2.6,0.1,5.2,0.2,7.8,0.3l2.5,0.1
				l0.3,2.5c0,0.3,0.1,0.6,0.1,0.9c0.1,0.8,0.2,1.6,0.3,2.4c0.4,4.1,0.7,8.2,1.1,12.3c0.8,8.8,1.6,18,2.4,27
				c0.3,3.6-1.2,5.7-4.7,6.3c-6.7,1.3-13.4,2.7-20.4,4.3c-1.8,0.4-3.7,0.8-5.5,1.2c-1.6,11.4-4,21.4-7.4,30.4l-1.3,3.5l-27.3-17.9
				l-2.8-1.9c-2.8-1.8-5.6-3.7-8.5-5.5c-2.4-1.5-3.2-3.5-2.5-6.2c2.3-9.4,2.9-19.2,1.7-29.8c-2.1-19.2-9.8-36.1-23-50.2
				c-14.1-15.1-31.2-24-50.7-26.2c-3.8-0.4-7.6-0.7-11.3-0.7c-23.9,0-44.6,9.5-61.5,28.2c-13.4,14.9-20.8,32.7-21.8,53
				c-1.3,25.7,6.9,47.9,24.3,66.1c13.8,14.5,30.9,23.1,50.8,25.5c3.4,0.4,6.8,0.6,10.1,0.6c10.3,0,20.3-2,29.7-5.9
				c1.2-0.5,2.2-0.7,3.3-0.7c2.4,0,4,1.3,5.2,2.4c7.6,7.3,15.2,14.5,23.2,22.1l11.5,10.9l-33.8,15.3l-1,31.9l-49.1,4.3L310.6,502.2z
				"/>
			<path class="st18" d="M335.3,203.3c1.3,6.1,2.5,12.1,3.8,18.1c0.8,3.8,1.5,7.5,2.4,11.2c0.2,0.8,1.1,1.9,1.7,2
				c16.1,2.2,31.3,7.1,45.5,15c0.2,0.1,0.5,0.2,0.9,0.3c7.5-7.2,15-14.4,22.4-21.5c11.2,9.7,22.4,19.3,33.8,29.1
				c-5.5,8.6-11.1,17.5-16.8,26.5c8.3,10.7,14.9,22.4,19.7,35.1c0.9,2.4,2,4.9,2.5,7.4c0.6,2.4,1.5,3.1,4.1,3.1
				c9.2,0.1,18.4,0.7,27.9,1.1c0.1,1,0.3,2.1,0.4,3.2c1.1,13.1,2.2,26.2,3.5,39.2c0.2,2-0.2,2.7-2.3,3.1c-9.2,1.8-18.4,3.9-28,5.9
				c-1.4,10.7-3.6,21.4-7.5,31.8c-8.2-5.3-16.2-10.6-24.2-15.8c-3.8-2.5-7.5-5-11.4-7.4c-1.2-0.7-1.6-1.4-1.2-2.9
				c2.5-10.2,2.9-20.4,1.8-30.9c-2.2-20-10.2-37.4-23.7-51.9c-14.4-15.4-31.9-24.8-52.5-27.1c-4-0.5-7.8-0.7-11.6-0.7
				c-24.8,0-46.1,9.7-63.8,29.2c-13.9,15.4-21.5,33.9-22.5,54.8c-1.3,26.4,7,49.3,25.1,68.3c14.4,15.1,32.1,23.9,52.6,26.4
				c3.5,0.4,7,0.6,10.5,0.6c10.5,0,20.9-2,30.9-6.2c0.8-0.3,1.5-0.5,2.1-0.5c1.1,0,2,0.5,3.1,1.6c10.2,9.8,20.4,19.4,31.5,29.9
				c-10.7,4.8-20.8,9.4-31.4,14.2c-0.3,9.8-0.7,20.5-1,31.1c-14.7,1.3-29.1,2.5-43.8,3.8c-2.2-10.4-4.3-20.8-6.5-31.3
				c-11.5-1.4-22.7-4.3-33.4-8.7c-4.1-1.7-8.1-3.6-11.9-5.7c-0.8-0.4-1.4-0.6-2-0.6c-0.9,0-1.6,0.4-2.4,1.2
				c-6.5,6.4-13.1,12.7-19.7,19c-0.3,0.3-0.6,0.6-0.9,0.8c-11.2-9.7-22.4-19.3-33.8-29.1c5.5-8.7,11.2-17.6,16.9-26.6
				c-10.6-13.6-18.2-28.8-23.2-45.5c-9.6-0.3-19.2-0.7-28.8-1c-1.5,0-2.4-0.1-2.6-2c-1.2-14-2.4-28.1-3.6-42.1
				c0-0.3,0.1-0.6,0.1-1.1c6.4-1.4,12.9-2.7,19.4-4.1c3.2-0.7,6.5-1.2,9.6-2.1c0.7-0.2,1.4-1.6,1.5-2.5c1.5-12.6,4.8-24.6,9.8-36.2
				c1.5-3.5,3.2-6.9,4.8-10.5c-7-7.7-14-15.4-20.9-22.9c9.4-11.5,18.8-22.9,28.3-34.6c8.2,5.5,16.9,11.3,25.3,16.9
				c6.1-4,11.9-8.4,18.3-11.8c7.9-4.1,16.2-7.4,24.4-10.9c1.5-0.6,2.1-1.1,2.1-2.6c0.2-7,0.4-14,0.6-21c0.1-2.9,0.2-5.8,0.3-8.8
				C306.1,205.9,320.6,204.6,335.3,203.3 M340.1,196.9l-5.3,0.5l-19.6,1.7l-24.2,2.1l-5.3,0.5l-0.2,5.3c0,0.9-0.1,1.9-0.1,2.8
				c-0.1,2.1-0.2,4-0.2,6.1c-0.2,5.7-0.4,12.2-0.5,19c-0.6,0.2-1.2,0.5-1.7,0.7c-7.2,3-14.6,6-21.6,9.7c-4.7,2.5-9.1,5.5-13.3,8.4
				c-0.7,0.5-1.5,1-2.2,1.5l-22-14.7l-4.5-3l-3.5,4.2l-28.3,34.6l-3.3,4l3.5,3.8l18.2,19.9c-1.1,2.3-2.2,4.6-3.2,7
				c-5,11.7-8.3,23.8-10,35.9c-1.2,0.3-2.5,0.5-3.8,0.8c-1,0.2-1.9,0.4-2.9,0.6c-4.6,1-9.2,2-13.8,2.9l-5.6,1.2l-4.2,0.9l-0.5,4.3
				c0,0.1,0,0.2,0,0.3c-0.1,0.4-0.2,1.1-0.1,2c0.4,4.1,0.7,8.3,1.1,12.4c0.8,9.7,1.7,19.8,2.5,29.6c0.2,2.2,1.4,7.3,8.4,7.5
				c7.2,0.2,14.5,0.5,21.6,0.7c1,0,1.9,0.1,2.9,0.1c4.8,14.5,11.6,27.9,20.4,40l-4.7,7.4l-10,15.7l-2.8,4.4l3.9,3.4l17.1,14.7
				l16.7,14.4l4.1,3.6l3.9-3.7l0.2-0.2c0.2-0.2,0.4-0.4,0.7-0.7c1.7-1.6,3.4-3.3,5.1-4.9c4.4-4.2,9-8.6,13.4-13
				c3.5,1.9,7.2,3.6,11.1,5.2c9.7,4,20,6.8,30.6,8.5l5.6,27.2l1.1,5.2l5.3-0.5l22.1-1.9l21.8-1.9l5.3-0.5l0.2-5.3l0.5-15.6l0.4-11.8
				l12.9-5.8l15.1-6.8l8.1-3.7l-6.5-6.1c-2.8-2.7-5.6-5.3-8.3-7.8c-8-7.6-15.6-14.8-23.2-22c-0.8-0.8-3.4-3.2-7.3-3.2
				c-1.4,0-2.9,0.3-4.4,1c-9.1,3.8-18.7,5.7-28.6,5.7c-3.2,0-6.5-0.2-9.8-0.6c-19.1-2.3-35.6-10.6-48.9-24.6
				c-16.8-17.6-24.7-39.1-23.5-63.9c1-19.6,8-36.8,21-51.1c16.3-18.1,36.3-27.2,59.3-27.2c3.6,0,7.2,0.2,10.9,0.6
				c18.8,2.2,35.2,10.7,48.8,25.3c12.7,13.6,20.1,29.9,22.2,48.4c1.1,10.3,0.6,19.7-1.7,28.8c-0.6,2.3-0.8,6.5,3.9,9.4
				c2.8,1.8,5.7,3.7,8.5,5.5c0.9,0.6,1.9,1.2,2.8,1.8c5.6,3.7,11.3,7.4,17,11.1l7.2,4.7l6.2,4.1l2.6-7c3.3-8.6,5.7-18.1,7.3-28.9
				c1.2-0.3,2.3-0.5,3.5-0.8c7-1.5,13.6-2.9,20.3-4.2c5-1,7.6-4.5,7.1-9.6c-0.8-9-1.6-18.1-2.4-26.9c-0.4-4.1-0.7-8.2-1.1-12.3
				c-0.1-0.9-0.2-1.8-0.3-2.6c0-0.3-0.1-0.6-0.1-0.9l-0.7-5l-5-0.2c-2.6-0.1-5.2-0.2-7.8-0.3c-6.5-0.3-12.7-0.6-19-0.7
				c-0.5-1.8-1.1-3.4-1.7-5c-0.2-0.6-0.4-1.1-0.6-1.7c-4.3-11.6-10.4-22.8-18-33.3l14.6-23l2.8-4.4l-3.9-3.4l-20.3-17.5L415.9,224
				l-4.1-3.6l-3.9,3.8l-12,11.5l-7.4,7.1c-13.1-6.8-27.1-11.3-41.7-13.6c-0.4-1.9-0.8-3.7-1.2-5.7c-0.2-1.1-0.4-2.1-0.6-3.2
				c-0.9-4.2-1.7-8.4-2.6-12.6l-1.1-5.5L340.1,196.9L340.1,196.9z"/>
		</g>
	</g>
</g>
</svg>
