<?xml version="1.0" encoding="utf-8"?>
<!-- Generator: Adobe Illustrator 27.8.0, SVG Export Plug-In . SVG Version: 6.00 Build 0)  -->
<svg version="1.1" id="Capa_1" xmlns="http://www.w3.org/2000/svg" xmlns:xlink="http://www.w3.org/1999/xlink" x="0px" y="0px"
	 viewBox="0 0 561.5 371.3" style="enable-background:new 0 0 561.5 371.3;" xml:space="preserve">
<style type="text/css">
	.st0{opacity:0.15;}
	.st1{fill:#0098A0;}
	.st2{fill-rule:evenodd;clip-rule:evenodd;fill:#0098A0;}
	.st3{opacity:0.15;fill:#006B9E;}
	.st4{fill:#006B9E;}
</style>
<g>
	<g class="st0">
		<path class="st1" d="M456.5,150.3c-32.1,14-62.4,27.2-68.5,62.7l-1.3,7.7c1.3,9.4,3.8,19.7,7.5,31.3
			c16.2-94.6,182.1-45.2,142.5-196.9C537.4,115,494.9,133.6,456.5,150.3z"/>
		<path class="st2" d="M380.4,211.7c16.3-94.9,183-45,142.2-198C487.1,110.6,333.7,65.2,380.4,211.7L380.4,211.7z"/>
	</g>
	<path class="st3" d="M469.6,189.1c-1.7,0.7-3.4,1.5-5,2.2c0,0.9,0.1,1.8,0.1,2.7v0.7c0,37.7-26.5,69.8-66.5,69.8
		c-39.6,0-66.9-32.9-66.9-70.6v-0.7c0-29.5,16.3-55.5,42.2-65.5c12.9-25,39.4-37.3,65.5-49.3c6-2.8,12.1-5.6,18.1-8.6
		c-17.7-7.6-37.6-11.8-58.9-11.8c-80.7,0-141.2,60.9-141.2,136v0.7c0,75.1,59.8,135.2,140.4,135.2c80.7,0,141.2-60.9,141.2-136v-0.7
		c0-15.3-2.5-29.9-7.1-43.5C515.9,168.9,492,179.3,469.6,189.1z"/>
</g>
<g>
	<path class="st1" d="M8.4,309.7c-0.6,0-1.1-0.1-1.5-0.4c-0.4-0.2-0.7-0.6-1-1c-0.2-0.4-0.3-1-0.3-1.6v-2.2c0-0.6,0.1-1.1,0.3-1.6
		c0.2-0.4,0.5-0.8,1-1c0.4-0.2,0.9-0.4,1.5-0.4c0.5,0,0.9,0.1,1.3,0.3c0.4,0.2,0.7,0.5,1,0.9c0.3,0.4,0.4,0.8,0.5,1.3H9.8
		c-0.1-0.3-0.2-0.5-0.3-0.7c-0.1-0.2-0.3-0.3-0.5-0.4C8.8,303,8.6,303,8.4,303c-0.5,0-0.8,0.1-1.1,0.4c-0.3,0.3-0.4,0.7-0.4,1.2v2.2
		c0,0.5,0.1,0.9,0.4,1.2c0.3,0.3,0.6,0.4,1.1,0.4c0.3,0,0.6-0.1,0.9-0.3c0.3-0.2,0.4-0.5,0.5-0.9h1.3c-0.1,0.5-0.3,1-0.5,1.3
		c-0.3,0.4-0.6,0.7-1,0.9C9.3,309.6,8.9,309.7,8.4,309.7z"/>
	<path class="st1" d="M14.7,309.7c-0.8,0-1.3-0.2-1.7-0.6s-0.6-1-0.6-1.8v-0.9c0-0.8,0.2-1.4,0.6-1.8c0.4-0.4,1-0.6,1.7-0.6
		s1.3,0.2,1.7,0.6c0.4,0.4,0.6,1,0.6,1.8v0.9c0,0.8-0.2,1.4-0.6,1.8C16,309.5,15.4,309.7,14.7,309.7z M14.7,308.5
		c0.3,0,0.6-0.1,0.8-0.3c0.2-0.2,0.3-0.5,0.3-0.9v-0.9c0-0.4-0.1-0.7-0.3-0.9c-0.2-0.2-0.5-0.3-0.8-0.3c-0.3,0-0.6,0.1-0.8,0.3
		s-0.3,0.5-0.3,0.9v0.9c0,0.4,0.1,0.7,0.3,0.9S14.4,308.5,14.7,308.5z"/>
	<path class="st1" d="M18.5,309.6V304h1.3v5.6H18.5z M21.8,309.6v-3.4c0-0.3-0.1-0.6-0.3-0.8s-0.4-0.3-0.8-0.3
		c-0.3,0-0.6,0.1-0.7,0.3s-0.3,0.4-0.3,0.7l-0.1-1.2c0.2-0.3,0.4-0.6,0.6-0.8c0.3-0.2,0.6-0.3,0.9-0.3c0.6,0,1.1,0.2,1.4,0.6
		c0.3,0.4,0.5,1,0.5,1.7v3.4H21.8z"/>
	<path class="st1" d="M24.3,305.1V304h2.6v1.1H24.3z M26.2,309.6c-0.5,0-0.8-0.1-1-0.4s-0.3-0.6-0.3-1.1v-5.8h1.3v5.6
		c0,0.1,0,0.2,0.1,0.3c0.1,0.1,0.1,0.1,0.2,0.1h0.4v1.2H26.2z"/>
	<path class="st1" d="M30,309.7c-0.6,0-1.1-0.1-1.4-0.4c-0.3-0.3-0.5-0.7-0.5-1.3c0-0.6,0.2-1,0.5-1.2c0.3-0.3,0.8-0.4,1.5-0.4h1.5
		l0.1,1H30c-0.3,0-0.4,0.1-0.6,0.2c-0.1,0.1-0.2,0.3-0.2,0.5c0,0.2,0.1,0.4,0.2,0.5c0.2,0.1,0.4,0.2,0.8,0.2c0.4,0,0.7,0,0.9-0.1
		c0.2-0.1,0.3-0.2,0.3-0.4l0.1,0.8c-0.1,0.2-0.2,0.3-0.3,0.5c-0.2,0.1-0.3,0.2-0.6,0.3C30.4,309.7,30.2,309.7,30,309.7z M31.4,309.6
		v-3.6c0-0.3-0.1-0.6-0.3-0.7c-0.2-0.2-0.4-0.3-0.8-0.3c-0.2,0-0.4,0-0.6,0.1c-0.2,0.1-0.4,0.2-0.6,0.3l-0.9-0.7
		c0.2-0.3,0.5-0.5,0.9-0.6s0.8-0.2,1.2-0.2c0.7,0,1.3,0.2,1.7,0.5s0.6,0.9,0.6,1.5v3.6H31.4z M30.5,303.1l-0.8-0.7l1.5-1.9l0.9,0.8
		L30.5,303.1z"/>
	<path class="st1" d="M36.5,309.7c-0.8,0-1.4-0.2-1.8-0.7c-0.4-0.4-0.7-1.1-0.7-1.9v-0.8c0-0.8,0.2-1.4,0.6-1.8s1-0.7,1.8-0.7
		c0.5,0,0.9,0.1,1.2,0.2c0.4,0.2,0.7,0.4,0.9,0.7l-0.9,0.8c-0.1-0.2-0.3-0.3-0.5-0.4c-0.2-0.1-0.4-0.1-0.6-0.1
		c-0.4,0-0.7,0.1-0.9,0.3c-0.2,0.2-0.3,0.5-0.3,0.9v0.8c0,0.4,0.1,0.7,0.3,0.9c0.2,0.2,0.5,0.3,0.9,0.3c0.2,0,0.4,0,0.6-0.1
		c0.2-0.1,0.4-0.2,0.5-0.4l0.9,0.9c-0.2,0.3-0.5,0.5-0.9,0.7C37.4,309.6,37,309.7,36.5,309.7z"/>
	<path class="st1" d="M39.3,305.1V304h2.6v1.1H39.3z M41.2,309.6c-0.5,0-0.8-0.1-1-0.4s-0.3-0.6-0.3-1.1v-5.8h1.3v5.6
		c0,0.1,0,0.2,0.1,0.3c0.1,0.1,0.1,0.1,0.2,0.1h0.4v1.2H41.2z"/>
	<path class="st1" d="M45,309.7c-0.6,0-1.1-0.1-1.4-0.4c-0.3-0.3-0.5-0.7-0.5-1.3c0-0.6,0.2-1,0.5-1.2c0.3-0.3,0.8-0.4,1.5-0.4h1.5
		l0.1,1H45c-0.3,0-0.4,0.1-0.6,0.2c-0.1,0.1-0.2,0.3-0.2,0.5c0,0.2,0.1,0.4,0.2,0.5c0.2,0.1,0.4,0.2,0.8,0.2c0.4,0,0.7,0,0.9-0.1
		c0.2-0.1,0.3-0.2,0.3-0.4l0.1,0.8c-0.1,0.2-0.2,0.3-0.3,0.5c-0.2,0.1-0.3,0.2-0.6,0.3C45.4,309.7,45.2,309.7,45,309.7z M46.4,309.6
		v-3.6c0-0.3-0.1-0.6-0.3-0.7c-0.2-0.2-0.4-0.3-0.8-0.3c-0.2,0-0.4,0-0.6,0.1c-0.2,0.1-0.4,0.2-0.6,0.3l-0.9-0.7
		c0.2-0.3,0.5-0.5,0.9-0.6s0.8-0.2,1.2-0.2c0.7,0,1.3,0.2,1.7,0.5s0.6,0.9,0.6,1.5v3.6H46.4z"/>
	<path class="st1" d="M49.2,309.6V304h1.3v5.6H49.2z M52.5,309.6v-3.4c0-0.3-0.1-0.6-0.3-0.8s-0.4-0.3-0.8-0.3
		c-0.3,0-0.6,0.1-0.7,0.3s-0.3,0.4-0.3,0.7l-0.1-1.2c0.2-0.3,0.4-0.6,0.6-0.8c0.3-0.2,0.6-0.3,0.9-0.3c0.6,0,1.1,0.2,1.4,0.6
		c0.3,0.4,0.5,1,0.5,1.7v3.4H52.5z"/>
	<path class="st1" d="M57.6,309.7c-0.8,0-1.3-0.2-1.7-0.6s-0.6-1-0.6-1.8v-0.9c0-0.8,0.2-1.4,0.6-1.8c0.4-0.4,1-0.6,1.7-0.6
		s1.3,0.2,1.7,0.6c0.4,0.4,0.6,1,0.6,1.8v0.9c0,0.8-0.2,1.4-0.6,1.8C58.9,309.5,58.3,309.7,57.6,309.7z M57.6,308.5
		c0.3,0,0.6-0.1,0.8-0.3c0.2-0.2,0.3-0.5,0.3-0.9v-0.9c0-0.4-0.1-0.7-0.3-0.9c-0.2-0.2-0.5-0.3-0.8-0.3c-0.3,0-0.6,0.1-0.8,0.3
		s-0.3,0.5-0.3,0.9v0.9c0,0.4,0.1,0.7,0.3,0.9S57.2,308.5,57.6,308.5z"/>
	<path class="st1" d="M63.5,309.7c-0.5,0-1-0.1-1.4-0.2c-0.4-0.1-0.8-0.3-1.1-0.6l0.8-1c0.3,0.2,0.6,0.4,0.9,0.5
		c0.3,0.1,0.6,0.2,0.9,0.2c0.4,0,0.7-0.1,0.9-0.2c0.2-0.1,0.3-0.3,0.3-0.5c0-0.2-0.1-0.3-0.2-0.4c-0.1-0.1-0.3-0.1-0.5-0.1
		s-0.5,0-0.7-0.1c-0.2,0-0.5-0.1-0.7-0.1s-0.4-0.1-0.6-0.2c-0.2-0.1-0.3-0.3-0.5-0.5c-0.1-0.2-0.2-0.5-0.2-0.8c0-0.6,0.2-1,0.6-1.3
		c0.4-0.3,0.9-0.5,1.7-0.5c0.4,0,0.9,0.1,1.2,0.2c0.4,0.1,0.8,0.3,1.1,0.5l-0.8,0.9c-0.3-0.2-0.5-0.3-0.8-0.4
		c-0.3-0.1-0.5-0.1-0.8-0.1c-0.3,0-0.6,0-0.8,0.1c-0.2,0.1-0.3,0.2-0.3,0.4c0,0.1,0.1,0.2,0.2,0.3c0.1,0.1,0.3,0.1,0.5,0.1
		s0.4,0,0.6,0.1c0.2,0,0.5,0.1,0.7,0.1c0.2,0,0.5,0.1,0.7,0.2c0.2,0.1,0.4,0.3,0.5,0.5s0.2,0.5,0.2,0.9c0,0.6-0.2,1-0.6,1.4
		C64.8,309.5,64.2,309.7,63.5,309.7z"/>
</g>
<g>
	<g>
		<path class="st4" d="M21.4,323.9l1.9-3.9l0.1,0.2c-0.1,0.2-0.2,0.3-0.4,0.4c-0.2,0.1-0.4,0.1-0.6,0.1c-0.6,0-1.1-0.2-1.4-0.6
			c-0.4-0.4-0.5-1-0.5-1.7v0c0-0.8,0.2-1.4,0.6-1.8c0.4-0.4,1-0.6,1.7-0.6s1.3,0.2,1.7,0.6c0.4,0.4,0.6,1,0.6,1.8v0
			c0,0.3-0.1,0.7-0.2,1c-0.1,0.4-0.2,0.7-0.4,1.1l-1.6,3.4H21.4z M22.6,319.4c0.3,0,0.5-0.1,0.7-0.3s0.3-0.5,0.3-0.9v0
			c0-0.4-0.1-0.6-0.3-0.8c-0.2-0.2-0.4-0.3-0.7-0.3c-0.3,0-0.5,0.1-0.7,0.3c-0.2,0.2-0.3,0.5-0.3,0.8v0c0,0.4,0.1,0.7,0.3,0.9
			C22.1,319.3,22.3,319.4,22.6,319.4z"/>
		<path class="st4" d="M28.5,324c-0.6,0-1.1-0.2-1.5-0.6c-0.4-0.4-0.7-0.9-0.7-1.6v0h1.3v0c0,0.3,0.1,0.5,0.3,0.7
			c0.2,0.2,0.4,0.2,0.7,0.2c0.3,0,0.5-0.1,0.7-0.3s0.3-0.5,0.3-0.9v-0.7c0-0.4-0.1-0.7-0.2-0.9s-0.4-0.3-0.7-0.3
			c-0.2,0-0.4,0.1-0.6,0.2c-0.2,0.1-0.3,0.3-0.4,0.5h-1.2V316h4.2v1.3h-2.9v1.6c0.1-0.1,0.3-0.2,0.5-0.3c0.2-0.1,0.4-0.1,0.6-0.1
			c0.7,0,1.2,0.2,1.5,0.6c0.4,0.4,0.5,1,0.5,1.8v0.7c0,0.8-0.2,1.4-0.6,1.8C29.8,323.8,29.3,324,28.5,324z"/>
		<path class="st4" d="M34.4,316v7.9h-1.3v-6.5l-1,0.5v-1.4l1.2-0.6H34.4z"/>
		<path class="st4" d="M41.1,316v7.9h-1.3v-6.5l-1,0.5v-1.4l1.2-0.6H41.1z"/>
		<path class="st4" d="M43.7,323.9l1.9-3.9l0.1,0.2c-0.1,0.2-0.2,0.3-0.4,0.4c-0.2,0.1-0.4,0.1-0.6,0.1c-0.6,0-1.1-0.2-1.4-0.6
			c-0.4-0.4-0.5-1-0.5-1.7v0c0-0.8,0.2-1.4,0.6-1.8c0.4-0.4,1-0.6,1.7-0.6s1.3,0.2,1.7,0.6c0.4,0.4,0.6,1,0.6,1.8v0
			c0,0.3-0.1,0.7-0.2,1c-0.1,0.4-0.2,0.7-0.4,1.1l-1.6,3.4H43.7z M44.9,319.4c0.3,0,0.5-0.1,0.7-0.3s0.3-0.5,0.3-0.9v0
			c0-0.4-0.1-0.6-0.3-0.8c-0.2-0.2-0.4-0.3-0.7-0.3c-0.3,0-0.5,0.1-0.7,0.3c-0.2,0.2-0.3,0.5-0.3,0.8v0c0,0.4,0.1,0.7,0.3,0.9
			C44.4,319.3,44.6,319.4,44.9,319.4z"/>
		<path class="st4" d="M50.8,324c-0.6,0-1.1-0.2-1.5-0.6c-0.4-0.4-0.7-0.9-0.7-1.6v0h1.3v0c0,0.3,0.1,0.5,0.3,0.7
			c0.2,0.2,0.4,0.2,0.7,0.2c0.3,0,0.5-0.1,0.7-0.3s0.3-0.5,0.3-0.9v-0.7c0-0.4-0.1-0.7-0.2-0.9s-0.4-0.3-0.7-0.3
			c-0.2,0-0.4,0.1-0.6,0.2c-0.2,0.1-0.3,0.3-0.4,0.5h-1.2V316h4.2v1.3H50v1.6c0.1-0.1,0.3-0.2,0.5-0.3c0.2-0.1,0.4-0.1,0.6-0.1
			c0.7,0,1.2,0.2,1.5,0.6c0.4,0.4,0.5,1,0.5,1.8v0.7c0,0.8-0.2,1.4-0.6,1.8C52.1,323.8,51.6,324,50.8,324z"/>
		<path class="st4" d="M60,324c-0.8,0-1.4-0.2-1.7-0.6c-0.4-0.4-0.6-1-0.6-1.6v-3.6c0-0.7,0.2-1.3,0.6-1.7c0.4-0.4,1-0.6,1.7-0.6
			c0.8,0,1.3,0.2,1.7,0.6c0.4,0.4,0.6,1,0.6,1.7v3.6c0,0.7-0.2,1.3-0.6,1.7C61.3,323.8,60.7,324,60,324z M60,322.7
			c0.4,0,0.6-0.1,0.8-0.3c0.2-0.2,0.2-0.5,0.2-0.9v-3.2c0-0.4-0.1-0.7-0.2-0.9c-0.2-0.2-0.4-0.3-0.8-0.3c-0.4,0-0.6,0.1-0.8,0.3
			c-0.2,0.2-0.2,0.5-0.2,0.9v3.2c0,0.4,0.1,0.7,0.2,0.9C59.4,322.6,59.6,322.7,60,322.7z"/>
		<path class="st4" d="M63.7,323.9v-1.2l2.7-3.6c0.1-0.2,0.3-0.4,0.3-0.6c0.1-0.2,0.1-0.4,0.1-0.6v0c0-0.3-0.1-0.5-0.2-0.6
			c-0.2-0.1-0.4-0.2-0.7-0.2c-0.3,0-0.5,0.1-0.7,0.3c-0.2,0.2-0.3,0.4-0.3,0.8v0h-1.3v0c0.1-0.7,0.3-1.3,0.7-1.7
			c0.4-0.4,1-0.6,1.6-0.6c0.7,0,1.3,0.2,1.7,0.5c0.4,0.4,0.6,0.9,0.6,1.5v0c0,0.3-0.1,0.6-0.2,1c-0.1,0.3-0.3,0.6-0.5,0.9l-2.1,2.8
			h2.9v1.3H63.7z"/>
		<path class="st4" d="M71.9,324c-0.8,0-1.4-0.2-1.7-0.6c-0.4-0.4-0.6-1-0.6-1.6v-3.6c0-0.7,0.2-1.3,0.6-1.7c0.4-0.4,1-0.6,1.7-0.6
			c0.8,0,1.3,0.2,1.7,0.6c0.4,0.4,0.6,1,0.6,1.7v3.6c0,0.7-0.2,1.3-0.6,1.7C73.3,323.8,72.7,324,71.9,324z M71.9,322.7
			c0.4,0,0.6-0.1,0.8-0.3c0.2-0.2,0.2-0.5,0.2-0.9v-3.2c0-0.4-0.1-0.7-0.2-0.9c-0.2-0.2-0.4-0.3-0.8-0.3c-0.4,0-0.6,0.1-0.8,0.3
			c-0.2,0.2-0.2,0.5-0.2,0.9v3.2c0,0.4,0.1,0.7,0.2,0.9C71.3,322.6,71.6,322.7,71.9,322.7z"/>
		<path class="st4" d="M77.9,324c-0.8,0-1.4-0.2-1.7-0.6c-0.4-0.4-0.6-1-0.6-1.6v-3.6c0-0.7,0.2-1.3,0.6-1.7c0.4-0.4,1-0.6,1.7-0.6
			c0.8,0,1.3,0.2,1.7,0.6c0.4,0.4,0.6,1,0.6,1.7v3.6c0,0.7-0.2,1.3-0.6,1.7C79.2,323.8,78.7,324,77.9,324z M77.9,322.7
			c0.4,0,0.6-0.1,0.8-0.3c0.2-0.2,0.2-0.5,0.2-0.9v-3.2c0-0.4-0.1-0.7-0.2-0.9c-0.2-0.2-0.4-0.3-0.8-0.3c-0.4,0-0.6,0.1-0.8,0.3
			c-0.2,0.2-0.2,0.5-0.2,0.9v3.2c0,0.4,0.1,0.7,0.2,0.9C77.3,322.6,77.5,322.7,77.9,322.7z"/>
		<path class="st4" d="M88.7,315l-3.6,10.4h-1.2l3.6-10.4H88.7z"/>
	</g>
	<g>
		<path class="st4" d="M93.7,324.7l1.9-3.9l0.1,0.2c-0.1,0.2-0.2,0.3-0.4,0.4c-0.2,0.1-0.4,0.1-0.6,0.1c-0.6,0-1.1-0.2-1.4-0.6
			c-0.4-0.4-0.5-1-0.5-1.7v0c0-0.8,0.2-1.4,0.6-1.8c0.4-0.4,1-0.6,1.7-0.6s1.3,0.2,1.7,0.6c0.4,0.4,0.6,1,0.6,1.8v0
			c0,0.3-0.1,0.7-0.2,1c-0.1,0.4-0.2,0.7-0.4,1.1l-1.6,3.4H93.7z M94.9,320.3c0.3,0,0.5-0.1,0.7-0.3s0.3-0.5,0.3-0.9v0
			c0-0.4-0.1-0.6-0.3-0.8c-0.2-0.2-0.4-0.3-0.7-0.3c-0.3,0-0.5,0.1-0.7,0.3c-0.2,0.2-0.3,0.5-0.3,0.8v0c0,0.4,0.1,0.7,0.3,0.9
			C94.4,320.2,94.6,320.3,94.9,320.3z"/>
		<path class="st4" d="M100.8,324.8c-0.6,0-1.1-0.2-1.5-0.6c-0.4-0.4-0.7-0.9-0.7-1.6v0h1.3v0c0,0.3,0.1,0.5,0.3,0.7
			c0.2,0.2,0.4,0.2,0.7,0.2c0.3,0,0.5-0.1,0.7-0.3s0.3-0.5,0.3-0.9v-0.7c0-0.4-0.1-0.7-0.2-0.9s-0.4-0.3-0.7-0.3
			c-0.2,0-0.4,0.1-0.6,0.2c-0.2,0.1-0.3,0.3-0.4,0.5h-1.2v-4.4h4.2v1.3H100v1.6c0.1-0.1,0.3-0.2,0.5-0.3c0.2-0.1,0.4-0.1,0.6-0.1
			c0.7,0,1.2,0.2,1.5,0.6c0.4,0.4,0.5,1,0.5,1.8v0.7c0,0.8-0.2,1.4-0.6,1.8C102.1,324.6,101.5,324.8,100.8,324.8z"/>
		<path class="st4" d="M106.7,316.8v7.9h-1.3v-6.5l-1,0.5v-1.4l1.2-0.6H106.7z"/>
		<path class="st4" d="M111.2,324.7v-1.2l2.7-3.6c0.1-0.2,0.3-0.4,0.3-0.6c0.1-0.2,0.1-0.4,0.1-0.6v0c0-0.3-0.1-0.5-0.2-0.6
			c-0.2-0.1-0.4-0.2-0.7-0.2c-0.3,0-0.5,0.1-0.7,0.3c-0.2,0.2-0.3,0.4-0.3,0.8v0h-1.3v0c0.1-0.7,0.3-1.3,0.7-1.7
			c0.4-0.4,1-0.6,1.6-0.6c0.7,0,1.3,0.2,1.7,0.5c0.4,0.4,0.6,0.9,0.6,1.5v0c0,0.3-0.1,0.6-0.2,1c-0.1,0.3-0.3,0.6-0.5,0.9l-2.1,2.8
			h2.9v1.3H111.2z"/>
		<path class="st4" d="M116.7,323.5v-1.2l2.6-5.6h1.4l-2.5,5.5h3.7v1.2H116.7z M120,324.8v-4.7h1.3v4.7H120z"/>
		<path class="st4" d="M125.5,324.8c-0.8,0-1.4-0.2-1.7-0.6c-0.4-0.4-0.6-1-0.6-1.6V319c0-0.7,0.2-1.3,0.6-1.7
			c0.4-0.4,1-0.6,1.7-0.6c0.8,0,1.3,0.2,1.7,0.6c0.4,0.4,0.6,1,0.6,1.7v3.6c0,0.7-0.2,1.3-0.6,1.7
			C126.9,324.6,126.3,324.8,125.5,324.8z M125.5,323.6c0.4,0,0.6-0.1,0.8-0.3c0.2-0.2,0.2-0.5,0.2-0.9v-3.2c0-0.4-0.1-0.7-0.2-0.9
			c-0.2-0.2-0.4-0.3-0.8-0.3c-0.4,0-0.6,0.1-0.8,0.3c-0.2,0.2-0.2,0.5-0.2,0.9v3.2c0,0.4,0.1,0.7,0.2,0.9
			C124.9,323.5,125.2,323.6,125.5,323.6z"/>
		<path class="st4" d="M134.7,324.8c-0.8,0-1.4-0.2-1.7-0.6c-0.4-0.4-0.6-1-0.6-1.6V319c0-0.7,0.2-1.3,0.6-1.7
			c0.4-0.4,1-0.6,1.7-0.6c0.8,0,1.3,0.2,1.7,0.6c0.4,0.4,0.6,1,0.6,1.7v3.6c0,0.7-0.2,1.3-0.6,1.7
			C136,324.6,135.5,324.8,134.7,324.8z M134.7,323.6c0.4,0,0.6-0.1,0.8-0.3c0.2-0.2,0.2-0.5,0.2-0.9v-3.2c0-0.4-0.1-0.7-0.2-0.9
			c-0.2-0.2-0.4-0.3-0.8-0.3c-0.4,0-0.6,0.1-0.8,0.3c-0.2,0.2-0.2,0.5-0.2,0.9v3.2c0,0.4,0.1,0.7,0.2,0.9
			C134.1,323.5,134.3,323.6,134.7,323.6z"/>
		<path class="st4" d="M140.7,324.8c-0.7,0-1.3-0.2-1.7-0.6c-0.4-0.4-0.6-1-0.6-1.8v0c0-0.3,0-0.7,0.1-1.1c0.1-0.4,0.2-0.8,0.4-1.1
			l1.7-3.4h1.4l-2,4l-0.2-0.2c0.2-0.4,0.5-0.5,1-0.5c0.6,0,1.1,0.2,1.5,0.6c0.4,0.4,0.5,1,0.5,1.8v0c0,0.8-0.2,1.4-0.6,1.8
			C141.9,324.6,141.4,324.8,140.7,324.8z M140.7,323.6c0.3,0,0.6-0.1,0.7-0.3c0.2-0.2,0.2-0.5,0.2-0.8v0c0-0.4-0.1-0.7-0.3-0.9
			c-0.2-0.2-0.4-0.3-0.7-0.3c-0.3,0-0.5,0.1-0.7,0.3c-0.2,0.2-0.2,0.5-0.2,0.9v0c0,0.3,0.1,0.6,0.3,0.8
			C140.1,323.5,140.4,323.6,140.7,323.6z"/>
		<path class="st4" d="M146.4,324.8c-0.7,0-1.3-0.2-1.7-0.6c-0.4-0.4-0.6-1-0.6-1.8v0c0-0.3,0-0.7,0.1-1.1c0.1-0.4,0.2-0.8,0.4-1.1
			l1.7-3.4h1.4l-2,4l-0.2-0.2c0.2-0.4,0.5-0.5,1-0.5c0.6,0,1.1,0.2,1.5,0.6c0.4,0.4,0.5,1,0.5,1.8v0c0,0.8-0.2,1.4-0.6,1.8
			C147.7,324.6,147.1,324.8,146.4,324.8z M146.4,323.6c0.3,0,0.6-0.1,0.7-0.3c0.2-0.2,0.2-0.5,0.2-0.8v0c0-0.4-0.1-0.7-0.3-0.9
			c-0.2-0.2-0.4-0.3-0.7-0.3c-0.3,0-0.5,0.1-0.7,0.3c-0.2,0.2-0.2,0.5-0.2,0.9v0c0,0.3,0.1,0.6,0.3,0.8
			C145.9,323.5,146.1,323.6,146.4,323.6z"/>
		<path class="st4" d="M154.3,316.8v1l-1.9,7h-1.4l1.9-6.7h-1.7v1.2h-1.3v-2.4H154.3z"/>
	</g>
</g>
<g>
	<g>
		<path class="st1" d="M6.1,317.6c0-0.1,0-0.1,0-0.2c0-0.2,0.1-0.3,0.2-0.4c0.3-0.3,0.5-0.5,0.8-0.8c0.3-0.2,0.6-0.2,0.9,0
			c0.4,0.4,0.8,0.8,1.2,1.2c0,0,0,0.1,0.1,0.1c0.1,0.2,0.1,0.5-0.1,0.7c-0.2,0.2-0.4,0.4-0.6,0.7c-0.1,0.1-0.1,0.1-0.1,0.3
			c0.2,0.5,0.6,0.9,0.9,1.3c0.4,0.4,0.8,0.7,1.2,1c0.2,0.1,0.3,0.2,0.5,0.3c0.1,0,0.1,0,0.2,0c0.2-0.2,0.4-0.4,0.6-0.6
			c0.1-0.1,0.2-0.2,0.4-0.2c0.2,0,0.4,0,0.5,0.1c0,0,0.1,0.1,0.1,0.1c0.3,0.3,0.7,0.7,1,1c0.1,0.1,0.1,0.2,0.2,0.3
			c0.1,0.2,0.1,0.4-0.1,0.6c-0.3,0.3-0.5,0.6-0.8,0.8c-0.2,0.1-0.3,0.2-0.6,0.3c0,0,0,0,0,0c-0.1,0-0.3,0-0.4,0c0,0,0,0,0,0
			c-0.2-0.1-0.5-0.1-0.7-0.2c-0.7-0.2-1.4-0.6-2-1c-1.1-0.8-2-1.8-2.7-2.9c-0.2-0.4-0.5-0.9-0.6-1.4c0-0.2-0.1-0.4-0.1-0.5
			C6.1,317.8,6.1,317.7,6.1,317.6z"/>
		<path class="st1" d="M14.9,319.3c-0.2,0-0.4,0.1-0.7,0.1c-0.2-0.9-0.6-1.7-1.3-2.4c-0.7-0.7-1.5-1.1-2.4-1.2
			c0-0.2,0.1-0.5,0.1-0.7C12.9,315.4,14.6,317.3,14.9,319.3z"/>
		<path class="st1" d="M10.4,317.6c0-0.2,0.1-0.5,0.1-0.7c1.3,0.1,2.4,1.3,2.6,2.5c-0.2,0-0.4,0.1-0.7,0.1
			C12.2,318.5,11.5,317.8,10.4,317.6z"/>
	</g>
</g>
<g>
	<path class="st4" d="M22.2,338.2c-0.6,0-1-0.2-1.3-0.6c-0.3-0.4-0.5-0.9-0.5-1.7v-1c0-0.7,0.2-1.3,0.5-1.7c0.3-0.4,0.8-0.6,1.3-0.6
		c0.3,0,0.6,0.1,0.8,0.3c0.2,0.2,0.5,0.4,0.6,0.7l-0.1,1.1c0-0.2,0-0.4-0.1-0.5s-0.2-0.3-0.3-0.3c-0.1-0.1-0.3-0.1-0.5-0.1
		c-0.3,0-0.5,0.1-0.7,0.3c-0.2,0.2-0.3,0.5-0.3,0.8v1c0,0.4,0.1,0.6,0.3,0.8s0.4,0.3,0.7,0.3c0.2,0,0.4,0,0.5-0.1
		c0.1-0.1,0.2-0.2,0.3-0.3s0.1-0.3,0.1-0.5l0.1,1.2c-0.1,0.3-0.3,0.5-0.5,0.7C22.9,338.1,22.6,338.2,22.2,338.2z M22.4,340.2
		c-0.4,0-0.8-0.1-1.1-0.2c-0.3-0.1-0.6-0.4-0.8-0.6l0.8-0.8c0.1,0.2,0.3,0.3,0.5,0.4c0.2,0.1,0.4,0.1,0.6,0.1c0.3,0,0.6-0.1,0.8-0.3
		c0.2-0.2,0.3-0.5,0.3-0.8v-5.3h1.2v5.2c0,0.7-0.2,1.3-0.6,1.7C23.7,340,23.2,340.2,22.4,340.2z"/>
	<path class="st4" d="M27.8,338.2c-0.6,0-1.1-0.1-1.4-0.4c-0.3-0.3-0.5-0.7-0.5-1.2c0-0.5,0.2-0.9,0.5-1.2c0.3-0.3,0.8-0.4,1.4-0.4
		h1.4l0.1,1h-1.5c-0.2,0-0.4,0.1-0.5,0.2c-0.1,0.1-0.2,0.3-0.2,0.5c0,0.2,0.1,0.4,0.2,0.5c0.2,0.1,0.4,0.2,0.7,0.2
		c0.4,0,0.7,0,0.9-0.1c0.2-0.1,0.3-0.2,0.3-0.4l0.1,0.8c-0.1,0.2-0.2,0.3-0.3,0.4s-0.3,0.2-0.5,0.2
		C28.3,338.1,28.1,338.2,27.8,338.2z M29.2,338.1v-3.4c0-0.3-0.1-0.5-0.3-0.7s-0.4-0.2-0.7-0.2c-0.2,0-0.4,0-0.6,0.1
		c-0.2,0.1-0.4,0.2-0.5,0.3l-0.8-0.7c0.2-0.2,0.5-0.4,0.8-0.6c0.3-0.1,0.7-0.2,1.1-0.2c0.7,0,1.2,0.2,1.6,0.5
		c0.4,0.3,0.6,0.8,0.6,1.5v3.4H29.2z"/>
	<path class="st4" d="M33.8,338.2c-0.5,0-0.9-0.1-1.3-0.2c-0.4-0.1-0.8-0.3-1.1-0.6l0.7-0.9c0.3,0.2,0.6,0.3,0.8,0.4
		c0.3,0.1,0.6,0.1,0.8,0.1c0.4,0,0.7-0.1,0.8-0.2s0.3-0.2,0.3-0.4c0-0.2-0.1-0.3-0.2-0.4c-0.1-0.1-0.3-0.1-0.5-0.1
		c-0.2,0-0.4,0-0.7-0.1c-0.2,0-0.4-0.1-0.7-0.1s-0.4-0.1-0.6-0.2c-0.2-0.1-0.3-0.2-0.4-0.4c-0.1-0.2-0.2-0.4-0.2-0.8
		c0-0.6,0.2-1,0.5-1.3c0.4-0.3,0.9-0.4,1.6-0.4c0.4,0,0.8,0.1,1.2,0.2c0.4,0.1,0.7,0.3,1,0.5l-0.7,0.9c-0.2-0.2-0.5-0.3-0.8-0.3
		s-0.5-0.1-0.7-0.1c-0.3,0-0.6,0-0.7,0.1c-0.2,0.1-0.3,0.2-0.3,0.4c0,0.1,0.1,0.2,0.2,0.3c0.1,0.1,0.3,0.1,0.5,0.1
		c0.2,0,0.4,0,0.6,0.1c0.2,0,0.5,0,0.7,0.1c0.2,0,0.4,0.1,0.6,0.2s0.4,0.3,0.5,0.5s0.2,0.5,0.2,0.8c0,0.6-0.2,1-0.6,1.3
		C35.1,338,34.5,338.2,33.8,338.2z"/>
	<path class="st4" d="M39.5,338.2c-0.8,0-1.3-0.2-1.8-0.6s-0.6-1-0.6-1.8v-0.6c0-0.8,0.2-1.4,0.6-1.8s1-0.7,1.7-0.7
		c0.7,0,1.2,0.3,1.6,0.8c0.4,0.5,0.6,1.2,0.6,2.1v0.3H38V335h2.5l0-0.1c0-0.4-0.1-0.7-0.3-0.9c-0.2-0.2-0.4-0.3-0.7-0.3
		c-0.4,0-0.7,0.1-0.9,0.3c-0.2,0.2-0.3,0.6-0.3,1v0.7c0,0.4,0.1,0.7,0.3,0.9c0.2,0.2,0.5,0.3,0.9,0.3c0.2,0,0.4,0,0.6-0.1
		s0.4-0.2,0.5-0.3l0.8,0.7c-0.3,0.3-0.6,0.4-0.9,0.6C40.2,338.1,39.9,338.2,39.5,338.2z"/>
	<path class="st4" d="M44.9,338.2c-0.5,0-0.9-0.1-1.3-0.2c-0.4-0.1-0.8-0.3-1.1-0.6l0.7-0.9c0.3,0.2,0.6,0.3,0.8,0.4
		c0.3,0.1,0.6,0.1,0.8,0.1c0.4,0,0.7-0.1,0.8-0.2s0.3-0.2,0.3-0.4c0-0.2-0.1-0.3-0.2-0.4c-0.1-0.1-0.3-0.1-0.5-0.1
		c-0.2,0-0.4,0-0.7-0.1c-0.2,0-0.4-0.1-0.7-0.1s-0.4-0.1-0.6-0.2c-0.2-0.1-0.3-0.2-0.4-0.4c-0.1-0.2-0.2-0.4-0.2-0.8
		c0-0.6,0.2-1,0.5-1.3c0.4-0.3,0.9-0.4,1.6-0.4c0.4,0,0.8,0.1,1.2,0.2c0.4,0.1,0.7,0.3,1,0.5l-0.7,0.9c-0.2-0.2-0.5-0.3-0.8-0.3
		s-0.5-0.1-0.7-0.1c-0.3,0-0.6,0-0.7,0.1c-0.2,0.1-0.3,0.2-0.3,0.4c0,0.1,0.1,0.2,0.2,0.3c0.1,0.1,0.3,0.1,0.5,0.1
		c0.2,0,0.4,0,0.6,0.1c0.2,0,0.5,0,0.7,0.1c0.2,0,0.4,0.1,0.6,0.2s0.4,0.3,0.5,0.5s0.2,0.5,0.2,0.8c0,0.6-0.2,1-0.6,1.3
		C46.2,338,45.6,338.2,44.9,338.2z"/>
	<path class="st4" d="M48.2,338.1v-1.3h1.3v1.3H48.2z"/>
	<path class="st4" d="M52.6,338.2c-0.7,0-1.3-0.2-1.7-0.6c-0.4-0.4-0.6-1-0.6-1.7V335c0-0.7,0.2-1.3,0.6-1.7
		c0.4-0.4,0.9-0.6,1.7-0.6s1.3,0.2,1.7,0.6c0.4,0.4,0.6,1,0.6,1.7v0.9c0,0.7-0.2,1.3-0.6,1.7C53.9,338,53.4,338.2,52.6,338.2z
		 M52.6,337c0.3,0,0.6-0.1,0.8-0.3c0.2-0.2,0.3-0.5,0.3-0.8V335c0-0.4-0.1-0.6-0.3-0.8c-0.2-0.2-0.4-0.3-0.8-0.3
		c-0.3,0-0.6,0.1-0.8,0.3c-0.2,0.2-0.3,0.5-0.3,0.8v0.9c0,0.4,0.1,0.6,0.3,0.8C52.1,336.9,52.3,337,52.6,337z"/>
	<path class="st4" d="M55.6,338.1l2-2.9l0.7,1l-1.3,2H55.6z M59.2,338.1l-1.5-2.3l-2-3h1.4l1.4,2.3l2.1,3.1H59.2z M58.6,335.6
		l-0.6-1l1.1-1.9h1.4L58.6,335.6z"/>
	<path class="st4" d="M61.5,331.8v-1.2h1.2v1.2H61.5z M61.5,338.1v-5.3h1.2v5.3H61.5z"/>
	<path class="st4" d="M65.9,338.2c-0.6,0-1-0.2-1.3-0.6c-0.3-0.4-0.5-0.9-0.5-1.7v-1c0-0.7,0.2-1.3,0.5-1.7c0.3-0.4,0.8-0.6,1.3-0.6
		c0.3,0,0.6,0.1,0.8,0.3c0.2,0.2,0.5,0.4,0.6,0.7l-0.1,1.1c0-0.2,0-0.4-0.1-0.5s-0.2-0.3-0.3-0.3c-0.1-0.1-0.3-0.1-0.5-0.1
		c-0.3,0-0.5,0.1-0.7,0.3c-0.2,0.2-0.3,0.5-0.3,0.8v1c0,0.4,0.1,0.6,0.3,0.8s0.4,0.3,0.7,0.3c0.2,0,0.4,0,0.5-0.1
		c0.1-0.1,0.2-0.2,0.3-0.3s0.1-0.3,0.1-0.5l0.1,1.2c-0.1,0.3-0.3,0.5-0.5,0.7C66.5,338.1,66.2,338.2,65.9,338.2z M66,340.2
		c-0.4,0-0.8-0.1-1.1-0.2c-0.3-0.1-0.6-0.4-0.8-0.6l0.8-0.8c0.1,0.2,0.3,0.3,0.5,0.4c0.2,0.1,0.4,0.1,0.6,0.1c0.3,0,0.6-0.1,0.8-0.3
		c0.2-0.2,0.3-0.5,0.3-0.8v-5.3h1.2v5.2c0,0.7-0.2,1.3-0.6,1.7C67.4,340,66.8,340.2,66,340.2z"/>
	<path class="st4" d="M71.4,338.2c-0.6,0-1.1-0.1-1.4-0.4c-0.3-0.3-0.5-0.7-0.5-1.2c0-0.5,0.2-0.9,0.5-1.2c0.3-0.3,0.8-0.4,1.4-0.4
		h1.4l0.1,1h-1.5c-0.2,0-0.4,0.1-0.5,0.2c-0.1,0.1-0.2,0.3-0.2,0.5c0,0.2,0.1,0.4,0.2,0.5c0.2,0.1,0.4,0.2,0.7,0.2
		c0.4,0,0.7,0,0.9-0.1c0.2-0.1,0.3-0.2,0.3-0.4l0.1,0.8c-0.1,0.2-0.2,0.3-0.3,0.4s-0.3,0.2-0.5,0.2
		C71.9,338.1,71.7,338.2,71.4,338.2z M72.8,338.1v-3.4c0-0.3-0.1-0.5-0.3-0.7s-0.4-0.2-0.7-0.2c-0.2,0-0.4,0-0.6,0.1
		c-0.2,0.1-0.4,0.2-0.5,0.3l-0.8-0.7c0.2-0.2,0.5-0.4,0.8-0.6c0.3-0.1,0.7-0.2,1.1-0.2c0.7,0,1.2,0.2,1.6,0.5
		c0.4,0.3,0.6,0.8,0.6,1.5v3.4H72.8z"/>
	<path class="st4" d="M75.5,338.1v-5.3h1.2v5.3H75.5z M78.6,338.1v-3.2c0-0.3-0.1-0.6-0.3-0.8s-0.4-0.3-0.7-0.3
		c-0.3,0-0.5,0.1-0.7,0.2s-0.2,0.4-0.2,0.7l-0.1-1.1c0.2-0.3,0.4-0.6,0.6-0.7c0.2-0.2,0.5-0.3,0.9-0.3c0.6,0,1,0.2,1.3,0.6
		c0.3,0.4,0.5,0.9,0.5,1.7v3.2H78.6z M81.8,338.1v-3.2c0-0.3-0.1-0.6-0.3-0.8c-0.2-0.2-0.4-0.3-0.7-0.3c-0.3,0-0.5,0.1-0.7,0.3
		c-0.2,0.2-0.2,0.4-0.2,0.8l-0.2-1.1c0.2-0.3,0.4-0.6,0.7-0.8s0.6-0.3,0.9-0.3c0.6,0,1,0.2,1.3,0.6c0.3,0.4,0.5,0.9,0.5,1.7v3.2
		H81.8z"/>
	<path class="st4" d="M86.7,338.2c-0.8,0-1.3-0.2-1.8-0.6s-0.6-1-0.6-1.8v-0.6c0-0.8,0.2-1.4,0.6-1.8s1-0.7,1.7-0.7
		c0.7,0,1.2,0.3,1.6,0.8c0.4,0.5,0.6,1.2,0.6,2.1v0.3h-3.6V335h2.5l0-0.1c0-0.4-0.1-0.7-0.3-0.9c-0.2-0.2-0.4-0.3-0.7-0.3
		c-0.4,0-0.7,0.1-0.9,0.3c-0.2,0.2-0.3,0.6-0.3,1v0.7c0,0.4,0.1,0.7,0.3,0.9c0.2,0.2,0.5,0.3,0.9,0.3c0.2,0,0.4,0,0.6-0.1
		s0.4-0.2,0.5-0.3l0.8,0.7c-0.3,0.3-0.6,0.4-0.9,0.6C87.4,338.1,87,338.2,86.7,338.2z"/>
	<path class="st4" d="M89.4,338.1l2-2.9l0.7,1l-1.3,2H89.4z M93,338.1l-1.5-2.3l-2-3h1.4l1.4,2.3l2.1,3.1H93z M92.4,335.6l-0.6-1
		l1.1-1.9h1.4L92.4,335.6z"/>
	<path class="st4" d="M99.3,340c-1.3,0-2.3-0.3-3-1c-0.7-0.6-1-1.6-1-2.9c0-0.2,0-0.5,0-0.7s0-0.5,0-0.7c0-1.4,0.3-2.4,1-3.1
		s1.6-1,3-1c1.3,0,2.3,0.3,2.9,1s1,1.7,1,3.1c0,0.3,0,0.5,0,0.8s0,0.5,0,0.8c0,0.6-0.1,1-0.4,1.3s-0.6,0.4-1.1,0.4
		c-0.5,0-0.9-0.1-1.2-0.4s-0.4-0.7-0.4-1.2l1.1,0c0,0.2,0,0.4,0.1,0.5c0.1,0.1,0.2,0.2,0.3,0.2c0.1,0,0.3,0,0.3-0.1
		c0.1-0.1,0.1-0.3,0.1-0.5c0-0.3,0-0.6,0-0.8s0-0.6,0-0.9c0-1-0.2-1.8-0.7-2.3c-0.5-0.5-1.2-0.8-2.1-0.8c-1,0-1.7,0.3-2.1,0.8
		c-0.5,0.5-0.7,1.3-0.7,2.3c0,0.2,0,0.5,0,0.7s0,0.5,0,0.7c0,0.9,0.2,1.6,0.7,2.1s1.2,0.7,2.2,0.7h1.5v1H99.3z M99,338.2
		c-1.2,0-1.8-0.8-1.8-2.3V335c0-1.5,0.7-2.3,2-2.3c1.3,0,2,0.8,2,2.3v1.7l-0.7,0.3c-0.1,0.4-0.2,0.7-0.5,0.9
		C99.8,338.1,99.5,338.2,99,338.2z M99.3,337c0.5,0,0.8-0.4,0.8-1.1v-1c0-0.7-0.3-1.1-0.8-1.1c-0.5,0-0.8,0.4-0.8,1.1v1
		C98.5,336.7,98.7,337,99.3,337z"/>
	<path class="st4" d="M106.4,338.2c-0.6,0-1-0.2-1.3-0.6c-0.3-0.4-0.5-0.9-0.5-1.7v-1c0-0.7,0.2-1.3,0.5-1.7
		c0.3-0.4,0.8-0.6,1.3-0.6c0.3,0,0.6,0.1,0.8,0.3c0.2,0.2,0.5,0.4,0.6,0.7l-0.1,1.1c0-0.2,0-0.4-0.1-0.5s-0.2-0.3-0.3-0.3
		c-0.1-0.1-0.3-0.1-0.5-0.1c-0.3,0-0.5,0.1-0.7,0.3c-0.2,0.2-0.3,0.5-0.3,0.8v1c0,0.4,0.1,0.6,0.3,0.8s0.4,0.3,0.7,0.3
		c0.2,0,0.4,0,0.5-0.1c0.1-0.1,0.2-0.2,0.3-0.3s0.1-0.3,0.1-0.5l0.1,1.2c-0.1,0.3-0.3,0.5-0.5,0.7
		C107,338.1,106.8,338.2,106.4,338.2z M106.6,340.2c-0.4,0-0.8-0.1-1.1-0.2c-0.3-0.1-0.6-0.4-0.8-0.6l0.8-0.8
		c0.1,0.2,0.3,0.3,0.5,0.4c0.2,0.1,0.4,0.1,0.6,0.1c0.3,0,0.6-0.1,0.8-0.3c0.2-0.2,0.3-0.5,0.3-0.8v-5.3h1.2v5.2
		c0,0.7-0.2,1.3-0.6,1.7C107.9,340,107.3,340.2,106.6,340.2z"/>
	<path class="st4" d="M110.4,338.1v-5.3h1.2v5.3H110.4z M113.6,338.1v-3.2c0-0.3-0.1-0.6-0.3-0.8s-0.4-0.3-0.7-0.3
		c-0.3,0-0.5,0.1-0.7,0.2s-0.2,0.4-0.2,0.7l-0.1-1.1c0.2-0.3,0.4-0.6,0.6-0.7c0.2-0.2,0.5-0.3,0.9-0.3c0.6,0,1,0.2,1.3,0.6
		c0.3,0.4,0.5,0.9,0.5,1.7v3.2H113.6z M116.7,338.1v-3.2c0-0.3-0.1-0.6-0.3-0.8c-0.2-0.2-0.4-0.3-0.7-0.3c-0.3,0-0.5,0.1-0.7,0.3
		c-0.2,0.2-0.2,0.4-0.2,0.8l-0.2-1.1c0.2-0.3,0.4-0.6,0.7-0.8s0.6-0.3,0.9-0.3c0.6,0,1,0.2,1.3,0.6c0.3,0.4,0.5,0.9,0.5,1.7v3.2
		H116.7z"/>
	<path class="st4" d="M121,338.2c-0.6,0-1.1-0.1-1.4-0.4c-0.3-0.3-0.5-0.7-0.5-1.2c0-0.5,0.2-0.9,0.5-1.2c0.3-0.3,0.8-0.4,1.4-0.4
		h1.4l0.1,1H121c-0.2,0-0.4,0.1-0.5,0.2c-0.1,0.1-0.2,0.3-0.2,0.5c0,0.2,0.1,0.4,0.2,0.5c0.2,0.1,0.4,0.2,0.7,0.2
		c0.4,0,0.7,0,0.9-0.1c0.2-0.1,0.3-0.2,0.3-0.4l0.1,0.8c-0.1,0.2-0.2,0.3-0.3,0.4s-0.3,0.2-0.5,0.2
		C121.4,338.1,121.2,338.2,121,338.2z M122.4,338.1v-3.4c0-0.3-0.1-0.5-0.3-0.7s-0.4-0.2-0.7-0.2c-0.2,0-0.4,0-0.6,0.1
		c-0.2,0.1-0.4,0.2-0.5,0.3l-0.8-0.7c0.2-0.2,0.5-0.4,0.8-0.6c0.3-0.1,0.7-0.2,1.1-0.2c0.7,0,1.2,0.2,1.6,0.5
		c0.4,0.3,0.6,0.8,0.6,1.5v3.4H122.4z"/>
	<path class="st4" d="M125,331.8v-1.2h1.2v1.2H125z M125,338.1v-5.3h1.2v5.3H125z"/>
	<path class="st4" d="M128.9,330.6v5.9c0,0.1,0,0.2,0.1,0.3c0.1,0.1,0.2,0.1,0.3,0.1h0.4v1.2h-0.7c-0.4,0-0.7-0.1-1-0.4
		c-0.2-0.2-0.3-0.6-0.3-1v-6.1H128.9z"/>
	<path class="st4" d="M130.5,338.1v-1.3h1.3v1.3H130.5z"/>
	<path class="st4" d="M135.1,338.2c-0.7,0-1.3-0.2-1.7-0.6c-0.4-0.4-0.6-1-0.6-1.8V335c0-0.8,0.2-1.3,0.6-1.7c0.4-0.4,1-0.6,1.7-0.6
		c0.4,0,0.8,0.1,1.2,0.2c0.3,0.1,0.6,0.4,0.8,0.6l-0.8,0.8c-0.1-0.1-0.3-0.3-0.5-0.3c-0.2-0.1-0.4-0.1-0.6-0.1
		c-0.4,0-0.7,0.1-0.9,0.3c-0.2,0.2-0.3,0.5-0.3,0.9v0.7c0,0.4,0.1,0.7,0.3,0.9c0.2,0.2,0.5,0.3,0.9,0.3c0.2,0,0.4,0,0.6-0.1
		c0.2-0.1,0.4-0.2,0.5-0.4l0.8,0.8c-0.2,0.3-0.5,0.5-0.8,0.6C135.9,338.1,135.5,338.2,135.1,338.2z"/>
	<path class="st4" d="M140.2,338.2c-0.7,0-1.3-0.2-1.7-0.6c-0.4-0.4-0.6-1-0.6-1.7V335c0-0.7,0.2-1.3,0.6-1.7
		c0.4-0.4,0.9-0.6,1.7-0.6s1.3,0.2,1.7,0.6c0.4,0.4,0.6,1,0.6,1.7v0.9c0,0.7-0.2,1.3-0.6,1.7C141.5,338,140.9,338.2,140.2,338.2z
		 M140.2,337c0.3,0,0.6-0.1,0.8-0.3c0.2-0.2,0.3-0.5,0.3-0.8V335c0-0.4-0.1-0.6-0.3-0.8c-0.2-0.2-0.4-0.3-0.8-0.3
		c-0.3,0-0.6,0.1-0.8,0.3c-0.2,0.2-0.3,0.5-0.3,0.8v0.9c0,0.4,0.1,0.6,0.3,0.8C139.6,336.9,139.9,337,140.2,337z"/>
	<path class="st4" d="M143.8,338.1v-5.3h1.2v5.3H143.8z M147,338.1v-3.2c0-0.3-0.1-0.6-0.3-0.8s-0.4-0.3-0.7-0.3
		c-0.3,0-0.5,0.1-0.7,0.2s-0.2,0.4-0.2,0.7l-0.1-1.1c0.2-0.3,0.4-0.6,0.6-0.7c0.2-0.2,0.5-0.3,0.9-0.3c0.6,0,1,0.2,1.3,0.6
		c0.3,0.4,0.5,0.9,0.5,1.7v3.2H147z M150.1,338.1v-3.2c0-0.3-0.1-0.6-0.3-0.8c-0.2-0.2-0.4-0.3-0.7-0.3c-0.3,0-0.5,0.1-0.7,0.3
		c-0.2,0.2-0.2,0.4-0.2,0.8l-0.2-1.1c0.2-0.3,0.4-0.6,0.7-0.8s0.6-0.3,0.9-0.3c0.6,0,1,0.2,1.3,0.6c0.3,0.4,0.5,0.9,0.5,1.7v3.2
		H150.1z"/>
</g>
<g>
	<path class="st1" d="M15.4,332.6c0,1.7,0,3.4,0,5.1c0,0,0,0,0,0.1c-0.1,0.5-0.6,0.9-1.1,0.9c-2.4,0-4.9,0-7.3,0
		c-0.6,0-1.1-0.5-1.1-1.1c0-1.6,0-3.2,0-4.8c0-0.6,0.5-1.1,1.1-1.1c2.4,0,4.9,0,7.3,0c0.4,0,0.7,0.2,0.9,0.5
		C15.3,332.3,15.4,332.5,15.4,332.6z M6.6,333c0,0,0,0.1,0,0.1c0,1.5,0,2.9,0,4.4c0,0.3,0.1,0.4,0.4,0.4c2.4,0,4.8,0,7.1,0
		c0.3,0,0.4-0.1,0.4-0.5c0-1.4,0-2.9,0-4.3c0,0,0-0.1,0-0.1c-1.3,1-2.7,2-4,3C9.3,335,8,334,6.6,333z M14.2,332.4
		c-2.4,0-4.7,0-7.1,0c0,0,0,0,0.1,0.1c1.1,0.8,2.3,1.7,3.4,2.5c0.1,0,0.1,0,0.1,0c0.9-0.7,1.8-1.3,2.7-2
		C13.7,332.8,13.9,332.6,14.2,332.4z"/>
</g>
<g>
	<path class="st4" d="M21.3,346.9v5.8h-0.8v-5.8H21.3z"/>
	<path class="st4" d="M24,352.8c-0.5,0-0.8-0.1-1.1-0.4c-0.2-0.3-0.4-0.7-0.4-1.2v-0.9c0-0.5,0.1-1,0.4-1.2s0.6-0.4,1-0.4
		c0.2,0,0.5,0.1,0.7,0.2s0.4,0.3,0.5,0.5l-0.1,0.8c0-0.2,0-0.3-0.1-0.5s-0.2-0.2-0.3-0.3c-0.1-0.1-0.3-0.1-0.4-0.1
		c-0.3,0-0.5,0.1-0.6,0.3c-0.1,0.2-0.2,0.4-0.2,0.7v0.9c0,0.3,0.1,0.5,0.2,0.7c0.1,0.2,0.4,0.2,0.6,0.2c0.2,0,0.3,0,0.4-0.1
		c0.1-0.1,0.2-0.2,0.3-0.3c0.1-0.1,0.1-0.3,0.1-0.5l0.1,0.9c-0.1,0.2-0.2,0.4-0.4,0.5C24.5,352.7,24.3,352.8,24,352.8z M24.1,354.4
		c-0.3,0-0.6-0.1-0.8-0.2c-0.2-0.1-0.4-0.3-0.6-0.5l0.6-0.5c0.1,0.1,0.2,0.3,0.4,0.3c0.1,0.1,0.3,0.1,0.5,0.1c0.3,0,0.6-0.1,0.7-0.3
		s0.3-0.4,0.3-0.7v-4.1h0.8v4c0,0.6-0.2,1-0.5,1.3S24.6,354.4,24.1,354.4z"/>
	<path class="st4" d="M27.1,352.7v-4.1h0.8v4.1H27.1z M29.6,352.7v-2.5c0-0.3-0.1-0.5-0.2-0.7c-0.2-0.2-0.4-0.2-0.6-0.2
		c-0.3,0-0.5,0.1-0.6,0.2s-0.2,0.3-0.2,0.6l-0.1-0.8c0.1-0.2,0.3-0.4,0.5-0.6c0.2-0.1,0.4-0.2,0.7-0.2c0.4,0,0.8,0.1,1,0.4
		s0.4,0.7,0.4,1.2v2.5H29.6z"/>
	<path class="st4" d="M33,352.8c-0.5,0-0.9-0.1-1.1-0.3c-0.3-0.2-0.4-0.5-0.4-1c0-0.4,0.1-0.7,0.3-0.9c0.2-0.2,0.6-0.3,1-0.3H34
		l0.1,0.7h-1.2c-0.2,0-0.4,0-0.5,0.1c-0.1,0.1-0.2,0.2-0.2,0.4c0,0.2,0.1,0.4,0.2,0.5c0.1,0.1,0.4,0.2,0.6,0.2c0.3,0,0.5,0,0.7-0.1
		c0.2-0.1,0.2-0.2,0.2-0.3l0.1,0.6c-0.1,0.1-0.2,0.2-0.3,0.3c-0.1,0.1-0.2,0.1-0.4,0.2S33.1,352.8,33,352.8z M34,352.7v-2.6
		c0-0.3-0.1-0.5-0.2-0.6s-0.4-0.2-0.6-0.2c-0.2,0-0.3,0-0.5,0.1c-0.2,0-0.3,0.1-0.4,0.2l-0.6-0.4c0.2-0.2,0.4-0.3,0.6-0.4
		c0.3-0.1,0.5-0.2,0.9-0.2c0.5,0,0.9,0.1,1.2,0.4s0.4,0.6,0.4,1.1v2.7H34z"/>
	<path class="st4" d="M37.7,352.8c-0.6,0-1-0.2-1.3-0.5c-0.3-0.3-0.5-0.8-0.5-1.3v-0.7c0-0.6,0.2-1,0.5-1.3c0.3-0.3,0.8-0.5,1.3-0.5
		c0.3,0,0.6,0.1,0.9,0.2s0.5,0.3,0.6,0.5l-0.6,0.5c-0.1-0.1-0.2-0.2-0.4-0.3c-0.2-0.1-0.3-0.1-0.5-0.1c-0.3,0-0.6,0.1-0.7,0.3
		c-0.2,0.2-0.3,0.4-0.3,0.7v0.7c0,0.3,0.1,0.6,0.3,0.8c0.2,0.2,0.4,0.3,0.7,0.3c0.2,0,0.3,0,0.5-0.1c0.2-0.1,0.3-0.2,0.4-0.3
		l0.6,0.6c-0.2,0.2-0.4,0.4-0.6,0.5C38.3,352.7,38,352.8,37.7,352.8z"/>
	<path class="st4" d="M40.1,347.7v-0.8h0.8v0.8H40.1z M40.1,352.7v-4.1h0.8v4.1H40.1z"/>
	<path class="st4" d="M43.7,352.8c-0.5,0-1-0.2-1.3-0.5c-0.3-0.3-0.4-0.8-0.4-1.3v-0.7c0-0.6,0.1-1,0.4-1.3c0.3-0.3,0.7-0.5,1.3-0.5
		s1,0.2,1.3,0.5c0.3,0.3,0.4,0.8,0.4,1.3v0.7c0,0.6-0.1,1-0.4,1.3C44.7,352.6,44.3,352.8,43.7,352.8z M43.7,352
		c0.3,0,0.5-0.1,0.7-0.3c0.2-0.2,0.2-0.4,0.2-0.8v-0.7c0-0.3-0.1-0.6-0.2-0.7c-0.2-0.2-0.4-0.3-0.7-0.3c-0.3,0-0.5,0.1-0.7,0.3
		c-0.2,0.2-0.2,0.4-0.2,0.7v0.7c0,0.3,0.1,0.6,0.2,0.8C43.2,351.9,43.4,352,43.7,352z"/>
	<path class="st4" d="M52.1,346.9v0.7l-2.5,4.3h2.6v0.8h-3.6V352l2.5-4.3h-2.5v-0.8H52.1z"/>
	<path class="st4" d="M54.5,352.8c-0.5,0-0.9-0.1-1.1-0.3c-0.3-0.2-0.4-0.5-0.4-1c0-0.4,0.1-0.7,0.3-0.9c0.2-0.2,0.6-0.3,1-0.3h1.2
		l0.1,0.7h-1.2c-0.2,0-0.4,0-0.5,0.1c-0.1,0.1-0.2,0.2-0.2,0.4c0,0.2,0.1,0.4,0.2,0.5c0.1,0.1,0.4,0.2,0.6,0.2c0.3,0,0.5,0,0.7-0.1
		c0.2-0.1,0.2-0.2,0.2-0.3l0.1,0.6c-0.1,0.1-0.2,0.2-0.3,0.3c-0.1,0.1-0.2,0.1-0.4,0.2S54.7,352.8,54.5,352.8z M55.6,352.7v-2.6
		c0-0.3-0.1-0.5-0.2-0.6s-0.4-0.2-0.6-0.2c-0.2,0-0.3,0-0.5,0.1c-0.2,0-0.3,0.1-0.4,0.2l-0.6-0.4c0.2-0.2,0.4-0.3,0.6-0.4
		c0.3-0.1,0.5-0.2,0.9-0.2c0.5,0,0.9,0.1,1.2,0.4s0.4,0.6,0.4,1.1v2.7H55.6z"/>
	<path class="st4" d="M57.6,352.7v-4.1h0.8v4.1H57.6z M59.9,349.5c-0.1-0.1-0.2-0.2-0.3-0.2c-0.1,0-0.2-0.1-0.4-0.1
		c-0.3,0-0.5,0.1-0.6,0.2c-0.1,0.1-0.2,0.3-0.2,0.6l-0.1-0.8c0.1-0.2,0.3-0.4,0.5-0.6c0.2-0.1,0.4-0.2,0.7-0.2c0.2,0,0.4,0,0.5,0.1
		c0.2,0.1,0.3,0.1,0.4,0.2L59.9,349.5z"/>
	<path class="st4" d="M62.4,352.8c-0.5,0-0.9-0.1-1.1-0.3c-0.3-0.2-0.4-0.5-0.4-1c0-0.4,0.1-0.7,0.3-0.9c0.2-0.2,0.6-0.3,1-0.3h1.2
		l0.1,0.7h-1.2c-0.2,0-0.4,0-0.5,0.1c-0.1,0.1-0.2,0.2-0.2,0.4c0,0.2,0.1,0.4,0.2,0.5c0.1,0.1,0.4,0.2,0.6,0.2c0.3,0,0.5,0,0.7-0.1
		c0.2-0.1,0.2-0.2,0.2-0.3l0.1,0.6c-0.1,0.1-0.2,0.2-0.3,0.3c-0.1,0.1-0.2,0.1-0.4,0.2S62.6,352.8,62.4,352.8z M63.4,352.7v-2.6
		c0-0.3-0.1-0.5-0.2-0.6s-0.4-0.2-0.6-0.2c-0.2,0-0.3,0-0.5,0.1c-0.2,0-0.3,0.1-0.4,0.2l-0.6-0.4c0.2-0.2,0.4-0.3,0.6-0.4
		c0.3-0.1,0.5-0.2,0.9-0.2c0.5,0,0.9,0.1,1.2,0.4s0.4,0.6,0.4,1.1v2.7H63.4z"/>
	<path class="st4" d="M66.7,352.8c-0.5,0-0.8-0.1-1.1-0.4c-0.2-0.3-0.4-0.7-0.4-1.2v-0.9c0-0.5,0.1-1,0.4-1.2s0.6-0.4,1-0.4
		c0.2,0,0.5,0.1,0.7,0.2s0.4,0.3,0.5,0.5l-0.1,0.8c0-0.2,0-0.3-0.1-0.5s-0.2-0.2-0.3-0.3c-0.1-0.1-0.3-0.1-0.4-0.1
		c-0.3,0-0.5,0.1-0.6,0.3c-0.1,0.2-0.2,0.4-0.2,0.7v0.9c0,0.3,0.1,0.5,0.2,0.7c0.1,0.2,0.4,0.2,0.6,0.2c0.2,0,0.3,0,0.4-0.1
		c0.1-0.1,0.2-0.2,0.3-0.3c0.1-0.1,0.1-0.3,0.1-0.5l0.1,0.9c-0.1,0.2-0.2,0.4-0.4,0.5C67.3,352.7,67,352.8,66.7,352.8z M66.8,354.4
		c-0.3,0-0.6-0.1-0.8-0.2c-0.2-0.1-0.4-0.3-0.6-0.5l0.6-0.5c0.1,0.1,0.2,0.3,0.4,0.3c0.1,0.1,0.3,0.1,0.5,0.1c0.3,0,0.6-0.1,0.7-0.3
		s0.3-0.4,0.3-0.7v-4.1h0.8v4c0,0.6-0.2,1-0.5,1.3S67.4,354.4,66.8,354.4z"/>
	<path class="st4" d="M71.4,352.8c-0.5,0-1-0.2-1.3-0.5c-0.3-0.3-0.4-0.8-0.4-1.3v-0.7c0-0.6,0.1-1,0.4-1.3c0.3-0.3,0.7-0.5,1.3-0.5
		s1,0.2,1.3,0.5c0.3,0.3,0.4,0.8,0.4,1.3v0.7c0,0.6-0.1,1-0.4,1.3C72.4,352.6,72,352.8,71.4,352.8z M71.4,352c0.3,0,0.5-0.1,0.7-0.3
		c0.2-0.2,0.2-0.4,0.2-0.8v-0.7c0-0.3-0.1-0.6-0.2-0.7c-0.2-0.2-0.4-0.3-0.7-0.3c-0.3,0-0.5,0.1-0.7,0.3c-0.2,0.2-0.2,0.4-0.2,0.7
		v0.7c0,0.3,0.1,0.6,0.2,0.8C70.9,351.9,71.1,352,71.4,352z"/>
	<path class="st4" d="M77.1,348.6v0.7l-2,2.7h2.1v0.8h-3.1V352l2-2.7h-2v-0.8H77.1z"/>
	<path class="st4" d="M79.6,352.8c-0.5,0-0.9-0.1-1.1-0.3c-0.3-0.2-0.4-0.5-0.4-1c0-0.4,0.1-0.7,0.3-0.9c0.2-0.2,0.6-0.3,1-0.3h1.2
		l0.1,0.7h-1.2c-0.2,0-0.4,0-0.5,0.1c-0.1,0.1-0.2,0.2-0.2,0.4c0,0.2,0.1,0.4,0.2,0.5c0.1,0.1,0.4,0.2,0.6,0.2c0.3,0,0.5,0,0.7-0.1
		c0.2-0.1,0.2-0.2,0.2-0.3l0.1,0.6c-0.1,0.1-0.2,0.2-0.3,0.3c-0.1,0.1-0.2,0.1-0.4,0.2S79.8,352.8,79.6,352.8z M80.7,352.7v-2.6
		c0-0.3-0.1-0.5-0.2-0.6s-0.4-0.2-0.6-0.2c-0.2,0-0.3,0-0.5,0.1c-0.2,0-0.3,0.1-0.4,0.2l-0.6-0.4c0.2-0.2,0.4-0.3,0.6-0.4
		c0.3-0.1,0.5-0.2,0.9-0.2c0.5,0,0.9,0.1,1.2,0.4s0.4,0.6,0.4,1.1v2.7H80.7z"/>
	<path class="st4" d="M84.7,352.7V352l2-2.7c0.1-0.2,0.2-0.3,0.3-0.5s0.1-0.3,0.1-0.5v0c0-0.2-0.1-0.4-0.2-0.5s-0.3-0.2-0.6-0.2
		c-0.2,0-0.4,0.1-0.6,0.2c-0.1,0.1-0.2,0.3-0.3,0.6v0h-0.8v0c0.1-0.5,0.3-0.9,0.5-1.2c0.3-0.3,0.7-0.4,1.1-0.4
		c0.5,0,0.9,0.1,1.2,0.4s0.4,0.6,0.4,1.1v0c0,0.2,0,0.4-0.1,0.6c-0.1,0.2-0.2,0.4-0.4,0.6l-1.7,2.3H88v0.8H84.7z"/>
	<path class="st4" d="M90.5,346.9v5.8h-0.8v-4.9l-0.8,0.5v-0.8l0.8-0.6H90.5z"/>
	<path class="st4" d="M93.3,352.8c-0.3,0-0.6-0.1-0.9-0.2c-0.2-0.1-0.4-0.3-0.6-0.5c-0.1-0.2-0.2-0.5-0.3-0.8h0.8
		c0,0.2,0.1,0.4,0.3,0.5c0.2,0.1,0.4,0.2,0.6,0.2c0.3,0,0.5-0.1,0.6-0.2c0.1-0.1,0.2-0.3,0.2-0.6V351c0-0.3-0.1-0.5-0.2-0.7
		s-0.3-0.2-0.6-0.2h-0.4v-0.8h0.4c0.2,0,0.4-0.1,0.5-0.2c0.1-0.1,0.2-0.3,0.2-0.6v-0.2c0-0.2-0.1-0.4-0.2-0.5
		c-0.1-0.1-0.3-0.2-0.6-0.2c-0.2,0-0.4,0.1-0.5,0.2c-0.1,0.1-0.2,0.3-0.3,0.5h-0.8c0.1-0.5,0.3-0.8,0.6-1.1c0.3-0.3,0.6-0.4,1.1-0.4
		c0.5,0,0.9,0.1,1.2,0.4c0.3,0.3,0.4,0.6,0.4,1.1v0.1c0,0.3-0.1,0.5-0.2,0.8c-0.2,0.2-0.4,0.4-0.7,0.5c0.3,0.1,0.6,0.2,0.7,0.5
		c0.2,0.2,0.3,0.6,0.3,0.9v0.1c0,0.5-0.1,0.9-0.4,1.2S93.8,352.8,93.3,352.8z"/>
	<path class="st4" d="M98.2,351.8v-0.7l1.9-4.2h0.8l-1.9,4.2h2.8v0.8H98.2z M100.7,352.7v-3.4h0.8v3.4H100.7z"/>
	<path class="st4" d="M102.8,354v-2.2h0.9v1.3L102.8,354z"/>
	<path class="st4" d="M108.7,352.8c-0.6,0-1-0.2-1.3-0.5c-0.3-0.3-0.5-0.8-0.5-1.3v-0.7c0-0.6,0.2-1,0.5-1.3
		c0.3-0.3,0.8-0.5,1.3-0.5c0.3,0,0.6,0.1,0.9,0.2s0.5,0.3,0.6,0.5l-0.6,0.5c-0.1-0.1-0.2-0.2-0.4-0.3c-0.2-0.1-0.3-0.1-0.5-0.1
		c-0.3,0-0.6,0.1-0.7,0.3c-0.2,0.2-0.3,0.4-0.3,0.7v0.7c0,0.3,0.1,0.6,0.3,0.8c0.2,0.2,0.4,0.3,0.7,0.3c0.2,0,0.3,0,0.5-0.1
		c0.2-0.1,0.3-0.2,0.4-0.3l0.6,0.6c-0.2,0.2-0.4,0.4-0.6,0.5C109.3,352.7,109,352.8,108.7,352.8z"/>
	<path class="st4" d="M112.7,352.8c-0.5,0-1-0.2-1.3-0.5c-0.3-0.3-0.4-0.8-0.4-1.3v-0.7c0-0.6,0.1-1,0.4-1.3
		c0.3-0.3,0.7-0.5,1.3-0.5s1,0.2,1.3,0.5c0.3,0.3,0.4,0.8,0.4,1.3v0.7c0,0.6-0.1,1-0.4,1.3C113.7,352.6,113.2,352.8,112.7,352.8z
		 M112.7,352c0.3,0,0.5-0.1,0.7-0.3c0.2-0.2,0.2-0.4,0.2-0.8v-0.7c0-0.3-0.1-0.6-0.2-0.7c-0.2-0.2-0.4-0.3-0.7-0.3
		c-0.3,0-0.5,0.1-0.7,0.3c-0.2,0.2-0.2,0.4-0.2,0.7v0.7c0,0.3,0.1,0.6,0.2,0.8C112.2,351.9,112.4,352,112.7,352z"/>
	<path class="st4" d="M116.4,346.9v4.7c0,0.1,0,0.2,0.1,0.2c0,0.1,0.1,0.1,0.2,0.1h0.4v0.8h-0.5c-0.3,0-0.5-0.1-0.7-0.3
		c-0.2-0.2-0.3-0.5-0.3-0.8v-4.7H116.4z"/>
	<path class="st4" d="M117.8,352.7v-0.9h0.9v0.9H117.8z"/>
	<path class="st4" d="M122.1,352.7v-5.8h0.8v5.8H122.1z M122.5,347.7v-0.8h3.3v0.8H122.5z M122.5,350.3v-0.8h2.8v0.8H122.5z"/>
	<path class="st4" d="M128.2,352.8c-0.6,0-1-0.2-1.3-0.5c-0.3-0.3-0.5-0.8-0.5-1.4v-0.5c0-0.6,0.2-1.1,0.5-1.4
		c0.3-0.3,0.7-0.5,1.3-0.5c0.5,0,0.9,0.2,1.2,0.6c0.3,0.4,0.4,0.9,0.4,1.6v0.3H127v-0.7h2c0-0.3-0.1-0.6-0.3-0.8
		c-0.2-0.2-0.4-0.3-0.6-0.3c-0.3,0-0.5,0.1-0.7,0.3c-0.2,0.2-0.3,0.5-0.3,0.9v0.5c0,0.3,0.1,0.6,0.3,0.8c0.2,0.2,0.4,0.3,0.8,0.3
		c0.2,0,0.3,0,0.5-0.1c0.2-0.1,0.3-0.2,0.4-0.3l0.5,0.5c-0.2,0.2-0.4,0.3-0.7,0.5C128.8,352.7,128.5,352.8,128.2,352.8z"/>
	<path class="st4" d="M130.9,352.7v-4.1h0.8v4.1H130.9z M133.2,349.5c-0.1-0.1-0.2-0.2-0.3-0.2c-0.1,0-0.2-0.1-0.4-0.1
		c-0.3,0-0.5,0.1-0.6,0.2c-0.1,0.1-0.2,0.3-0.2,0.6l-0.1-0.8c0.1-0.2,0.3-0.4,0.5-0.6c0.2-0.1,0.4-0.2,0.7-0.2c0.2,0,0.4,0,0.5,0.1
		c0.2,0.1,0.3,0.1,0.4,0.2L133.2,349.5z"/>
	<path class="st4" d="M134.4,352.7v-4.1h0.8v4.1H134.4z M136.9,352.7v-2.5c0-0.3-0.1-0.5-0.2-0.7c-0.2-0.2-0.4-0.2-0.6-0.2
		c-0.3,0-0.5,0.1-0.6,0.2s-0.2,0.3-0.2,0.6l-0.1-0.8c0.1-0.2,0.3-0.4,0.5-0.6c0.2-0.1,0.4-0.2,0.7-0.2c0.4,0,0.8,0.1,1,0.4
		s0.4,0.7,0.4,1.2v2.5H136.9z"/>
	<path class="st4" d="M140.3,352.8c-0.5,0-0.9-0.1-1.1-0.3c-0.3-0.2-0.4-0.5-0.4-1c0-0.4,0.1-0.7,0.3-0.9c0.2-0.2,0.6-0.3,1-0.3h1.2
		l0.1,0.7h-1.2c-0.2,0-0.4,0-0.5,0.1c-0.1,0.1-0.2,0.2-0.2,0.4c0,0.2,0.1,0.4,0.2,0.5c0.1,0.1,0.4,0.2,0.6,0.2c0.3,0,0.5,0,0.7-0.1
		c0.2-0.1,0.2-0.2,0.2-0.3l0.1,0.6c-0.1,0.1-0.2,0.2-0.3,0.3c-0.1,0.1-0.2,0.1-0.4,0.2S140.5,352.8,140.3,352.8z M141.3,352.7v-2.6
		c0-0.3-0.1-0.5-0.2-0.6s-0.4-0.2-0.6-0.2c-0.2,0-0.3,0-0.5,0.1c-0.2,0-0.3,0.1-0.4,0.2l-0.6-0.4c0.2-0.2,0.4-0.3,0.6-0.4
		c0.3-0.1,0.5-0.2,0.9-0.2c0.5,0,0.9,0.1,1.2,0.4s0.4,0.6,0.4,1.1v2.7H141.3z"/>
	<path class="st4" d="M143.3,352.7v-4.1h0.8v4.1H143.3z M145.9,352.7v-2.5c0-0.3-0.1-0.5-0.2-0.7c-0.2-0.2-0.4-0.2-0.6-0.2
		c-0.3,0-0.5,0.1-0.6,0.2s-0.2,0.3-0.2,0.6l-0.1-0.8c0.1-0.2,0.3-0.4,0.5-0.6c0.2-0.1,0.4-0.2,0.7-0.2c0.4,0,0.8,0.1,1,0.4
		s0.4,0.7,0.4,1.2v2.5H145.9z"/>
	<path class="st4" d="M149.2,352.8c-0.5,0-0.8-0.1-1.1-0.4c-0.2-0.3-0.4-0.7-0.4-1.2v-0.9c0-0.5,0.1-1,0.4-1.2s0.6-0.4,1-0.4
		c0.2,0,0.5,0.1,0.7,0.2s0.4,0.3,0.5,0.5l-0.1,0.8c0-0.2,0-0.3-0.1-0.5s-0.2-0.2-0.3-0.3c-0.1-0.1-0.3-0.1-0.4-0.1
		c-0.3,0-0.5,0.1-0.6,0.3c-0.1,0.2-0.2,0.4-0.2,0.7v0.9c0,0.3,0.1,0.5,0.2,0.7c0.1,0.2,0.4,0.2,0.6,0.2c0.2,0,0.3,0,0.4-0.1
		c0.1-0.1,0.2-0.2,0.3-0.3c0.1-0.1,0.1-0.3,0.1-0.5l0.1,0.9c-0.1,0.2-0.2,0.4-0.4,0.5C149.8,352.7,149.5,352.8,149.2,352.8z
		 M150.3,352.7v-5.8h0.8v5.8H150.3z"/>
	<path class="st4" d="M153.9,352.8c-0.5,0-1-0.2-1.3-0.5c-0.3-0.3-0.4-0.8-0.4-1.3v-0.7c0-0.6,0.1-1,0.4-1.3
		c0.3-0.3,0.7-0.5,1.3-0.5s1,0.2,1.3,0.5c0.3,0.3,0.4,0.8,0.4,1.3v0.7c0,0.6-0.1,1-0.4,1.3C154.9,352.6,154.4,352.8,153.9,352.8z
		 M153.9,352c0.3,0,0.5-0.1,0.7-0.3c0.2-0.2,0.2-0.4,0.2-0.8v-0.7c0-0.3-0.1-0.6-0.2-0.7c-0.2-0.2-0.4-0.3-0.7-0.3
		c-0.3,0-0.5,0.1-0.7,0.3c-0.2,0.2-0.2,0.4-0.2,0.7v0.7c0,0.3,0.1,0.6,0.2,0.8C153.4,351.9,153.6,352,153.9,352z"/>
	<path class="st4" d="M161,349.6h2v1c0,0.4-0.1,0.8-0.3,1.1s-0.4,0.6-0.7,0.8c-0.3,0.2-0.7,0.3-1.1,0.3c-0.4,0-0.8-0.1-1.1-0.3
		c-0.3-0.2-0.5-0.4-0.7-0.7s-0.3-0.7-0.3-1.1V349c0-0.4,0.1-0.8,0.3-1.1c0.2-0.3,0.4-0.6,0.7-0.8s0.7-0.3,1.1-0.3
		c0.3,0,0.6,0.1,0.9,0.2s0.5,0.3,0.7,0.6c0.2,0.3,0.3,0.6,0.4,0.9h-0.9c-0.1-0.3-0.2-0.5-0.4-0.7c-0.2-0.2-0.4-0.2-0.7-0.2
		c-0.4,0-0.7,0.1-0.9,0.4c-0.2,0.3-0.3,0.6-0.3,1v1.7c0,0.4,0.1,0.7,0.3,0.9s0.5,0.3,0.9,0.3c0.4,0,0.7-0.1,0.9-0.4s0.3-0.6,0.3-1
		v-0.3H161V349.6z"/>
	<path class="st4" d="M165.8,352.8c-0.5,0-1-0.2-1.3-0.5c-0.3-0.3-0.4-0.8-0.4-1.3v-0.7c0-0.6,0.1-1,0.4-1.3
		c0.3-0.3,0.7-0.5,1.3-0.5s1,0.2,1.3,0.5c0.3,0.3,0.4,0.8,0.4,1.3v0.7c0,0.6-0.1,1-0.4,1.3C166.8,352.6,166.4,352.8,165.8,352.8z
		 M165.8,352c0.3,0,0.5-0.1,0.7-0.3c0.2-0.2,0.2-0.4,0.2-0.8v-0.7c0-0.3-0.1-0.6-0.2-0.7c-0.2-0.2-0.4-0.3-0.7-0.3
		c-0.3,0-0.5,0.1-0.7,0.3c-0.2,0.2-0.2,0.4-0.2,0.7v0.7c0,0.3,0.1,0.6,0.2,0.8C165.3,351.9,165.6,352,165.8,352z M165.9,347.8
		l-0.5-0.4l1.1-1.4l0.6,0.5L165.9,347.8z"/>
	<path class="st4" d="M168.7,352.7v-4.1h0.8v4.1H168.7z M171.2,352.7v-2.5c0-0.3-0.1-0.5-0.2-0.7c-0.1-0.2-0.3-0.2-0.6-0.2
		c-0.3,0-0.5,0.1-0.6,0.2s-0.2,0.3-0.2,0.6l-0.1-0.8c0.1-0.2,0.3-0.4,0.5-0.6c0.2-0.1,0.4-0.2,0.7-0.2c0.4,0,0.8,0.1,1,0.4
		c0.2,0.3,0.4,0.7,0.4,1.2v2.5H171.2z M173.7,352.7v-2.5c0-0.3-0.1-0.5-0.2-0.7c-0.2-0.2-0.4-0.2-0.6-0.2c-0.3,0-0.4,0.1-0.6,0.2
		c-0.1,0.2-0.2,0.4-0.2,0.7l-0.2-0.8c0.1-0.3,0.3-0.5,0.5-0.6s0.4-0.2,0.7-0.2c0.5,0,0.8,0.1,1,0.4c0.2,0.3,0.4,0.7,0.4,1.2v2.5
		H173.7z"/>
	<path class="st4" d="M177.4,352.8c-0.6,0-1-0.2-1.3-0.5c-0.3-0.3-0.5-0.8-0.5-1.4v-0.5c0-0.6,0.2-1.1,0.5-1.4
		c0.3-0.3,0.7-0.5,1.3-0.5c0.5,0,0.9,0.2,1.2,0.6c0.3,0.4,0.4,0.9,0.4,1.6v0.3h-2.8v-0.7h2c0-0.3-0.1-0.6-0.3-0.8
		c-0.2-0.2-0.4-0.3-0.6-0.3c-0.3,0-0.5,0.1-0.7,0.3c-0.2,0.2-0.3,0.5-0.3,0.9v0.5c0,0.3,0.1,0.6,0.3,0.8c0.2,0.2,0.4,0.3,0.8,0.3
		c0.2,0,0.3,0,0.5-0.1c0.2-0.1,0.3-0.2,0.4-0.3l0.5,0.5c-0.2,0.2-0.4,0.3-0.7,0.5C177.9,352.7,177.7,352.8,177.4,352.8z"/>
	<path class="st4" d="M183,348.6v0.7l-2,2.7h2.1v0.8H180V352l2-2.7h-2v-0.8H183z"/>
	<path class="st4" d="M188.2,352.8c-0.3,0-0.5,0-0.8-0.1c-0.2-0.1-0.5-0.1-0.7-0.2c-0.2-0.1-0.4-0.2-0.6-0.4l0.5-0.6
		c0.2,0.2,0.5,0.3,0.7,0.4c0.3,0.1,0.6,0.1,0.9,0.1c0.4,0,0.7-0.1,1-0.2s0.3-0.4,0.3-0.7v0c0-0.2-0.1-0.4-0.2-0.5
		c-0.1-0.1-0.3-0.2-0.5-0.3c-0.2-0.1-0.4-0.1-0.6-0.1c-0.2,0-0.4-0.1-0.7-0.1c-0.2-0.1-0.4-0.1-0.6-0.2c-0.2-0.1-0.3-0.3-0.4-0.5
		c-0.1-0.2-0.2-0.5-0.2-0.8v0c0-0.5,0.2-1,0.5-1.3s0.9-0.4,1.5-0.4c0.3,0,0.6,0.1,0.9,0.2c0.3,0.1,0.6,0.3,0.9,0.5l-0.5,0.6
		c-0.2-0.2-0.4-0.3-0.7-0.4c-0.2-0.1-0.4-0.1-0.7-0.1c-0.4,0-0.7,0.1-0.9,0.2c-0.2,0.2-0.3,0.4-0.3,0.7v0c0,0.2,0.1,0.4,0.2,0.5
		c0.1,0.1,0.3,0.2,0.5,0.3c0.2,0.1,0.4,0.1,0.7,0.2c0.2,0,0.4,0.1,0.6,0.2s0.4,0.1,0.6,0.3s0.3,0.3,0.4,0.5s0.2,0.5,0.2,0.8v0
		c0,0.5-0.2,0.9-0.6,1.2C189.4,352.6,188.8,352.8,188.2,352.8z"/>
	<path class="st4" d="M192.7,352.8c-0.5,0-0.9-0.1-1.1-0.3c-0.3-0.2-0.4-0.5-0.4-1c0-0.4,0.1-0.7,0.3-0.9c0.2-0.2,0.6-0.3,1-0.3h1.2
		l0.1,0.7h-1.2c-0.2,0-0.4,0-0.5,0.1c-0.1,0.1-0.2,0.2-0.2,0.4c0,0.2,0.1,0.4,0.2,0.5c0.1,0.1,0.4,0.2,0.6,0.2c0.3,0,0.5,0,0.7-0.1
		c0.2-0.1,0.2-0.2,0.2-0.3l0.1,0.6c-0.1,0.1-0.2,0.2-0.3,0.3c-0.1,0.1-0.2,0.1-0.4,0.2S192.9,352.8,192.7,352.8z M193.7,352.7v-2.6
		c0-0.3-0.1-0.5-0.2-0.6s-0.4-0.2-0.6-0.2c-0.2,0-0.3,0-0.5,0.1c-0.2,0-0.3,0.1-0.4,0.2l-0.6-0.4c0.2-0.2,0.4-0.3,0.6-0.4
		c0.3-0.1,0.5-0.2,0.9-0.2c0.5,0,0.9,0.1,1.2,0.4s0.4,0.6,0.4,1.1v2.7H193.7z"/>
	<path class="st4" d="M195.7,352.7v-4.1h0.8v4.1H195.7z M198.2,352.7v-2.5c0-0.3-0.1-0.5-0.2-0.7c-0.2-0.2-0.4-0.2-0.6-0.2
		c-0.3,0-0.5,0.1-0.6,0.2s-0.2,0.3-0.2,0.6l-0.1-0.8c0.1-0.2,0.3-0.4,0.5-0.6c0.2-0.1,0.4-0.2,0.7-0.2c0.4,0,0.8,0.1,1,0.4
		s0.4,0.7,0.4,1.2v2.5H198.2z"/>
	<path class="st4" d="M201.6,352.8c-0.5,0-0.8-0.1-1.1-0.4c-0.2-0.3-0.4-0.7-0.4-1.2v-0.9c0-0.5,0.1-1,0.4-1.2s0.6-0.4,1-0.4
		c0.2,0,0.5,0.1,0.7,0.2s0.4,0.3,0.5,0.5l-0.1,0.8c0-0.2,0-0.3-0.1-0.5s-0.2-0.2-0.3-0.3c-0.1-0.1-0.3-0.1-0.4-0.1
		c-0.3,0-0.5,0.1-0.6,0.3c-0.1,0.2-0.2,0.4-0.2,0.7v0.9c0,0.3,0.1,0.5,0.2,0.7c0.1,0.2,0.4,0.2,0.6,0.2c0.2,0,0.3,0,0.4-0.1
		c0.1-0.1,0.2-0.2,0.3-0.3c0.1-0.1,0.1-0.3,0.1-0.5l0.1,0.9c-0.1,0.2-0.2,0.4-0.4,0.5C202.1,352.7,201.9,352.8,201.6,352.8z
		 M202.6,352.7v-5.8h0.8v5.8H202.6z"/>
	<path class="st4" d="M206.3,352.8c-0.5,0-1-0.2-1.3-0.5c-0.3-0.3-0.4-0.8-0.4-1.3v-0.7c0-0.6,0.1-1,0.4-1.3
		c0.3-0.3,0.7-0.5,1.3-0.5s1,0.2,1.3,0.5c0.3,0.3,0.4,0.8,0.4,1.3v0.7c0,0.6-0.1,1-0.4,1.3C207.2,352.6,206.8,352.8,206.3,352.8z
		 M206.3,352c0.3,0,0.5-0.1,0.7-0.3c0.2-0.2,0.2-0.4,0.2-0.8v-0.7c0-0.3-0.1-0.6-0.2-0.7c-0.2-0.2-0.4-0.3-0.7-0.3
		c-0.3,0-0.5,0.1-0.7,0.3c-0.2,0.2-0.2,0.4-0.2,0.7v0.7c0,0.3,0.1,0.6,0.2,0.8C205.8,351.9,206,352,206.3,352z"/>
	<path class="st4" d="M210.4,351.5l1-3h0.9l-1.6,4.1h-0.6l-1.6-4.1h0.9L210.4,351.5z"/>
	<path class="st4" d="M214.4,352.8c-0.5,0-0.9-0.1-1.1-0.3c-0.3-0.2-0.4-0.5-0.4-1c0-0.4,0.1-0.7,0.3-0.9c0.2-0.2,0.6-0.3,1-0.3h1.2
		l0.1,0.7h-1.2c-0.2,0-0.4,0-0.5,0.1c-0.1,0.1-0.2,0.2-0.2,0.4c0,0.2,0.1,0.4,0.2,0.5c0.1,0.1,0.4,0.2,0.6,0.2c0.3,0,0.5,0,0.7-0.1
		c0.2-0.1,0.2-0.2,0.2-0.3l0.1,0.6c-0.1,0.1-0.2,0.2-0.3,0.3c-0.1,0.1-0.2,0.1-0.4,0.2S214.6,352.8,214.4,352.8z M215.4,352.7v-2.6
		c0-0.3-0.1-0.5-0.2-0.6s-0.4-0.2-0.6-0.2c-0.2,0-0.3,0-0.5,0.1c-0.2,0-0.3,0.1-0.4,0.2l-0.6-0.4c0.2-0.2,0.4-0.3,0.6-0.4
		c0.3-0.1,0.5-0.2,0.9-0.2c0.5,0,0.9,0.1,1.2,0.4s0.4,0.6,0.4,1.1v2.7H215.4z"/>
	<path class="st4" d="M218.2,346.9v4.7c0,0.1,0,0.2,0.1,0.2c0,0.1,0.1,0.1,0.2,0.1h0.4v0.8h-0.5c-0.3,0-0.5-0.1-0.7-0.3
		c-0.2-0.2-0.3-0.5-0.3-0.8v-4.7H218.2z"/>
	<path class="st4" d="M219.7,354v-2.2h0.9v1.3L219.7,354z"/>
	<path class="st4" d="M21.9,362.6c-0.4,0-0.7-0.1-1-0.2c-0.3-0.1-0.6-0.3-0.8-0.5l0.5-0.6c0.2,0.2,0.4,0.3,0.7,0.4
		c0.2,0.1,0.4,0.1,0.7,0.1c0.3,0,0.6,0,0.7-0.1s0.2-0.2,0.2-0.4c0-0.2-0.1-0.3-0.2-0.3c-0.1-0.1-0.2-0.1-0.4-0.1s-0.4,0-0.6,0
		c-0.2,0-0.3,0-0.5-0.1c-0.2,0-0.3-0.1-0.5-0.2s-0.2-0.2-0.3-0.3c-0.1-0.1-0.1-0.3-0.1-0.6c0-0.4,0.1-0.8,0.4-1
		c0.3-0.2,0.7-0.3,1.2-0.3c0.3,0,0.6,0,0.9,0.1c0.3,0.1,0.5,0.2,0.8,0.4l-0.5,0.6c-0.2-0.1-0.4-0.2-0.6-0.3
		c-0.2-0.1-0.4-0.1-0.6-0.1c-0.3,0-0.5,0-0.6,0.1c-0.1,0.1-0.2,0.2-0.2,0.4c0,0.1,0,0.2,0.1,0.3s0.2,0.1,0.4,0.1c0.2,0,0.3,0,0.5,0
		c0.2,0,0.3,0,0.5,0.1c0.2,0,0.3,0.1,0.5,0.2c0.1,0.1,0.3,0.2,0.4,0.4c0.1,0.2,0.1,0.4,0.1,0.6c0,0.4-0.1,0.8-0.4,1
		C22.9,362.5,22.5,362.6,21.9,362.6z"/>
	<path class="st4" d="M26,362.6c-0.5,0-0.9-0.1-1.1-0.3c-0.3-0.2-0.4-0.5-0.4-1c0-0.4,0.1-0.7,0.3-0.9c0.2-0.2,0.6-0.3,1-0.3H27
		l0.1,0.7h-1.2c-0.2,0-0.4,0-0.5,0.1c-0.1,0.1-0.2,0.2-0.2,0.4c0,0.2,0.1,0.4,0.2,0.5c0.1,0.1,0.4,0.2,0.6,0.2c0.3,0,0.5,0,0.7-0.1
		c0.2-0.1,0.2-0.2,0.2-0.3l0.1,0.6c-0.1,0.1-0.2,0.2-0.3,0.3c-0.1,0.1-0.2,0.1-0.4,0.2S26.2,362.6,26,362.6z M27,362.5v-2.6
		c0-0.3-0.1-0.5-0.2-0.6s-0.4-0.2-0.6-0.2c-0.2,0-0.3,0-0.5,0.1c-0.2,0-0.3,0.1-0.4,0.2l-0.6-0.4c0.2-0.2,0.4-0.3,0.6-0.4
		c0.3-0.1,0.5-0.2,0.9-0.2c0.5,0,0.9,0.1,1.2,0.4s0.4,0.6,0.4,1.1v2.7H27z"/>
	<path class="st4" d="M29,362.5v-4.1h0.8v4.1H29z M31.5,362.5V360c0-0.3-0.1-0.5-0.2-0.7c-0.2-0.2-0.4-0.2-0.6-0.2
		c-0.3,0-0.5,0.1-0.6,0.2s-0.2,0.3-0.2,0.6l-0.1-0.8c0.1-0.2,0.3-0.4,0.5-0.6c0.2-0.1,0.4-0.2,0.7-0.2c0.4,0,0.8,0.1,1,0.4
		s0.4,0.7,0.4,1.2v2.5H31.5z"/>
	<path class="st4" d="M33.3,359.1v-0.7h1.9v0.7H33.3z M34.7,362.5c-0.3,0-0.6-0.1-0.7-0.3c-0.2-0.2-0.2-0.5-0.2-0.8v-4.3h0.8v4.3
		c0,0.1,0,0.2,0.1,0.2c0,0.1,0.1,0.1,0.2,0.1h0.4v0.8H34.7z"/>
	<path class="st4" d="M37.6,362.6c-0.5,0-0.9-0.1-1.1-0.3c-0.3-0.2-0.4-0.5-0.4-1c0-0.4,0.1-0.7,0.3-0.9c0.2-0.2,0.6-0.3,1-0.3h1.2
		l0.1,0.7h-1.2c-0.2,0-0.4,0-0.5,0.1c-0.1,0.1-0.2,0.2-0.2,0.4c0,0.2,0.1,0.4,0.2,0.5c0.1,0.1,0.4,0.2,0.6,0.2c0.3,0,0.5,0,0.7-0.1
		c0.2-0.1,0.2-0.2,0.2-0.3l0.1,0.6c-0.1,0.1-0.2,0.2-0.3,0.3c-0.1,0.1-0.2,0.1-0.4,0.2S37.7,362.6,37.6,362.6z M38.6,362.5v-2.6
		c0-0.3-0.1-0.5-0.2-0.6S38,359,37.8,359c-0.2,0-0.3,0-0.5,0.1c-0.2,0-0.3,0.1-0.4,0.2l-0.6-0.4c0.2-0.2,0.4-0.3,0.6-0.4
		c0.3-0.1,0.5-0.2,0.9-0.2c0.5,0,0.9,0.1,1.2,0.4s0.4,0.6,0.4,1.1v2.7H38.6z"/>
	<path class="st4" d="M43.6,356.7v4.7c0,0.1,0,0.2,0.1,0.2c0,0.1,0.1,0.1,0.2,0.1h0.4v0.8h-0.5c-0.3,0-0.5-0.1-0.7-0.3
		c-0.2-0.2-0.3-0.5-0.3-0.8v-4.7H43.6z"/>
	<path class="st4" d="M45.9,358.4v2.5c0,0.3,0.1,0.5,0.2,0.7c0.1,0.2,0.4,0.2,0.6,0.2c0.3,0,0.5-0.1,0.6-0.2
		c0.1-0.1,0.2-0.3,0.2-0.6l0.1,0.9c-0.1,0.2-0.2,0.4-0.4,0.5c-0.2,0.1-0.4,0.2-0.7,0.2c-0.5,0-0.8-0.1-1.1-0.4
		c-0.2-0.3-0.4-0.7-0.4-1.2v-2.5H45.9z M47.6,362.5v-4.1h0.8v4.1H47.6z"/>
	<path class="st4" d="M51.3,362.6c-0.6,0-1-0.2-1.3-0.5c-0.3-0.3-0.5-0.8-0.5-1.3v-0.7c0-0.6,0.2-1,0.5-1.3c0.3-0.3,0.8-0.5,1.3-0.5
		c0.3,0,0.6,0.1,0.9,0.2s0.5,0.3,0.6,0.5l-0.6,0.5c-0.1-0.1-0.2-0.2-0.4-0.3c-0.2-0.1-0.3-0.1-0.5-0.1c-0.3,0-0.6,0.1-0.7,0.3
		c-0.2,0.2-0.3,0.4-0.3,0.7v0.7c0,0.3,0.1,0.6,0.3,0.8c0.2,0.2,0.4,0.3,0.7,0.3c0.2,0,0.3,0,0.5-0.1c0.2-0.1,0.3-0.2,0.4-0.3
		l0.6,0.6c-0.2,0.2-0.4,0.4-0.6,0.5C52,362.5,51.7,362.6,51.3,362.6z"/>
	<path class="st4" d="M53.7,357.5v-0.8h0.8v0.8H53.7z M53.7,362.5v-4.1h0.8v4.1H53.7z"/>
	<path class="st4" d="M57.1,362.6c-0.5,0-0.9-0.1-1.1-0.3c-0.3-0.2-0.4-0.5-0.4-1c0-0.4,0.1-0.7,0.3-0.9c0.2-0.2,0.6-0.3,1-0.3h1.2
		l0.1,0.7H57c-0.2,0-0.4,0-0.5,0.1c-0.1,0.1-0.2,0.2-0.2,0.4c0,0.2,0.1,0.4,0.2,0.5c0.1,0.1,0.4,0.2,0.6,0.2c0.3,0,0.5,0,0.7-0.1
		c0.2-0.1,0.2-0.2,0.2-0.3l0.1,0.6c-0.1,0.1-0.2,0.2-0.3,0.3c-0.1,0.1-0.2,0.1-0.4,0.2S57.3,362.6,57.1,362.6z M58.1,362.5v-2.6
		c0-0.3-0.1-0.5-0.2-0.6s-0.4-0.2-0.6-0.2c-0.2,0-0.3,0-0.5,0.1c-0.2,0-0.3,0.1-0.4,0.2l-0.6-0.4c0.2-0.2,0.4-0.3,0.6-0.4
		c0.3-0.1,0.5-0.2,0.9-0.2c0.5,0,0.9,0.1,1.2,0.4s0.4,0.6,0.4,1.1v2.7H58.1z"/>
	<path class="st4" d="M63.7,362.6c-0.5,0-0.8-0.1-1.1-0.4c-0.2-0.3-0.4-0.7-0.4-1.2V360c0-0.5,0.1-1,0.4-1.2s0.6-0.4,1-0.4
		c0.2,0,0.5,0.1,0.7,0.2s0.4,0.3,0.5,0.5l-0.1,0.8c0-0.2,0-0.3-0.1-0.5s-0.2-0.2-0.3-0.3c-0.1-0.1-0.3-0.1-0.4-0.1
		c-0.3,0-0.5,0.1-0.6,0.3c-0.1,0.2-0.2,0.4-0.2,0.7v0.9c0,0.3,0.1,0.5,0.2,0.7c0.1,0.2,0.4,0.2,0.6,0.2c0.2,0,0.3,0,0.4-0.1
		c0.1-0.1,0.2-0.2,0.3-0.3c0.1-0.1,0.1-0.3,0.1-0.5l0.1,0.9c-0.1,0.2-0.2,0.4-0.4,0.5C64.2,362.5,63.9,362.6,63.7,362.6z
		 M64.7,362.5v-5.8h0.8v5.8H64.7z"/>
	<path class="st4" d="M68.4,362.6c-0.6,0-1-0.2-1.3-0.5c-0.3-0.3-0.5-0.8-0.5-1.4v-0.5c0-0.6,0.2-1.1,0.5-1.4
		c0.3-0.3,0.7-0.5,1.3-0.5c0.5,0,0.9,0.2,1.2,0.6c0.3,0.4,0.4,0.9,0.4,1.6v0.3h-2.8v-0.7h2c0-0.3-0.1-0.6-0.3-0.8
		c-0.2-0.2-0.4-0.3-0.6-0.3c-0.3,0-0.5,0.1-0.7,0.3c-0.2,0.2-0.3,0.5-0.3,0.9v0.5c0,0.3,0.1,0.6,0.3,0.8c0.2,0.2,0.4,0.3,0.8,0.3
		c0.2,0,0.3,0,0.5-0.1c0.2-0.1,0.3-0.2,0.4-0.3l0.5,0.5c-0.2,0.2-0.4,0.3-0.7,0.5C69,362.5,68.7,362.6,68.4,362.6z"/>
	<path class="st4" d="M71.9,356.7v4.7c0,0.1,0,0.2,0.1,0.2c0,0.1,0.1,0.1,0.2,0.1h0.4v0.8h-0.5c-0.3,0-0.5-0.1-0.7-0.3
		c-0.2-0.2-0.3-0.5-0.3-0.8v-4.7H71.9z"/>
	<path class="st4" d="M77.4,362.6c-0.6,0-1-0.2-1.3-0.5c-0.3-0.3-0.5-0.8-0.5-1.3v-0.7c0-0.6,0.2-1,0.5-1.3c0.3-0.3,0.8-0.5,1.3-0.5
		c0.3,0,0.6,0.1,0.9,0.2s0.5,0.3,0.6,0.5l-0.6,0.5c-0.1-0.1-0.2-0.2-0.4-0.3c-0.2-0.1-0.3-0.1-0.5-0.1c-0.3,0-0.6,0.1-0.7,0.3
		c-0.2,0.2-0.3,0.4-0.3,0.7v0.7c0,0.3,0.1,0.6,0.3,0.8c0.2,0.2,0.4,0.3,0.7,0.3c0.2,0,0.3,0,0.5-0.1c0.2-0.1,0.3-0.2,0.4-0.3
		l0.6,0.6c-0.2,0.2-0.4,0.4-0.6,0.5C78,362.5,77.7,362.6,77.4,362.6z"/>
	<path class="st4" d="M81.1,362.6c-0.5,0-0.9-0.1-1.1-0.3c-0.3-0.2-0.4-0.5-0.4-1c0-0.4,0.1-0.7,0.3-0.9c0.2-0.2,0.6-0.3,1-0.3h1.2
		l0.1,0.7H81c-0.2,0-0.4,0-0.5,0.1c-0.1,0.1-0.2,0.2-0.2,0.4c0,0.2,0.1,0.4,0.2,0.5c0.1,0.1,0.4,0.2,0.6,0.2c0.3,0,0.5,0,0.7-0.1
		c0.2-0.1,0.2-0.2,0.2-0.3l0.1,0.6c-0.1,0.1-0.2,0.2-0.3,0.3c-0.1,0.1-0.2,0.1-0.4,0.2S81.3,362.6,81.1,362.6z M82.1,362.5v-2.6
		c0-0.3-0.1-0.5-0.2-0.6s-0.4-0.2-0.6-0.2c-0.2,0-0.3,0-0.5,0.1c-0.2,0-0.3,0.1-0.4,0.2l-0.6-0.4c0.2-0.2,0.4-0.3,0.6-0.4
		c0.3-0.1,0.5-0.2,0.9-0.2c0.5,0,0.9,0.1,1.2,0.4s0.4,0.6,0.4,1.1v2.7H82.1z"/>
	<path class="st4" d="M84.1,362.5v-4.1h0.8v4.1H84.1z M86.6,362.5V360c0-0.3-0.1-0.5-0.2-0.7c-0.1-0.2-0.3-0.2-0.6-0.2
		c-0.3,0-0.5,0.1-0.6,0.2s-0.2,0.3-0.2,0.6l-0.1-0.8c0.1-0.2,0.3-0.4,0.5-0.6c0.2-0.1,0.4-0.2,0.7-0.2c0.4,0,0.8,0.1,1,0.4
		c0.2,0.3,0.4,0.7,0.4,1.2v2.5H86.6z M89.1,362.5V360c0-0.3-0.1-0.5-0.2-0.7c-0.2-0.2-0.4-0.2-0.6-0.2c-0.3,0-0.4,0.1-0.6,0.2
		c-0.1,0.2-0.2,0.4-0.2,0.7l-0.2-0.8c0.1-0.3,0.3-0.5,0.5-0.6s0.4-0.2,0.7-0.2c0.5,0,0.8,0.1,1,0.4c0.2,0.3,0.4,0.7,0.4,1.2v2.5
		H89.1z"/>
	<path class="st4" d="M91.1,357.5v-0.8h0.8v0.8H91.1z M91.1,362.5v-4.1h0.8v4.1H91.1z"/>
	<path class="st4" d="M93.2,362.5v-4.1H94v4.1H93.2z M95.7,362.5V360c0-0.3-0.1-0.5-0.2-0.7c-0.2-0.2-0.4-0.2-0.6-0.2
		c-0.3,0-0.5,0.1-0.6,0.2s-0.2,0.3-0.2,0.6l-0.1-0.8c0.1-0.2,0.3-0.4,0.5-0.6c0.2-0.1,0.4-0.2,0.7-0.2c0.4,0,0.8,0.1,1,0.4
		s0.4,0.7,0.4,1.2v2.5H95.7z"/>
	<path class="st4" d="M99.3,362.6c-0.5,0-1-0.2-1.3-0.5c-0.3-0.3-0.4-0.8-0.4-1.3v-0.7c0-0.6,0.1-1,0.4-1.3c0.3-0.3,0.7-0.5,1.3-0.5
		s1,0.2,1.3,0.5c0.3,0.3,0.4,0.8,0.4,1.3v0.7c0,0.6-0.1,1-0.4,1.3C100.3,362.4,99.9,362.6,99.3,362.6z M99.3,361.8
		c0.3,0,0.5-0.1,0.7-0.3c0.2-0.2,0.2-0.4,0.2-0.8v-0.7c0-0.3-0.1-0.6-0.2-0.7c-0.2-0.2-0.4-0.3-0.7-0.3c-0.3,0-0.5,0.1-0.7,0.3
		c-0.2,0.2-0.2,0.4-0.2,0.7v0.7c0,0.3,0.1,0.6,0.2,0.8C98.8,361.7,99,361.8,99.3,361.8z"/>
	<path class="st4" d="M107.4,356.7v0.7l-1.5,5.1H105l1.5-5H105v0.8h-0.8v-1.6H107.4z"/>
	<path class="st4" d="M109.9,356.7v5.8h-0.8v-4.9l-0.8,0.5v-0.8l0.8-0.6H109.9z"/>
	<path class="st4" d="M111.1,362.5v-0.7l2-2.7c0.1-0.2,0.2-0.3,0.3-0.5s0.1-0.3,0.1-0.5v0c0-0.2-0.1-0.4-0.2-0.5s-0.3-0.2-0.6-0.2
		c-0.2,0-0.4,0.1-0.6,0.2c-0.1,0.1-0.2,0.3-0.3,0.6v0H111v0c0.1-0.5,0.3-0.9,0.5-1.2c0.3-0.3,0.7-0.4,1.1-0.4c0.5,0,0.9,0.1,1.2,0.4
		s0.4,0.6,0.4,1.1v0c0,0.2,0,0.4-0.1,0.6c-0.1,0.2-0.2,0.4-0.4,0.6l-1.7,2.3h2.2v0.8H111.1z"/>
	<path class="st4" d="M115.1,361.6v-0.7l1.9-4.2h0.8l-1.9,4.2h2.8v0.8H115.1z M117.6,362.5v-3.4h0.8v3.4H117.6z"/>
	<path class="st4" d="M121.3,362.6c-0.3,0-0.6-0.1-0.9-0.2c-0.2-0.1-0.4-0.3-0.6-0.5c-0.1-0.2-0.2-0.5-0.3-0.8h0.8
		c0,0.2,0.1,0.4,0.3,0.5c0.2,0.1,0.4,0.2,0.6,0.2c0.3,0,0.5-0.1,0.6-0.2c0.1-0.1,0.2-0.3,0.2-0.6v-0.2c0-0.3-0.1-0.5-0.2-0.7
		s-0.3-0.2-0.6-0.2H121v-0.8h0.4c0.2,0,0.4-0.1,0.5-0.2c0.1-0.1,0.2-0.3,0.2-0.6v-0.2c0-0.2-0.1-0.4-0.2-0.5
		c-0.1-0.1-0.3-0.2-0.6-0.2c-0.2,0-0.4,0.1-0.5,0.2c-0.1,0.1-0.2,0.3-0.3,0.5h-0.8c0.1-0.5,0.3-0.8,0.6-1.1c0.3-0.3,0.6-0.4,1.1-0.4
		c0.5,0,0.9,0.1,1.2,0.4c0.3,0.3,0.4,0.6,0.4,1.1v0.1c0,0.3-0.1,0.5-0.2,0.8c-0.2,0.2-0.4,0.4-0.7,0.5c0.3,0.1,0.6,0.2,0.7,0.5
		c0.2,0.2,0.3,0.6,0.3,0.9v0.1c0,0.5-0.1,0.9-0.4,1.2S121.9,362.6,121.3,362.6z"/>
	<path class="st4" d="M124,363.8v-2.2h0.9v1.3L124,363.8z"/>
	<path class="st4" d="M130.2,362.6c-0.4,0-0.8-0.1-1.1-0.3c-0.3-0.2-0.5-0.4-0.7-0.7c-0.2-0.3-0.3-0.7-0.3-1.1v-1.6
		c0-0.4,0.1-0.8,0.3-1.1c0.2-0.3,0.4-0.6,0.7-0.7c0.3-0.2,0.7-0.3,1.1-0.3c0.4,0,0.8,0.1,1.1,0.3c0.3,0.2,0.5,0.4,0.7,0.7
		c0.2,0.3,0.3,0.7,0.3,1.1v1.6c0,0.4-0.1,0.8-0.3,1.1c-0.2,0.3-0.4,0.6-0.7,0.7C131,362.5,130.6,362.6,130.2,362.6z M130.2,361.8
		c0.4,0,0.7-0.1,0.9-0.4c0.2-0.2,0.3-0.6,0.3-1v-1.7c0-0.4-0.1-0.7-0.3-1c-0.2-0.2-0.5-0.4-0.9-0.4c-0.4,0-0.7,0.1-0.9,0.4
		c-0.2,0.2-0.3,0.6-0.3,1v1.7c0,0.4,0.1,0.7,0.3,1C129.6,361.7,129.9,361.8,130.2,361.8z"/>
	<path class="st4" d="M134.8,362.6c-0.5,0-0.9-0.1-1.1-0.3c-0.3-0.2-0.4-0.5-0.4-1c0-0.4,0.1-0.7,0.3-0.9c0.2-0.2,0.6-0.3,1-0.3h1.2
		l0.1,0.7h-1.2c-0.2,0-0.4,0-0.5,0.1c-0.1,0.1-0.2,0.2-0.2,0.4c0,0.2,0.1,0.4,0.2,0.5c0.1,0.1,0.4,0.2,0.6,0.2c0.3,0,0.5,0,0.7-0.1
		c0.2-0.1,0.2-0.2,0.2-0.3l0.1,0.6c-0.1,0.1-0.2,0.2-0.3,0.3c-0.1,0.1-0.2,0.1-0.4,0.2S135,362.6,134.8,362.6z M135.9,362.5v-2.6
		c0-0.3-0.1-0.5-0.2-0.6s-0.4-0.2-0.6-0.2c-0.2,0-0.3,0-0.5,0.1c-0.2,0-0.3,0.1-0.4,0.2l-0.6-0.4c0.2-0.2,0.4-0.3,0.6-0.4
		c0.3-0.1,0.5-0.2,0.9-0.2c0.5,0,0.9,0.1,1.2,0.4s0.4,0.6,0.4,1.1v2.7H135.9z"/>
	<path class="st4" d="M137.5,362.5l1.6-2.3l0.4,0.8l-1.1,1.5H137.5z M140.3,362.5l-1.2-1.9l-1.5-2.3h0.9l1.2,1.9l1.6,2.3H140.3z
		 M139.7,360.6l-0.3-0.8l0.9-1.5h0.9L139.7,360.6z"/>
	<path class="st4" d="M143.4,362.6c-0.5,0-0.9-0.1-1.1-0.3c-0.3-0.2-0.4-0.5-0.4-1c0-0.4,0.1-0.7,0.3-0.9c0.2-0.2,0.6-0.3,1-0.3h1.2
		l0.1,0.7h-1.2c-0.2,0-0.4,0-0.5,0.1c-0.1,0.1-0.2,0.2-0.2,0.4c0,0.2,0.1,0.4,0.2,0.5c0.1,0.1,0.4,0.2,0.6,0.2c0.3,0,0.5,0,0.7-0.1
		c0.2-0.1,0.2-0.2,0.2-0.3l0.1,0.6c-0.1,0.1-0.2,0.2-0.3,0.3c-0.1,0.1-0.2,0.1-0.4,0.2S143.6,362.6,143.4,362.6z M144.4,362.5v-2.6
		c0-0.3-0.1-0.5-0.2-0.6s-0.4-0.2-0.6-0.2c-0.2,0-0.3,0-0.5,0.1c-0.2,0-0.3,0.1-0.4,0.2l-0.6-0.4c0.2-0.2,0.4-0.3,0.6-0.4
		c0.3-0.1,0.5-0.2,0.9-0.2c0.5,0,0.9,0.1,1.2,0.4s0.4,0.6,0.4,1.1v2.7H144.4z"/>
	<path class="st4" d="M148.1,362.6c-0.6,0-1-0.2-1.3-0.5c-0.3-0.3-0.5-0.8-0.5-1.3v-0.7c0-0.6,0.2-1,0.5-1.3
		c0.3-0.3,0.8-0.5,1.3-0.5c0.3,0,0.6,0.1,0.9,0.2s0.5,0.3,0.6,0.5l-0.6,0.5c-0.1-0.1-0.2-0.2-0.4-0.3c-0.2-0.1-0.3-0.1-0.5-0.1
		c-0.3,0-0.6,0.1-0.7,0.3c-0.2,0.2-0.3,0.4-0.3,0.7v0.7c0,0.3,0.1,0.6,0.3,0.8c0.2,0.2,0.4,0.3,0.7,0.3c0.2,0,0.3,0,0.5-0.1
		c0.2-0.1,0.3-0.2,0.4-0.3l0.6,0.6c-0.2,0.2-0.4,0.4-0.6,0.5C148.7,362.5,148.4,362.6,148.1,362.6z"/>
	<path class="st4" d="M151.8,362.6c-0.5,0-0.9-0.1-1.1-0.3c-0.3-0.2-0.4-0.5-0.4-1c0-0.4,0.1-0.7,0.3-0.9c0.2-0.2,0.6-0.3,1-0.3h1.2
		l0.1,0.7h-1.2c-0.2,0-0.4,0-0.5,0.1c-0.1,0.1-0.2,0.2-0.2,0.4c0,0.2,0.1,0.4,0.2,0.5c0.1,0.1,0.4,0.2,0.6,0.2c0.3,0,0.5,0,0.7-0.1
		c0.2-0.1,0.2-0.2,0.2-0.3l0.1,0.6c-0.1,0.1-0.2,0.2-0.3,0.3c-0.1,0.1-0.2,0.1-0.4,0.2S152,362.6,151.8,362.6z M152.9,362.5v-2.6
		c0-0.3-0.1-0.5-0.2-0.6s-0.4-0.2-0.6-0.2c-0.2,0-0.3,0-0.5,0.1c-0.2,0-0.3,0.1-0.4,0.2l-0.6-0.4c0.2-0.2,0.4-0.3,0.6-0.4
		c0.3-0.1,0.5-0.2,0.9-0.2c0.5,0,0.9,0.1,1.2,0.4s0.4,0.6,0.4,1.1v2.7H152.9z"/>
	<path class="st4" d="M154.7,362.5v-0.9h0.9v0.9H154.7z"/>
</g>
<g>
	<g>
		<path class="st1" d="M11.3,344.9c0.2,0,0.4,0.1,0.6,0.1c1.4,0.3,2.5,1.1,3,2.5c0.2,0.6,0.3,1.3,0.2,1.9c-0.1,1.2-0.6,2.3-1.1,3.3
			c-0.6,1-1.2,1.9-2,2.8c0,0-0.1,0.1-0.1,0.1c0,0,0.1,0,0.1,0c0.4,0,0.9,0,1.3,0c0.2,0,0.4,0.2,0.4,0.4c0,0.2-0.2,0.4-0.4,0.4
			c-1.6,0-3.2,0-4.8,0c-0.2,0-0.4-0.2-0.4-0.4c0-0.2,0.2-0.4,0.4-0.4c0.4,0,0.9,0,1.3,0c0,0,0.1,0,0.1,0c-0.2-0.2-0.3-0.4-0.4-0.5
			c-0.8-1-1.5-2-2-3.1c-0.3-0.7-0.6-1.5-0.7-2.3c-0.2-1.1,0-2.1,0.6-3.1c0.5-0.8,1.2-1.3,2.1-1.5c0.3-0.1,0.7-0.1,1-0.2
			c0,0,0,0,0.1,0C10.8,344.9,11,344.9,11.3,344.9z M10.9,355.6C11,355.6,11,355.6,10.9,355.6c0.6-0.7,1.1-1.3,1.6-2
			c0.6-0.9,1.2-1.8,1.5-2.9c0.3-0.7,0.4-1.5,0.3-2.3c-0.1-1-0.6-1.8-1.5-2.3c-1.1-0.6-2.2-0.7-3.3-0.3c-0.9,0.3-1.5,0.8-1.9,1.7
			c-0.3,0.7-0.3,1.5-0.2,2.2c0.2,0.9,0.5,1.7,0.9,2.4c0.6,1.1,1.3,2.1,2.2,3.1C10.7,355.4,10.8,355.5,10.9,355.6z"/>
		<path class="st1" d="M10.9,346.9c1.2,0,2.1,1,2.1,2.1c0,1.2-1,2.1-2.1,2.1c-1.2,0-2.1-1-2.1-2.1C8.8,347.8,9.8,346.9,10.9,346.9z
			 M10.9,347.6c-0.8,0-1.4,0.6-1.4,1.4c0,0.8,0.6,1.4,1.4,1.4c0.8,0,1.4-0.6,1.4-1.4C12.3,348.2,11.7,347.6,10.9,347.6z"/>
	</g>
</g>
</svg>
