<?xml version="1.0" encoding="utf-8"?>
<!-- Generator: Adobe Illustrator 23.0.2, SVG Export Plug-In . SVG Version: 6.00 Build 0)  -->
<svg version="1.1" id="Capa_1" xmlns="http://www.w3.org/2000/svg" xmlns:xlink="http://www.w3.org/1999/xlink" x="0px" y="0px"
	 viewBox="0 0 561.5 59.3" style="enable-background:new 0 0 561.5 59.3;" xml:space="preserve">
<style type="text/css">
	.st0{fill:#6FAB82;}
	.st1{fill:#FFFFFF;}
	.st2{font-family:'MyriadPro-Regular';}
	.st3{font-size:12px;}
	.st4{fill:#6C6C6C;}
</style>
<g>
	<g>
		<g>
			<path class="st0" d="M9.1,0c0,19.8,0,39.6,0,59.4c-1.2,0-2.4,0-3.6-0.1c-1.4-0.1-2.8-0.5-3.9-1.3C0.5,57.1,0,55.9,0,54.6
				c0-13.9,0-27.9,0-41.8c0-1.5,0.8-2.7,2.5-3.5C3.1,9,3.4,8.7,3.5,8.1c0.2-1.4,1.3-2.5,3-3.2C6.9,4.7,7,4.5,7,4.1C7,3.1,7,2,7,0.9
				C7,0.2,7.3,0,8.2,0C8.5,0,8.8,0,9.1,0z"/>
		</g>
		<g>
			<path class="st0" d="M9.1,0c0,19.8,0,39.6,0,59.4c1.2,0,2.4,0,3.6-0.1c1.4-0.1,2.8-0.5,3.9-1.3c1.2-0.9,1.7-2.1,1.7-3.4
				c0-13.9,0-27.9,0-41.8c0-1.5-0.8-2.7-2.5-3.5c-0.6-0.3-0.9-0.5-1.1-1.1c-0.2-1.4-1.3-2.5-3-3.2c-0.4-0.2-0.5-0.4-0.5-0.8
				c0-1.1,0-2.2,0-3.2C11.3,0.2,11,0,10.1,0C9.8,0,9.4,0,9.1,0z"/>
		</g>
	</g>
	<path class="st0" d="M555.8,10.5H11.3c-3.1,0-5.7,2.6-5.7,5.7v37.4c0,3.1,2.6,5.7,5.7,5.7h544.6c3.1,0,5.7-2.6,5.7-5.7V16.2
		C561.5,13,559,10.5,555.8,10.5z"/>
</g>
<text transform="matrix(1 0 0 1 40.6949 29.65)" class="st1 st2 st3">Calle Ignacio Zaragoza 213ª, Col. Fernando Gómez Sandoval, Santa Lucia del Camino, Oaxaca.</text>
<text transform="matrix(1 0 0 1 40.6949 48.0777)" class="st1 st2 st3">951 240 06 67  /  951 195 02 00</text>
<g>
	<path class="st4" d="M36.6,32.2c-2.2,0-4.3,0-6.5,0c0,0-0.1,0-0.1,0c-1.4-0.2-2.4-1.4-2.4-2.7c0-2,0-3.9,0-5.9c0-1.2,0.8-2.3,2-2.6
		c0.2-0.1,0.4-0.1,0.5-0.1c2.2,0,4.3,0,6.5,0c0,0,0.1,0,0.1,0c0.8,0.1,1.4,0.5,1.9,1.1c0.3,0.4,0.5,0.9,0.6,1.4c0,2.1,0,4.2,0,6.3
		c0,0,0,0.1,0,0.1c-0.1,0.8-0.5,1.5-1.2,1.9C37.5,32,37.1,32.1,36.6,32.2z M33.3,30.4c0.1-0.2,0.2-0.3,0.2-0.4
		c0.4-0.6,0.7-1.2,1.1-1.8c0.4-0.6,0.8-1.3,1.2-1.9c0.2-0.4,0.4-0.9,0.3-1.4c-0.3-1.5-1.5-2.5-3.2-2.3c-1.7,0.2-2.8,2-2.1,3.5
		c0.3,0.6,0.6,1.1,1,1.7C32.2,28.7,32.8,29.5,33.3,30.4z"/>
	<path class="st1" d="M33.3,30.4c-0.6-0.9-1.1-1.7-1.6-2.6c-0.3-0.6-0.7-1.1-1-1.7c-0.7-1.6,0.4-3.3,2.1-3.5
		c1.7-0.2,2.8,0.8,3.2,2.3c0.1,0.5,0,1-0.3,1.4c-0.4,0.7-0.8,1.3-1.2,1.9c-0.4,0.6-0.7,1.2-1.1,1.8C33.5,30.2,33.4,30.3,33.3,30.4z
		 M32.4,25.2c0,0.6,0.4,1,1,1c0.6,0,1-0.4,1-1c0-0.5-0.4-1-1-1C32.7,24.2,32.4,24.6,32.4,25.2z"/>
	<path class="st4" d="M32.4,25.2c0-0.6,0.4-1,1-1c0.6,0,1,0.4,1,1c0,0.5-0.4,1-1,1C32.8,26.2,32.4,25.8,32.4,25.2z"/>
</g>
<g>
	<path class="st4" d="M36.6,49.9h-5.5c-1.6,0-2.8-1.3-2.8-2.8v-5.5c0-1.6,1.3-2.8,2.8-2.8h5.5c1.6,0,2.8,1.3,2.8,2.8v5.5
		C39.5,48.6,38.2,49.9,36.6,49.9z"/>
	<path class="st1" d="M34.9,45.5c0.8,0.5,1.6,0.9,2.3,1.4c-0.4,0.4-0.7,0.9-1.2,0.9c-0.3,0-0.6,0-0.8-0.1c-1.4-0.7-2.6-1.7-3.6-3
		c-0.5-0.6-0.9-1.2-1.2-1.9c-0.4-0.7-0.3-1.2,0.3-1.7c0.1-0.1,0.2-0.2,0.3-0.3c0.5,0.7,0.9,1.4,1.4,2.1c-0.1,0.1-0.3,0.2-0.4,0.4
		c-0.2,0.2-0.2,0.3,0,0.5c0.7,0.7,1.4,1.4,2.1,2.1c0.2,0.2,0.3,0.2,0.5,0C34.6,45.8,34.8,45.6,34.9,45.5z"/>
	<path class="st1" d="M35.1,45.4c0.2-0.2,0.4-0.1,0.5-0.1c0.5,0.3,1,0.6,1.5,0.9c0.2,0.1,0.3,0.3,0.2,0.5
		C36.6,46.3,35.8,45.9,35.1,45.4z"/>
	<path class="st1" d="M32.5,42.7c-0.4-0.7-0.9-1.3-1.3-2c0.2-0.1,0.3,0,0.4,0.1c0.3,0.5,0.7,1,1,1.5c0.1,0.1,0,0.3,0,0.4
		C32.5,42.7,32.5,42.7,32.5,42.7z"/>
</g>
</svg>
