<?xml version="1.0" encoding="utf-8"?>
<!-- Generator: Adobe Illustrator 23.0.2, SVG Export Plug-In . SVG Version: 6.00 Build 0)  -->
<svg version="1.1" xmlns="http://www.w3.org/2000/svg" xmlns:xlink="http://www.w3.org/1999/xlink" x="0px" y="0px"
	 viewBox="0 0 612 792" style="enable-background:new 0 0 612 792;" xml:space="preserve">
<style type="text/css">
	.st0{fill:#E0ECE1;}
	.st1{fill:#6FAC83;}
	.st2{fill:#577174;}
	.st3{fill:#68AA86;}
	.st4{fill:#6BAB89;}
	.st5{fill:#69AA87;}
	.st6{fill:#67A985;}
	.st7{fill:#66A985;}
	.st8{fill:#6BAC89;}
	.st9{fill:#747B91;}
	.st10{font-family:'Roboto-Regular';}
	.st11{font-size:12px;}
	.st12{fill:#09070A;}
	.st13{fill:#FFFFFF;}
	.st14{font-family:'MyriadPro-Regular';}
	.st15{fill:#6C6C6C;}
</style>
<g id="Capa_1">
	<g>
		<path class="st0" d="M612,177.5c0,155.8,0,311.5,0,467.3c-7.2-0.2-14.4-0.1-21.5-0.8c-8.7-0.8-16.9-3.6-23.3-9.9
			c-7.4-7.3-10.5-16.6-10.5-26.7c-0.1-109.7-0.1-219.4,0-329c0-11.6,4.7-21.4,15-27.7c3.5-2.2,5.7-4.1,6.4-8.9
			c1.5-11.3,7.6-20,17.9-25.3c2.7-1.4,3.2-3.3,3.2-6c-0.1-8.5-0.1-17,0-25.6c0-5.6,1.8-7.3,7.2-7.3
			C608.2,177.4,610.1,177.4,612,177.5z"/>
	</g>
	<g>
		<g>
			<g>
				<path class="st1" d="M31.9,716.9c0,19.8,0,39.6,0,59.4c-1.2,0-2.4,0-3.6-0.1c-1.4-0.1-2.8-0.5-3.9-1.3c-1.2-0.9-1.7-2.1-1.7-3.4
					c0-13.9,0-27.9,0-41.8c0-1.5,0.8-2.7,2.5-3.5c0.6-0.3,0.9-0.5,1.1-1.1c0.2-1.4,1.3-2.5,3-3.2c0.4-0.2,0.5-0.4,0.5-0.8
					c0-1.1,0-2.2,0-3.2c0-0.7,0.3-0.9,1.2-0.9C31.3,716.9,31.6,716.9,31.9,716.9z"/>
			</g>
			<g>
				<path class="st1" d="M31.9,716.9c0,19.8,0,39.6,0,59.4c1.2,0,2.4,0,3.6-0.1c1.4-0.1,2.8-0.5,3.9-1.3c1.2-0.9,1.7-2.1,1.7-3.4
					c0-13.9,0-27.9,0-41.8c0-1.5-0.8-2.7-2.5-3.5c-0.6-0.3-0.9-0.5-1.1-1.1c-0.2-1.4-1.3-2.5-3-3.2c-0.4-0.2-0.5-0.4-0.5-0.8
					c0-1.1,0-2.2,0-3.2c0-0.7-0.3-0.9-1.2-0.9C32.5,716.9,32.2,716.9,31.9,716.9z"/>
			</g>
		</g>
		<path class="st1" d="M578.6,727.4H34c-3.1,0-5.7,2.6-5.7,5.7v37.4c0,3.1,2.6,5.7,5.7,5.7h544.6c3.1,0,5.7-2.6,5.7-5.7v-37.4
			C584.3,730,581.7,727.4,578.6,727.4z"/>
	</g>
</g>
<g id="Capa_2">
	<g>
		<path class="st1" d="M136.8,65.4c0-4.9,0-9.9,0-14.8c0-0.6,0-1.1,0.3-1.7c0.3-0.6,0.6-1.1,1.2-1.4c0.3-0.1,0.6-0.2,0.9-0.2
			c1.2,0,2.5-0.1,3.7-0.1c0.4,0,0.9,0.1,1.3,0.1c0.5,0.1,1,0.4,1.3,0.8c1.4,1.9,2.9,3.9,4.3,5.8c1.4,2,2.9,3.9,4.4,5.8
			c0.8,1.1,1.6,2.2,2.4,3.3c0,0,0.1,0.1,0.1,0.1c0.2,0.2,0.4,0.4,0.7,0.4c0.3,0,0.6-0.2,0.7-0.5c0.1-0.2,0.2-0.5,0.2-0.7
			c0-4,0-8.1,0-12.1c0-0.8,0.2-1.6,0.8-2.2c0.4-0.5,1-0.8,1.8-0.8c1.2,0,2.5,0,3.8,0c0.6,0,1.1,0.1,1.7,0.3c0.9,0.3,1.3,0.9,1.5,1.7
			c0.1,0.4,0.2,0.8,0.2,1.2c0,10,0,20,0,30c0,0.5-0.1,1-0.3,1.5c-0.4,0.9-1.1,1.4-2,1.5c-0.9,0.2-1.9,0.2-2.8,0.1
			c-0.4,0-0.9-0.1-1.3,0c-0.3,0.1-0.6-0.1-0.8-0.3c-0.4-0.4-0.9-0.8-1.3-1.2c-0.9-0.9-1.7-1.8-2.5-2.8c-1.6-2.1-3.2-4.1-4.8-6.2
			c-1.2-1.6-2.5-3.3-3.8-4.9c-0.2-0.2-0.4-0.4-0.6-0.6c-0.3-0.2-0.6-0.2-1,0c-0.3,0.2-0.4,0.5-0.4,0.8c0,0.1,0,0.2,0,0.3
			c0,3.9,0,7.9,0,11.9c0,0.8-0.2,1.5-0.8,2.2c-0.5,0.6-1.2,0.9-2,0.8c-0.7,0-1.5,0.1-2.2,0.1c-0.7,0-1.4,0-2.1-0.1
			c-1.4-0.2-2.2-1-2.4-2.1c-0.1-0.4-0.1-0.8-0.1-1.2C136.8,75.3,136.8,70.3,136.8,65.4z"/>
		<path class="st2" d="M32.5,66c0-3.4,0.5-6.2,1.6-8.9c0.8-2,1.9-3.8,3.4-5.4c0.9-1,2-1.8,3.1-2.5c1.2-0.7,2.3-1.2,3.7-1.5
			c1.3-0.3,2.6-0.5,4-0.5c1,0,1.9,0,2.9,0.1c0.9,0,1.8,0.2,2.6,0.4c0.7,0.2,1.3,0.4,2,0.6c1.1,0.4,2,1,2.9,1.7
			c2.6,1.9,4.2,4.3,5.3,7c0.7,1.7,1.2,3.4,1.4,5.2c0.2,1.3,0.3,2.6,0.2,4c-0.1,2.8-0.7,5.6-1.9,8.2c-0.8,1.7-1.8,3.3-3.1,4.7
			c-1.2,1.3-2.6,2.3-4.3,3.1c-1.2,0.6-2.5,1-3.8,1.2c-1.1,0.2-2.2,0.2-3.4,0.2c-0.7,0-1.3,0-2,0c-1.1,0-2.2-0.2-3.2-0.6
			c-1.2-0.3-2.3-0.8-3.3-1.4c-1.1-0.6-2.1-1.4-3-2.3c-1.3-1.3-2.3-2.8-3.1-4.4c-0.9-1.8-1.5-3.8-1.9-5.8C32.6,68,32.5,66.8,32.5,66z
			 M55.7,65.6c0-1.2-0.2-2.4-0.6-3.6c-0.4-1.2-1-2.2-1.9-3.1c-0.8-0.7-1.7-1.2-2.8-1.4c-0.9-0.1-1.8-0.1-2.8,0.1
			c-0.7,0.1-1.3,0.4-2,0.8c-0.9,0.6-1.5,1.4-2,2.3c-0.9,1.5-1.2,3.2-1.2,4.9c0,0.9,0.1,1.8,0.3,2.7c0.3,1.4,0.9,2.7,1.9,3.8
			c1,1.1,2.2,1.7,3.8,1.8c0.4,0,0.8,0,1.2,0c1.2,0,2.1-0.4,3-1c0.9-0.6,1.4-1.4,1.9-2.3C55.4,68.9,55.7,67.3,55.7,65.6z"/>
		<path class="st1" d="M183.2,65.4c0-5.4,0-10.7,0-16c0-0.4,0.1-0.9,0.3-1.3c0.1-0.2,0.2-0.3,0.4-0.4c0.3-0.3,0.6-0.4,1.1-0.4
			c1.1,0,2.2,0,3.3,0c1,0,2,0,2.9,0c0.8,0,1.3,0.2,1.7,1c0.1,0.2,0.2,0.5,0.2,0.8c0,0.2,0,0.3,0,0.5c0,3.3,0,6.6,0,9.9
			c0,0.7,0.2,1.3,0.8,1.7c0.1,0.1,0.2,0.2,0.4,0.2c0.7,0.2,1.4,0.2,2.1-0.1c0.4-0.2,0.7-0.5,0.8-0.9c0.2-0.5,0.4-1,0.7-1.6
			c1-2.3,2-4.6,3-6.9c0.5-1.2,1.1-2.4,1.6-3.5c0.1-0.3,0.3-0.6,0.6-0.8c0.3-0.2,0.6-0.3,1-0.3c2.2,0,4.5,0,6.8,0
			c0.5,0,0.9,0.2,1.2,0.6c0.6,0.8,0.6,1.6,0.2,2.5c-0.6,1.2-1.2,2.4-1.8,3.6c-1.4,2.6-2.7,5.3-4.1,8c-0.5,1-1,2-1.5,2.9
			c-0.4,0.7-0.4,1.4-0.1,2.1c0.1,0.3,0.4,0.6,0.5,0.8c0.9,1.3,1.8,2.6,2.7,3.9c1.4,2.1,2.9,4.2,4.4,6.3c0.5,0.8,1.1,1.6,1.6,2.3
			c0.5,0.8,0.5,1.7,0,2.5c-0.3,0.5-0.8,0.8-1.5,0.8c-2.2,0-4.4,0-6.6,0c-0.1,0-0.2,0-0.3,0c-0.4,0.1-0.6-0.1-0.8-0.3
			c-0.4-0.5-0.9-0.9-1.2-1.5c-1.2-1.6-2.2-3.3-3.3-4.9c-1-1.7-2-3.3-3.1-5c-0.3-0.4-0.5-0.8-1-1.1c-0.7-0.5-1.8-0.4-2.4,0.2
			c-0.4,0.4-0.6,0.9-0.6,1.4c0,3,0,6,0,8.9c0,0.4-0.1,0.9-0.3,1.3c-0.4,0.6-0.9,0.9-1.7,0.9c-2,0-3.9,0-5.9,0c-1,0-1.6-0.4-1.9-1.2
			c-0.1-0.3-0.2-0.6-0.2-0.9c0-0.9,0-1.9,0-2.8C183.2,74.3,183.2,69.8,183.2,65.4z"/>
		<path class="st2" d="M71.9,47.2c1.2,0,2.4,0,3.6,0c0.4,0,0.6,0.1,0.9,0.3c0.7,0.6,1.2,1.2,1.6,1.9c1,1.5,2,3.1,3,4.7
			c0.3,0.5,0.6,0.9,1,1.4c0.4,0.4,0.9,0.4,1.2-0.1c0.6-0.9,1.3-1.8,1.9-2.8c0.7-1.2,1.3-2.3,2-3.5c0.2-0.4,0.5-0.7,0.8-1.1
			c0.4-0.6,1.1-0.8,1.9-0.9c1.1-0.1,2.2-0.1,3.3-0.1c1.2,0,2.4,0.1,3.7,0c1.3-0.1,1.8,0.7,2,1.5c0.2,0.6,0,1.2-0.4,1.8
			c-1.2,1.8-2.3,3.5-3.4,5.3c-1.5,2.3-2.9,4.6-4.4,6.8c-0.3,0.4-0.5,0.8-0.8,1.2c-0.5,0.8-0.5,1.6,0,2.4c0.9,1.4,1.8,2.7,2.7,4.1
			c2,3.1,4,6.2,6,9.2c0.2,0.3,0.4,0.6,0.6,1c0.4,0.8,0.4,1.6-0.2,2.4c-0.3,0.4-0.8,0.6-1.3,0.6c-1.3,0-2.7,0.1-4,0.1
			c-0.6,0-1.3,0-1.9,0c-0.5,0-1-0.1-1.4-0.2c-0.7-0.1-1.3-0.5-1.7-1c-0.4-0.7-0.9-1.3-1.3-2c-1.2-2.1-2.5-4.1-3.9-6.1
			c-0.1-0.1-0.2-0.2-0.3-0.3c-0.3-0.2-0.6-0.2-0.8,0c-0.2,0.2-0.4,0.4-0.5,0.6c-0.6,1-1.3,2.1-1.9,3.2c-0.9,1.5-1.7,3-2.8,4.4
			c-0.2,0.3-0.5,0.6-0.8,0.9c-0.4,0.4-0.7,0.6-1.3,0.6c-1.9-0.1-3.7,0-5.6,0c-0.4,0-0.9,0-1.3,0c-1.2,0.1-1.8-0.6-2-1.4
			c-0.2-0.6,0-1.2,0.3-1.7c1.7-2.8,3.5-5.5,5.3-8.1c1-1.4,2-2.8,3-4.3c0.3-0.4,0.5-0.8,0.7-1.3c0.5-1,0.5-2.1,0.1-3.1
			c-0.4-0.9-0.9-1.8-1.5-2.6c-1.4-2.2-2.9-4.3-4.4-6.4c-1-1.4-1.9-2.9-2.8-4.3c-0.5-0.7-0.4-1.5,0-2.3c0.3-0.5,0.8-0.8,1.5-0.8
			C69.5,47.2,70.7,47.2,71.9,47.2z"/>
		<path class="st1" d="M172.3,47.3c0.1-0.4,0.1-0.7,0.2-1c0.3-0.8,0.8-1.4,1.6-1.8c0.2-0.1,0.2-0.2,0.2-0.3c0-0.8,0-1.6,0-2.4
			c0-0.1,0-0.2,0-0.3c0.1-0.4,0.3-0.6,0.7-0.6c0.3,0,0.6,0,0.9,0c0.6,0,0.8,0.2,0.8,0.8c0,0.8,0,1.6,0,2.4c0,0.2,0.1,0.3,0.3,0.4
			c0.9,0.5,1.4,1.2,1.6,2.1c0.1,0.2,0.1,0.4,0.1,0.7c0.3,0.2,0.6,0.4,0.9,0.6c0.6,0.5,0.9,1.1,1,1.8c0.1,0.3,0.1,0.7,0.1,1
			c0,9.8,0,19.5,0,29.3c0,0.9-0.2,1.8-0.8,2.5c-0.5,0.7-1.3,1.1-2.3,1.2c-1.1,0-2.1,0.1-3.2,0.1c-0.8,0-1.6-0.1-2.3-0.4
			c-0.7-0.3-1.2-0.8-1.4-1.4c-0.3-0.6-0.4-1.2-0.4-1.8c0-4.3,0-8.5,0-12.8c0-5.6,0-11.3,0-16.9c0-0.8,0.3-1.6,0.9-2.2
			C171.6,47.7,171.9,47.5,172.3,47.3z"/>
		<path class="st2" d="M104,47.3c0-0.7,0.2-1.3,0.6-1.9c0.3-0.4,0.7-0.7,1.2-1c0.2-0.1,0.3-0.2,0.3-0.4c0-0.8,0-1.6,0-2.4
			c0-0.1,0-0.2,0-0.3c0.1-0.3,0.3-0.5,0.7-0.5c0.3,0,0.6,0,1,0c0.5,0,0.8,0.2,0.8,0.7c0,0.8,0,1.6,0,2.4c0,0.1,0,0.2,0,0.3
			c1.3,0.7,2,1.7,2,3c0.6,0.2,1.1,0.6,1.4,1c0.4,0.6,0.6,1.1,0.6,1.8c0,0.1,0,0.1,0,0.2c0,9.9,0,19.8,0,29.7c0,0.9-0.2,1.7-0.8,2.4
			c-0.6,0.8-1.5,1.2-2.6,1.2c-1,0-1.9,0.1-2.9,0c-0.7,0-1.4-0.1-2.1-0.4c-0.7-0.3-1.2-0.8-1.5-1.4c-0.3-0.6-0.4-1.1-0.4-1.7
			c0-0.1,0-0.1,0-0.2c0-9.8,0-19.7,0-29.6c0-0.4,0.1-0.9,0.2-1.3C102.6,48.3,103.1,47.7,104,47.3z"/>
		<path class="st2" d="M132.9,62.1c-0.1,1.5-0.4,2.9-1.2,4.2c-0.7,1.2-1.7,2.1-3,2.8c-1,0.5-2,0.8-3.2,1c-1.1,0.1-2.2,0.1-3.3-0.2
			c-1.4-0.3-2.6-0.9-3.6-1.8c-1.6-1.4-2.3-3.1-2.5-5c-0.2-1.6,0-3.1,0.7-4.6c0.7-1.5,1.8-2.7,3.4-3.5c0.9-0.5,1.9-0.7,2.9-0.9
			c1.2-0.2,2.4-0.1,3.6,0.2c1.5,0.4,2.8,1.1,3.8,2.1c1.2,1.2,1.8,2.5,2.1,4C132.8,61.1,132.9,61.6,132.9,62.1z"/>
		<path class="st3" d="M107.5,87.8c0,0.1,0,0.2,0,0.4c-0.4-0.1-0.7-0.2-1-0.3c-0.9-0.2-1.9-0.3-2.7,0.2c-0.5,0.3-0.9,0.7-1.1,1.2
			c-0.4,0.9-0.3,1.8,0.2,2.6c0.5,0.8,1.3,1.2,2.4,1.2c0.6,0.1,1.2-0.1,1.9-0.3c0.1,0,0.3-0.1,0.3-0.2c0-0.7,0-1.3,0-2
			c-0.7,0-1.4,0-2.2,0c0-0.1,0-0.2,0-0.4c0.9,0,1.7,0,2.6,0c0,0.1,0,0.2,0,0.2c0,0.7,0,1.5,0,2.3c0,0.2-0.1,0.3-0.3,0.4
			c-0.7,0.2-1.4,0.4-2.2,0.4c-1.3,0-2.2-0.5-2.9-1.5c-0.7-1.2-0.7-2.4,0.1-3.6c0.5-0.7,1.2-1.1,2.1-1.2
			C105.7,87.3,106.6,87.5,107.5,87.8z"/>
		<path class="st4" d="M206.4,87.5c0,0.1,0,0.2,0,0.4c-1.3,0-2.6,0-3.9,0c0,0.8,0,1.5,0,2.3c1.2,0,2.3,0,3.4,0c0,0.2,0,0.3,0,0.4
			c-1.1,0-2.2,0-3.3,0c-0.1,0.3-0.1,2,0,2.5c1.3,0,2.6,0,4,0c0,0.2,0,0.3,0,0.4c-0.3,0.1-4.1,0.1-4.5,0c0-2,0-4,0-6
			C202.3,87.5,205.8,87.4,206.4,87.5z"/>
		<path class="st4" d="M145,87.9c0,0.8,0,1.5,0,2.3c1.2,0,2.2,0,3.4,0c0,0.2,0,0.3,0,0.4c-1.1,0-2.2,0-3.3,0c-0.1,0.3-0.1,2.1,0,2.5
			c1.3,0,2.6,0,3.9,0c0,0.2,0,0.3,0,0.4c-1.5,0-3,0-4.5,0c0-2,0-4,0-6.1c1.4,0,2.9,0,4.3,0c0,0.1,0,0.2,0,0.4
			C147.6,87.9,146.3,87.8,145,87.9z"/>
		<path class="st5" d="M125.9,87.5c1.4,0,2.9,0,4.3,0c0,0.1,0,0.1,0,0.2c0,0.1,0,0.1,0,0.2c-1.3,0-2.5,0-3.9,0c0,0.8,0,1.5,0,2.3
			c1.2,0,2.3,0,3.4,0c0,0.2,0,0.3,0,0.4c-1.1,0-2.2,0-3.4,0c0,0.9,0,1.7,0,2.5c1.3,0,2.7,0,4,0c0,0.1,0,0.2,0,0.3
			c-0.3,0.1-3.8,0.1-4.4,0C125.9,91.5,125.9,89.5,125.9,87.5z"/>
		<path class="st5" d="M167.2,87.5c1.4,0,2.9,0,4.3,0c0,0.1,0,0.2,0,0.4c-1.3,0-2.6,0-3.8,0c-0.1,0.2-0.1,1.7-0.1,2.3
			c1.1,0.1,2.2,0,3.4,0c0,0.1,0,0.3,0,0.4c-1.1,0-2.2,0-3.4,0c0,0.9,0,1.7,0,2.5c1.3,0,2.6,0,3.9,0c0,0.1,0,0.2,0,0.4
			c-1.5,0-2.9,0-4.4,0C167.1,93.3,167.1,87.9,167.2,87.5z"/>
		<path class="st6" d="M116.2,93.5c-0.2,0-0.3,0-0.4,0c-0.2-0.4-0.4-0.7-0.5-1.1c-0.2-0.4-0.2-0.4-0.6-0.4c-0.9,0-1.9,0-2.8,0
			c-0.4,0-0.4,0-0.5,0.3c-0.2,0.4-0.4,0.8-0.5,1.2c-0.2,0-0.3,0-0.4,0c0-0.1,0-0.2,0.1-0.2c0.8-1.8,1.6-3.6,2.4-5.5
			c0.2-0.4,0.2-0.4,0.7-0.3C114.4,89.5,115.3,91.5,116.2,93.5z M111.6,91.6c1.1,0,2.1,0,3.2,0c-0.5-1.2-1.1-2.4-1.6-3.6
			C112.6,89.2,112.1,90.4,111.6,91.6z"/>
		<path class="st6" d="M192,93.5c-0.2,0-0.3,0-0.4,0c-0.2-0.5-0.4-1-0.7-1.5c-1.2,0-2.4,0-3.6,0c-0.2,0.5-0.4,1-0.7,1.5
			c-0.2,0-0.3,0-0.5,0c0.3-0.7,0.6-1.3,0.9-1.9c0.5-1.2,1.1-2.5,1.6-3.8c0.2-0.4,0.2-0.4,0.7-0.4C190.2,89.5,191.1,91.5,192,93.5z
			 M189.1,88C189.1,88,189.1,88,189.1,88c-0.6,1.2-1.2,2.3-1.7,3.6c1.1,0,2.1,0,3.2,0C190.2,90.4,189.6,89.2,189.1,88z"/>
		<path class="st7" d="M159.6,91.6c0,0.7,0,1.3,0,2c-0.2,0-0.3,0-0.4,0c0-2,0-4,0-6c0.9,0,1.7-0.1,2.6,0c0.4,0,0.8,0.1,1.2,0.2
			c0.5,0.2,0.8,0.6,0.9,1c0.1,0.5,0.2,0.9,0,1.4c-0.2,0.6-0.5,1-1.2,1.2c-0.8,0.2-1.5,0.2-2.3,0.2C160.2,91.6,160,91.6,159.6,91.6z
			 M159.7,91.2c0.9,0,1.8,0.1,2.6-0.1c0.5-0.1,0.9-0.3,1.1-0.7c0.3-0.6,0.3-1.2,0-1.7c-0.1-0.1-0.1-0.2-0.2-0.2
			c-0.4-0.4-0.9-0.5-1.4-0.5c-0.6,0-1.3,0-2,0c0,0-0.1,0-0.1,0.1C159.7,89,159.7,90.1,159.7,91.2z"/>
		<path class="st7" d="M213.1,88.1c-0.1,0-0.2-0.1-0.3-0.1c-0.6-0.2-1.2-0.2-1.8-0.1c-0.4,0.1-0.7,0.2-1,0.5c-0.4,0.4-0.4,0.8,0,1.2
			c0.3,0.3,0.7,0.4,1.1,0.6c0.5,0.2,1,0.4,1.5,0.6c0.4,0.2,0.6,0.4,0.8,0.8c0.4,0.8-0.2,1.5-0.8,1.8c-0.9,0.5-1.9,0.4-2.8,0.1
			c-0.2-0.1-0.4-0.1-0.5-0.2c0-0.1,0-0.3,0-0.4c0.1,0,0.2,0.1,0.2,0.1c0.7,0.2,1.4,0.4,2.1,0.3c0.3-0.1,0.6-0.1,0.8-0.3
			c0.8-0.5,0.7-1.5-0.2-1.8c-0.5-0.2-1-0.4-1.4-0.6c-0.4-0.1-0.8-0.3-1.2-0.6c-0.7-0.6-0.8-1.5,0.2-2.1c0.6-0.4,1.3-0.5,2.1-0.4
			c0.3,0,0.5,0.1,0.8,0.2C213.2,87.7,213.2,87.7,213.1,88.1z"/>
		<path class="st7" d="M133.2,93.2c0-0.1,0-0.2,0-0.4c0.4,0.1,0.8,0.2,1.2,0.3c0.5,0.1,1.1,0.1,1.6,0c0.8-0.2,1-0.8,0.9-1.4
			c-0.1-0.3-0.4-0.6-0.7-0.7c-0.4-0.2-0.9-0.4-1.4-0.5c-0.4-0.1-0.8-0.4-1.2-0.6c-0.7-0.6-0.6-1.5,0.2-2.1c1-0.6,2-0.6,3-0.2
			c0.2,0.1,0.2,0.1,0.1,0.5c-0.3-0.1-0.6-0.2-0.9-0.2c-0.7-0.1-1.3-0.1-1.9,0.2c-0.2,0.1-0.4,0.2-0.5,0.4c-0.3,0.4-0.2,0.8,0.2,1.1
			c0.3,0.2,0.6,0.4,1,0.5c0.4,0.1,0.8,0.2,1.2,0.4c0.4,0.2,0.9,0.4,1.2,0.8c0.5,0.6,0.3,1.4-0.3,1.8c-0.7,0.6-1.5,0.7-2.3,0.6
			C134.1,93.6,133.6,93.5,133.2,93.2z"/>
		<path class="st7" d="M118.5,93.2c0-0.1,0-0.3,0-0.4c0.1,0,0.1,0,0.2,0c0.5,0.2,1,0.3,1.6,0.4c0.6,0.1,1.1,0,1.6-0.4
			c0.7-0.6,0.6-1.4-0.3-1.8c-0.5-0.2-1-0.4-1.6-0.6c-0.4-0.1-0.8-0.4-1.2-0.7c-0.6-0.6-0.5-1.5,0.3-2c1-0.6,2-0.6,3-0.2
			c0.2,0.1,0.2,0.1,0.1,0.5c-0.1,0-0.3-0.1-0.4-0.1c-0.8-0.3-1.6-0.3-2.4,0.1c-0.2,0.1-0.4,0.2-0.5,0.4c-0.4,0.4-0.2,1,0.4,1.4
			c0.3,0.1,0.6,0.2,0.9,0.4c0.5,0.2,1,0.3,1.4,0.6c0.5,0.3,0.9,0.7,1,1.2c0.1,0.6-0.3,1-0.9,1.4c-0.8,0.5-1.8,0.5-2.7,0.2
			C118.9,93.4,118.7,93.4,118.5,93.2z"/>
		<path class="st7" d="M151.8,93.2c0-0.1,0-0.2,0-0.4c0.1,0,0.1,0,0.2,0c0.5,0.2,1,0.3,1.6,0.4c0.5,0.1,1-0.1,1.4-0.3
			c0.7-0.4,1-1.5-0.1-1.9c-0.5-0.2-1-0.4-1.6-0.6c-0.4-0.1-0.8-0.4-1.2-0.7c-0.6-0.6-0.5-1.5,0.3-2c1-0.6,2-0.6,3-0.2
			c0.2,0.1,0.2,0.1,0.1,0.5c-0.1,0-0.3-0.1-0.4-0.1c-0.8-0.3-1.7-0.3-2.4,0.2c-0.3,0.2-0.5,0.4-0.6,0.7c0,0.5,0.3,0.8,0.7,1
			c0.5,0.2,1,0.4,1.5,0.6c0.5,0.2,1,0.4,1.4,0.9c0.4,0.5,0.4,1.1,0,1.6c-0.4,0.5-1,0.7-1.6,0.8C153.3,93.7,152.6,93.7,151.8,93.2z"
			/>
		<path class="st7" d="M179.6,87.8c0,0.1,0,0.2,0,0.4c-0.3,0-0.5-0.1-0.8-0.2c-0.5-0.1-1-0.2-1.5-0.1c-1,0.1-1.7,0.6-2.1,1.4
			c-0.6,1.1-0.3,2.5,0.6,3.3c0.8,0.7,1.8,0.9,2.8,0.7c0.4-0.1,0.7-0.2,1.1-0.3c0,0.1,0,0.2,0.1,0.4c-0.8,0.3-1.6,0.5-2.5,0.4
			c-1.2-0.1-2-0.7-2.5-1.7c-0.4-0.9-0.4-1.8-0.1-2.7c0.5-1.3,1.8-1.9,3.4-1.8c0.4,0,0.8,0.1,1.2,0.2
			C179.3,87.6,179.5,87.7,179.6,87.8z"/>
		<path class="st5" d="M195.3,93.1c1.3,0,2.5,0,3.8,0c0,0.1,0,0.3,0,0.4c-0.4,0.1-4,0.1-4.3,0c0-2,0-4,0-6c0.1,0,0.3,0,0.4,0
			C195.3,89.4,195.3,91.2,195.3,93.1z"/>
		<path class="st8" d="M182.9,87.5c0.1,0,0.3,0,0.4,0c0.1,0.2,0.1,5.5,0,6.1c-0.1,0-0.2,0-0.4,0C182.9,93.3,182.8,88.2,182.9,87.5z"
			/>
	</g>
	<text transform="matrix(1 0 0 1 435.3905 67.0798)" class="st9 st10 st11">sge.oxinik@gmail.com</text>
	<g>
		<path class="st1" d="M431.1,64.5c0,0.1,0,0.2,0,0.2c0,0,0,0,0,0c0,0,0,0,0,0c0,0.2-0.1,0.4-0.1,0.5c-0.3,1.6-1,3-2.1,4.2
			c-1.4,1.5-3.1,2.4-5.2,2.7c0,0-0.1,0-0.1,0.1c-0.1,0-0.2,0-0.2,0c0,0,0,0-0.1,0c-0.4,0-0.8,0-1.2,0c0,0,0,0,0,0c0,0,0,0,0,0
			c-0.1,0-0.2,0-0.2,0c0,0,0,0,0,0c0,0,0,0,0,0c-0.2,0-0.4-0.1-0.5-0.1c-1.6-0.3-3-1-4.2-2.1c-1.5-1.4-2.4-3.1-2.7-5.2
			c0,0,0-0.1-0.1-0.1c0-0.1,0-0.2,0-0.2c0,0,0,0,0,0c0,0,0,0,0,0c0-0.4,0-0.8,0-1.2c0,0,0,0,0,0c0,0,0,0,0,0c0-0.1,0-0.2,0-0.2
			c0,0,0,0,0,0c0,0,0,0,0,0c0-0.2,0.1-0.4,0.1-0.5c0.3-1.6,0.9-3,2-4.2c1.4-1.5,3.2-2.4,5.2-2.7c0,0,0.1,0,0.1-0.1
			c0.1,0,0.2,0,0.2,0c0,0,0,0,0.1,0c0.4,0,0.8,0,1.2,0c0,0,0,0,0.1,0c0.1,0,0.2,0,0.2,0c0,0,0,0,0,0c0,0,0,0,0,0
			c0.2,0,0.4,0.1,0.5,0.1c1.6,0.3,3,1,4.2,2.1c1.5,1.4,2.4,3.1,2.7,5.2c0,0,0,0.1,0.1,0.1c0,0.1,0,0.2,0,0.2c0,0,0,0,0,0.1
			C431.1,63.6,431.1,64,431.1,64.5C431.1,64.4,431.1,64.5,431.1,64.5C431.1,64.5,431.1,64.5,431.1,64.5z M417.5,61.1
			c0,0.1,0,0.1,0,0.2c0,1.7,0,3.4,0,5.1c0,0.4,0.2,0.6,0.6,0.6c3.1,0,6.1,0,9.2,0c0.4,0,0.6-0.2,0.6-0.6c0-1.7,0-3.4,0-5.1
			c0-0.1,0-0.1,0-0.2c-0.1,0.1-0.1,0.1-0.2,0.1c-1.5,1.3-3.1,2.6-4.6,4c-0.3,0.2-0.5,0.3-0.8,0c-1.2-1-2.4-2.1-3.6-3.1
			C418.3,61.9,417.9,61.5,417.5,61.1z M427.7,60.7C427.7,60.6,427.7,60.6,427.7,60.7c-0.1-0.1-0.2-0.1-0.3-0.1c-1.3,0-2.6,0-3.9,0
			c-1.8,0-3.6,0-5.3,0c-0.1,0-0.2,0-0.3,0.1c0,0,0,0,0,0.1c1.7,1.4,3.3,2.8,5,4.2C424.4,63.5,426,62.1,427.7,60.7z"/>
		<path class="st12" d="M422.1,55.5C422.1,55.5,422.1,55.5,422.1,55.5C422.1,55.5,422.1,55.5,422.1,55.5z"/>
		<path class="st12" d="M423.4,55.5C423.4,55.5,423.3,55.5,423.4,55.5C423.3,55.5,423.4,55.5,423.4,55.5z"/>
		<path class="st12" d="M431.1,63.2C431.1,63.2,431.1,63.2,431.1,63.2C431.1,63.2,431.1,63.2,431.1,63.2z"/>
		<path class="st12" d="M423.3,72.2C423.3,72.2,423.4,72.2,423.3,72.2C423.4,72.2,423.3,72.2,423.3,72.2z"/>
		<path class="st12" d="M414.4,63.2C414.4,63.2,414.4,63.2,414.4,63.2C414.4,63.2,414.4,63.2,414.4,63.2
			C414.4,63.2,414.4,63.2,414.4,63.2z"/>
		<path class="st12" d="M414.4,64.4C414.4,64.4,414.4,64.5,414.4,64.4C414.4,64.5,414.4,64.5,414.4,64.4
			C414.4,64.5,414.4,64.4,414.4,64.4z"/>
		<path class="st12" d="M431.1,64.5C431.1,64.5,431.1,64.5,431.1,64.5C431.1,64.5,431.1,64.4,431.1,64.5
			C431.1,64.4,431.1,64.5,431.1,64.5z"/>
		<path class="st12" d="M422.1,72.2C422.1,72.2,422.1,72.2,422.1,72.2C422.1,72.2,422.1,72.2,422.1,72.2
			C422.1,72.2,422.1,72.2,422.1,72.2z"/>
		<path class="st13" d="M417.5,61.1c0.4,0.4,0.8,0.7,1.2,1c1.2,1,2.4,2.1,3.6,3.1c0.3,0.2,0.5,0.2,0.8,0c1.5-1.3,3.1-2.6,4.6-4
			c0.1,0,0.1-0.1,0.2-0.1c0,0.1,0,0.1,0,0.2c0,1.7,0,3.4,0,5.1c0,0.4-0.2,0.6-0.6,0.6c-3.1,0-6.1,0-9.2,0c-0.4,0-0.6-0.2-0.6-0.6
			c0-1.7,0-3.4,0-5.1C417.5,61.3,417.5,61.2,417.5,61.1z"/>
		<path class="st13" d="M427.7,60.7c-1.6,1.4-3.3,2.8-5,4.2c-1.7-1.4-3.3-2.8-5-4.2c0,0,0,0,0-0.1c0.1,0,0.2-0.1,0.3-0.1
			c1.8,0,3.6,0,5.3,0c1.3,0,2.6,0,3.9,0C427.5,60.6,427.6,60.6,427.7,60.7C427.7,60.6,427.7,60.6,427.7,60.7z"/>
	</g>
	<text transform="matrix(1 0 0 1 63.4446 746.5725)" class="st13 st14 st11">Calle Ignacio Zaragoza 213ª, Col. Fernando Gómez Sandoval, Santa Lucia del Camino, Oaxaca.</text>
	<text transform="matrix(1 0 0 1 63.4446 765.0002)" class="st13 st14 st11">951 240 06 67  /  951 195 02 00</text>
	<g>
		<path class="st15" d="M59.3,749.2c-2.2,0-4.3,0-6.5,0c0,0-0.1,0-0.1,0c-1.4-0.2-2.4-1.4-2.4-2.7c0-2,0-3.9,0-5.9
			c0-1.2,0.8-2.3,2-2.6c0.2-0.1,0.4-0.1,0.5-0.1c2.2,0,4.3,0,6.5,0c0,0,0.1,0,0.1,0c0.8,0.1,1.4,0.5,1.9,1.1
			c0.3,0.4,0.5,0.9,0.6,1.4c0,2.1,0,4.2,0,6.3c0,0,0,0.1,0,0.1c-0.1,0.8-0.5,1.5-1.2,1.9C60.3,748.9,59.8,749,59.3,749.2z
			 M56.1,747.4c0.1-0.2,0.2-0.3,0.2-0.4c0.4-0.6,0.7-1.2,1.1-1.8c0.4-0.6,0.8-1.3,1.2-1.9c0.2-0.4,0.4-0.9,0.3-1.4
			c-0.3-1.5-1.5-2.5-3.2-2.3c-1.7,0.2-2.8,2-2.1,3.5c0.3,0.6,0.6,1.1,1,1.7C55,745.6,55.5,746.5,56.1,747.4z"/>
		<path class="st13" d="M56.1,747.4c-0.6-0.9-1.1-1.7-1.6-2.6c-0.3-0.6-0.7-1.1-1-1.7c-0.7-1.6,0.4-3.3,2.1-3.5
			c1.7-0.2,2.8,0.8,3.2,2.3c0.1,0.5,0,1-0.3,1.4c-0.4,0.7-0.8,1.3-1.2,1.9c-0.4,0.6-0.7,1.2-1.1,1.8
			C56.2,747.1,56.2,747.2,56.1,747.4z M55.1,742.1c0,0.6,0.4,1,1,1c0.6,0,1-0.4,1-1c0-0.5-0.4-1-1-1
			C55.5,741.1,55.1,741.5,55.1,742.1z"/>
		<path class="st15" d="M55.1,742.1c0-0.6,0.4-1,1-1c0.6,0,1,0.4,1,1c0,0.5-0.4,1-1,1C55.5,743.1,55.1,742.7,55.1,742.1z"/>
	</g>
	<g>
		<path class="st15" d="M59.4,766.8h-5.5c-1.6,0-2.8-1.3-2.8-2.8v-5.5c0-1.6,1.3-2.8,2.8-2.8h5.5c1.6,0,2.8,1.3,2.8,2.8v5.5
			C62.2,765.5,60.9,766.8,59.4,766.8z"/>
		<path class="st13" d="M57.6,762.4c0.8,0.5,1.6,0.9,2.3,1.4c-0.4,0.4-0.7,0.9-1.2,0.9c-0.3,0-0.6,0-0.8-0.1c-1.4-0.7-2.6-1.7-3.6-3
			c-0.5-0.6-0.9-1.2-1.2-1.9c-0.4-0.7-0.3-1.2,0.3-1.7c0.1-0.1,0.2-0.2,0.3-0.3c0.5,0.7,0.9,1.4,1.4,2.1c-0.1,0.1-0.3,0.2-0.4,0.4
			c-0.2,0.2-0.2,0.3,0,0.5c0.7,0.7,1.4,1.4,2.1,2.1c0.2,0.2,0.3,0.2,0.5,0C57.4,762.7,57.5,762.6,57.6,762.4z"/>
		<path class="st13" d="M57.8,762.3c0.2-0.2,0.4-0.1,0.5-0.1c0.5,0.3,1,0.6,1.5,0.9c0.2,0.1,0.3,0.3,0.2,0.5
			C59.3,763.2,58.6,762.8,57.8,762.3z"/>
		<path class="st13" d="M55.2,759.6c-0.4-0.7-0.9-1.3-1.3-2c0.2-0.1,0.3,0,0.4,0.1c0.3,0.5,0.7,1,1,1.5c0.1,0.1,0,0.3,0,0.4
			C55.3,759.6,55.3,759.6,55.2,759.6z"/>
	</g>
</g>
</svg>
