<?xml version="1.0" encoding="utf-8"?>
<!-- Generator: Adobe Illustrator 23.0.2, SVG Export Plug-In . SVG Version: 6.00 Build 0)  -->
<svg version="1.1" id="Capa_1" xmlns="http://www.w3.org/2000/svg" xmlns:xlink="http://www.w3.org/1999/xlink" x="0px" y="0px"
	 viewBox="0 0 529.1 530.8" style="enable-background:new 0 0 529.1 530.8;" xml:space="preserve">
<style type="text/css">
	.st0{fill:#BA3535;}
	.st1{fill:#FC8694;}
	.st2{fill:#E8A22E;}
	.st3{fill:#FEC61E;}
	.st4{fill:#CFD0D2;}
	.st5{fill:#A7A9AA;}
	.st6{fill:#FEFDFD;}
	.st7{fill:#AAABAD;}
	.st8{fill:#46739D;}
	.st9{fill:#44719B;}
	.st10{fill:#436F9A;}
	.st11{fill:#FA3755;}
	.st12{fill:#FBFCFC;}
	.st13{fill:#F7F9FA;}
	.st14{fill:#FAF6F6;}
	.st15{fill:#FCF8F9;}
</style>
<g>
	<path class="st0" d="M465.3,65.1c0.6,6.6,1.9,13.1,1.9,19.7c0.1,139.1,0.1,278.2,0.1,417.2c0,18.1-6.9,25.1-25,25.1
		c-53.5,0.1-107,0-160.5,0c-2.2,0-4.4-0.3-6.6-0.4c0-7.6,0-15.2-0.1-22.7c3.3-0.2,6.7-0.4,10-0.4c49.6,0,99.3,0,148.9,0
		c3,0,6,0,9.4,0c0.2-3.1,0.4-5.2,0.4-7.4c0-112.4,0-224.7,0-337.1c0-2.6-0.9-5.2-1.4-7.8c-23.9-23.8-47.8-47.6-71.8-71.3
		c-5.1-0.5-10.2-1-15.3-1.4c0-5.8-0.4-11.6,0.1-17.4c0.3-3.2,2.2-6.3,3.3-9.4c3.6,1,7.1,2.9,10.7,3c24.1,0.3,48.2,0.4,72.3,0
		C451.4,54.6,459.6,56.7,465.3,65.1z"/>
	<path class="st1" d="M275.1,504c0,7.6,0,15.2,0.1,22.7c-56.2,0.1-112.5,0.2-168.7,0.1c-3.5,0-7-1.4-10.5-2.2
		c-7.6-5.6-9.9-13.3-9.9-22.4c0.1-141,0-282,0.1-422.9c0-17,7.3-24.3,24.2-24.3c29.2-0.1,58.5,0,87.7,0c0,7.8,0,15.6,0,23.3
		c-29.4,0-58.7,0-88,0c0,142.6,0,283.4,0,424.5c1.6,0.3,2.6,0.7,3.7,0.7c53.8-0.1,107.5-0.2,161.3-0.2L275.1,504z"/>
	<path class="st2" d="M358.6,51.7c-1.2,3.1-3,6.2-3.3,9.4c-0.5,5.7-0.1,11.6-0.1,17.4c-0.1,7.4,0.1,14.9-0.2,22.3
		c-0.3,8.9-4.5,14-11.8,14c-22.7,0-45.5-0.2-68.2-0.4c0-21.9-0.1-43.7-0.1-65.6c1.4-0.1,2.8-0.1,4.1-0.5c6-1.9,9.6-6.2,8.9-12.2
		c-0.6-6-4.6-9.8-11.4-9.5c-1.7,0.1-3.3,0.1-5,0.1c1.1-2.5,3-5,3.3-7.6c0.5-5.1,0.1-10.2,0.1-15.3c15.2-1.6,25,6.4,32.7,18.1
		c2.9,7.3,1.6,19.1,15.7,14.8c3.1,0.1,6.2,0.6,9.2,0.1C345.4,34.6,353.7,40.1,358.6,51.7z"/>
	<path class="st3" d="M274.8,3.8c0,5.1,0.4,10.3-0.1,15.3c-0.3,2.6-2.1,5.1-3.3,7.6c-10,8.7-8.8,17.1,3.3,22.1
		c0,21.9,0.1,43.7,0.1,65.6l0,0.7c-19.9-0.1-39.9-0.2-59.8-0.3c-13.1-0.1-16.5-3.5-16.6-16.8c-0.1-6.6-0.3-13.2-0.5-19.8
		c0-7.8,0-15.6,0-23.3c1.2-15.1,4.3-17.9,19.8-17.9c8,0,16,0,23.8,0C247.5,14.1,256.9,5,274.8,3.8z"/>
	<path class="st4" d="M274.9,114.4c22.7,0.2,45.5,0.4,68.2,0.4c7.3,0,11.5-5.2,11.8-14c0.3-7.4,0.2-14.9,0.2-22.3
		c5.1,0.5,10.2,1,15.3,1.4c-0.6,0.9-1.7,1.8-1.7,2.7c-0.1,21.5-0.3,42.9,0.1,64.4c0,1.5,3.9,4.3,5.9,4.3c22.5,0.2,44.9,0,67.4-0.1
		c0.5,2.6,1.4,5.2,1.4,7.8c0.1,112.4,0.1,224.7,0,337.1c0,2.1-0.2,4.3-0.4,7.4c-3.4,0-6.4,0-9.4,0c-49.6,0-99.3,0-148.9,0
		c-3.3,0-6.7,0.3-10,0.4c0,0-0.1-0.8-0.1-0.8c0-39.2-0.1-78.4-0.1-117.5c29.2,0,58.4,0,87.7-0.1c1.9,0,4,0.3,5.8-0.2
		c1.3-0.4,2.3-1.8,3.4-2.8c-1.2-1.2-2.1-3-3.5-3.4c-2.1-0.6-4.4-0.2-6.6-0.2c-28.9-0.1-57.9-0.1-86.8-0.2c0-7.6,0-15.2-0.1-22.7
		c44.6-0.1,89.1-0.2,133.7-0.2c2.2,0,4.6,0.4,6.6-0.2c1.4-0.4,2.4-2.2,3.6-3.4c-1.1-1-2.1-2.6-3.3-2.9c-2.1-0.5-4.4-0.2-6.7-0.2
		c-44.6,0-89.1,0-133.7,0c0-19.4-0.1-38.7-0.1-58.1c13.9,0,27.8,0.1,41.7-0.2c2.3,0,4.5-1.8,6.7-2.8c-2.2-1.2-4.5-3.5-6.7-3.6
		c-13.9-0.4-27.8-0.2-41.7-0.3c-0.1-7.6-0.1-15.2-0.2-22.7c29.5-0.1,59-0.1,88.4-0.5c2.9,0,5.8-2.2,8.7-3.4c-2.7-1-5.5-3-8.2-3
		c-29.5-0.2-59-0.1-88.5-0.1c-0.1-19.4-0.2-38.7-0.3-58.1c29.8-0.1,59.5,0,89.3-0.3c2.6,0,5.1-2.3,7.7-3.5c-2.5-1-5-2.8-7.5-2.9
		c-29.8-0.2-59.5-0.2-89.3-0.2c0.1-7.3,0.2-14.5,0.4-21.8c13.9,0,27.8,0.3,41.6,0c2.2-0.1,4.3-2.6,6.5-3.9c-2.2-1.3-4.4-3.8-6.6-3.8
		c-13.9-0.3-27.8-0.1-41.6-0.1c-0.1-14.9-0.1-29.9-0.2-44.8L274.9,114.4z"/>
	<path class="st5" d="M442.3,151.2c-22.5,0.1-44.9,0.3-67.4,0.1c-2.1,0-5.9-2.8-5.9-4.3c-0.4-21.5-0.2-42.9-0.1-64.4
		c0-0.9,1.1-1.8,1.7-2.7C394.4,103.7,418.3,127.5,442.3,151.2z"/>
	<path class="st6" d="M274.9,115.1c0.1,14.9,0.1,29.9,0.2,44.8c-13.3,0.4-26.6,0.6-40,1.2c-1.8,0.1-3.6,1.6-5.4,2.4
		c1.8,1.1,3.6,3,5.5,3.1c13.3,0.6,26.6,0.9,39.9,1.2c-0.1,7.3-0.2,14.5-0.4,21.8c-13.1,0-26.2-0.1-39.3,0.3c-2,0.1-4,2.3-6,3.5
		c1.9,1,3.9,2.8,5.8,2.8c13.1,0.3,26.2,0.2,39.3,0.2c0.1,19.4,0.2,38.7,0.3,58.1c-12,0-24-0.2-35.9,0.3c-3.2,0.1-6.3,2.2-9.5,3.4
		c3.3,1,6.6,2.9,9.9,3c11.7,0.4,23.4,0.2,35.1,0.3c0.1,7.6,0.1,15.2,0.2,22.7c-13,0-26-0.1-39,0.2c-2.1,0.1-4.1,2.1-6.2,3.2
		c2.1,1.1,4.1,3.1,6.2,3.2c13,0.3,26,0.2,39,0.2c0,19.4,0.1,38.7,0.1,58.1c-13.1,0-26.2-0.1-39.3,0.2c-2.6,0.1-5.1,2-7.6,3.1
		c0.3,1.2,0.6,2.4,1,3.5c15.2,0,30.4,0,45.6,0c0,7.6,0,15.2,0.1,22.7c-13.1,0-26.2,0-39.3,0.3c-2,0-3.9,1.8-5.8,2.8
		c2,1.2,3.9,3.5,5.9,3.5c13.1,0.4,26.2,0.2,39.3,0.3c0,39.2,0.1,78.4,0.1,117.5c-53.8,0.1-107.5,0.2-161.3,0.2
		c-1.1,0-2.1-0.4-3.7-0.7c0-141.1,0-281.9,0-424.5c29.3,0,58.6,0,88,0c0.2,6.6,0.4,13.2,0.5,19.8c0.2,13.3,3.5,16.7,16.6,16.8
		C235,114.9,255,115,274.9,115.1z M195.2,334.2c-17.7,0-35.3,0-53.1,0c0,18.9,0,37,0,55.2c18.9,0,37.1,0,55.7,0
		c0-13.7,0-26.9,0-40.1c5.6-5.7,11.5-11.2,16.5-17.4c1.7-2.1,0.9-6.1,1.3-9.2c-3.1,0.5-6.9,0-9.3,1.6
		C202.1,326.9,198.8,330.8,195.2,334.2z M197.5,295.2c0-19,0-37.1,0-55.4c-18.7,0-36.9,0-55.4,0c0,18.7,0,36.9,0,55.4
		C160.8,295.2,178.8,295.2,197.5,295.2z M141.9,200.4c19.2,0,37.4,0,55.6,0c0-18.7,0-36.8,0-55.1c-18.7,0-36.9,0-55.6,0
		C141.9,163.8,141.9,181.8,141.9,200.4z"/>
	<path class="st7" d="M274.6,356c-15.2,0-30.4,0-45.6,0c-0.3-1.2-0.6-2.4-1-3.5c2.5-1.1,5-3.1,7.6-3.1c13.1-0.4,26.2-0.2,39.3-0.2
		c44.6,0,89.1,0,133.7,0c2.2,0,4.5-0.3,6.7,0.2c1.3,0.3,2.2,1.9,3.3,2.9c-1.2,1.2-2.2,3-3.6,3.4c-2.1,0.6-4.4,0.2-6.6,0.2
		C363.8,355.8,319.2,355.9,274.6,356z"/>
	<path class="st5" d="M274.7,196.5c-13.1,0-26.2,0.1-39.3-0.2c-2,0-3.9-1.8-5.8-2.8c2-1.2,3.9-3.5,6-3.5c13.1-0.4,26.2-0.2,39.3-0.3
		c29.8,0,59.5,0,89.3,0.2c2.5,0,5,1.9,7.5,2.9c-2.6,1.2-5.1,3.5-7.7,3.5C334.3,196.4,304.5,196.4,274.7,196.5z"/>
	<path class="st5" d="M274.8,385.6c-13.1,0-26.2,0.1-39.3-0.3c-2-0.1-4-2.3-5.9-3.5c1.9-1,3.9-2.8,5.8-2.8
		c13.1-0.3,26.2-0.2,39.3-0.3c28.9,0.1,57.9,0.1,86.8,0.2c2.2,0,4.6-0.4,6.6,0.2c1.4,0.4,2.4,2.2,3.5,3.4c-1.1,1-2.1,2.4-3.4,2.8
		c-1.8,0.5-3.9,0.2-5.8,0.2C333.3,385.6,304,385.6,274.8,385.6z"/>
	<path class="st7" d="M274.6,261.5c-11.7,0-23.4,0.1-35.1-0.3c-3.3-0.1-6.6-2-9.9-3c3.2-1.2,6.3-3.3,9.5-3.4c12-0.4,24-0.2,35.9-0.3
		c29.5,0,59-0.1,88.5,0.1c2.7,0,5.5,2,8.2,3c-2.9,1.2-5.8,3.3-8.7,3.4C333.5,261.3,304.1,261.4,274.6,261.5z"/>
	<path class="st7" d="M275.2,167.8c-13.3-0.4-26.6-0.6-39.9-1.2c-1.9-0.1-3.7-2-5.5-3.1c1.8-0.8,3.6-2.3,5.4-2.4
		c13.3-0.6,26.6-0.8,40-1.2c13.9,0,27.8-0.2,41.6,0.1c2.2,0.1,4.4,2.5,6.6,3.8c-2.2,1.4-4.3,3.9-6.5,3.9
		C303,168.1,289.1,167.9,275.2,167.8z"/>
	<path class="st5" d="M274.8,291c-13,0-26,0.1-39-0.2c-2.1-0.1-4.1-2.1-6.2-3.2c2.1-1.1,4.1-3.1,6.2-3.2c13-0.3,26-0.2,39-0.2
		c13.9,0,27.8-0.1,41.7,0.3c2.3,0.1,4.5,2.3,6.7,3.6c-2.2,1-4.5,2.7-6.7,2.8C302.6,291.1,288.7,291,274.8,291z"/>
	<path class="st8" d="M197.5,295.2c-18.7,0-36.7,0-55.4,0c0-18.5,0-36.7,0-55.4c18.5,0,36.7,0,55.4,0
		C197.5,258.1,197.5,276.2,197.5,295.2z M189,248.4c-13.1,0-25.3,0-37.8,0c0,12.7,0,24.9,0,37.4c12.9,0,25.2,0,37.8,0
		C189,273.1,189,261.1,189,248.4z"/>
	<path class="st9" d="M141.9,200.4c0-18.6,0-36.6,0-55.1c18.7,0,36.9,0,55.6,0c0,18.3,0,36.4,0,55.1
		C179.3,200.4,161.1,200.4,141.9,200.4z M188.7,191.6c0-12.9,0-25.3,0-37.8c-12.8,0-24.9,0-37.4,0c0,12.9,0,25.3,0,37.8
		C164.2,191.6,176.3,191.6,188.7,191.6z"/>
	<path class="st10" d="M197.7,349.2c0,13.2,0,26.4,0,40.1c-18.6,0-36.8,0-55.7,0c0-18.2,0-36.2,0-55.2c17.8,0,35.4,0,53.1,0
		c-2.8,2.8-5.7,5.7-8.5,8.5c-10.3-0.1-20.6-0.4-30.9,0c-1.8,0.1-3.4,2.7-5.1,4.1c-9.8,4.9-3,9.5,0.2,14.2c0,6.5,0,12.9,0,19.4
		c13.3,0,25.6,0,38.3,0c0-7.9,0-15.3,0-22.7C192,354.9,194.9,352.1,197.7,349.2z"/>
	<path class="st11" d="M197.7,349.2c-2.8,2.8-5.7,5.7-8.5,8.5c-4.2,4-8.5,7.8-12.7,11.9c-7.9,7.7-8.4,7.7-16.6-0.3
		c-3-2.9-6.1-5.6-9.1-8.4c-3.2-4.7-10.1-9.3-0.2-14.2c6,4.6,12,9.1,18.6,14.1c5.7-5.9,11.6-12.1,17.4-18.2c2.8-2.8,5.7-5.7,8.5-8.5
		c3.6-3.4,6.9-7.3,11-9.9c2.4-1.6,6.1-1.1,9.3-1.6c-0.3,3.1,0.4,7.1-1.3,9.2C209.2,338.1,203.3,343.5,197.7,349.2z"/>
	<path class="st12" d="M189,248.4c0,12.7,0,24.7,0,37.4c-12.6,0-24.9,0-37.8,0c0-12.4,0-24.7,0-37.4
		C163.7,248.4,175.8,248.4,189,248.4z"/>
	<path class="st13" d="M188.7,191.6c-12.4,0-24.5,0-37.4,0c0-12.5,0-24.9,0-37.8c12.4,0,24.5,0,37.4,0
		C188.7,166.3,188.7,178.7,188.7,191.6z"/>
	<path class="st14" d="M150.9,360.9c3,2.8,6.1,5.5,9.1,8.4c8.1,8,8.7,8,16.6,0.3c4.1-4,8.4-7.9,12.7-11.9c0,7.4,0,14.7,0,22.7
		c-12.8,0-25.1,0-38.3,0C150.9,373.9,150.9,367.4,150.9,360.9z"/>
	<path class="st15" d="M186.6,342.7c-5.9,6.1-11.7,12.2-17.4,18.2c-6.6-5-12.6-9.6-18.6-14.1c1.7-1.4,3.4-4,5.1-4.1
		C166,342.3,176.3,342.6,186.6,342.7z"/>
</g>
</svg>
