<?xml version="1.0" encoding="utf-8"?>
<!-- Generator: Adobe Illustrator 23.0.2, SVG Export Plug-In . SVG Version: 6.00 Build 0)  -->
<svg version="1.1" id="Capa_1" xmlns="http://www.w3.org/2000/svg" xmlns:xlink="http://www.w3.org/1999/xlink" x="0px" y="0px"
	 viewBox="0 0 440 452.9" style="enable-background:new 0 0 440 452.9;" xml:space="preserve">
<style type="text/css">
	.st0{fill:#E09607;}
	.st1{fill:#D43E02;}
</style>
<g>
	<path class="st0" d="M368.7,436.9c-0.7-0.3-1.4-0.7-2.2-1c-7.2-4.8-9.2-11.9-9.1-20c0-6.7,0-13.4,0-20c0-6.7,0-13.3,0-20
		c0-6.7,0-13.4,0-20c0-6.7,0-13.3,0-20c0-6.7,0-13.4,0-20c0-6.7,0-13.3,0-20c0-6.7,0-13.4,0-20c0-6.7,0-13.3,0-20c0-6.7,0-13.4,0-20
		c0-6.7,0-13.3,0-20c0-6.7,0-13.4,0-20c0.3-8.1,4-14.1,11.3-17.9c6-0.4,11.9-0.8,17.9-1.2c0.7,0,1.3,0,2,0c6.7,0,13.3,0,20,0
		c0.7,0,1.3,0,2,0.1c12.9,3.5,16.5,8.3,16.5,21.6c0,72.7,0.1,145.5-0.1,218.2c0,4.7-1.8,9.3-2.7,14c-0.3,0.3-0.5,0.6-0.8,1
		c-1.6,1.4-3.3,2.8-4.9,4.2c-0.3,0.1-0.7,0.2-1,0.3c-0.4,0.2-0.7,0.4-1.1,0.6c-2.6,0.4-5.2,0.8-7.8,1.3c-6.7,0-13.3,0-20,0
		C382,437.6,375.4,437.3,368.7,436.9z"/>
	<path class="st1" d="M70.8,435.9c-1.5,0.6-3,1.1-4.6,1.7c-5.8,0.2-11.7,0.3-17.5,0.5c-6.7,0-13.4,0-20,0c-3.3-0.7-6.6-1.5-9.8-2.2
		c-6.4-4.5-8.8-10.6-8.8-18.4c0.2-32.6,0.1-65.2,0.2-97.8c0-13.7,4.9-19.3,18.5-21.1c6.7,0,13.3,0,20,0c6.7,0.4,13.4,0.8,20.1,1.2
		c6.1,3.2,10,8.2,11,15.1c0.1,7,0.1,14,0.2,21c0,6.7,0,13.3,0,20c0,6.7,0,13.4,0,20c0,6.7,0,13.3,0,20c0,6.7,0,13.4,0,20
		C80.1,424,78,431.1,70.8,435.9z"/>
	<path class="st1" d="M165.9,275.8c0.3,13.4,0.7,26.9,0.8,40.3c0.1,33.9,0,67.8,0,101.8c0,12.3-5.9,18.8-18,20.2
		c-6.6,0-13.2,0-19.8,0c-6.7-0.3-13.4-0.7-20.1-1c-1-0.4-1.9-0.8-2.9-1.2c-7.3-4.8-9.2-11.9-9.1-20c0-6.6,0-13.2,0-19.8
		c0-6.7,0-13.4,0-20.2c0-6.6,0-13.2,0-19.8c0-6.7,0-13.4,0-20.2c0-6.6,0-13.2,0-19.8c0-6.7,0-13.4,0-20.2c0.3-6.6,0.7-13.2,1-19.8
		c2.5-5.8,6.7-9.8,12.8-11.7c6.1-0.2,12.2-0.4,18.3-0.6c6.7,0,13.4,0,20.2,0C156.9,264.3,162.6,268.3,165.9,275.8z"/>
	<path class="st0" d="M253.8,415.8c0,9.2-2.1,17.5-11.9,20.7c-4.1,1.4-8.8,1-13.2,1.4c-6.7,0-13.3,0-20,0c-0.5-0.1-1-0.1-1.5-0.2
		c-17.7-0.4-22.2-4.6-23.6-22c0-6.7,0-13.3,0-20c0-6.7,0-13.3,0-20c0-6.7,0-13.3,0-20c0-6.7,0-13.3,0-20c0-6.7,0-13.3,0-20
		c0-6.7,0-13.3,0-20c0-6.7,0-13.3,0-20c0-6.7,0-13.3,0-20c0-6.7,0-13.3,0-20c0.2-7.2,0.3-14.4,6.2-19.9c5.6-4.5,12.3-4.1,18.9-4.3
		c6.7,0,13.3,0,20,0c1.8,0.1,3.6,0.1,5.5,0.2c12.1,0.1,19.2,7.1,19.4,19.1c0,1.7,0.2,3.3,0.2,5c0,6.7,0,13.3,0,20c0,6.7,0,13.3,0,20
		c0,6.7,0,13.3,0,20c0,6.7,0,13.3,0,20c0,6.7,0,13.3,0,20c0,6.7,0,13.3,0,20c0,6.7,0,13.3,0,20c0,6.7,0,13.3,0,20
		C253.8,402.5,253.8,409.2,253.8,415.8z"/>
	<path class="st1" d="M333.6,434.6c-1.3,0.7-2.6,1.5-3.9,2.2c-7,0.4-14,0.8-21,1.3c-6.7,0-13.3,0-20,0c-12.1-1.5-17.8-8-17.9-20.3
		c-0.1-7.3-0.2-14.6-0.2-21.9c0.1-1.8,0.2-3.6,0.2-5.5c0-37.1-0.1-74.2,0-111.2c0-7.3,0.8-14.5,1.2-21.8c3.5-6.8,9.1-10.4,16.7-11
		c6.7,0,13.3,0,20,0c6.6,0.3,13.2,0.6,19.8,0.9c3.4,2.9,6.7,5.8,10.1,8.7c0.7,6.7,1.4,13.3,2.1,20c0,6.7,0,13.3,0,20
		c0,6.7,0,13.3,0,20c0,6.7,0,13.3,0,20c0,6.7,0,13.3,0,20c0,6.7,0,13.3,0,20c0,6.7,0,13.3,0,20c0,6.7,0,13.3,0,20
		C340.7,423,339.2,429.6,333.6,434.6z"/>
	<path class="st0" d="M360.7,35.8c2.9-6.5,5.7-13,8.6-19.4c5.5-5.1,12-8.5,19.4-9.9c7.1-0.6,13.7,1.2,20,4.3
		c2.2,1.7,4.4,3.5,6.6,5.2c5,6.1,8.2,12.8,8.8,20.8c-1.8,6.4-3.6,12.7-5.3,19.1c-3.4,3.1-6.7,6.3-10.1,9.4c-6.3,3-12.8,4.7-19.9,4.2
		c-1.3-0.3-2.7-0.3-3.8-0.9c-4.5-2.5-7.8-1-11.5,2.1c-9.4,8.2-19,16.2-28.9,23.8c-5.3,4.1-9.3,8.2-7.8,15.6c0.4,1.9-0.4,3.9-0.6,5.9
		c-4.5,13.2-13.5,21-27.4,23.1c-15.4,0.3-26.5-6.2-32.6-20.6c-0.5-1.1-2-2.2-3.2-2.5c-8-1.6-16-3-24-4.5c-5.6-3.2-8.3,1.2-11.4,4.4
		c-3.4,1.6-6.8,3.2-10.2,4.7c-5.7,0-11.5,0-17.2,0c-2.7-1.9-5.1-1.4-7.4,0.9c-2.1,2-4.3,3.9-6.6,5.7c-10,7.8-20.2,15.5-30.1,23.5
		c-1.5,1.2-3,3.7-2.9,5.5c0.5,7-0.9,13.5-4.1,19.7c-3.4,3.6-6.9,7.2-10.3,10.7c-6.3,3.2-12.8,5-19.9,4.5c-3-0.8-6.5-1-9-2.5
		c-4.3-2.7-7.6-1.9-10.9,1.3c-3.4,2-6.8,3.9-10.1,5.9c-3.3,1.9-6.7,3.9-10,5.8c-5.6,3.5-14.3,4.3-12.5,14.3
		c-3.1,15.4-12.1,24.4-27.4,27.3c-7.1,0.5-13.8-0.8-20-4.1c-1.6-1.1-3.1-2.2-4.7-3.3c-5.4-5.6-9.2-12.1-10.4-19.9
		c-0.5-7,0.8-13.7,4-20c3.7-3.7,7.5-7.5,11.2-11.2c6.3-3.3,12.9-4.6,20-4.1c3.3,1,6.5,2.2,9.9,3c1.6,0.4,3.7,0.7,4.9,0
		c8.9-5,17.6-10.3,26.4-15.6c1.6-0.9,3.2-1.7,4.8-2.6c3.5-1.8,6.7-3.9,5.7-8.7c0.9-7.7,4.2-14.2,9.4-19.8c5.5-4.8,11.9-7.6,19-8.8
		c4.4,0.6,9,0.8,13.2,2c3.1,0.9,5.1,0.6,6.9-1.9c5.1-4.1,10.2-8.1,15.3-12.2c1.5-1.1,3-2.3,4.5-3.4c5.7-4.4,11.4-8.8,17-13.3
		c0.9-0.8,1.3-2.3,1.9-3.5c-0.1-1-0.2-2-0.3-3c0.2-0.3,0.1-0.6-0.2-0.8c0.3-15.4,7.7-26,21.7-32c6.6,0,13.2,0,19.9,0.1
		c6.7,3.1,13.9,6.5,16.4,13.5c3.3,9.4,10.1,11.2,18.3,12.1c1.8,0.2,3.6,0.5,5.4,0.8c2.7,0.6,5.4,1.5,8.2,1.7
		c1.6,0.2,3.8-0.1,4.7-1.1c7.2-8.1,16.5-11.1,27-11.1c2.4,0.6,4.9,0.9,7.2,1.9c2.7,1.2,4.6,0.9,6.7-1.2c2-2,4.2-3.7,6.3-5.6
		c6.2-5.1,12.5-10.2,18.7-15.4c0.4-0.3,0.8-0.7,1.1-1c1.9-1.5,3.8-3.2,5.9-4.4C360.2,47,363.1,42.6,360.7,35.8z"/>
</g>
</svg>
