<?xml version="1.0" encoding="utf-8"?>
<!-- Generator: Adobe Illustrator 23.0.2, SVG Export Plug-In . SVG Version: 6.00 Build 0)  -->
<svg version="1.1" id="Capa_1" xmlns="http://www.w3.org/2000/svg" xmlns:xlink="http://www.w3.org/1999/xlink" x="0px" y="0px"
	 viewBox="0 0 532.3 534" style="enable-background:new 0 0 532.3 534;" xml:space="preserve">
<style type="text/css">
	.st0{fill:#348ECC;}
	.st1{fill:#479BE1;}
	.st2{fill:#3C66A5;}
	.st3{fill:#2C5C8E;}
	.st4{fill:#3B65A5;}
	.st5{fill:#26598D;}
	.st6{fill:#245589;}
	.st7{fill:#365C94;}
	.st8{fill:#83622F;}
	.st9{fill:#6F5224;}
	.st10{fill:#CF9750;}
	.st11{fill:#9D7238;}
	.st12{fill:#D1A46B;}
	.st13{fill:#CE9D60;}
</style>
<g>
	<g>
		<path class="st0" d="M353,126c30.6,6.4,50.9,23,58.9,51.2c1.5,5.1,2,10.6,2,15.9c0.1,70.9,0,141.7,0.1,212.6
			c0,18-5.5,34.2-16.6,48.8c-1.1,1.5-2,3.1-2.9,4.6c-2.9,2.6-5.6,5.4-8.5,7.9c-19.3,16.4-42.5,24-68.5,24.2
			c-33.4,0.3-66.6,0.3-100,0c-15.8-0.2-31.1-3-45.6-9.7c-12.3-5.7-22.7-13.6-31.5-23.3c-14.3-17.5-19.7-37.2-19.5-58.9
			c0.5-68.6,0.1-137.1,0.2-205.7c0-33.5,23.7-60.3,59.1-67.4c1.4-0.2,2.7-0.3,4.1-0.5c1.6,1.9,3.4,3.8,5,5.8
			c10.3,13.8,24.8,20.8,43,21c25,0.2,49.9,0.3,75-0.1c6.7-0.1,13.7-2.2,20.2-4.2C339.3,144.3,347,136,353,126z"/>
		<path class="st1" d="M353,126c-6,9.9-13.7,18.4-25.7,22.3c-6.5,2.2-13.4,4.1-20.2,4.2c-24.9,0.5-49.9,0.3-75,0.1
			c-18.2-0.1-32.6-7.1-43-21c-1.5-2.1-3.2-3.9-5-5.8c-7.1-31.7-2-63.6-3.5-95.4c-0.1-1.8,1-3.8,1.5-5.7c11,2.2,21.8,4.3,32.7,6.5
			c26.6,5.1,53.5,5.6,80.4,3.7c9.2-0.7,18.3-2.5,27.4-3.8c11-2.2,21.9-4.2,32.9-6.4c0.5,1.6,1.5,3.1,1.5,4.7
			c0.1,25.4,0.4,50.8-0.1,76.2C357.2,112.4,354.5,119.2,353,126z M326.1,110.9c1.6-4.3,4.2-8.6,4.5-12.9c0.6-14.3,0.2-28.6,0.2-42.9
			c0-1.4-0.2-2.7-0.4-4c-2.7,0.2-5,0.6-7.3,0.8c-14.1,1.7-28,4.1-42.2,5c-22,1.4-44-0.9-65.5-4.9c-2.6-0.3-5.1-0.8-8-1.3
			c0,16.7-0.4,32.7,0.2,48.7c0.1,3.9,3.1,7.8,4.7,11.7c6.5,9.4,16.6,13.3,27.6,13.6c19.1,0.7,38.2,0.6,57.4,0
			C308.9,124.3,319.5,120.7,326.1,110.9z"/>
		<path class="st2" d="M140.6,458.4c8.8,9.7,19.2,17.5,31.5,23.3c14.3,6.7,29.8,9.5,45.6,9.7c33.4,0.3,66.6,0.3,100,0
			c26-0.2,49.2-7.9,68.5-24.2c3-2.5,5.7-5.3,8.5-7.9c0,10.1,0.2,20-0.1,30.1c-0.4,10.8-6.7,18-16.8,22.9
			c-13.6,6.5-28.4,8.9-43.3,10.4c-40.8,4-81.7,4.6-122.5,0.1c-16.9-1.8-33.5-4.8-48.9-11.9c-12-5.6-21.7-13.3-22.4-26.6
			C139.9,475.5,140.4,467,140.6,458.4z M267.6,513.2c7.3,0,14.8,0,22.2,0c4.7,0,8.2-1.5,8.2-6.3c0.1-4.8-3.5-6.5-8.1-6.5
			c-14.9,0-30-0.1-45,0c-4.7,0-8.1,1.8-8,6.6c0.1,4.8,3.7,6.2,8.5,6.2C252.7,513,260.2,513.2,267.6,513.2z M383.7,491.5
			c-0.4-4-2.7-5.7-7.1-4.8c-15.3,3.3-30.6,6.6-45.9,10.3c-2.2,0.6-4.9,2.2-5.9,4c-1,1.9-1.1,4.9-0.1,6.9c0.6,1.1,4.1,2.1,6.1,1.6
			c15.3-3.2,30.6-6.6,45.9-10.2C381,498.4,383.2,495.8,383.7,491.5z M211.5,503.7c-0.6-3.7-3.6-5.9-8.2-7
			c-14.4-3.1-28.8-6.4-43.1-9.6c-3.4-0.8-7-1.4-8.3,2.4c-1.4,3.7,0.4,6.6,3.7,8.8c1.2,0.8,2.9,1.3,4.4,1.6
			c14.3,3.2,28.8,6.5,43.1,9.6C208.7,510.8,211.7,508.9,211.5,503.7z"/>
		<path class="st3" d="M356,24.8c-11,2.2-21.9,4.2-32.9,6.4c0.4-8.1,4.4-11.2,13.1-9.8C342.8,22.4,349.4,23.7,356,24.8z"/>
		<path class="st3" d="M215.1,31.3c-11-2.2-21.8-4.3-32.7-6.5c7.7-1.4,15.4-3.1,23.3-3.9C211.4,20.4,214.9,24.6,215.1,31.3z"/>
		<path class="st4" d="M215.1,110.8c5.4-0.3,10.7-0.6,16.1-0.9c3.7,2.1,7.2,5.1,11.3,6.2c17.2,4.2,34.6,2.6,51.9,0.8
			c4.6-0.5,8.7-4.7,13-7.1c5.2,0.5,10.3,0.8,15.6,1.3c1.1,0,2.1,0,3.2,0c-6.6,9.7-17.2,13.4-28.8,13.7c-19.1,0.6-38.2,0.7-57.4,0
			c-11.1-0.5-21.3-4.3-27.6-13.6C213.3,110.9,214.3,110.8,215.1,110.8z"/>
		<path class="st5" d="M215.1,110.8c-1,0.1-1.9,0.1-2.9,0.2c-1.6-3.9-4.6-7.8-4.7-11.7c-0.5-16-0.2-32-0.2-48.7
			c2.7,0.5,5.4,0.8,8,1.3C215.3,71.5,215.3,91.2,215.1,110.8z"/>
		<path class="st6" d="M326.1,110.9c-1.1,0-2.1,0-3.2,0c0-19.7,0.1-39.5,0.1-59.1c2.2-0.2,4.6-0.5,7.3-0.8c0.1,1.4,0.4,2.7,0.4,4
			c0,14.3,0.4,28.6-0.2,42.9C330.4,102.4,327.7,106.6,326.1,110.9z"/>
		<path class="st7" d="M307.4,109.7c-4.4,2.5-8.5,6.6-13,7.1c-17.3,1.8-34.7,3.4-51.9-0.8c-4.1-1-7.6-4-11.3-6.2
			c10.8-0.8,21.7-1.7,32.5-2.5c0.4,3.2,0.6,6.6,5.4,6.7c5.1,0.1,5.5-3.3,5.7-6.9C285.6,108.1,296.5,108.9,307.4,109.7z"/>
		<path class="st8" d="M287.1,73.3c0.4,9.3-0.5,10.1-12.3,10.8c-3.7,0-7.5,0-11.2,0c-1,0-1.9,0-2.9-0.1c-9.7-1-10.3-1.6-9.7-10.9
			C263.1,77.7,275.2,77,287.1,73.3z"/>
		<path class="st9" d="M263.6,84.1c3.7,0,7.5,0,11.2,0c0,7.8,0,15.4,0,23.2c-0.2,3.4-0.7,7-5.7,6.9c-4.7-0.1-5-3.5-5.4-6.7
			c0-2.1,0-4.1,0-6.1c1.6-1,3.4-2.2,5-3.2c-1.6-1.8-3.1-3.7-4.7-5.5C263.8,89.8,263.7,86.9,263.6,84.1z"/>
		<path class="st10" d="M252.4,70.2c10.8-3.8,21.8-3.8,32.7-0.2C279.3,74.5,260.5,74.6,252.4,70.2z"/>
		<path class="st11" d="M264,92.6c1.6,1.8,3.1,3.7,4.7,5.5c-1.6,1-3.4,2.2-5,3.2c-4.2,0-8.3-0.1-12.6-0.1c3-2.5,2-5.1,0.1-7.8
			C255.6,93.1,259.7,92.9,264,92.6z"/>
		<path class="st12" d="M252.4,70.2c8.1,4.5,26.9,4.3,32.7-0.2c0.6,1.1,1.4,2.3,2,3.3c-12.1,3.7-24,4.3-36.1-0.1
			C251.5,72.2,252,71.1,252.4,70.2z"/>
		<path class="st13" d="M251.4,93.3c1.7,2.6,2.7,5.3-0.1,7.8c-3.6,0.5-7.1,0.2-6.8-4C244.4,93.3,247.6,92.5,251.4,93.3z"/>
	</g>
</g>
</svg>
