<?xml version="1.0" encoding="utf-8"?>
<!-- Generator: Adobe Illustrator 23.0.2, SVG Export Plug-In . SVG Version: 6.00 Build 0)  -->
<svg version="1.1" id="Capa_1" xmlns="http://www.w3.org/2000/svg" xmlns:xlink="http://www.w3.org/1999/xlink" x="0px" y="0px"
	 viewBox="0 0 59 59" style="enable-background:new 0 0 59 59;" xml:space="preserve">
<style type="text/css">
	.st0{fill:#6C6C6C;}
	.st1{fill:#FFFFFF;}
</style>
<g>
	<path class="st0" d="M56.2,59H2.8C1.3,59,0,57.7,0,56.2V2.8C0,1.3,1.3,0,2.8,0h53.3C57.7,0,59,1.3,59,2.8v53.3
		C59,57.7,57.7,59,56.2,59z"/>
	<path class="st1" d="M34.9,35.8c4.3,2.5,8.2,4.9,12.3,7.3c-2,1.9-3.4,4.5-6.4,4.8c-1.4,0.1-3,0-4.3-0.7
		c-7.5-3.7-13.7-9.2-18.8-15.8c-2.4-3.2-4.6-6.6-6.6-10c-2-3.5-1.4-6.2,1.6-9.1c0.5-0.5,1-0.9,1.6-1.5c2.4,3.7,4.7,7.3,7.3,11.2
		c-0.8,0.6-1.6,1.2-2.3,1.9c-1.1,1.1-1.1,1.8-0.1,2.8c3.7,3.7,7.4,7.4,11.1,11.2c0.8,0.9,1.7,0.9,2.5,0
		C33.7,37.4,34.3,36.6,34.9,35.8z"/>
	<path class="st1" d="M35.8,35.3c1.1-0.8,1.9-0.8,2.8-0.3c2.7,1.5,5.4,3.1,8.1,4.7c0.9,0.5,1.5,1.3,0.9,2.7
		C43.8,40,39.9,37.7,35.8,35.3z"/>
	<path class="st1" d="M22.2,21.1c-2.3-3.5-4.5-7-6.9-10.6c1-0.6,1.8-0.2,2.3,0.5c1.8,2.5,3.5,5,5.1,7.7c0.4,0.6,0.1,1.5,0.1,2.3
		C22.6,21,22.4,21,22.2,21.1z"/>
</g>
</svg>
