<?xml version="1.0" encoding="utf-8"?>
<!-- Generator: Adobe Illustrator 23.0.2, SVG Export Plug-In . SVG Version: 6.00 Build 0)  -->
<svg version="1.1" id="Capa_1" xmlns="http://www.w3.org/2000/svg" xmlns:xlink="http://www.w3.org/1999/xlink" x="0px" y="0px"
	 viewBox="0 0 529.1 530.8" style="enable-background:new 0 0 529.1 530.8;" xml:space="preserve">
<style type="text/css">
	.st0{fill:#FDCCB3;}
	.st1{fill:#4F6074;}
	.st2{fill:#6B809A;}
	.st3{fill:#030302;}
	.st4{fill:#E5E6E6;}
	.st5{fill:#E7E6E6;}
	.st6{fill:#D2AA97;}
	.st7{fill:#D1AB99;}
	.st8{fill:#D0AC9A;}
	.st9{fill:#506175;}
	.st10{fill:#727F8F;}
	.st11{fill:#E6E6E6;}
	.st12{fill:#04BAD2;}
	.st13{fill:#F4FAFB;}
	.st14{fill:#F2FAFA;}
	.st15{fill:#0AAABF;}
</style>
<g>
	<path class="st0" d="M193.2,268.2c-7-16.3-13.8-32.5-20.9-48.8c-0.9-1.9-2.3-3.6-3.4-5.4c-0.2-3.4-0.3-7-0.5-10.4
		c-1.1-13.6-2.3-27.2-3.4-41c3.2-17.2,5.6-34.4,10-51.3c2.5-9.4,8.4-18.1,12.9-27.4c51,27.9,100.8,29.8,152.2,7.7
		c2,3.4,4.6,6.3,5.6,9.8c4.8,17.7,9.1,35.5,13.7,53.2c0.8,3,2.4,5.9,3.6,8.8c-2.5,16.9-4.9,33.9-7.4,50.8
		c-8.3,19.8-16.5,39.8-24.8,59.6c-2.9,3-5.8,6.1-8.8,9c-5.9,5.9-11.6,12-17.9,17.5c-14.7,13-32.8,10.7-50.5,10.9
		c-14.8,0.1-27.4-5-37.5-15.6c-7.3-7.6-13.9-15.8-20.9-23.7c-0.1-0.6-0.2-1.3-0.3-1.9C194.4,269.5,193.8,268.8,193.2,268.2z"/>
	<path class="st1" d="M336.6,513.4c-29.8,8.5-82.7,16.9-147.8-1.4c-14.4-27.5-27.7-52.6-42.5-79.8c-3.1-5.8-4.3-10.5-0.8-16.3
		c4-6.4,7.3-13.3,11.3-20.7c-6.3-2.1-11.3-3.9-16.2-5.5c-11.8-3.8-12.4-5.5-10.3-17.9c1.5-8.8,2.1-17.8,3.1-26.6
		c11.2-4.8,22.2-9.7,33.4-14.5c3.6,7.3,7.4,14.6,11,22c2.5,5,5,10,7.5,15c0.2,0.6,0.4,1.2,0.6,1.8c0.4,0.8,0.9,1.4,1.3,2.1
		c0.5,1.2,1.2,2.3,1.7,3.4c1.9,3.9,3.9,7.6,5.7,11.5c0.9,1.8,1.6,3.6,2.5,5.5c0.4,0.6,0.9,1.4,1.3,2c0.9,1.8,1.6,3.6,2.5,5.5
		c0.4,0.6,0.9,1.3,1.3,2c0.9,1.8,1.6,3.6,2.5,5.5c0.4,0.6,0.9,1.3,1.3,1.9c1.6,3.1,3.2,6.2,4.8,9.2c7,13.6,13.9,27.1,20.8,40.8
		c7,14.9,13.7,29.9,20.8,44.7c2.6,5.3,6.1,10.1,9.2,15.1c3.3-5.1,7.3-10,10-15.4c7.2-14.8,13.9-29.8,20.8-44.7
		c7-13.4,13.9-26.7,20.9-40.1c1.6-3,3.4-5.9,4.9-8.9c13.6-26.4,27.1-52.9,40.7-79.3c10.5,4.9,21.1,10,31.6,14.9
		c1.3,11,2.6,22.1,3.8,33.1c0.6,5.7-0.8,9.2-7.4,10.4c-6.4,1.2-12.5,4.2-19.8,6.8c4.5,8.2,8.8,15,11.9,22.3
		c1.4,3.2,1.7,8.2,0.2,11.2c-12,23.8-24.7,47.3-36.9,71C339.2,506.5,339.8,506.4,336.6,513.4z"/>
	<path class="st2" d="M189,511.9c0,0-27.8-52.6-42.6-79.8c-3.1-5.8-4.3-10.5-0.8-16.3c4-6.4,7.3-13.3,11.3-20.7
		c-6.3-2.1-11.3-3.9-16.2-5.5c-11.8-3.8-12.4-5.5-10.3-17.9c1.5-8.8,2.1-17.8,3.1-26.6c-18.9,7-38.3,12.7-56.5,21.1
		c-16.2,7.6-39.3,30.6-39.5,31.3s0.2,0.9,0.3,1.3C100.6,494.2,189,511.9,189,511.9z"/>
	<path class="st2" d="M336.6,513.4c1.2-3,2.5-6.8,6-13.6c12.2-23.7,24.9-47.2,36.9-71c1.5-3,1.1-7.9-0.2-11.2
		c-3.1-7.3-7.4-14.2-11.9-22.3c7.3-2.6,13.4-5.7,19.8-6.8c6.7-1.2,8-4.7,7.4-10.4c-1.2-11-2.5-22.1-3.8-33.1
		c21.3,8.4,43.4,15,63.7,25.4c18.8,9.7,29.1,19.5,35,33.8C451.9,467.5,374.2,504.6,336.6,513.4z"/>
	<path class="st3" d="M362.9,163.4c-1.2-2.9-2.9-5.7-3.6-8.8c-4.6-17.7-8.9-35.5-13.7-53.2c-1-3.4-3.5-6.3-5.6-9.8
		c-51.4,22.1-101.3,20.3-152.2-7.7c-4.5,9.3-10.4,17.9-12.9,27.4c-4.4,16.8-6.8,34.1-10,51.3c-1.3-3.5-2.5-7-3.8-10.5
		c-1.1-13.6-2.6-27.4-3-41.1c-1.2-34.3,8-62.5,39.6-82.6C239.8,1.5,322.3-8.4,365,58.9c3.5,5.6,6.9,10.4,0.5,16.3
		c-1.3,1.3-1.1,4.5-1.1,6.9c0,24.6,0.1,49.1,0.2,73.7C364.2,158.3,363.5,160.8,362.9,163.4z"/>
	<path class="st4" d="M359.1,330.1c-13.5,26.4-27.1,52.9-40.7,79.3c-1.5,3-3.3,5.9-4.9,8.9c-7.2-7-14.5-14.1-21.7-21
		c-8.6-10-16.9-20.2-25.9-29.9c-1.3-1.4-4.6-1-7-1.3c-0.2-2-0.4-4.1-0.6-6.1c4.8,3.6,7.7,0.5,10.9-2.7c18.6-18.7,37.3-37,55.6-56
		c3.4-3.5,4.4-9.5,6.4-14.4c1.2,12.8,11.4,19.7,18.1,28.9C353,320.3,356,325.2,359.1,330.1z"/>
	<path class="st5" d="M258.5,359.9c0.2,2,0.4,4.1,0.6,6.1h-0.2c-8.8-1.1-10.1,4.3-9.5,11.3c-0.9,1.1-1.7,2.1-2.6,3.2
		c-1.1,1.2-2.3,2.4-3.3,3.5l-0.1,0.1c-1.2,1.3-2.4,2.6-3.5,3.8l0,0c-1.2,1.3-2.4,2.6-3.5,3.9l0,0c-1.3,1.1-2.7,1.9-3.9,3.1
		c-7.2,7.6-14.3,15.3-21.3,23.1c-1.6-3.1-3.2-6.2-4.8-9.2c-0.4-0.6-0.9-1.3-1.3-1.9c-0.9-1.8-1.6-3.6-2.5-5.5
		c-0.4-0.6-0.9-1.3-1.3-2c-0.9-1.8-1.6-3.6-2.5-5.5c-0.4-0.6-0.9-1.4-1.3-2c-0.9-1.8-1.6-3.6-2.5-5.5c-1.9-3.9-3.9-7.6-5.7-11.5
		c-0.5-1.2-1.2-2.3-1.7-3.4c-0.4-0.8-0.9-1.4-1.3-2.1c-0.2-0.6-0.4-1.2-0.6-1.8c2.1-6.7-1.3-13.4-7.5-15c-3.6-7.3-7.4-14.6-11-22
		c4.2-6.5,8.2-13.3,12.8-19.4c4.1-5.4,8.9-10,13.4-15c0.6,0,1.2,0,1.8,0.1C216,317.4,237.3,338.6,258.5,359.9z M227.8,365
		c-0.5-0.2-1.1-0.4-1.5-0.6c-0.2,0.5-0.8,1.2-0.5,1.5c0.1,0.3,1,0.4,1.5,0.8C227.4,366,227.6,365.5,227.8,365z"/>
	<path class="st6" d="M258.5,359.9c-21.2-21.2-42.4-42.5-63.6-63.6c-0.5-1.9-1-3.9-1.5-5.9c0.6-6.1,1.2-12.2,1.8-18.3
		c7,7.9,13.6,16.1,20.9,23.7c10.2,10.6,22.7,15.8,37.5,15.6c17.6-0.1,35.7,2.1,50.5-10.9c6.2-5.5,11.9-11.7,17.9-17.5
		c3-3,5.9-6,8.8-9c0.2,4.3,0.4,8.6,0.6,13c-2,4.8-3,10.8-6.4,14.4c-18.1,19-37,37.3-55.6,56C266.2,360.4,263.2,363.5,258.5,359.9z"
		/>
	<path class="st7" d="M161.2,152.1c1.3,3.5,2.5,7,3.8,10.5c1.2,13.6,2.4,27.2,3.4,41c0.3,3.4,0.4,7,0.5,10.4
		c-16.1-10-20.9-25.2-14.4-46.6C156.2,162.1,159,157.2,161.2,152.1z"/>
	<path class="st8" d="M362.9,163.4c0.6-2.5,1.2-5,1.8-7.5c15.2,22.6,10.6,49.3-9.2,58.5C357.9,197.3,360.4,180.3,362.9,163.4z"/>
	<path class="st9" d="M409.2,481.8c0,0,1.7-9.5,2.6-14.3c0.8,0,1.4,0.1,2.1,0.1c0.4,3.4,1.4,10.3,1.4,10.3L409.2,481.8z"/>
	<path class="st9" d="M113.9,475.3c-0.4-2.6-1-5.3-1.4-7.8c-0.8,0.1-1.6,0.3-2.4,0.4c-0.2,1.5-0.3,2.9-0.5,4.4
		C111,473.3,112.4,474.3,113.9,475.3z"/>
	<path class="st10" d="M420.7,520.7"/>
	<path class="st11" d="M193.4,290.4c0.5,1.9,1,3.9,1.5,5.9c-0.6,0-1.2,0-1.8-0.1C193.2,294.2,193.3,292.3,193.4,290.4z"/>
	<path class="st11" d="M193.2,268.2c0.5,0.6,1.1,1.3,1.6,1.9C194.4,269.5,193.8,268.8,193.2,268.2z"/>
	<path class="st12" d="M292.7,458.3c-6.9,14.9-13.6,30-20.8,44.7c-2.7,5.5-6.7,10.3-10,15.4c-3.1-5-6.7-9.9-9.2-15.1
		c-7.2-14.8-13.9-29.8-20.8-44.7c2.9-14.9,5.8-29.9,8.7-44.8c2.7-2.4,5.1-6.7,7.9-6.9c11.6-0.8,23.2-0.3,35.2-0.3
		c0.4,3.6,0.8,6.3,1.1,9c0.6-0.8,1.3-1.5,1.8-2.3C288.6,428.5,290.7,443.4,292.7,458.3z"/>
	<path class="st13" d="M240.6,413.8c-2.9,14.9-5.8,29.9-8.7,44.8c-7-13.6-13.9-27.1-20.8-40.8c7.1-7.7,14.2-15.4,21.3-23.1
		c1.1-1.2,2.6-2.1,3.9-3.1c0.4,2.9,0.6,5.8,1.2,8.7C238.3,404.9,239.5,409.4,240.6,413.8z"/>
	<path class="st14" d="M292.7,458.3c-2-14.9-4-29.8-6-44.7c1.7-5.5,3.4-10.9,5.1-16.4c7.2,7,14.5,14.1,21.7,21
		C306.6,431.5,299.7,444.9,292.7,458.3z"/>
	<path class="st11" d="M177.9,352.5c6.2,1.6,9.7,8.4,7.5,15C183,362.5,180.4,357.5,177.9,352.5z"/>
	<path class="st11" d="M189.2,374.9c1.9,3.9,3.9,7.6,5.7,11.5C193.1,382.6,191.1,378.8,189.2,374.9z"/>
	<path class="st11" d="M186.2,369.3c0.4,0.8,0.9,1.4,1.3,2.1C187.1,370.8,186.6,370.1,186.2,369.3z"/>
	<path class="st11" d="M197.5,391.8c0.4,0.6,0.9,1.4,1.3,2C198.3,393.1,197.9,392.5,197.5,391.8z"/>
	<path class="st11" d="M201.2,399.4c0.4,0.6,0.9,1.3,1.3,2C202.1,400.6,201.7,400,201.2,399.4z"/>
	<path class="st11" d="M205,406.8c0.4,0.6,0.9,1.3,1.3,1.9C205.8,408,205.4,407.4,205,406.8z"/>
	<path class="st15" d="M291.9,397.2c-1.7,5.5-3.4,10.9-5.1,16.4c-0.6,0.8-1.3,1.5-1.8,2.3c-0.3-2.7-0.6-5.4-1.1-9
		c-11.9,0-23.6-0.4-35.2,0.3c-2.8,0.2-5.4,4.4-7.9,6.9c-1.1-4.5-2.3-8.9-3.2-13.4c-0.6-2.9-0.8-5.8-1.2-8.7l0,0
		c1.2-1.3,2.4-2.6,3.5-3.9l0,0c1.2-1.3,2.4-2.6,3.5-3.8l0.1-0.1c1.1-1.2,2.3-2.4,3.3-3.5c0.9-1.1,1.7-2.1,2.6-3.2
		c3.2-3.8,6.3-7.5,9.5-11.3h0.2c2.4,0.4,5.7-0.1,7,1.3C274.9,377,283.3,387.1,291.9,397.2z"/>
	<path class="st4" d="M258.8,366c-3.2,3.8-6.3,7.5-9.5,11.3C248.7,370.3,250.1,364.9,258.8,366z"/>
	<path class="st4" d="M227.8,365c-0.2,0.5-0.4,1.1-0.6,1.5c-0.5-0.2-1.3-0.3-1.5-0.8c-0.1-0.4,0.3-1,0.5-1.5
		C226.9,364.5,227.3,364.7,227.8,365z"/>
	<path class="st4" d="M246.8,380.5c-1.1,1.2-2.3,2.4-3.3,3.5C244.6,382.8,245.6,381.7,246.8,380.5z"/>
	<path class="st11" d="M243.4,384.1c-1.2,1.3-2.4,2.6-3.5,3.8C241,386.7,242.2,385.4,243.4,384.1z"/>
	<path class="st11" d="M239.8,388c-1.2,1.3-2.4,2.6-3.5,3.9C237.4,390.6,238.7,389.3,239.8,388z"/>
</g>
</svg>
