<?xml version="1.0" encoding="utf-8"?>
<!-- Generator: Adobe Illustrator 23.0.2, SVG Export Plug-In . SVG Version: 6.00 Build 0)  -->
<svg version="1.1" id="Capa_1" xmlns="http://www.w3.org/2000/svg" xmlns:xlink="http://www.w3.org/1999/xlink" x="0px" y="0px"
	 viewBox="0 0 529.1 530.8" style="enable-background:new 0 0 529.1 530.8;" xml:space="preserve">
<style type="text/css">
	.st0{fill:#31324C;}
	.st1{fill:#FF0000;}
	.st2{fill:#449CFC;}
	.st3{fill:#FDC256;}
	.st4{fill:#25BF00;}
	.st5{fill:#32334D;}
	.st6{fill:#FEC358;}
	.st7{fill:#31324D;}
</style>
<g>
	<path class="st0" d="M163.6,431.5c1-6,27.8-166,27.8-166s3.1-14,13.2-15.6c2.4-0.6,10.1-1.3,10.1-1.3L191,137.7
		c0,0-4.9-20.4,15.4-25.5c17.4-4.3,81.6-19.9,81.6-19.9s44-10.8,65.6-16c38.7-9.5,77.4-18.9,116.1-28.5c13.7-3.4,22.3,2.5,25.5,17
		c11,50.3,22,100.5,32.9,150.8c3.3,15.1-2,24.2-16.1,27.7c-45.4,11.2-90.9,22.3-136.4,33.4c-2.2,0.6-4.3,1.2-8.1,2.2
		c39,7.6,76.3,14.9,113.5,22.3c13.7,2.7,19.1,11.2,16.6,26c-5.5,32.7-11.3,65.4-17.1,98.1c-3.1,17.6-6.2,35.1-9.2,52.7
		c-2.9,17.5-10.9,23.3-27.3,20.1c-51-10.1-143.1-28.7-153.4-30C173,442.6,163.6,444,163.6,431.5z M490.9,90
		c-1.6-7.6-3.2-15.2-4.9-22.9c-2.3-9.6-5.4-11.7-14.3-9.5c-22.5,5.5-44.9,11-67.5,16.4c-65.1,16-129.9,31.8-194.9,47.6
		c-8.8,2.1-11.2,5.9-9.2,15.2c1.6,7.6,3.4,15.2,5.1,22.9c3.1,14.7,6,29.4,9.1,44.1c2.6-0.4,4.2-0.7,5.8-1
		c68.1-16.6,136.2-33.3,204.3-49.7c3.1-0.8,6.3-0.2,9.4-0.3c3.1,6.9-1.1,8.4-6.2,9.6c-54.4,13.2-108.9,26.6-163.3,39.8
		c-15.7,3.8-31.4,7.7-47.4,11.7c2.5,11.2,5,21.5,6.9,32c0.8,4.4,2.5,5.8,6.6,6.6c36.3,6.9,72.7,14.2,109,21.2c2.8,0.6,6,0.2,8.8-0.4
		c19.1-4.6,38.3-9.3,57.4-14c34.6-8.4,69.3-16.8,103.9-25.3c8.3-2,11.3-5.7,9.7-12.9c-6-28.1-12.3-56.1-18.6-84.2
		C497.6,121.2,494.2,105.6,490.9,90z M484.4,348c1.2-6.9,2.7-13.9,3.8-20.8c1.8-11.4-0.3-14.3-11-16.5
		c-58.9-11.4-117.6-22.9-176.3-34.4c-28.9-5.6-57.6-11.3-86.5-16.9c-9.5-1.8-12.7,0.6-14.5,10.5c-1.4,7.2-2.4,14.5-3.5,21.6
		c-2.9,14.9-5.8,29.9-8.7,45.1c2.5,0.7,4.1,1.2,5.7,1.5c68.6,13.3,137.1,26.7,205.7,40.1c3.2,0.7,6.2,2.6,9.3,3.9
		c0.7,9.1-5.2,6.9-9.7,6c-58.6-11.4-117.3-22.9-175.9-34.3c-11.9-2.4-23.9-4.6-36-6.9c-4.5,26.2-9.1,51.4-13.2,76.7
		c-1.4,8.1,1.6,11.7,9.4,13.1c9.1,1.8,18.2,3.6,27.3,5.4c79.6,15.5,159,31,238.6,46.4c8.1,1.6,11.8-1,13.2-9.5
		c4.9-28.1,9.7-56.4,14.6-84.5C479,379.2,481.8,363.6,484.4,348z"/>
	<path class="st1" d="M500.9,136.7c6.2,28,12.6,56.1,18.6,84.2c1.6,7.2-1.6,10.9-9.7,12.9c-34.6,8.5-69.3,16.9-103.9,25.3
		c-19.1,4.7-38.3,9.4-57.4,14c-2.8,0.7-6,1-8.8,0.4c-36.3-6.9-72.7-14.2-109-21.2c-4.1-0.8-5.8-2.2-6.6-6.6c-1.9-10.5-4.4-21-6.9-32
		c16.1-3.9,31.8-7.8,47.4-11.7c54.4-13.3,108.9-26.6,163.3-39.8c5.1-1.2,9.3-2.8,6.2-9.6c2.7-0.6,5.4-1.1,8-1.8
		C461.6,146.1,481.3,141.4,500.9,136.7z M359.2,232.7c13.5-3.2,25.9-6.2,38.1-9.4c3.8-1,10.4-0.3,8.9-7.3c-1.6-6.9-7.2-3.1-11.1-2.2
		c-12,2.7-23.9,5.5-35.7,8.9c-1.8,0.6-3.7,3.8-4.2,6C355.2,229.8,358.2,231.7,359.2,232.7z M310.1,241.9c0-0.9,0-1.8,0-2.6
		c-2.4-1.1-4.9-3.5-6.9-3c-13.2,2.9-26.5,6.2-39.6,9.9c-1.8,0.4-2.8,4-4.2,6.2c2.3,1,4.8,3.2,6.7,2.9c12.9-2.7,25.6-5.9,38.4-9.3
		C306.4,245.4,308.1,243.4,310.1,241.9z"/>
	<path class="st2" d="M476.3,394.8c-4.9,28.1-9.6,56.4-14.6,84.5c-1.5,8.5-5.1,11.1-13.2,9.5c-79.6-15.5-159.1-30.9-238.6-46.4
		c-9.1-1.8-18.2-3.6-27.3-5.4c-7.8-1.6-10.8-5.2-9.4-13.1c4.2-25.3,8.7-50.5,13.2-76.7c12.2,2.4,24.1,4.6,36,6.9
		c58.6,11.4,117.3,23,175.9,34.3c4.5,0.9,10.4,3,9.7-6c3.2,0.4,6.5,0.7,9.6,1.3C437.4,387.3,456.9,391,476.3,394.8z M263.6,386.4
		c-1.5-1-3.4-3.4-5.7-3.8c-12.9-2.8-25.9-4.8-38.7-7.7c-5.2-1.2-7.2,0.1-8,5.4c-1.8,11.3-3.8,22.5-5.9,33.8c-0.7,4,0.9,5.9,4.5,6.6
		c13.8,2.6,27.6,5.4,41.5,7.7c1.6,0.2,4.9-1.9,5.2-3.5C259.1,412.9,261.2,400.7,263.6,386.4z M389.5,452.1c1-1.1,4.2-3.7,3.8-4.4
		c-1.2-2.4-3.3-5.4-5.5-5.8c-21.7-4.6-43.5-8.9-65.2-12.7c-2.2-0.3-4.8,2.2-7.1,3.5c1.8,2,3.3,5.4,5.3,5.9c8.9,2.4,18,3.9,27.1,5.6
		C361.2,446.7,374.6,449.2,389.5,452.1z M395.2,425.9c1.1-1.3,4.1-4,3.7-4.7c-1.4-2.4-3.5-5.3-5.9-5.7c-21.5-4.5-43.1-8.6-64.7-12.4
		c-2.2-0.3-4.8,2-7.2,3.2c1.9,2.1,3.6,5.6,6,6c14.5,3.2,29.1,5.9,43.6,8.7C378.3,422.5,386,424.1,395.2,425.9z"/>
	<path class="st3" d="M476.3,394.8c-19.5-3.7-39-7.5-58.5-11.2c-3.2-0.6-6.3-0.9-9.6-1.3c-3.1-1.3-6.1-3.2-9.3-3.9
		c-68.5-13.4-137.1-26.8-205.7-40.1c-1.6-0.3-3.1-0.8-5.7-1.5c2.9-15.2,5.9-30.1,8.7-45.1c1.4,0.4,2.6,0.9,4,1.2
		c51.5,10,103,19.9,154.6,29.9c43.1,8.4,86.2,16.8,129.4,25.2C481.8,363.6,479,379.2,476.3,394.8z"/>
	<path class="st3" d="M500.9,136.7c-19.7,4.7-39.3,9.4-59,14.1c-2.7,0.7-5.3,1.2-8,1.8c-3.2,0.1-6.5-0.3-9.4,0.3
		c-68.1,16.5-136.2,33.2-204.3,49.7c-1.6,0.3-3.2,0.6-5.8,1c-3.1-14.9-6.1-29.5-9.1-44.1c4.1-0.9,8.1-1.6,12.2-2.6
		c91.1-22.3,182.2-44.6,273.3-67C494.2,105.6,497.6,121.2,500.9,136.7z"/>
	<path class="st1" d="M490.9,90c-91.1,22.3-182.2,44.7-273.3,67c-4.1,1-8.1,1.8-12.2,2.6c-1.7-7.6-3.5-15.2-5.1-22.9
		c-1.9-9.2,0.3-13,9.2-15.2c65-15.7,129.8-31.5,194.8-47.4c22.5-5.5,44.9-11,67.5-16.4c8.9-2.1,12.1-0.1,14.3,9.5
		C487.8,74.8,489.2,82.5,490.9,90z"/>
	<path class="st2" d="M484.4,348c-43.1-8.4-86.2-16.8-129.4-25.2c-51.5-10-103-19.9-154.6-29.9c-1.4-0.2-2.7-0.8-4-1.2
		c1.1-7.2,2.2-14.5,3.5-21.6c1.8-10,5-12.4,14.5-10.5c28.9,5.6,57.6,11.3,86.5,16.9c58.7,11.4,117.6,23,176.3,34.4
		c10.6,2,12.8,5,11,16.5C487.2,334.1,485.7,341.1,484.4,348z"/>
	<g>
		<path class="st4" d="M147.1,47c13,3.6,30.9,7.5,48,14.1c19.3,7.5,28.2,22.9,19.6,47.2c-8.6,24.8-22.6,23.2-40.1,13.2
			c-10.2-5.9-21.6-8.7-34.5-13.7c0,34.4,0,65.8,0,98.6c50.8,22,91.9,54.5,85.9,128.9c-4.6,56.9-27.9,85.7-79.6,103.8
			c-8.4,13-12.6,26.5-20.3,30c-13.1,6.1-17.5-6.2-20.7-20.3c-1.1-4.5-12.3-5.7-18.6-9c-22.3-11.8-45.6-21.7-65.9-37
			c-14.4-10.8-16.7-30.4-7.4-49.1c8.9-18.2,20-23.8,36.6-10.6c16.5,13.2,34.2,24.1,56.8,39.9c0-41.1,1.2-72.9-0.9-104.3
			c-0.5-7.5-11.7-16.5-19.6-20.5C33,230.9,13.4,198.3,17.6,142.2C21.3,94,46.9,69,83.5,55c10.9-4.2,25.4-2.6,25.2-24.3
			c0-3.3,12.3-11.3,14.9-9.4C131.9,26.9,137.8,36.2,147.1,47z M135.6,375.6c21-6.4,33.8-18.2,34-43.6c0.2-26.9-12.4-41.1-34-49.1
			C135.6,314.2,135.6,343.5,135.6,375.6z M109.1,111.4c-20.2,5.6-34.7,12.8-35.1,36.8c-0.4,26,15.4,35,35.1,42.5
			C109.1,164.1,109.1,139.6,109.1,111.4z"/>
	</g>
	<path class="st5" d="M359.2,232.7c-1-1-4.1-2.9-3.8-3.9c0.5-2.4,2.3-5.6,4.2-6c11.8-3.4,23.8-6.2,35.7-8.9
		c3.8-0.9,9.5-4.7,11.1,2.2c1.6,6.9-5.1,6.3-8.9,7.3C385.1,226.6,372.8,229.5,359.2,232.7z"/>
	<path class="st5" d="M310.1,241.9c-1.9,1.3-3.6,3.5-5.7,4c-12.7,3.4-25.5,6.5-38.4,9.3c-1.9,0.4-4.4-1.9-6.7-2.9
		c1.4-2.1,2.4-5.7,4.2-6.2c13.1-3.7,26.4-6.9,39.6-9.9c2-0.4,4.6,1.9,6.9,3C310.1,240.2,310.1,241.1,310.1,241.9z"/>
	<path class="st6" d="M263.6,386.4c-2.5,14.1-4.5,26.4-7.1,38.5c-0.3,1.6-3.6,3.7-5.2,3.5c-13.9-2.4-27.7-5.2-41.5-7.7
		c-3.6-0.7-5.2-2.7-4.5-6.6c2-11.2,4.1-22.5,5.9-33.8c0.9-5.3,2.9-6.6,8-5.4c12.8,2.9,25.8,4.9,38.7,7.7
		C260.3,383.1,262.2,385.4,263.6,386.4z"/>
	<path class="st5" d="M389.5,452.1c-14.8-2.8-28.2-5.4-41.5-8c-9.1-1.8-18.2-3.4-27.1-5.6c-2.2-0.6-3.6-3.8-5.3-5.9
		c2.4-1.2,5-3.8,7.1-3.5c21.8,3.9,43.6,8.2,65.2,12.7c2.3,0.4,4.3,3.5,5.5,5.8C393.6,448.3,390.4,451,389.5,452.1z"/>
	<path class="st7" d="M395.2,425.9c-9.1-1.8-16.9-3.4-24.6-4.8c-14.5-2.9-29.1-5.5-43.6-8.7c-2.3-0.6-4-3.9-6-6
		c2.4-1.1,5-3.6,7.2-3.2c21.6,3.8,43.2,8,64.7,12.4c2.3,0.4,4.5,3.4,5.9,5.7C399.2,421.8,396.2,424.6,395.2,425.9z"/>
</g>
</svg>
